<svg xmlns="http://www.w3.org/2000/svg" version="1.1">
    <rect
       fill="blue"
       width="129.26785"
       height="57.452377"
       x="50.270832"
       y="109.14583" />
    <circle
       fill="green"
       cx="63.74744"
       cy="163.2337"
       r="3.0735993" />
    <rect
       fill="black"
       width="10.299851"
       height="7.2097468"
       x="79.044273"
       y="159.36484" />
    <rect
       fill="black"
       width="7.6540174"
       height="18.119236"
       x="84.95015"
       y="148.45535" />
    <circle
       fill="red"
       cx="102.43156"
       cy="163.18462"
       r="3.0735993" />
    <rect
       fill="black"
       width="8.600029"
       height="5.0081882"
       x="92.219963"
       y="148.45535" />
    <rect
       fill="black"
       width="18.708866"
       height="1.3374997"
       x="50.250607"
       y="148.19595" />
    <rect
       fill="black"
       width="22.05"
       height="2.9318585"
       x="112.25322"
       y="156.95888" />
    <rect
       fill="black"
       width="1.4723251"
       height="44.864975"
       x="178.06636"
       y="109.14582" />
    <rect
       fill="black"
       width="3.1404169"
       height="9.6217022"
       x="131.16251"
       y="156.95888"/>
	<rect
       fill="black"
       width="3.3408689"
       height="9.6217022"
       x="111.98593"
       y="156.95078"/>
	<rect
       fill="black"
       width="18.708866"
       height="2"
       x="134.30292"
       y="147.33717" />
    <circle
       fill="red"
       cx="143.73796"
       cy="143.72418"
       r="3.0735993" />
    <circle
       fill="red"
       cx="143.74467"
       cy="163.5752"
       r="3.0735993" />
    <rect
       fill="black"
       width="2.2049735"
       height="9.6217022"
       x="164.05486"
       y="156.91164" />
	<rect
       fill="black"
       width="1.2924321"
       height="17.070761"
       x="50.250607"
       y="149.53345" />
    <rect
       fill="black"
       width="85.516151"
       height="1.3374997"
       x="94.02253"
       y="109.14583" />
    <rect
       fill="black"
       width="22.183371"
       height="2.9318585"
       x="111.986"
       y="156.353" />
    <rect
       fill="black"
       width="3.1404169"
       height="9.6217022"
       x="131.16251"
       y="147.33717"/>
	<rect
       fill="black"
       width="3.3408689"
       height="9.6217022"
       x="111.98593"
       y="147.32907"/>
	<rect
       fill="black"
       width="22"
       height="2.94"
       x="112.25322"
       y="137.71547" />
    <rect
       fill="black"
       width="3.1404169"
       height="9.6217022"
       x="131.16251"
       y="137.71547"/>
	<rect
       fill="black"
       width="3.3408689"
       height="9.6217022"
       x="111.98593"
       y="137.71547"/>
	<rect
       fill="black"
       width="1.2695292"
       height="9.6885185"
       x="55.408516"
       y="138.77643" />
    <rect
       fill="black"
       width="0.80180848"
       height="5.6794772"
       x="54.519737"
       y="131.94438"/>
	<rect
       fill="black"
       width="17.48945"
       height="1.9544084"
       x="51.584553"
       y="130.57462" />
    <rect
       fill="black"
       width="16.95491"
       height="2.0212257"
       x="51.918644"
       y="136.78865" />
    <rect
       fill="black"
       width="0.80180848"
       height="2.9232602"
       x="55.822674"
       y="131.44325"/>
	<rect
       fill="black"
       width="0.80180848"
       height="2.9232602"
       x="55.856083"
       y="134.85094"/>
	<rect
       fill="black"
       width="0.80180848"
       height="5.6794772"
       x="57.0755"
       y="131.84415"/>
	<rect
       fill="black"
       width="0.80180848"
       height="1.5869126"
       x="58.311623"
       y="132.94666"/>
	<rect
       fill="black"
       width="0.80180848"
       height="1.5869128"
       x="58.328327"
       y="134.8927"/>
	<rect
       fill="black"
       width="0.37728065"
       height="5.6794772"
       x="59.096725"
       y="131.81075"/>
	<rect
       fill="black"
       width="0.94354957"
       height="4.7345366"
       x="59.889851"
       y="131.70726"/>
	<rect
       fill="black"
       width="0.41202053"
       height="4.675478"
       x="60.68124"
       y="132.41006"/>
	<rect
       fill="black"
       width="0.94354957"
       height="4.7581601"
       x="61.503338"
       y="131.68776"/>
	<rect
       fill="black"
       width="0.41202053"
       height="4.675478"
       x="62.294727"
       y="132.39056"/>
	<rect
       fill="black"
       width="0.41202053"
       height="4.675478"
       x="64.443283"
       y="132.32738"/>
	<rect
       fill="black"
       width="0.95675224"
       height="3.5671501"
       x="63.101952"
       y="132.88155" />
    <rect
       fill="black"
       width="3.0668793"
       height="8.231782"
       x="51.584553"
       y="130.57462"/>
	<rect
       fill="black"
       width="4.2945595"
       height="8.2352514"
       x="64.779449"
       y="130.57462" />
	<rect
       fill="black"
       width="1.2695292"
       height="9.6885185"
       x="63.509922"
       y="138.80986" />
    <rect
       fill="black"
       width="22.183371"
       height="1.595511"
       x="112.25322"
       y="122.74432" />
    <rect
       fill="black"
       width="22.183371"
       height="1.595511"
       x="156.0854"
       y="122.61069" />
    <circle
       fill="red"
       cx="122.67671"
       cy="118.86486"
       r="3.0735993" />
</svg>
