<svg xmlns="http://www.w3.org/2000/svg" version="1.1">
    <rect
      fill="blue"
      width="129.26785"
      height="57.452377"
      x="50.270832"
      y="109.14583" />
    <circle
      fill="green"
      cx="63.936428"
      cy="163.61168"
      r="3.0735993" />
    <rect
      fill="black"
      width="10.299851"
      height="7.2097468"
      x="79.044273"
      y="159.36484" />
    <rect
      fill="black"
      width="7.6540174"
      height="18.119236"
      x="84.95015"
      y="148.19595" />
    <circle
      fill="red"
      cx="95.722473"
      cy="163.46811"
      r="3.0735993" />
    <rect
      fill="black"
      width="8.600029"
      height="4.157742"
      x="92.219963"
      y="148.19595" />
    <rect
      fill="black"
      width="1.9974582"
      height="14.780023"
      x="98.828964"
      y="151.79456" />
    <rect
      fill="black"
      width="7.2496862"
      height="1.3363476"
      x="92.074348"
      y="155.44737" />
    <circle
      fill="red"
      cx="95.799423"
      cy="153.96068"
      r="1.2862344" />
    <rect
      fill="black"
      width="7.2496862"
      height="1.3363476"
      x="92.057648"
      y="157.8528" />
    <circle
      fill="red"
      cx="95.699196"
      cy="157.33498"
      r="0.43431276" />
    <rect
      fill="black"
      width="18.708866"
      height="1.3374997"
      x="50.250607"
      y="148.19595" />
    <rect
      fill="black"
      width="22.183371"
      height="2.9318585"
      x="112.11956"
      y="156.95888" />
    <rect
      fill="black"
      width="2.6062536"
      height="44.864975"
      x="176.93243"
      y="109.14582" />
    <rect
      fill="black"
      width="3.1404169"
      height="9.6217022"
      x="131.16251"
      y="156.95888" />
    <rect
      fill="black"
      width="3.3408689"
      height="9.6217022"
      x="111.98593"
      y="156.95888" />
    <rect
      fill="black"
      width="18.708866"
      height="1.3374997"
      x="108.97915"
      y="136.2368" />
    <rect
      fill="black"
      width="18.708866"
      height="1.3374997"
      x="141.5097"
      y="136.2368" />
    <circle
      fill="red"
      cx="150.73051"
      cy="132.76288"
      r="3.0735993" />
    <circle
      fill="red"
      cx="152.34363"
      cy="162.63025"
      r="3.0735993" />
    <rect
      fill="black"
      width="2.2049735"
      height="9.6217022"
      x="164.05486"
      y="156.91164" />
</svg>
