# Blender v2.82 (sub 7) OBJ File: ''
# www.blender.org
mtllib bow_000053.mtl
o Bow_Cylinder
v 0.603590 1.851501 -0.141605
v 0.550423 1.916965 -0.100131
v 0.528401 1.944082 -0.000003
v 0.550423 1.916965 0.100126
v 0.603590 1.851501 0.141600
v 0.656757 1.786036 0.100126
v 0.678780 1.758920 -0.000002
v 0.656757 1.786036 -0.100131
v 2.130002 0.346432 -0.141603
v 1.894876 1.012799 -0.141603
v 1.406193 1.563271 -0.141604
v 1.469572 1.590317 -0.100130
v 1.980118 1.026941 -0.100129
v 2.219748 0.350118 -0.100128
v 1.496484 1.600327 -0.000001
v 2.015662 1.032014 -0.000000
v 2.257026 0.350387 0.000000
v 1.469129 1.591284 0.100127
v 1.979734 1.028481 0.100128
v 2.219748 0.350112 0.100128
v 1.406429 1.563303 0.141602
v 1.894988 1.012876 0.141602
v 2.130002 0.346433 0.141603
v 1.348694 1.526152 0.100127
v 1.814112 0.983170 0.100128
v 2.040961 0.334579 0.100128
v 1.325919 1.508596 -0.000001
v 1.781174 0.968692 -0.000001
v 2.004196 0.328364 -0.000000
v 1.348099 1.527103 -0.100130
v 1.813735 0.984427 -0.100129
v 2.040969 0.334472 -0.100129
v 0.599157 -1.846988 -0.141603
v 0.545797 -1.912296 -0.100129
v 0.523695 -1.939348 -0.000000
v 0.545797 -1.912296 0.100128
v 0.599157 -1.846988 0.141603
v 0.652517 -1.781681 0.100128
v 0.674619 -1.754630 -0.000000
v 0.652517 -1.781681 -0.100128
v 2.130002 -0.346430 -0.141603
v 1.892911 -1.012100 -0.141603
v 1.402607 -1.561127 -0.141603
v 1.465906 -1.588360 -0.100128
v 1.978111 -1.026492 -0.100128
v 2.219742 -0.350154 -0.100128
v 1.492789 -1.598449 0.000000
v 2.013640 -1.031670 0.000000
v 2.257023 -0.350410 0.000000
v 1.465460 -1.589326 0.100128
v 1.977722 -1.028032 0.100128
v 2.219742 -0.350148 0.100128
v 1.402843 -1.561160 0.141603
v 1.893023 -1.012177 0.141603
v 2.130002 -0.346431 0.141603
v 1.345218 -1.523838 0.100128
v 1.812235 -0.982232 0.100128
v 2.040995 -0.334350 0.100128
v 1.322494 -1.506215 0.000000
v 1.779339 -0.967657 0.000000
v 2.004249 -0.328011 0.000000
v 1.344620 -1.524788 -0.100128
v 1.811854 -0.983488 -0.100128
v 2.041004 -0.334241 -0.100128
v 2.155554 0.000000 -0.141603
v 2.246277 0.000000 -0.100128
v 2.283856 0.000000 0.000000
v 2.246277 0.000000 0.100128
v 2.155554 0.000000 0.141603
v 2.064831 0.000000 0.100128
v 2.027252 0.000000 -0.000000
v 2.064831 0.000000 -0.100128
v 0.732511 1.792681 -0.026696
v 0.728251 -1.788549 -0.026694
v 0.748034 1.803418 -0.018878
v 0.743742 -1.799332 -0.018875
v 0.754464 1.807866 -0.000002
v 0.750159 -1.803799 -0.000000
v 0.748034 1.803418 0.018873
v 0.743742 -1.799332 0.018875
v 0.732510 1.792681 0.026691
v 0.728250 -1.788549 0.026693
v 0.716987 1.781944 0.018873
v 0.712759 -1.777766 0.018875
v 0.710557 1.777496 -0.000002
v 0.706342 -1.773299 -0.000000
v 0.716987 1.781944 -0.018878
v 0.712759 -1.777766 -0.018875
v -0.665652 -0.000000 -0.026694
v -0.646778 -0.000000 -0.018876
v -0.638959 -0.000000 -0.000000
v -0.646778 -0.000000 0.018875
v -0.665652 -0.000000 0.026693
v -0.684528 -0.000000 0.018875
v -0.692346 -0.000000 -0.000000
v -0.684528 -0.000000 -0.018876
vt 0.415512 0.435877
vt 0.400099 0.697333
vt 0.403102 0.391658
vt 0.363795 0.918795
vt 0.365342 0.371239
vt 0.329116 0.695481
vt 0.327496 0.392348
vt 0.320164 0.664925
vt 0.314951 0.436624
vt 0.315153 0.701007
vt 0.300410 0.490184
vt 0.268850 0.518222
vt 0.164551 0.690291
vt 0.162885 0.929390
vt 0.124572 0.911161
vt 0.461378 0.516577
vt 0.414213 0.700837
vt 0.429881 0.489274
vt 0.409216 0.665592
vt 0.445757 0.183823
vt 0.420971 0.141474
vt 0.426085 0.118748
vt 0.440749 0.206831
vt 0.419264 0.252824
vt 0.434015 0.316403
vt 0.478969 0.225812
vt 0.475238 0.247511
vt 0.468580 0.349640
vt 0.290702 0.208573
vt 0.252454 0.228467
vt 0.285793 0.185708
vt 0.296979 0.317836
vt 0.256096 0.250048
vt 0.262347 0.351838
vt 0.305723 0.120183
vt 0.310743 0.142781
vt 0.311970 0.254023
vt 0.328331 0.059376
vt 0.331398 0.083632
vt 0.329530 0.190214
vt 0.366080 0.032501
vt 0.366029 0.057475
vt 0.365803 0.164989
vt 0.403723 0.058469
vt 0.400555 0.082803
vt 0.401974 0.189372
vt 0.927082 0.502568
vt 0.597959 0.094171
vt 0.597959 0.502569
vt 0.084417 0.425353
vt 0.093581 0.687590
vt 0.085228 0.655296
vt 0.097874 0.381957
vt 0.136090 0.363958
vt 0.173403 0.387462
vt 0.174224 0.660330
vt 0.184883 0.432511
vt 0.178371 0.696702
vt 0.229007 0.516999
vt 0.198137 0.486964
vt 0.068785 0.477796
vt 0.084817 0.926901
vt 0.036661 0.503074
vt 0.079396 0.690193
vt 0.060205 0.171557
vt 0.085982 0.130816
vt 0.064660 0.194867
vt 0.085033 0.242194
vt 0.068777 0.304788
vt 0.026016 0.211401
vt 0.029227 0.233322
vt 0.033444 0.335800
vt 0.252303 0.228478
vt 0.214556 0.206162
vt 0.220008 0.183625
vt 0.248150 0.249811
vt 0.205677 0.314949
vt 0.239475 0.351135
vt 0.201655 0.116878
vt 0.196100 0.139140
vt 0.192219 0.250224
vt 0.180514 0.054675
vt 0.176870 0.078719
vt 0.176195 0.185342
vt 0.143433 0.025416
vt 0.142888 0.050375
vt 0.140549 0.157826
vt 0.105197 0.048969
vt 0.107783 0.073487
vt 0.103823 0.179889
vt 0.081413 0.107781
vt 0.833047 0.502568
vt 0.880064 0.094170
vt 0.880065 0.502568
vt 0.786029 0.502569
vt 0.833046 0.094170
vt 0.739011 0.094171
vt 0.786029 0.094171
vt 0.739012 0.502569
vt 0.691994 0.094171
vt 0.691994 0.502569
vt 0.644976 0.094171
vt 0.644977 0.502569
vt 0.927081 0.094170
vt 0.403149 0.937053
vt 0.927084 0.910966
vt 0.597959 0.910967
vt 0.644977 0.910967
vt 0.691995 0.910967
vt 0.739013 0.910967
vt 0.786030 0.910967
vt 0.833048 0.910967
vt 0.880066 0.910967
vt 0.325070 0.934563
vn 0.2226 0.6263 -0.7471
vn 0.2318 0.6462 -0.7271
vn 0.2223 0.6256 -0.7478
vn 0.3291 0.9268 -0.1810
vn 0.3294 0.9271 -0.1788
vn 0.3291 0.9268 -0.1811
vn 0.3291 0.9281 0.1741
vn 0.3292 0.9272 0.1784
vn 0.3290 0.9282 0.1737
vn 0.2227 0.6210 0.7515
vn 0.2292 0.6462 0.7280
vn 0.2222 0.6189 0.7534
vn -0.2132 -0.5698 0.7937
vn -0.2320 -0.6454 0.7278
vn -0.2115 -0.5631 0.7989
vn -0.3540 -0.9181 0.1781
vn -0.3428 -0.9104 0.2318
vn -0.3416 -0.9094 0.2371
vn -0.7744 0.6327 -0.0000
vn -0.3415 -0.9094 -0.2374
vn -0.3539 -0.9180 -0.1787
vn -0.3402 -0.9083 -0.2432
vn -0.2080 -0.5783 -0.7889
vn -0.2401 -0.6440 -0.7264
vn -0.2067 -0.5755 -0.7913
vn -0.4161 -0.0305 -0.9088
vn -0.4182 -0.0300 -0.9079
vn -0.4156 -0.0307 -0.9090
vn -0.4029 -0.1421 -0.9042
vn -0.4095 -0.1433 -0.9010
vn -0.4023 -0.1419 -0.9045
vn -0.3489 -0.3090 -0.8847
vn -0.3930 -0.3380 -0.8552
vn -0.3458 -0.3070 -0.8866
vn -0.9344 -0.0665 -0.3500
vn -0.9351 -0.0659 -0.3482
vn -0.9342 -0.0666 -0.3506
vn -0.8865 -0.3098 -0.3438
vn -0.8886 -0.3096 -0.3384
vn -0.8862 -0.3098 -0.3444
vn -0.7182 -0.6153 -0.3250
vn -0.7329 -0.6190 -0.2822
vn -0.7165 -0.6148 -0.3296
vn -0.9351 -0.0659 0.3481
vn -0.9344 -0.0665 0.3500
vn -0.9342 -0.0666 0.3506
vn -0.8887 -0.3097 0.3380
vn -0.8864 -0.3099 0.3439
vn -0.8861 -0.3099 0.3446
vn -0.7333 -0.6193 0.2805
vn -0.7196 -0.6159 0.3209
vn -0.7180 -0.6154 0.3252
vn -0.4162 -0.0299 0.9088
vn -0.4181 -0.0307 0.9079
vn -0.4156 -0.0296 0.9091
vn -0.4032 -0.1411 0.9042
vn -0.4085 -0.1440 0.9013
vn -0.4026 -0.1408 0.9045
vn -0.3507 -0.3016 0.8866
vn -0.3866 -0.3422 0.8564
vn -0.3469 -0.2974 0.8895
vn 0.4161 0.0308 0.9088
vn 0.4177 0.0315 0.9080
vn 0.4156 0.0307 0.9090
vn 0.4105 0.1448 0.9003
vn 0.4128 0.1460 0.8991
vn 0.4102 0.1447 0.9005
vn 0.3695 0.3287 0.8692
vn 0.3949 0.3576 0.8463
vn 0.3666 0.3254 0.8716
vn 0.9340 0.0709 0.3501
vn 0.9345 0.0714 0.3486
vn 0.9339 0.0708 0.3505
vn 0.8893 0.3147 0.3318
vn 0.8897 0.3150 0.3305
vn 0.8893 0.3146 0.3319
vn 0.7117 0.6461 0.2757
vn 0.7139 0.6517 0.2562
vn 0.7114 0.6454 0.2780
vn 0.9340 0.0714 -0.3501
vn 0.9346 0.0710 -0.3486
vn 0.9338 0.0715 -0.3505
vn 0.8892 0.3149 -0.3319
vn 0.8893 0.3149 -0.3317
vn 0.7085 0.6469 -0.2820
vn 0.7154 0.6487 -0.2595
vn 0.7079 0.6467 -0.2841
vn 0.4160 0.0314 -0.9088
vn 0.4178 0.0310 -0.9080
vn 0.4156 0.0315 -0.9090
vn 0.4104 0.1453 -0.9003
vn 0.4129 0.1457 -0.8990
vn 0.4101 0.1452 -0.9004
vn 0.3691 0.3341 -0.8673
vn 0.3986 0.3543 -0.8459
vn 0.3673 0.3329 -0.8685
vn -0.9243 0.0002 -0.3817
vn -0.7804 -0.6134 -0.1210
vn -0.9239 0.0001 -0.3827
vn 0.2208 -0.6270 -0.7471
vn 0.2299 -0.6469 -0.7271
vn 0.2309 -0.6490 -0.7249
vn 0.3264 -0.9278 -0.1810
vn 0.3267 -0.9281 -0.1788
vn 0.3267 -0.9281 -0.1786
vn 0.3263 -0.9291 0.1741
vn 0.3265 -0.9282 0.1784
vn 0.3265 -0.9282 0.1787
vn 0.2209 -0.6217 0.7515
vn 0.2272 -0.6469 0.7280
vn 0.2274 -0.6476 0.7272
vn -0.2115 0.5704 0.7937
vn -0.2301 0.6461 0.7278
vn -0.2308 0.6490 0.7250
vn -0.3401 0.9114 0.2318
vn -0.3513 0.9192 0.1781
vn -0.3389 0.9104 0.2371
vn -0.3468 0.9073 -0.2376
vn -0.3431 0.9220 -0.1793
vn -0.3471 0.9053 -0.2446
vn -0.2063 0.5789 -0.7889
vn -0.2382 0.6447 -0.7264
vn -0.2426 0.6535 -0.7170
vn -0.4161 0.0305 -0.9088
vn -0.4182 0.0300 -0.9078
vn -0.4189 0.0299 -0.9076
vn -0.4025 0.1433 -0.9041
vn -0.4091 0.1445 -0.9010
vn -0.4098 0.1446 -0.9006
vn -0.3480 0.3101 -0.8847
vn -0.3920 0.3391 -0.8552
vn -0.3957 0.3416 -0.8525
vn -0.9344 0.0664 -0.3500
vn -0.9352 0.0658 -0.3481
vn -0.9354 0.0656 -0.3474
vn -0.8855 0.3124 -0.3438
vn -0.8877 0.3122 -0.3384
vn -0.8880 0.3122 -0.3377
vn -0.7164 0.6174 -0.3250
vn -0.7311 0.6212 -0.2822
vn -0.7327 0.6215 -0.2772
vn -0.9344 0.0664 0.3500
vn -0.9352 0.0658 0.3481
vn -0.9342 0.0666 0.3506
vn -0.8855 0.3125 0.3439
vn -0.8878 0.3123 0.3380
vn -0.8852 0.3125 0.3446
vn -0.7177 0.6180 0.3209
vn -0.7315 0.6215 0.2805
vn -0.7162 0.6175 0.3252
vn -0.4162 0.0299 0.9088
vn -0.4182 0.0307 0.9078
vn -0.4187 0.0309 0.9076
vn -0.4028 0.1423 0.9041
vn -0.4081 0.1452 0.9013
vn -0.4086 0.1455 0.9010
vn -0.3498 0.3027 0.8866
vn -0.3856 0.3434 0.8564
vn -0.3891 0.3474 0.8532
vn 0.4161 -0.0308 0.9088
vn 0.4178 -0.0315 0.9080
vn 0.4182 -0.0317 0.9078
vn 0.4103 -0.1461 0.9002
vn 0.4124 -0.1472 0.8990
vn 0.4126 -0.1473 0.8989
vn 0.3685 -0.3298 0.8692
vn 0.3938 -0.3588 0.8463
vn 0.3963 -0.3617 0.8439
vn 0.9340 -0.0709 0.3501
vn 0.9345 -0.0714 0.3486
vn 0.9347 -0.0716 0.3482
vn 0.8885 -0.3172 0.3315
vn 0.8888 -0.3175 0.3305
vn 0.8888 -0.3175 0.3304
vn 0.7098 -0.6482 0.2757
vn 0.7119 -0.6538 0.2562
vn 0.7122 -0.6545 0.2540
vn 0.9340 -0.0714 -0.3501
vn 0.9346 -0.0710 -0.3486
vn 0.9347 -0.0708 -0.3482
vn 0.8884 -0.3174 -0.3316
vn 0.8884 -0.3174 -0.3317
vn 0.7066 -0.6490 -0.2820
vn 0.7135 -0.6508 -0.2595
vn 0.7141 -0.6510 -0.2573
vn 0.4160 -0.0314 -0.9088
vn 0.4178 -0.0310 -0.9080
vn 0.4183 -0.0309 -0.9078
vn 0.4102 -0.1465 -0.9002
vn 0.4125 -0.1470 -0.8990
vn 0.4127 -0.1470 -0.8989
vn 0.3681 -0.3352 -0.8673
vn 0.3976 -0.3555 -0.8459
vn 0.3997 -0.3569 -0.8443
vn 0.3834 -0.0001 -0.9236
vn 0.6402 0.4947 -0.5877
vn 0.3827 -0.0001 -0.9239
vn 0.9243 -0.0002 -0.3817
vn 0.7861 0.6054 -0.1249
vn 0.9239 -0.0002 -0.3827
vn 0.9243 -0.0002 0.3817
vn 0.7861 0.6054 0.1249
vn 0.7862 0.6054 0.1240
vn 0.3834 -0.0001 0.9236
vn 0.6402 0.4947 0.5877
vn 0.6408 0.4952 0.5867
vn -0.3834 0.0001 0.9236
vn -0.6410 -0.4996 0.5827
vn -0.6416 -0.5000 0.5816
vn -0.9243 0.0002 0.3817
vn -0.7804 -0.6134 0.1210
vn -0.7805 -0.6135 0.1202
vn -0.3834 0.0001 -0.9236
vn -0.6410 -0.4996 -0.5827
vn -0.3827 0.0000 -0.9239
vn -0.7762 -0.6304 0.0000
vn -0.6390 0.4984 -0.5858
vn -0.7801 0.6136 0.1221
vn -0.7802 0.6136 0.1212
vn -0.6390 0.4984 0.5858
vn -0.6396 0.4989 0.5848
vn 0.6382 -0.4936 0.5908
vn 0.6388 -0.4941 0.5898
vn 0.7857 -0.6056 0.1258
vn 0.7858 -0.6057 0.1250
vn 0.7857 -0.6056 -0.1258
vn 0.6382 -0.4936 -0.5908
vn -0.7801 0.6136 -0.1221
vn 0.3295 0.9271 -0.1786
vn 0.3292 0.9272 0.1787
vn 0.2294 0.6470 0.7272
vn -0.2327 -0.6483 0.7250
vn -0.4187 -0.0309 0.9076
vn -0.4091 -0.1443 0.9010
vn -0.3901 -0.3462 0.8532
vn 0.4182 0.0317 0.9078
vn 0.4130 0.1461 0.8989
vn 0.3973 0.3605 0.8439
vn 0.9347 0.0716 0.3482
vn 0.8897 0.3150 0.3304
vn 0.7141 0.6523 0.2540
vn 0.9347 0.0708 -0.3482
vn 0.8893 0.3149 -0.3316
vn 0.7160 0.6489 -0.2573
vn 0.3264 -0.9277 -0.1811
vn 0.3263 -0.9292 0.1737
vn 0.2203 -0.6195 0.7534
vn -0.2098 0.5637 0.7989
vn -0.4156 0.0296 0.9091
vn -0.4022 0.1420 0.9045
vn -0.3460 0.2984 0.8895
vn 0.4156 -0.0307 0.9090
vn 0.4100 -0.1460 0.9003
vn 0.3657 -0.3265 0.8716
vn 0.9339 -0.0708 0.3505
vn 0.8885 -0.3172 0.3316
vn 0.7095 -0.6475 0.2780
vn 0.9338 -0.0715 -0.3505
vn 0.7060 -0.6488 -0.2841
vn 0.2328 0.6483 -0.7249
vn -0.3555 -0.9190 0.1707
vn -0.3555 -0.9190 -0.1707
vn -0.2445 -0.6528 -0.7170
vn -0.4188 -0.0299 -0.9076
vn -0.4102 -0.1434 -0.9006
vn -0.3967 -0.3404 -0.8525
vn -0.9354 -0.0657 -0.3475
vn -0.8889 -0.3096 -0.3377
vn -0.7345 -0.6194 -0.2772
vn -0.9354 -0.0657 0.3475
vn -0.8890 -0.3096 0.3372
vn -0.7348 -0.6196 0.2758
vn 0.4183 0.0308 -0.9078
vn 0.4132 0.1458 -0.8989
vn 0.4007 0.3557 -0.8443
vn -0.7805 -0.6135 -0.1202
vn 0.2205 -0.6263 -0.7478
vn -0.3528 0.9200 0.1707
vn -0.3427 0.9232 -0.1738
vn -0.2050 0.5761 -0.7913
vn -0.4156 0.0307 -0.9090
vn -0.4019 0.1431 -0.9044
vn -0.3449 0.3080 -0.8866
vn -0.9342 0.0666 -0.3506
vn -0.8853 0.3125 -0.3444
vn -0.7147 0.6169 -0.3296
vn -0.9354 0.0656 0.3474
vn -0.8881 0.3123 0.3372
vn -0.7330 0.6218 0.2758
vn 0.4156 -0.0315 -0.9090
vn 0.4100 -0.1465 -0.9003
vn 0.3663 -0.3340 -0.8685
vn 0.6408 0.4952 -0.5867
vn 0.7862 0.6054 -0.1240
vn 0.9239 -0.0002 0.3827
vn 0.3827 -0.0001 0.9239
vn -0.3827 0.0000 0.9239
vn -0.9239 0.0001 0.3827
vn -0.6416 -0.5000 -0.5816
vn -0.6396 0.4989 -0.5848
vn 0.7858 -0.6057 -0.1250
vn 0.6388 -0.4941 -0.5898
vn -0.7802 0.6136 -0.1212
usemtl Bow_Texture
s 1
f 11/1/1 2/2/2 12/3/3
f 12/3/4 3/4/5 15/5/6
f 15/5/7 4/6/8 18/7/9
f 18/7/10 5/8/11 21/9/12
f 21/9/13 6/10/14 24/11/15
f 6/10/16 27/12/17 24/11/18
f 36/13/19 39/14/19 35/15/19
f 27/16/20 8/17/21 30/18/22
f 30/18/23 1/19/24 11/1/25
f 72/20/26 9/21/27 65/22/28
f 32/23/29 10/24/30 9/21/31
f 31/25/32 11/1/33 10/24/34
f 71/26/35 32/23/36 72/20/37
f 29/27/38 31/25/39 32/23/40
f 28/28/41 30/18/42 31/25/43
f 26/29/44 71/30/45 70/31/46
f 25/32/47 29/33/48 26/29/49
f 24/11/50 28/34/51 25/32/52
f 69/35/53 26/29/54 70/31/55
f 23/36/56 25/32/57 26/29/58
f 22/37/59 24/11/60 25/32/61
f 68/38/62 23/36/63 69/35/64
f 20/39/65 22/37/66 23/36/67
f 19/40/68 21/9/69 22/37/70
f 67/41/71 20/39/72 68/38/73
f 17/42/74 19/40/75 20/39/76
f 16/43/77 18/7/78 19/40/79
f 66/44/80 17/42/81 67/41/82
f 14/45/83 16/43/84 17/42/83
f 13/46/85 15/5/86 16/43/87
f 65/22/88 14/45/89 66/44/90
f 9/21/91 13/46/92 14/45/93
f 10/24/94 12/3/95 13/46/96
f 96/47/97 86/48/98 95/49/99
f 43/50/100 34/51/101 33/52/102
f 44/53/103 35/15/104 34/51/105
f 47/54/106 36/13/107 35/15/108
f 50/55/109 37/56/110 36/13/111
f 53/57/112 38/58/113 37/56/114
f 59/59/115 38/58/116 56/60/117
f 37/56/19 38/58/19 36/13/19
f 62/61/118 39/62/119 59/63/120
f 62/61/121 33/52/122 40/64/123
f 72/65/124 41/66/125 64/67/126
f 64/67/127 42/68/128 63/69/129
f 63/69/130 43/50/131 62/61/132
f 71/70/133 64/67/134 61/71/135
f 61/71/136 63/69/137 60/72/138
f 60/72/139 62/61/140 59/63/141
f 71/73/142 58/74/143 70/75/144
f 61/76/145 57/77/146 58/74/147
f 60/78/148 56/60/149 57/77/150
f 69/79/151 58/74/152 55/80/153
f 55/80/154 57/77/155 54/81/156
f 54/81/157 56/60/158 53/57/159
f 68/82/160 55/80/161 52/83/162
f 52/83/163 54/81/164 51/84/165
f 51/84/166 53/57/167 50/55/168
f 67/85/169 52/83/170 49/86/171
f 49/86/172 51/84/173 48/87/174
f 48/87/175 50/55/176 47/54/177
f 66/88/178 49/86/179 46/89/180
f 46/89/181 48/87/181 45/90/182
f 45/90/183 47/54/184 44/53/185
f 65/91/186 46/89/187 41/66/188
f 41/66/189 45/90/190 42/68/191
f 42/68/192 44/53/193 43/50/194
f 90/92/195 74/93/196 89/94/197
f 91/95/198 76/96/199 90/92/200
f 91/95/201 80/97/202 78/98/203
f 92/99/204 82/100/205 80/97/206
f 93/101/207 84/102/208 82/100/209
f 94/103/210 86/48/211 84/102/212
f 89/94/213 88/104/214 96/47/215
f 33/52/19 34/51/19 40/64/19
f 39/62/19 34/51/19 35/15/19
f 5/8/216 4/6/216 6/10/216
f 3/4/216 6/10/216 4/6/216
f 2/2/216 7/105/216 3/4/216
f 1/19/216 8/17/216 2/2/216
f 87/106/217 89/94/213 96/47/215
f 85/107/218 94/103/210 83/108/219
f 83/108/220 93/101/207 81/109/221
f 81/109/222 92/99/204 79/110/223
f 79/110/224 91/95/201 77/111/225
f 75/112/226 91/95/198 90/92/200
f 73/113/227 90/92/195 89/94/197
f 85/107/228 96/47/97 95/49/99
f 12/3/4 2/2/229 3/4/5
f 15/5/7 3/4/230 4/6/8
f 18/7/10 4/6/231 5/8/11
f 21/9/13 5/8/232 6/10/14
f 69/35/53 23/36/233 26/29/54
f 23/36/56 22/37/234 25/32/57
f 22/37/59 21/9/235 24/11/60
f 68/38/62 20/39/236 23/36/63
f 20/39/65 19/40/237 22/37/66
f 19/40/68 18/7/238 21/9/69
f 67/41/71 17/42/239 20/39/72
f 17/42/74 16/43/240 19/40/75
f 16/43/77 15/5/241 18/7/78
f 66/44/80 14/45/242 17/42/81
f 14/45/83 13/46/243 16/43/84
f 13/46/85 12/3/244 15/5/86
f 44/53/103 47/54/245 35/15/104
f 47/54/106 50/55/246 36/13/107
f 50/55/109 53/57/247 37/56/110
f 53/57/112 56/60/248 38/58/113
f 69/79/151 70/75/249 58/74/152
f 55/80/154 58/74/250 57/77/155
f 54/81/157 57/77/251 56/60/158
f 68/82/160 69/79/252 55/80/161
f 52/83/163 55/80/253 54/81/164
f 51/84/166 54/81/254 53/57/167
f 67/85/169 68/82/255 52/83/170
f 49/86/172 52/83/256 51/84/173
f 48/87/175 51/84/257 50/55/176
f 66/88/178 67/85/258 49/86/179
f 46/89/181 49/86/181 48/87/181
f 45/90/183 48/87/259 47/54/184
f 11/1/1 1/19/260 2/2/2
f 6/10/16 7/114/261 27/12/17
f 36/13/19 38/58/19 39/14/19
f 27/16/20 7/105/262 8/17/21
f 30/18/23 8/17/263 1/19/24
f 72/20/26 32/23/264 9/21/27
f 32/23/29 31/25/265 10/24/30
f 31/25/32 30/18/266 11/1/33
f 71/26/35 29/27/267 32/23/36
f 29/27/38 28/28/268 31/25/39
f 28/28/41 27/16/269 30/18/42
f 26/29/44 29/33/270 71/30/45
f 25/32/47 28/34/271 29/33/48
f 24/11/50 27/12/272 28/34/51
f 65/22/88 9/21/273 14/45/89
f 9/21/91 10/24/274 13/46/92
f 10/24/94 11/1/275 12/3/95
f 96/47/97 88/104/276 86/48/98
f 43/50/100 44/53/277 34/51/101
f 59/59/115 39/14/278 38/58/116
f 62/61/118 40/64/279 39/62/119
f 62/61/121 43/50/280 33/52/122
f 72/65/124 65/91/281 41/66/125
f 64/67/127 41/66/282 42/68/128
f 63/69/130 42/68/283 43/50/131
f 71/70/133 72/65/284 64/67/134
f 61/71/136 64/67/285 63/69/137
f 60/72/139 63/69/286 62/61/140
f 71/73/142 61/76/287 58/74/143
f 61/76/145 60/78/288 57/77/146
f 60/78/148 59/59/289 56/60/149
f 65/91/186 66/88/290 46/89/187
f 41/66/189 46/89/291 45/90/190
f 42/68/192 45/90/292 44/53/193
f 90/92/195 76/96/293 74/93/196
f 91/95/198 78/98/294 76/96/199
f 91/95/201 92/99/295 80/97/202
f 92/99/204 93/101/296 82/100/205
f 93/101/207 94/103/297 84/102/208
f 94/103/210 95/49/298 86/48/211
f 89/94/213 74/93/299 88/104/214
f 39/62/19 40/64/19 34/51/19
f 3/4/216 7/114/216 6/10/216
f 2/2/216 8/17/216 7/105/216
f 87/106/217 73/113/300 89/94/213
f 85/107/218 95/49/298 94/103/210
f 83/108/220 94/103/297 93/101/207
f 81/109/222 93/101/296 92/99/204
f 79/110/224 92/99/295 91/95/201
f 75/112/226 77/111/301 91/95/198
f 73/113/227 75/112/302 90/92/195
f 85/107/228 87/106/303 96/47/97
