# Blender v2.82 (sub 7) OBJ File: ''
# www.blender.org
mtllib bow_000044.mtl
o Bow_Cylinder
v 0.935701 2.227626 -0.141605
v 0.909471 2.307779 -0.100131
v 0.898606 2.340979 -0.000002
v 0.909471 2.307779 0.100126
v 0.935700 2.227626 0.141601
v 0.961931 2.147475 0.100126
v 0.972796 2.114274 -0.000002
v 0.961931 2.147475 -0.100131
v 2.128863 0.346385 -0.141603
v 1.939092 1.027068 -0.141603
v 1.582580 1.671221 -0.141604
v 1.650708 1.682987 -0.100129
v 2.025347 1.034629 -0.100129
v 2.218693 0.349453 -0.100128
v 1.679025 1.687408 -0.000001
v 2.061117 1.037476 -0.000000
v 2.255930 0.350166 0.000000
v 1.650659 1.683344 0.100127
v 2.025290 1.035184 0.100128
v 2.218693 0.349450 0.100128
v 1.582660 1.671209 0.141602
v 1.939135 1.027089 0.141602
v 2.128863 0.346385 0.141603
v 1.515373 1.655605 0.100127
v 1.853612 1.013898 0.100128
v 2.039228 0.339691 0.100128
v 1.487659 1.648326 -0.000001
v 1.818272 1.007651 -0.000001
v 2.002134 0.336339 -0.000000
v 1.515273 1.655972 -0.100130
v 1.853544 1.014354 -0.100129
v 2.039231 0.339644 -0.100129
v 0.935876 -2.227737 -0.141603
v 0.909654 -2.307892 -0.100128
v 0.898792 -2.341093 0.000000
v 0.909654 -2.307892 0.100128
v 0.935876 -2.227737 0.141603
v 0.962099 -2.147583 0.100128
v 0.972961 -2.114383 -0.000000
v 0.962099 -2.147583 -0.100128
v 2.128863 -0.346385 -0.141603
v 1.939156 -1.027086 -0.141603
v 1.582704 -1.671272 -0.141603
v 1.650833 -1.683031 -0.100128
v 2.025411 -1.034639 -0.100128
v 2.218693 -0.349452 -0.100128
v 1.679151 -1.687449 0.000000
v 2.061182 -1.037483 0.000000
v 2.255931 -0.350165 0.000000
v 1.650785 -1.683389 0.100128
v 2.025356 -1.035193 0.100128
v 2.218693 -0.349449 0.100128
v 1.582784 -1.671259 0.141603
v 1.939199 -1.027107 0.141603
v 2.128863 -0.346385 0.141603
v 1.515495 -1.655662 0.100128
v 1.853675 -1.013924 0.100128
v 2.039228 -0.339698 0.100128
v 1.487781 -1.648385 0.000000
v 1.818335 -1.007680 0.000000
v 2.002134 -0.336350 0.000000
v 1.515395 -1.656029 -0.100128
v 1.853607 -1.014380 -0.100128
v 2.039230 -0.339651 -0.100128
v 2.155554 0.000000 -0.141603
v 2.246270 0.000000 -0.100128
v 2.283846 0.000000 0.000000
v 2.246270 0.000000 0.100128
v 2.155554 0.000000 0.141603
v 2.064838 0.000000 0.100128
v 2.027262 0.000000 -0.000000
v 2.064838 0.000000 -0.100128
v 1.035049 2.126581 -0.026696
v 1.035215 -2.126682 -0.026693
v 1.053386 2.131054 -0.018877
v 1.053552 -2.131155 -0.018875
v 1.060982 2.132907 -0.000002
v 1.061148 -2.133007 0.000000
v 1.053386 2.131054 0.018873
v 1.053552 -2.131155 0.018875
v 1.035049 2.126581 0.026691
v 1.035215 -2.126682 0.026694
v 1.016712 2.122107 0.018873
v 1.016877 -2.122210 0.018875
v 1.009116 2.120253 -0.000002
v 1.009281 -2.120358 0.000000
v 1.016712 2.122107 -0.018877
v 1.016877 -2.122210 -0.018875
v -0.007190 -0.000000 -0.026694
v 0.011685 -0.000000 -0.018876
v 0.019503 -0.000000 -0.000000
v 0.011685 -0.000000 0.018875
v -0.007190 -0.000000 0.026693
v -0.026065 -0.000000 0.018875
v -0.033883 -0.000000 -0.000000
v -0.026065 -0.000000 -0.018876
vt 0.415512 0.435877
vt 0.400099 0.697333
vt 0.403102 0.391658
vt 0.363795 0.918795
vt 0.365342 0.371239
vt 0.329116 0.695481
vt 0.327496 0.392348
vt 0.320164 0.664925
vt 0.314951 0.436624
vt 0.315153 0.701007
vt 0.300410 0.490184
vt 0.268850 0.518222
vt 0.178371 0.696702
vt 0.124572 0.911161
vt 0.164551 0.690291
vt 0.461378 0.516577
vt 0.414213 0.700837
vt 0.429881 0.489274
vt 0.409216 0.665592
vt 0.445757 0.183823
vt 0.420971 0.141474
vt 0.426085 0.118748
vt 0.440749 0.206831
vt 0.419264 0.252824
vt 0.434015 0.316403
vt 0.478969 0.225812
vt 0.475238 0.247511
vt 0.468580 0.349640
vt 0.290702 0.208573
vt 0.252454 0.228467
vt 0.285793 0.185708
vt 0.296979 0.317836
vt 0.256096 0.250048
vt 0.262347 0.351838
vt 0.305723 0.120183
vt 0.310743 0.142781
vt 0.311970 0.254023
vt 0.328331 0.059376
vt 0.331398 0.083632
vt 0.329530 0.190214
vt 0.366080 0.032501
vt 0.366029 0.057475
vt 0.365803 0.164989
vt 0.403723 0.058469
vt 0.400555 0.082803
vt 0.401974 0.189372
vt 0.927082 0.502568
vt 0.597959 0.094171
vt 0.597959 0.502569
vt 0.084417 0.425353
vt 0.093581 0.687590
vt 0.085228 0.655296
vt 0.097874 0.381957
vt 0.136090 0.363958
vt 0.173403 0.387462
vt 0.174224 0.660330
vt 0.184883 0.432511
vt 0.229007 0.516999
vt 0.198137 0.486964
vt 0.036661 0.503074
vt 0.079396 0.690193
vt 0.084817 0.926901
vt 0.068785 0.477796
vt 0.060205 0.171557
vt 0.085982 0.130816
vt 0.064660 0.194867
vt 0.085033 0.242194
vt 0.068777 0.304788
vt 0.026016 0.211401
vt 0.029227 0.233322
vt 0.033444 0.335800
vt 0.252303 0.228478
vt 0.214556 0.206162
vt 0.220008 0.183625
vt 0.248150 0.249811
vt 0.205677 0.314949
vt 0.239475 0.351135
vt 0.201655 0.116878
vt 0.196100 0.139140
vt 0.192219 0.250224
vt 0.180514 0.054675
vt 0.176870 0.078719
vt 0.176195 0.185342
vt 0.143433 0.025416
vt 0.142888 0.050375
vt 0.140549 0.157826
vt 0.105197 0.048969
vt 0.107783 0.073487
vt 0.103823 0.179889
vt 0.081413 0.107781
vt 0.833047 0.502568
vt 0.880064 0.094170
vt 0.880065 0.502568
vt 0.786029 0.502569
vt 0.833046 0.094170
vt 0.739011 0.094171
vt 0.786029 0.094171
vt 0.739012 0.502569
vt 0.691994 0.094171
vt 0.691994 0.502569
vt 0.644976 0.094171
vt 0.644977 0.502569
vt 0.927081 0.094170
vt 0.403149 0.937053
vt 0.927084 0.910966
vt 0.597959 0.910967
vt 0.644977 0.910967
vt 0.691995 0.910967
vt 0.739013 0.910967
vt 0.786030 0.910967
vt 0.833048 0.910967
vt 0.880066 0.910967
vt 0.325070 0.934563
vt 0.162885 0.929390
vn 0.3992 0.4733 -0.7852
vn 0.4440 0.5172 -0.7317
vn 0.3976 0.4717 -0.7870
vn 0.6280 0.7496 -0.2089
vn 0.6334 0.7519 -0.1830
vn 0.6277 0.7495 -0.2106
vn 0.6302 0.7484 0.2068
vn 0.6313 0.7536 0.1830
vn 0.6301 0.7479 0.2089
vn 0.4022 0.4684 0.7867
vn 0.4386 0.5203 0.7327
vn 0.3993 0.4643 0.7906
vn -0.3980 -0.4491 0.7999
vn -0.4472 -0.5194 0.7282
vn -0.3937 -0.4430 0.8054
vn -0.6597 -0.7304 0.1773
vn -0.6475 -0.7275 0.2268
vn -0.6462 -0.7271 0.2317
vn -0.9504 0.3109 -0.0000
vn -0.6471 -0.7274 -0.2285
vn -0.6596 -0.7303 -0.1775
vn -0.6457 -0.7270 -0.2336
vn -0.3932 -0.4566 -0.7981
vn -0.4553 -0.5143 -0.7268
vn -0.3906 -0.4541 -0.8008
vn -0.4160 -0.0319 -0.9088
vn -0.4174 -0.0316 -0.9082
vn -0.4156 -0.0320 -0.9090
vn -0.4108 -0.1144 -0.9045
vn -0.4186 -0.1153 -0.9008
vn -0.4101 -0.1143 -0.9048
vn -0.4029 -0.2222 -0.8879
vn -0.4626 -0.2446 -0.8521
vn -0.3987 -0.2207 -0.8901
vn -0.9341 -0.0703 -0.3501
vn -0.9345 -0.0699 -0.3490
vn -0.9339 -0.0704 -0.3505
vn -0.9057 -0.2491 -0.3430
vn -0.9079 -0.2488 -0.3373
vn -0.9054 -0.2492 -0.3437
vn -0.8385 -0.4413 -0.3196
vn -0.8541 -0.4416 -0.2747
vn -0.8368 -0.4412 -0.3243
vn -0.9345 -0.0699 0.3490
vn -0.9341 -0.0703 0.3501
vn -0.9339 -0.0704 0.3505
vn -0.9081 -0.2488 0.3368
vn -0.9057 -0.2492 0.3430
vn -0.9054 -0.2493 0.3438
vn -0.8543 -0.4417 0.2739
vn -0.8389 -0.4414 0.3184
vn -0.8372 -0.4413 0.3230
vn -0.4160 -0.0315 0.9088
vn -0.4174 -0.0320 0.9082
vn -0.4156 -0.0313 0.9090
vn -0.4111 -0.1133 0.9045
vn -0.4180 -0.1164 0.9010
vn -0.4103 -0.1130 0.9049
vn -0.4054 -0.2147 0.8886
vn -0.4578 -0.2524 0.8524
vn -0.4000 -0.2108 0.8919
vn 0.4160 0.0322 0.9088
vn 0.4176 0.0328 0.9080
vn 0.4156 0.0320 0.9090
vn 0.4140 0.1155 0.9029
vn 0.4208 0.1186 0.8994
vn 0.4131 0.1152 0.9034
vn 0.4107 0.2282 0.8827
vn 0.4607 0.2654 0.8469
vn 0.4055 0.2244 0.8861
vn 0.9339 0.0738 0.3500
vn 0.9344 0.0743 0.3485
vn 0.9337 0.0737 0.3504
vn 0.9058 0.2556 0.3378
vn 0.9077 0.2572 0.3315
vn 0.9056 0.2554 0.3386
vn 0.8253 0.4778 0.3011
vn 0.8326 0.4887 0.2606
vn 0.8243 0.4764 0.3058
vn 0.9338 0.0743 -0.3500
vn 0.9344 0.0739 -0.3485
vn 0.9336 0.0744 -0.3504
vn 0.9055 0.2566 -0.3379
vn 0.9077 0.2562 -0.3323
vn 0.9053 0.2566 -0.3385
vn 0.8219 0.4825 -0.3029
vn 0.8353 0.4833 -0.2621
vn 0.8205 0.4824 -0.3068
vn 0.4160 0.0327 -0.9088
vn 0.4176 0.0323 -0.9080
vn 0.4156 0.0328 -0.9090
vn 0.4137 0.1166 -0.9029
vn 0.4212 0.1175 -0.8993
vn 0.4130 0.1166 -0.9032
vn 0.4083 0.2353 -0.8820
vn 0.4649 0.2579 -0.8470
vn 0.4046 0.2338 -0.8841
vn -0.9240 -0.0000 -0.3825
vn -0.8552 -0.4203 -0.3032
vn -0.9239 -0.0000 -0.3827
vn 0.3993 -0.4733 -0.7852
vn 0.4440 -0.5171 -0.7317
vn 0.4492 -0.5221 -0.7250
vn 0.6281 -0.7496 -0.2089
vn 0.6335 -0.7518 -0.1830
vn 0.6340 -0.7520 -0.1806
vn 0.6303 -0.7483 0.2068
vn 0.6314 -0.7536 0.1830
vn 0.6315 -0.7539 0.1815
vn 0.4022 -0.4683 0.7867
vn 0.4387 -0.5203 0.7327
vn 0.4399 -0.5220 0.7308
vn -0.3981 0.4491 0.7999
vn -0.4472 0.5194 0.7282
vn -0.4491 0.5221 0.7251
vn -0.6476 0.7274 0.2268
vn -0.6597 0.7303 0.1773
vn -0.6463 0.7271 0.2317
vn -0.6471 0.7273 -0.2285
vn -0.6597 0.7303 -0.1775
vn -0.6613 0.7305 -0.1705
vn -0.3933 0.4565 -0.7981
vn -0.4553 0.5143 -0.7268
vn -0.4638 0.5221 -0.7157
vn -0.4160 0.0319 -0.9088
vn -0.4174 0.0316 -0.9082
vn -0.4178 0.0315 -0.9080
vn -0.4108 0.1144 -0.9045
vn -0.4186 0.1153 -0.9008
vn -0.4194 0.1154 -0.9004
vn -0.4029 0.2222 -0.8879
vn -0.4626 0.2446 -0.8521
vn -0.4674 0.2464 -0.8490
vn -0.9341 0.0703 -0.3501
vn -0.9345 0.0699 -0.3490
vn -0.9347 0.0698 -0.3486
vn -0.9057 0.2491 -0.3430
vn -0.9080 0.2487 -0.3373
vn -0.9082 0.2487 -0.3366
vn -0.8386 0.4412 -0.3196
vn -0.8542 0.4415 -0.2747
vn -0.8558 0.4415 -0.2697
vn -0.9341 0.0703 0.3501
vn -0.9345 0.0699 0.3490
vn -0.9339 0.0704 0.3505
vn -0.9057 0.2491 0.3430
vn -0.9081 0.2487 0.3369
vn -0.9054 0.2492 0.3438
vn -0.8390 0.4413 0.3184
vn -0.8544 0.4416 0.2739
vn -0.8373 0.4412 0.3230
vn -0.4160 0.0315 0.9088
vn -0.4174 0.0320 0.9082
vn -0.4177 0.0322 0.9080
vn -0.4111 0.1133 0.9045
vn -0.4180 0.1163 0.9010
vn -0.4187 0.1167 0.9006
vn -0.4054 0.2146 0.8886
vn -0.4579 0.2524 0.8524
vn -0.4634 0.2564 0.8482
vn 0.4160 -0.0322 0.9088
vn 0.4176 -0.0328 0.9080
vn 0.4180 -0.0330 0.9078
vn 0.4140 -0.1155 0.9029
vn 0.4208 -0.1185 0.8994
vn 0.4216 -0.1189 0.8990
vn 0.4107 -0.2282 0.8827
vn 0.4607 -0.2653 0.8469
vn 0.4660 -0.2693 0.8428
vn 0.9339 -0.0738 0.3500
vn 0.9344 -0.0743 0.3485
vn 0.9345 -0.0745 0.3481
vn 0.9059 -0.2555 0.3378
vn 0.9077 -0.2571 0.3315
vn 0.9080 -0.2573 0.3308
vn 0.8253 -0.4777 0.3011
vn 0.8326 -0.4886 0.2606
vn 0.8334 -0.4898 0.2560
vn 0.9338 -0.0743 -0.3500
vn 0.9344 -0.0739 -0.3485
vn 0.9346 -0.0737 -0.3481
vn 0.9056 -0.2565 -0.3379
vn 0.9077 -0.2562 -0.3323
vn 0.9080 -0.2561 -0.3316
vn 0.8219 -0.4824 -0.3029
vn 0.8353 -0.4833 -0.2621
vn 0.8366 -0.4833 -0.2579
vn 0.4160 -0.0327 -0.9088
vn 0.4176 -0.0323 -0.9080
vn 0.4181 -0.0322 -0.9079
vn 0.4137 -0.1166 -0.9029
vn 0.4212 -0.1175 -0.8993
vn 0.4220 -0.1176 -0.8990
vn 0.4083 -0.2352 -0.8820
vn 0.4649 -0.2579 -0.8470
vn 0.4691 -0.2596 -0.8441
vn 0.3829 0.0000 -0.9238
vn 0.4260 0.2082 -0.8804
vn 0.3827 0.0000 -0.9239
vn 0.9240 0.0000 -0.3824
vn 0.8561 0.4181 -0.3037
vn 0.9239 0.0000 -0.3827
vn 0.9240 0.0000 0.3824
vn 0.8561 0.4181 0.3037
vn 0.8562 0.4181 0.3035
vn 0.3829 0.0000 0.9238
vn 0.4260 0.2082 0.8804
vn 0.4261 0.2083 0.8803
vn -0.3829 -0.0000 0.9238
vn -0.4260 -0.2088 0.8803
vn -0.4262 -0.2089 0.8802
vn -0.9240 -0.0000 0.3825
vn -0.8552 -0.4203 0.3032
vn -0.8553 -0.4203 0.3030
vn -0.3829 -0.0000 -0.9238
vn -0.4260 -0.2088 -0.8803
vn -0.3827 -0.0000 -0.9239
vn -0.9504 -0.3110 -0.0000
vn -0.4261 0.2088 -0.8803
vn -0.8553 0.4203 0.3031
vn -0.8553 0.4203 0.3029
vn -0.4261 0.2088 0.8803
vn -0.4262 0.2089 0.8802
vn 0.4260 -0.2082 0.8804
vn 0.4262 -0.2083 0.8803
vn 0.8561 -0.4180 0.3037
vn 0.8562 -0.4181 0.3035
vn 0.8561 -0.4180 -0.3037
vn 0.4260 -0.2082 -0.8804
vn -0.8553 0.4203 -0.3032
vn 0.6339 0.7520 -0.1806
vn 0.6314 0.7539 0.1815
vn 0.4398 0.5221 0.7308
vn -0.4491 -0.5221 0.7251
vn -0.4177 -0.0322 0.9080
vn -0.4187 -0.1167 0.9006
vn -0.4634 -0.2564 0.8482
vn 0.4180 0.0330 0.9078
vn 0.4216 0.1189 0.8990
vn 0.4660 0.2693 0.8428
vn 0.9345 0.0745 0.3481
vn 0.9079 0.2574 0.3308
vn 0.8333 0.4899 0.2560
vn 0.9346 0.0737 -0.3481
vn 0.9079 0.2562 -0.3316
vn 0.8366 0.4834 -0.2579
vn 0.6277 -0.7494 -0.2106
vn 0.6302 -0.7478 0.2089
vn 0.3994 -0.4643 0.7906
vn -0.3938 0.4430 0.8054
vn -0.4156 0.0313 0.9090
vn -0.4103 0.1129 0.9049
vn -0.4000 0.2108 0.8919
vn 0.4156 -0.0320 0.9090
vn 0.4132 -0.1151 0.9034
vn 0.4055 -0.2244 0.8861
vn 0.9337 -0.0737 0.3504
vn 0.9056 -0.2553 0.3386
vn 0.8243 -0.4764 0.3058
vn 0.9336 -0.0744 -0.3504
vn 0.9053 -0.2565 -0.3385
vn 0.8205 -0.4823 -0.3068
vn 0.4491 0.5221 -0.7250
vn -0.6612 -0.7306 0.1705
vn -0.6612 -0.7306 -0.1705
vn -0.4638 -0.5221 -0.7157
vn -0.4178 -0.0315 -0.9080
vn -0.4194 -0.1154 -0.9004
vn -0.4674 -0.2464 -0.8490
vn -0.9347 -0.0698 -0.3486
vn -0.9082 -0.2487 -0.3366
vn -0.8557 -0.4416 -0.2697
vn -0.9347 -0.0698 0.3486
vn -0.9084 -0.2488 0.3361
vn -0.8559 -0.4417 0.2690
vn 0.4181 0.0322 -0.9079
vn 0.4219 0.1176 -0.8990
vn 0.4691 0.2596 -0.8441
vn -0.8553 -0.4203 -0.3030
vn 0.3977 -0.4717 -0.7870
vn -0.6613 0.7305 0.1705
vn -0.6458 0.7269 -0.2336
vn -0.3906 0.4540 -0.8008
vn -0.4156 0.0320 -0.9090
vn -0.4101 0.1143 -0.9048
vn -0.3988 0.2206 -0.8901
vn -0.9339 0.0704 -0.3505
vn -0.9055 0.2491 -0.3437
vn -0.8368 0.4411 -0.3243
vn -0.9347 0.0698 0.3486
vn -0.9084 0.2487 0.3361
vn -0.8559 0.4416 0.2690
vn 0.4156 -0.0328 -0.9090
vn 0.4130 -0.1165 -0.9032
vn 0.4046 -0.2338 -0.8841
vn 0.4261 0.2083 -0.8803
vn 0.8562 0.4181 -0.3035
vn 0.9239 0.0000 0.3827
vn 0.3827 0.0000 0.9239
vn -0.3827 -0.0000 0.9239
vn -0.9239 -0.0000 0.3827
vn -0.4262 -0.2089 -0.8802
vn -0.4262 0.2089 -0.8802
vn 0.8562 -0.4181 -0.3035
vn 0.4262 -0.2083 -0.8803
vn -0.8553 0.4203 -0.3029
usemtl Bow_Texture
s 1
f 11/1/1 2/2/2 12/3/3
f 12/3/4 3/4/5 15/5/6
f 15/5/7 4/6/8 18/7/9
f 18/7/10 5/8/11 21/9/12
f 21/9/13 6/10/14 24/11/15
f 6/10/16 27/12/17 24/11/18
f 38/13/19 35/14/19 36/15/19
f 27/16/20 8/17/21 30/18/22
f 30/18/23 1/19/24 11/1/25
f 72/20/26 9/21/27 65/22/28
f 32/23/29 10/24/30 9/21/31
f 31/25/32 11/1/33 10/24/34
f 71/26/35 32/23/36 72/20/37
f 29/27/38 31/25/39 32/23/40
f 28/28/41 30/18/42 31/25/43
f 26/29/44 71/30/45 70/31/46
f 25/32/47 29/33/48 26/29/49
f 24/11/50 28/34/51 25/32/52
f 69/35/53 26/29/54 70/31/55
f 23/36/56 25/32/57 26/29/58
f 22/37/59 24/11/60 25/32/61
f 68/38/62 23/36/63 69/35/64
f 20/39/65 22/37/66 23/36/67
f 19/40/68 21/9/69 22/37/70
f 67/41/71 20/39/72 68/38/73
f 17/42/74 19/40/75 20/39/76
f 16/43/77 18/7/78 19/40/79
f 66/44/80 17/42/81 67/41/82
f 14/45/83 16/43/84 17/42/85
f 13/46/86 15/5/87 16/43/88
f 65/22/89 14/45/90 66/44/91
f 9/21/92 13/46/93 14/45/94
f 10/24/95 12/3/96 13/46/97
f 96/47/98 86/48/99 95/49/100
f 43/50/101 34/51/102 33/52/103
f 44/53/104 35/14/105 34/51/106
f 47/54/107 36/15/108 35/14/109
f 50/55/110 37/56/111 36/15/112
f 53/57/113 38/13/114 37/56/115
f 59/58/116 38/13/117 56/59/118
f 37/56/19 38/13/19 36/15/19
f 59/60/119 40/61/120 39/62/121
f 62/63/122 33/52/123 40/61/124
f 72/64/125 41/65/126 64/66/127
f 64/66/128 42/67/129 63/68/130
f 63/68/131 43/50/132 62/63/133
f 71/69/134 64/66/135 61/70/136
f 61/70/137 63/68/138 60/71/139
f 60/71/140 62/63/141 59/60/142
f 71/72/143 58/73/144 70/74/145
f 61/75/146 57/76/147 58/73/148
f 60/77/149 56/59/150 57/76/151
f 69/78/152 58/73/153 55/79/154
f 55/79/155 57/76/156 54/80/157
f 54/80/158 56/59/159 53/57/160
f 68/81/161 55/79/162 52/82/163
f 52/82/164 54/80/165 51/83/166
f 51/83/167 53/57/168 50/55/169
f 67/84/170 52/82/171 49/85/172
f 49/85/173 51/83/174 48/86/175
f 48/86/176 50/55/177 47/54/178
f 66/87/179 49/85/180 46/88/181
f 46/88/182 48/86/183 45/89/184
f 45/89/185 47/54/186 44/53/187
f 65/90/188 46/88/189 41/65/190
f 41/65/191 45/89/192 42/67/193
f 42/67/194 44/53/195 43/50/196
f 90/91/197 74/92/198 89/93/199
f 91/94/200 76/95/201 90/91/202
f 91/94/203 80/96/204 78/97/205
f 92/98/206 82/99/207 80/96/208
f 93/100/209 84/101/210 82/99/211
f 94/102/212 86/48/213 84/101/214
f 89/93/215 88/103/216 96/47/217
f 33/52/19 34/51/19 40/61/19
f 39/62/19 34/51/19 35/14/19
f 5/8/218 4/6/218 6/10/218
f 3/4/218 6/10/218 4/6/218
f 3/4/218 8/17/218 7/104/218
f 1/19/218 8/17/218 2/2/218
f 87/105/219 89/93/215 96/47/217
f 85/106/220 94/102/212 83/107/221
f 83/107/222 93/100/209 81/108/223
f 81/108/224 92/98/206 79/109/225
f 79/109/226 91/94/203 77/110/227
f 75/111/228 91/94/200 90/91/202
f 73/112/229 90/91/197 89/93/199
f 85/106/230 96/47/98 95/49/100
f 12/3/4 2/2/231 3/4/5
f 15/5/7 3/4/232 4/6/8
f 18/7/10 4/6/233 5/8/11
f 21/9/13 5/8/234 6/10/14
f 69/35/53 23/36/235 26/29/54
f 23/36/56 22/37/236 25/32/57
f 22/37/59 21/9/237 24/11/60
f 68/38/62 20/39/238 23/36/63
f 20/39/65 19/40/239 22/37/66
f 19/40/68 18/7/240 21/9/69
f 67/41/71 17/42/241 20/39/72
f 17/42/74 16/43/242 19/40/75
f 16/43/77 15/5/243 18/7/78
f 66/44/80 14/45/244 17/42/81
f 14/45/83 13/46/245 16/43/84
f 13/46/86 12/3/246 15/5/87
f 44/53/104 47/54/247 35/14/105
f 47/54/107 50/55/248 36/15/108
f 50/55/110 53/57/249 37/56/111
f 53/57/113 56/59/250 38/13/114
f 69/78/152 70/74/251 58/73/153
f 55/79/155 58/73/252 57/76/156
f 54/80/158 57/76/253 56/59/159
f 68/81/161 69/78/254 55/79/162
f 52/82/164 55/79/255 54/80/165
f 51/83/167 54/80/256 53/57/168
f 67/84/170 68/81/257 52/82/171
f 49/85/173 52/82/258 51/83/174
f 48/86/176 51/83/259 50/55/177
f 66/87/179 67/84/260 49/85/180
f 46/88/182 49/85/261 48/86/183
f 45/89/185 48/86/262 47/54/186
f 11/1/1 1/19/263 2/2/2
f 6/10/16 7/113/264 27/12/17
f 38/13/19 39/114/19 35/14/19
f 27/16/20 7/104/265 8/17/21
f 30/18/23 8/17/266 1/19/24
f 72/20/26 32/23/267 9/21/27
f 32/23/29 31/25/268 10/24/30
f 31/25/32 30/18/269 11/1/33
f 71/26/35 29/27/270 32/23/36
f 29/27/38 28/28/271 31/25/39
f 28/28/41 27/16/272 30/18/42
f 26/29/44 29/33/273 71/30/45
f 25/32/47 28/34/274 29/33/48
f 24/11/50 27/12/275 28/34/51
f 65/22/89 9/21/276 14/45/90
f 9/21/92 10/24/277 13/46/93
f 10/24/95 11/1/278 12/3/96
f 96/47/98 88/103/279 86/48/99
f 43/50/101 44/53/280 34/51/102
f 59/58/116 39/114/281 38/13/117
f 59/60/119 62/63/282 40/61/120
f 62/63/122 43/50/283 33/52/123
f 72/64/125 65/90/284 41/65/126
f 64/66/128 41/65/285 42/67/129
f 63/68/131 42/67/286 43/50/132
f 71/69/134 72/64/287 64/66/135
f 61/70/137 64/66/288 63/68/138
f 60/71/140 63/68/289 62/63/141
f 71/72/143 61/75/290 58/73/144
f 61/75/146 60/77/291 57/76/147
f 60/77/149 59/58/292 56/59/150
f 65/90/188 66/87/293 46/88/189
f 41/65/191 46/88/294 45/89/192
f 42/67/194 45/89/295 44/53/195
f 90/91/197 76/95/296 74/92/198
f 91/94/200 78/97/297 76/95/201
f 91/94/203 92/98/298 80/96/204
f 92/98/206 93/100/299 82/99/207
f 93/100/209 94/102/300 84/101/210
f 94/102/212 95/49/301 86/48/213
f 89/93/215 74/92/302 88/103/216
f 39/62/19 40/61/19 34/51/19
f 3/4/218 7/113/218 6/10/218
f 3/4/218 2/2/218 8/17/218
f 87/105/219 73/112/303 89/93/215
f 85/106/220 95/49/301 94/102/212
f 83/107/222 94/102/300 93/100/209
f 81/108/224 93/100/299 92/98/206
f 79/109/226 92/98/298 91/94/203
f 75/111/228 77/110/304 91/94/200
f 73/112/229 75/111/305 90/91/197
f 85/106/230 87/105/306 96/47/98
