# Blender v2.82 (sub 7) OBJ File: ''
# www.blender.org
mtllib bow_000046.mtl
o Bow_Cylinder
v 0.815074 2.116215 -0.141605
v 0.779614 2.192732 -0.100131
v 0.764925 2.224427 -0.000003
v 0.779613 2.192732 0.100126
v 0.815073 2.116215 0.141600
v 0.850534 2.039697 0.100126
v 0.865222 2.008003 -0.000002
v 0.850534 2.039697 -0.100131
v 2.129412 0.346414 -0.141603
v 1.924187 1.022592 -0.141603
v 1.522648 1.639632 -0.141604
v 1.589640 1.656469 -0.100130
v 2.010174 1.032377 -0.100129
v 2.219222 0.349655 -0.100128
v 1.617615 1.662728 -0.000001
v 2.045879 1.035982 -0.000000
v 2.256471 0.350197 0.000000
v 1.589506 1.657038 0.100127
v 2.010043 1.033253 0.100128
v 2.219222 0.349651 0.100128
v 1.522779 1.639624 0.141602
v 1.924253 1.022629 0.141602
v 2.129412 0.346414 0.141603
v 1.457733 1.616723 0.100127
v 1.839848 1.003971 0.100128
v 2.039939 0.337975 0.100128
v 1.431169 1.605945 -0.000001
v 1.805081 0.995006 -0.000001
v 2.002935 0.333649 -0.000000
v 1.457515 1.617301 -0.100130
v 1.839707 1.004689 -0.100129
v 2.039943 0.337907 -0.100129
v 0.812805 -2.114527 -0.141603
v 0.777247 -2.190999 -0.100128
v 0.762519 -2.222675 0.000000
v 0.777247 -2.190999 0.100128
v 0.812805 -2.114527 0.141603
v 0.848364 -2.038055 0.100128
v 0.863093 -2.006380 0.000000
v 0.848364 -2.038055 -0.100128
v 2.129412 -0.346413 -0.141603
v 1.923320 -1.022327 -0.141603
v 1.520991 -1.638851 -0.141603
v 1.587962 -1.655774 -0.100128
v 2.009295 -1.032222 -0.100128
v 2.219220 -0.349670 -0.100128
v 1.615929 -1.662068 0.000000
v 2.044995 -1.035873 0.000000
v 2.256470 -0.350207 0.000000
v 1.587827 -1.656343 0.100129
v 2.009163 -1.033097 0.100129
v 2.219220 -0.349666 0.100128
v 1.521122 -1.638843 0.141603
v 1.923387 -1.022364 0.141603
v 2.129412 -0.346413 0.141603
v 1.456105 -1.615859 0.100129
v 1.839006 -1.003598 0.100128
v 2.039950 -0.337875 0.100128
v 1.429555 -1.605047 0.000000
v 1.804250 -0.994589 0.000000
v 2.002951 -0.333495 0.000000
v 1.455886 -1.616437 -0.100128
v 1.838863 -1.004315 -0.100128
v 2.039954 -0.337806 -0.100128
v 2.155554 0.000000 -0.141603
v 2.246274 0.000000 -0.100128
v 2.283851 0.000000 0.000000
v 2.246274 0.000000 0.100128
v 2.155554 0.000000 0.141603
v 2.064834 0.000000 0.100128
v 2.027257 0.000000 -0.000000
v 2.064834 0.000000 -0.100128
v 0.925599 2.027533 -0.026696
v 0.923445 -2.025988 -0.026693
v 0.943284 2.034129 -0.018877
v 0.941121 -2.032606 -0.018875
v 0.950610 2.036861 -0.000002
v 0.948443 -2.035348 0.000000
v 0.943284 2.034129 0.018873
v 0.941121 -2.032606 0.018875
v 0.925599 2.027533 0.026691
v 0.923445 -2.025988 0.026694
v 0.907914 2.020937 0.018873
v 0.905768 -2.019369 0.018875
v 0.900589 2.018205 -0.000002
v 0.898446 -2.016627 0.000000
v 0.907914 2.020937 -0.018877
v 0.905768 -2.019369 -0.018875
v -0.245929 -0.000000 -0.026694
v -0.227054 -0.000000 -0.018876
v -0.219236 -0.000000 -0.000000
v -0.227054 -0.000000 0.018875
v -0.245929 -0.000000 0.026693
v -0.264804 -0.000000 0.018875
v -0.272623 -0.000000 -0.000000
v -0.264804 -0.000000 -0.018876
vt 0.415512 0.435877
vt 0.400099 0.697333
vt 0.403102 0.391658
vt 0.363795 0.918795
vt 0.365342 0.371239
vt 0.329116 0.695481
vt 0.327496 0.392348
vt 0.320164 0.664925
vt 0.314951 0.436624
vt 0.315153 0.701007
vt 0.300410 0.490184
vt 0.268850 0.518222
vt 0.164551 0.690291
vt 0.162885 0.929390
vt 0.124572 0.911161
vt 0.461378 0.516577
vt 0.414213 0.700837
vt 0.429881 0.489274
vt 0.409216 0.665592
vt 0.445757 0.183823
vt 0.420971 0.141474
vt 0.426085 0.118748
vt 0.440749 0.206831
vt 0.419264 0.252824
vt 0.434015 0.316403
vt 0.478969 0.225812
vt 0.475238 0.247511
vt 0.468580 0.349640
vt 0.290702 0.208573
vt 0.252454 0.228467
vt 0.285793 0.185708
vt 0.296979 0.317836
vt 0.256096 0.250048
vt 0.262347 0.351838
vt 0.305723 0.120183
vt 0.310743 0.142781
vt 0.311970 0.254023
vt 0.328331 0.059376
vt 0.331398 0.083632
vt 0.329530 0.190214
vt 0.366080 0.032501
vt 0.366029 0.057475
vt 0.365803 0.164989
vt 0.403723 0.058469
vt 0.400555 0.082803
vt 0.401974 0.189372
vt 0.927082 0.502568
vt 0.597959 0.094171
vt 0.597959 0.502569
vt 0.084417 0.425353
vt 0.093581 0.687590
vt 0.085228 0.655296
vt 0.097874 0.381957
vt 0.136090 0.363958
vt 0.173403 0.387462
vt 0.174224 0.660330
vt 0.184883 0.432511
vt 0.178371 0.696702
vt 0.229007 0.516999
vt 0.198137 0.486964
vt 0.036661 0.503074
vt 0.079396 0.690193
vt 0.084817 0.926901
vt 0.068785 0.477796
vt 0.060205 0.171557
vt 0.085982 0.130816
vt 0.064660 0.194867
vt 0.085033 0.242194
vt 0.068777 0.304788
vt 0.026016 0.211401
vt 0.029227 0.233322
vt 0.033444 0.335800
vt 0.252303 0.228478
vt 0.214556 0.206162
vt 0.220008 0.183625
vt 0.248150 0.249811
vt 0.205677 0.314949
vt 0.239475 0.351135
vt 0.201655 0.116878
vt 0.196100 0.139140
vt 0.192219 0.250224
vt 0.180514 0.054675
vt 0.176870 0.078719
vt 0.176195 0.185342
vt 0.143433 0.025416
vt 0.142888 0.050375
vt 0.140549 0.157826
vt 0.105197 0.048969
vt 0.107783 0.073487
vt 0.103823 0.179889
vt 0.081413 0.107781
vt 0.833047 0.502568
vt 0.880064 0.094170
vt 0.880065 0.502568
vt 0.786029 0.502569
vt 0.833046 0.094170
vt 0.739011 0.094171
vt 0.786029 0.094171
vt 0.739012 0.502569
vt 0.691994 0.094171
vt 0.691994 0.502569
vt 0.644976 0.094171
vt 0.644977 0.502569
vt 0.927081 0.094170
vt 0.325070 0.934563
vt 0.403149 0.937053
vt 0.927084 0.910966
vt 0.597959 0.910967
vt 0.644977 0.910967
vt 0.691995 0.910967
vt 0.739013 0.910967
vt 0.786030 0.910967
vt 0.833048 0.910967
vt 0.880066 0.910967
vn 0.3493 0.5274 -0.7745
vn 0.3812 0.5668 -0.7303
vn 0.3482 0.5260 -0.7760
vn 0.5391 0.8181 -0.2004
vn 0.5427 0.8200 -0.1817
vn 0.5388 0.8179 -0.2017
vn 0.5408 0.8178 0.1969
vn 0.5410 0.8212 0.1816
vn 0.5407 0.8175 0.1982
vn 0.3515 0.5226 0.7767
vn 0.3764 0.5688 0.7313
vn 0.3495 0.5189 0.7801
vn -0.3438 -0.4949 0.7980
vn -0.3832 -0.5684 0.7281
vn -0.3403 -0.4885 0.8035
vn -0.5691 -0.8028 0.1775
vn -0.5571 -0.7985 0.2283
vn -0.5558 -0.7979 0.2333
vn -0.9068 0.4216 -0.0000
vn -0.5564 -0.7981 -0.2312
vn -0.5691 -0.8028 -0.1779
vn -0.5550 -0.7975 -0.2365
vn -0.3390 -0.5026 -0.7953
vn -0.3915 -0.5645 -0.7267
vn -0.3367 -0.4999 -0.7979
vn -0.4160 -0.0313 -0.9088
vn -0.4175 -0.0309 -0.9081
vn -0.4156 -0.0314 -0.9090
vn -0.4083 -0.1238 -0.9044
vn -0.4151 -0.1248 -0.9012
vn -0.4076 -0.1237 -0.9047
vn -0.3874 -0.2514 -0.8870
vn -0.4418 -0.2764 -0.8535
vn -0.3836 -0.2496 -0.8891
vn -0.9342 -0.0687 -0.3501
vn -0.9347 -0.0683 -0.3488
vn -0.9340 -0.0688 -0.3505
vn -0.8996 -0.2700 -0.3433
vn -0.9015 -0.2698 -0.3385
vn -0.8993 -0.2701 -0.3439
vn -0.8038 -0.5007 -0.3212
vn -0.8190 -0.5021 -0.2778
vn -0.8021 -0.5004 -0.3258
vn -0.9347 -0.0683 0.3488
vn -0.9342 -0.0687 0.3501
vn -0.9340 -0.0688 0.3505
vn -0.9016 -0.2698 0.3380
vn -0.8995 -0.2701 0.3434
vn -0.8993 -0.2702 0.3440
vn -0.8193 -0.5023 0.2766
vn -0.8045 -0.5009 0.3191
vn -0.8029 -0.5007 0.3236
vn -0.4160 -0.0308 0.9088
vn -0.4175 -0.0314 0.9081
vn -0.4156 -0.0306 0.9090
vn -0.4085 -0.1229 0.9044
vn -0.4143 -0.1256 0.9014
vn -0.4079 -0.1225 0.9048
vn -0.3897 -0.2440 0.8880
vn -0.4363 -0.2830 0.8541
vn -0.3849 -0.2400 0.8912
vn 0.4160 0.0315 0.9088
vn 0.4176 0.0322 0.9080
vn 0.4156 0.0314 0.9090
vn 0.4129 0.1254 0.9021
vn 0.4182 0.1279 0.8993
vn 0.4122 0.1251 0.9024
vn 0.3992 0.2606 0.8790
vn 0.4413 0.2967 0.8469
vn 0.3947 0.2568 0.8822
vn 0.9339 0.0724 0.3500
vn 0.9345 0.0729 0.3485
vn 0.9338 0.0722 0.3504
vn 0.9006 0.2757 0.3359
vn 0.9021 0.2769 0.3310
vn 0.9005 0.2755 0.3365
vn 0.7923 0.5348 0.2938
vn 0.7978 0.5445 0.2591
vn 0.7915 0.5336 0.2978
vn 0.9339 0.0729 -0.3500
vn 0.9345 0.0724 -0.3485
vn 0.9337 0.0730 -0.3504
vn 0.9004 0.2764 -0.3360
vn 0.9019 0.2762 -0.3321
vn 0.9002 0.2764 -0.3364
vn 0.7887 0.5383 -0.2968
vn 0.8002 0.5398 -0.2612
vn 0.7876 0.5382 -0.3002
vn 0.4160 0.0320 -0.9088
vn 0.4177 0.0317 -0.9080
vn 0.4156 0.0322 -0.9090
vn 0.4127 0.1263 -0.9021
vn 0.4186 0.1271 -0.8992
vn 0.4122 0.1262 -0.9023
vn 0.3972 0.2671 -0.8780
vn 0.4457 0.2906 -0.8467
vn 0.3942 0.2656 -0.8798
vn -0.9240 0.0002 -0.3823
vn -0.8367 -0.4850 -0.2545
vn -0.9239 0.0002 -0.3827
vn 0.3486 -0.5278 -0.7745
vn 0.3805 -0.5673 -0.7303
vn 0.3840 -0.5718 -0.7250
vn 0.5380 -0.8188 -0.2004
vn 0.5416 -0.8207 -0.1817
vn 0.5420 -0.8209 -0.1800
vn 0.5397 -0.8185 0.1969
vn 0.5400 -0.8218 0.1816
vn 0.5400 -0.8221 0.1806
vn 0.3508 -0.5231 0.7767
vn 0.3757 -0.5693 0.7313
vn 0.3765 -0.5708 0.7297
vn -0.3431 0.4954 0.7980
vn -0.3825 0.5689 0.7280
vn -0.3840 0.5718 0.7250
vn -0.5561 0.7992 0.2283
vn -0.5681 0.8036 0.1775
vn -0.5548 0.7986 0.2333
vn -0.5553 0.7988 -0.2312
vn -0.5680 0.8036 -0.1779
vn -0.5696 0.8040 -0.1706
vn -0.3383 0.5030 -0.7953
vn -0.3908 0.5650 -0.7267
vn -0.3980 0.5734 -0.7161
vn -0.4160 0.0313 -0.9088
vn -0.4175 0.0309 -0.9081
vn -0.4180 0.0308 -0.9079
vn -0.4081 0.1243 -0.9044
vn -0.4149 0.1253 -0.9012
vn -0.4156 0.1254 -0.9008
vn -0.3870 0.2519 -0.8870
vn -0.4414 0.2769 -0.8535
vn -0.4458 0.2789 -0.8506
vn -0.9342 0.0687 -0.3501
vn -0.9347 0.0683 -0.3488
vn -0.9349 0.0681 -0.3484
vn -0.8992 0.2712 -0.3433
vn -0.9011 0.2709 -0.3385
vn -0.9013 0.2709 -0.3379
vn -0.8032 0.5017 -0.3212
vn -0.8183 0.5032 -0.2778
vn -0.8199 0.5033 -0.2729
vn -0.9342 0.0687 0.3501
vn -0.9347 0.0683 0.3488
vn -0.9340 0.0688 0.3505
vn -0.8992 0.2713 0.3434
vn -0.9013 0.2710 0.3380
vn -0.8989 0.2713 0.3440
vn -0.8039 0.5019 0.3191
vn -0.8186 0.5033 0.2766
vn -0.8022 0.5017 0.3236
vn -0.4160 0.0308 0.9088
vn -0.4175 0.0314 0.9081
vn -0.4179 0.0315 0.9079
vn -0.4084 0.1234 0.9044
vn -0.4141 0.1261 0.9014
vn -0.4148 0.1264 0.9011
vn -0.3894 0.2445 0.8880
vn -0.4360 0.2836 0.8541
vn -0.4407 0.2876 0.8503
vn 0.4160 -0.0315 0.9088
vn 0.4176 -0.0322 0.9080
vn 0.4181 -0.0323 0.9078
vn 0.4128 -0.1259 0.9021
vn 0.4180 -0.1284 0.8993
vn 0.4186 -0.1287 0.8990
vn 0.3988 -0.2612 0.8790
vn 0.4410 -0.2973 0.8469
vn 0.4453 -0.3010 0.8432
vn 0.9339 -0.0724 0.3500
vn 0.9345 -0.0729 0.3485
vn 0.9346 -0.0731 0.3481
vn 0.9003 -0.2768 0.3358
vn 0.9017 -0.2780 0.3310
vn 0.9019 -0.2782 0.3305
vn 0.7916 -0.5358 0.2938
vn 0.7971 -0.5455 0.2591
vn 0.7976 -0.5465 0.2551
vn 0.9339 -0.0729 -0.3500
vn 0.9345 -0.0724 -0.3485
vn 0.9347 -0.0723 -0.3481
vn 0.9001 -0.2775 -0.3359
vn 0.9016 -0.2774 -0.3320
vn 0.9017 -0.2773 -0.3316
vn 0.7880 -0.5393 -0.2968
vn 0.7995 -0.5409 -0.2612
vn 0.8006 -0.5410 -0.2576
vn 0.4160 -0.0320 -0.9088
vn 0.4177 -0.0317 -0.9080
vn 0.4181 -0.0316 -0.9078
vn 0.4126 -0.1268 -0.9020
vn 0.4184 -0.1277 -0.8992
vn 0.4190 -0.1277 -0.8990
vn 0.3969 -0.2676 -0.8780
vn 0.4453 -0.2912 -0.8467
vn 0.4488 -0.2929 -0.8443
vn 0.3830 -0.0001 -0.9237
vn 0.4722 0.2714 -0.8387
vn 0.3827 -0.0001 -0.9239
vn 0.9241 -0.0003 -0.3823
vn 0.8385 0.4811 -0.2558
vn 0.9239 -0.0002 -0.3827
vn 0.9241 -0.0003 0.3823
vn 0.8385 0.4811 0.2558
vn 0.8386 0.4811 0.2554
vn 0.3830 -0.0001 0.9237
vn 0.4722 0.2714 0.8387
vn 0.4725 0.2716 0.8384
vn -0.3830 0.0001 0.9237
vn -0.4725 -0.2727 0.8381
vn -0.4728 -0.2729 0.8379
vn -0.9240 0.0002 0.3823
vn -0.8367 -0.4850 0.2545
vn -0.8367 -0.4850 0.2541
vn -0.3830 0.0001 -0.9237
vn -0.4725 -0.2727 -0.8381
vn -0.3827 0.0001 -0.9239
vn -0.9073 -0.4205 -0.0000
vn -0.4720 0.2727 -0.8384
vn -0.8364 0.4853 0.2548
vn -0.8365 0.4854 0.2544
vn -0.4720 0.2727 0.8383
vn -0.4723 0.2729 0.8381
vn 0.4718 -0.2714 0.8389
vn 0.4721 -0.2716 0.8387
vn 0.8382 -0.4814 0.2561
vn 0.8383 -0.4815 0.2557
vn 0.8382 -0.4814 -0.2561
vn 0.4718 -0.2714 -0.8389
vn -0.8364 0.4853 -0.2548
vn 0.5430 0.8202 -0.1800
vn 0.5411 0.8214 0.1806
vn 0.3772 0.5703 0.7297
vn -0.3847 -0.5713 0.7250
vn -0.4179 -0.0315 0.9079
vn -0.4149 -0.1259 0.9011
vn -0.4411 -0.2870 0.8503
vn 0.4181 0.0323 0.9078
vn 0.4188 0.1281 0.8990
vn 0.4457 0.3005 0.8432
vn 0.9346 0.0731 0.3481
vn 0.9022 0.2771 0.3305
vn 0.7983 0.5455 0.2551
vn 0.9347 0.0723 -0.3481
vn 0.9021 0.2762 -0.3316
vn 0.8013 0.5399 -0.2576
vn 0.5378 -0.8186 -0.2017
vn 0.5397 -0.8182 0.1982
vn 0.3488 -0.5194 0.7801
vn -0.3397 0.4890 0.8035
vn -0.4156 0.0306 0.9090
vn -0.4077 0.1231 0.9048
vn -0.3846 0.2405 0.8912
vn 0.4156 -0.0314 0.9090
vn 0.4122 -0.1256 0.9024
vn 0.3944 -0.2573 0.8822
vn 0.9338 -0.0722 0.3504
vn 0.9002 -0.2767 0.3364
vn 0.7909 -0.5346 0.2978
vn 0.9337 -0.0730 -0.3504
vn 0.8999 -0.2776 -0.3363
vn 0.7869 -0.5392 -0.3002
vn 0.3848 0.5713 -0.7250
vn -0.5707 -0.8033 0.1706
vn -0.5707 -0.8033 -0.1706
vn -0.3987 -0.5729 -0.7161
vn -0.4180 -0.0308 -0.9079
vn -0.4158 -0.1249 -0.9008
vn -0.4462 -0.2784 -0.8506
vn -0.9349 -0.0681 -0.3484
vn -0.9017 -0.2698 -0.3379
vn -0.8206 -0.5022 -0.2729
vn -0.9349 -0.0681 0.3484
vn -0.9019 -0.2698 0.3373
vn -0.8208 -0.5024 0.2718
vn 0.4181 0.0316 -0.9078
vn 0.4191 0.1272 -0.8990
vn 0.4492 0.2923 -0.8443
vn -0.8367 -0.4850 -0.2541
vn 0.3475 -0.5264 -0.7760
vn -0.5696 0.8040 0.1706
vn -0.5540 0.7982 -0.2365
vn -0.3361 0.5003 -0.7979
vn -0.4156 0.0314 -0.9090
vn -0.4075 0.1242 -0.9047
vn -0.3833 0.2501 -0.8891
vn -0.9340 0.0688 -0.3505
vn -0.8990 0.2712 -0.3439
vn -0.8015 0.5015 -0.3258
vn -0.9349 0.0681 0.3484
vn -0.9015 0.2710 0.3373
vn -0.8202 0.5034 0.2718
vn 0.4156 -0.0322 -0.9090
vn 0.4121 -0.1267 -0.9023
vn 0.3938 -0.2661 -0.8798
vn 0.4725 0.2716 -0.8384
vn 0.8386 0.4811 -0.2554
vn 0.9239 -0.0002 0.3827
vn 0.3827 -0.0001 0.9239
vn -0.3827 0.0001 0.9239
vn -0.9239 0.0002 0.3827
vn -0.4728 -0.2729 -0.8379
vn -0.4723 0.2729 -0.8381
vn 0.8383 -0.4815 -0.2557
vn 0.4721 -0.2716 -0.8387
vn -0.8365 0.4854 -0.2544
usemtl Bow_Texture
s 1
f 11/1/1 2/2/2 12/3/3
f 12/3/4 3/4/5 15/5/6
f 15/5/7 4/6/8 18/7/9
f 18/7/10 5/8/11 21/9/12
f 21/9/13 6/10/14 24/11/15
f 6/10/16 27/12/17 24/11/18
f 36/13/19 39/14/19 35/15/19
f 27/16/20 8/17/21 30/18/22
f 30/18/23 1/19/24 11/1/25
f 72/20/26 9/21/27 65/22/28
f 32/23/29 10/24/30 9/21/31
f 31/25/32 11/1/33 10/24/34
f 71/26/35 32/23/36 72/20/37
f 29/27/38 31/25/39 32/23/40
f 28/28/41 30/18/42 31/25/43
f 26/29/44 71/30/45 70/31/46
f 25/32/47 29/33/48 26/29/49
f 24/11/50 28/34/51 25/32/52
f 69/35/53 26/29/54 70/31/55
f 23/36/56 25/32/57 26/29/58
f 22/37/59 24/11/60 25/32/61
f 68/38/62 23/36/63 69/35/64
f 20/39/65 22/37/66 23/36/67
f 19/40/68 21/9/69 22/37/70
f 67/41/71 20/39/72 68/38/73
f 17/42/74 19/40/75 20/39/76
f 16/43/77 18/7/78 19/40/79
f 66/44/80 17/42/81 67/41/82
f 14/45/83 16/43/84 17/42/85
f 13/46/86 15/5/87 16/43/88
f 65/22/89 14/45/90 66/44/91
f 9/21/92 13/46/93 14/45/94
f 10/24/95 12/3/96 13/46/97
f 96/47/98 86/48/99 95/49/100
f 43/50/101 34/51/102 33/52/103
f 44/53/104 35/15/105 34/51/106
f 47/54/107 36/13/108 35/15/109
f 50/55/110 37/56/111 36/13/112
f 53/57/113 38/58/114 37/56/115
f 59/59/116 38/58/117 56/60/118
f 37/56/19 38/58/19 36/13/19
f 59/61/119 40/62/120 39/63/121
f 62/64/122 33/52/123 40/62/124
f 72/65/125 41/66/126 64/67/127
f 64/67/128 42/68/129 63/69/130
f 63/69/131 43/50/132 62/64/133
f 71/70/134 64/67/135 61/71/136
f 61/71/137 63/69/138 60/72/139
f 60/72/140 62/64/141 59/61/142
f 71/73/143 58/74/144 70/75/145
f 61/76/146 57/77/147 58/74/148
f 60/78/149 56/60/150 57/77/151
f 69/79/152 58/74/153 55/80/154
f 55/80/155 57/77/156 54/81/157
f 54/81/158 56/60/159 53/57/160
f 68/82/161 55/80/162 52/83/163
f 52/83/164 54/81/165 51/84/166
f 51/84/167 53/57/168 50/55/169
f 67/85/170 52/83/171 49/86/172
f 49/86/173 51/84/174 48/87/175
f 48/87/176 50/55/177 47/54/178
f 66/88/179 49/86/180 46/89/181
f 46/89/182 48/87/183 45/90/184
f 45/90/185 47/54/186 44/53/187
f 65/91/188 46/89/189 41/66/190
f 41/66/191 45/90/192 42/68/193
f 42/68/194 44/53/195 43/50/196
f 90/92/197 74/93/198 89/94/199
f 91/95/200 76/96/201 90/92/202
f 91/95/203 80/97/204 78/98/205
f 92/99/206 82/100/207 80/97/208
f 93/101/209 84/102/210 82/100/211
f 94/103/212 86/48/213 84/102/214
f 89/94/215 88/104/216 96/47/217
f 33/52/19 34/51/19 40/62/19
f 35/15/19 40/62/19 34/51/19
f 5/8/218 4/6/218 6/10/218
f 4/6/218 7/105/218 6/10/218
f 2/2/218 7/106/218 3/4/218
f 1/19/218 8/17/218 2/2/218
f 87/107/219 89/94/215 96/47/217
f 85/108/220 94/103/212 83/109/221
f 83/109/222 93/101/209 81/110/223
f 81/110/224 92/99/206 79/111/225
f 79/111/226 91/95/203 77/112/227
f 75/113/228 91/95/200 90/92/202
f 73/114/229 90/92/197 89/94/199
f 85/108/230 96/47/98 95/49/100
f 12/3/4 2/2/231 3/4/5
f 15/5/7 3/4/232 4/6/8
f 18/7/10 4/6/233 5/8/11
f 21/9/13 5/8/234 6/10/14
f 69/35/53 23/36/235 26/29/54
f 23/36/56 22/37/236 25/32/57
f 22/37/59 21/9/237 24/11/60
f 68/38/62 20/39/238 23/36/63
f 20/39/65 19/40/239 22/37/66
f 19/40/68 18/7/240 21/9/69
f 67/41/71 17/42/241 20/39/72
f 17/42/74 16/43/242 19/40/75
f 16/43/77 15/5/243 18/7/78
f 66/44/80 14/45/244 17/42/81
f 14/45/83 13/46/245 16/43/84
f 13/46/86 12/3/246 15/5/87
f 44/53/104 47/54/247 35/15/105
f 47/54/107 50/55/248 36/13/108
f 50/55/110 53/57/249 37/56/111
f 53/57/113 56/60/250 38/58/114
f 69/79/152 70/75/251 58/74/153
f 55/80/155 58/74/252 57/77/156
f 54/81/158 57/77/253 56/60/159
f 68/82/161 69/79/254 55/80/162
f 52/83/164 55/80/255 54/81/165
f 51/84/167 54/81/256 53/57/168
f 67/85/170 68/82/257 52/83/171
f 49/86/173 52/83/258 51/84/174
f 48/87/176 51/84/259 50/55/177
f 66/88/179 67/85/260 49/86/180
f 46/89/182 49/86/261 48/87/183
f 45/90/185 48/87/262 47/54/186
f 11/1/1 1/19/263 2/2/2
f 6/10/16 7/105/264 27/12/17
f 36/13/19 38/58/19 39/14/19
f 27/16/20 7/106/265 8/17/21
f 30/18/23 8/17/266 1/19/24
f 72/20/26 32/23/267 9/21/27
f 32/23/29 31/25/268 10/24/30
f 31/25/32 30/18/269 11/1/33
f 71/26/35 29/27/270 32/23/36
f 29/27/38 28/28/271 31/25/39
f 28/28/41 27/16/272 30/18/42
f 26/29/44 29/33/273 71/30/45
f 25/32/47 28/34/274 29/33/48
f 24/11/50 27/12/275 28/34/51
f 65/22/89 9/21/276 14/45/90
f 9/21/92 10/24/277 13/46/93
f 10/24/95 11/1/278 12/3/96
f 96/47/98 88/104/279 86/48/99
f 43/50/101 44/53/280 34/51/102
f 59/59/116 39/14/281 38/58/117
f 59/61/119 62/64/282 40/62/120
f 62/64/122 43/50/283 33/52/123
f 72/65/125 65/91/284 41/66/126
f 64/67/128 41/66/285 42/68/129
f 63/69/131 42/68/286 43/50/132
f 71/70/134 72/65/287 64/67/135
f 61/71/137 64/67/288 63/69/138
f 60/72/140 63/69/289 62/64/141
f 71/73/143 61/76/290 58/74/144
f 61/76/146 60/78/291 57/77/147
f 60/78/149 59/59/292 56/60/150
f 65/91/188 66/88/293 46/89/189
f 41/66/191 46/89/294 45/90/192
f 42/68/194 45/90/295 44/53/195
f 90/92/197 76/96/296 74/93/198
f 91/95/200 78/98/297 76/96/201
f 91/95/203 92/99/298 80/97/204
f 92/99/206 93/101/299 82/100/207
f 93/101/209 94/103/300 84/102/210
f 94/103/212 95/49/301 86/48/213
f 89/94/215 74/93/302 88/104/216
f 35/15/19 39/63/19 40/62/19
f 4/6/218 3/4/218 7/105/218
f 2/2/218 8/17/218 7/106/218
f 87/107/219 73/114/303 89/94/215
f 85/108/220 95/49/301 94/103/212
f 83/109/222 94/103/300 93/101/209
f 81/110/224 93/101/299 92/99/206
f 79/111/226 92/99/298 91/95/203
f 75/113/228 77/112/304 91/95/200
f 73/114/229 75/113/305 90/92/197
f 85/108/230 87/107/306 96/47/98
