# Blender v2.82 (sub 7) OBJ File: ''
# www.blender.org
mtllib bow_000062.mtl
o Bow_Cylinder
v 0.991144 2.270510 -0.141605
v 0.968751 2.351818 -0.100131
v 0.959476 2.385497 -0.000002
v 0.968751 2.351818 0.100126
v 0.991144 2.270510 0.141601
v 1.013538 2.189203 0.100126
v 1.022814 2.155524 -0.000002
v 1.013538 2.189203 -0.100131
v 2.129487 0.346438 -0.141603
v 1.947745 1.029311 -0.141603
v 1.610924 1.683993 -0.141604
v 1.679411 1.693592 -0.100129
v 2.034104 1.035754 -0.100129
v 2.219331 0.349214 -0.100128
v 1.707841 1.697218 -0.000001
v 2.069903 1.038202 -0.000000
v 2.256566 0.349905 0.000000
v 1.679384 1.693869 0.100127
v 2.034070 1.036186 0.100128
v 2.219331 0.349212 0.100128
v 1.610984 1.683981 0.141602
v 1.947779 1.029327 0.141602
v 2.129487 0.346438 0.141603
v 1.543029 1.671406 0.100127
v 1.861895 1.018506 0.100128
v 2.039783 0.340679 0.100128
v 1.514978 1.665565 -0.000001
v 1.826374 1.013414 -0.000001
v 2.002652 0.337817 -0.000000
v 1.542963 1.671691 -0.100130
v 1.861850 1.018860 -0.100129
v 2.039785 0.340640 -0.100129
v 0.992055 -2.271049 -0.141603
v 0.969700 -2.352367 -0.100128
v 0.960441 -2.386050 0.000000
v 0.969700 -2.352367 0.100128
v 0.992055 -2.271049 0.141603
v 1.014410 -2.189731 0.100128
v 1.023670 -2.156048 0.000000
v 1.014410 -2.189731 -0.100128
v 2.129487 -0.346438 -0.141603
v 1.948069 -1.029398 -0.141603
v 1.611557 -1.684238 -0.141603
v 1.680049 -1.693805 -0.100128
v 2.034431 -1.035800 -0.100128
v 2.219331 -0.349208 -0.100128
v 1.708481 -1.697417 0.000000
v 2.070231 -1.038230 0.000000
v 2.256566 -0.349901 0.000000
v 1.680022 -1.694082 0.100128
v 2.034397 -1.036231 0.100128
v 2.219331 -0.349206 0.100128
v 1.611618 -1.684226 0.141603
v 1.948102 -1.029413 0.141603
v 2.129487 -0.346438 0.141603
v 1.543656 -1.671683 0.100128
v 1.862214 -1.018632 0.100128
v 2.039781 -0.340715 0.100128
v 1.515602 -1.665855 0.000000
v 1.826691 -1.013558 0.000000
v 2.002648 -0.337873 0.000000
v 1.543591 -1.671968 -0.100128
v 1.862169 -1.018987 -0.100128
v 2.039783 -0.340677 -0.100128
v 2.155554 0.000000 -0.141603
v 2.246274 0.000000 -0.100128
v 2.283852 0.000000 0.000000
v 2.246274 0.000000 0.100128
v 2.155554 0.000000 0.141603
v 2.064834 0.000000 0.100128
v 2.027256 0.000000 -0.000000
v 2.064834 0.000000 -0.100128
v 1.085581 2.164860 -0.026696
v 1.086441 -2.165353 -0.026693
v 1.104110 2.168457 -0.018877
v 1.104972 -2.168943 -0.018875
v 1.111785 2.169948 -0.000002
v 1.112648 -2.170429 0.000000
v 1.104110 2.168457 0.018873
v 1.104972 -2.168943 0.018875
v 1.085581 2.164860 0.026691
v 1.086441 -2.165353 0.026694
v 1.067052 2.161262 0.018873
v 1.067911 -2.161765 0.018875
v 1.059377 2.159771 -0.000002
v 1.060235 -2.160278 0.000000
v 1.067052 2.161262 -0.018877
v 1.067911 -2.161765 -0.018875
v 0.103764 -0.000000 -0.026694
v 0.122639 -0.000000 -0.018875
v 0.130457 -0.000000 -0.000000
v 0.122639 -0.000000 0.018875
v 0.103764 -0.000000 0.026693
v 0.084889 -0.000000 0.018875
v 0.077071 -0.000000 -0.000000
v 0.084889 -0.000000 -0.018875
vt 0.415512 0.435877
vt 0.400099 0.697333
vt 0.403102 0.391658
vt 0.363795 0.918795
vt 0.365342 0.371239
vt 0.329116 0.695481
vt 0.327496 0.392348
vt 0.320164 0.664925
vt 0.314951 0.436624
vt 0.315153 0.701007
vt 0.300410 0.490184
vt 0.268850 0.518222
vt 0.164551 0.690291
vt 0.162885 0.929390
vt 0.124572 0.911161
vt 0.461378 0.516577
vt 0.414213 0.700837
vt 0.429881 0.489274
vt 0.409216 0.665592
vt 0.445757 0.183823
vt 0.420971 0.141474
vt 0.426085 0.118748
vt 0.440749 0.206831
vt 0.419264 0.252824
vt 0.434015 0.316403
vt 0.478969 0.225812
vt 0.475238 0.247511
vt 0.468580 0.349640
vt 0.290702 0.208573
vt 0.252454 0.228467
vt 0.285793 0.185708
vt 0.296979 0.317836
vt 0.256096 0.250048
vt 0.262347 0.351838
vt 0.305723 0.120183
vt 0.310743 0.142781
vt 0.311970 0.254023
vt 0.328331 0.059376
vt 0.331398 0.083632
vt 0.329530 0.190214
vt 0.366080 0.032501
vt 0.366029 0.057475
vt 0.365803 0.164989
vt 0.403723 0.058469
vt 0.400555 0.082803
vt 0.401974 0.189372
vt 0.927082 0.502568
vt 0.597959 0.094171
vt 0.597959 0.502569
vt 0.084417 0.425353
vt 0.093581 0.687590
vt 0.085228 0.655296
vt 0.097874 0.381957
vt 0.136090 0.363958
vt 0.173403 0.387462
vt 0.174224 0.660330
vt 0.184883 0.432511
vt 0.178371 0.696702
vt 0.229007 0.516999
vt 0.198137 0.486964
vt 0.036661 0.503074
vt 0.079396 0.690193
vt 0.084817 0.926901
vt 0.068785 0.477796
vt 0.060205 0.171557
vt 0.085982 0.130816
vt 0.064660 0.194867
vt 0.085033 0.242194
vt 0.068777 0.304788
vt 0.026016 0.211401
vt 0.029227 0.233322
vt 0.033444 0.335800
vt 0.252303 0.228478
vt 0.214556 0.206162
vt 0.220008 0.183625
vt 0.248150 0.249811
vt 0.205677 0.314949
vt 0.239475 0.351135
vt 0.201655 0.116878
vt 0.196100 0.139140
vt 0.192219 0.250224
vt 0.180514 0.054675
vt 0.176870 0.078719
vt 0.176195 0.185342
vt 0.143433 0.025416
vt 0.142888 0.050375
vt 0.140549 0.157826
vt 0.105197 0.048969
vt 0.107783 0.073487
vt 0.103823 0.179889
vt 0.081413 0.107781
vt 0.833047 0.502568
vt 0.880064 0.094170
vt 0.880065 0.502568
vt 0.786029 0.502569
vt 0.833046 0.094170
vt 0.739011 0.094171
vt 0.786029 0.094171
vt 0.739012 0.502569
vt 0.691994 0.094171
vt 0.691994 0.502569
vt 0.644976 0.094171
vt 0.644977 0.502569
vt 0.927081 0.094170
vt 0.403149 0.937053
vt 0.927084 0.910966
vt 0.597959 0.910967
vt 0.644977 0.910967
vt 0.691995 0.910967
vt 0.739013 0.910967
vt 0.786030 0.910967
vt 0.833048 0.910967
vt 0.880066 0.910967
vt 0.325070 0.934563
vn 0.4177 0.4507 -0.7889
vn 0.4676 0.4951 -0.7322
vn 0.4159 0.4491 -0.7908
vn 0.6617 0.7192 -0.2119
vn 0.6678 0.7214 -0.1834
vn 0.6613 0.7190 -0.2138
vn 0.6640 0.7175 0.2104
vn 0.6656 0.7234 0.1835
vn 0.6638 0.7170 0.2126
vn 0.4209 0.4456 0.7901
vn 0.4621 0.4988 0.7332
vn 0.4177 0.4414 0.7941
vn -0.4183 -0.4290 0.8006
vn -0.4713 -0.4976 0.7282
vn -0.4137 -0.4231 0.8061
vn -0.6937 -0.6982 0.1772
vn -0.6815 -0.6959 0.2263
vn -0.6802 -0.6956 0.2311
vn -0.9642 0.2651 -0.0000
vn -0.6812 -0.6958 -0.2276
vn -0.6936 -0.6981 -0.1774
vn -0.6798 -0.6955 -0.2326
vn -0.4136 -0.4365 -0.7990
vn -0.4792 -0.4920 -0.7268
vn -0.4108 -0.4340 -0.8018
vn -0.4160 -0.0312 -0.9088
vn -0.4174 -0.0308 -0.9082
vn -0.4156 -0.0313 -0.9090
vn -0.4121 -0.1096 -0.9045
vn -0.4204 -0.1104 -0.9006
vn -0.4113 -0.1095 -0.9049
vn -0.4089 -0.2096 -0.8882
vn -0.4708 -0.2307 -0.8515
vn -0.4046 -0.2082 -0.8905
vn -0.9342 -0.0686 -0.3502
vn -0.9346 -0.0682 -0.3490
vn -0.9340 -0.0687 -0.3505
vn -0.9087 -0.2383 -0.3429
vn -0.9111 -0.2379 -0.3366
vn -0.9084 -0.2383 -0.3436
vn -0.8519 -0.4153 -0.3190
vn -0.8677 -0.4152 -0.2734
vn -0.8501 -0.4153 -0.3238
vn -0.9346 -0.0682 0.3490
vn -0.9342 -0.0686 0.3502
vn -0.9340 -0.0687 0.3505
vn -0.9112 -0.2379 0.3362
vn -0.9086 -0.2383 0.3429
vn -0.9083 -0.2384 0.3437
vn -0.8679 -0.4152 0.2728
vn -0.8522 -0.4154 0.3181
vn -0.8505 -0.4153 0.3228
vn -0.4160 -0.0307 0.9088
vn -0.4174 -0.0313 0.9082
vn -0.4156 -0.0306 0.9090
vn -0.4124 -0.1084 0.9046
vn -0.4198 -0.1116 0.9007
vn -0.4115 -0.1080 0.9050
vn -0.4114 -0.2019 0.8888
vn -0.4664 -0.2390 0.8517
vn -0.4059 -0.1982 0.8922
vn 0.4160 0.0314 0.9088
vn 0.4176 0.0321 0.9080
vn 0.4156 0.0313 0.9090
vn 0.4147 0.1105 0.9032
vn 0.4221 0.1137 0.8994
vn 0.4138 0.1101 0.9037
vn 0.4153 0.2146 0.8840
vn 0.4683 0.2517 0.8470
vn 0.4098 0.2108 0.8875
vn 0.9340 0.0722 0.3500
vn 0.9345 0.0727 0.3485
vn 0.9338 0.0720 0.3505
vn 0.9084 0.2451 0.3386
vn 0.9105 0.2468 0.3317
vn 0.9082 0.2449 0.3394
vn 0.8382 0.4529 0.3038
vn 0.8463 0.4642 0.2613
vn 0.8372 0.4515 0.3087
vn 0.9339 0.0727 -0.3500
vn 0.9345 0.0722 -0.3485
vn 0.9338 0.0728 -0.3504
vn 0.9081 0.2462 -0.3386
vn 0.9106 0.2458 -0.3324
vn 0.9079 0.2462 -0.3393
vn 0.8350 0.4580 -0.3050
vn 0.8491 0.4585 -0.2624
vn 0.8335 0.4579 -0.3092
vn 0.4160 0.0320 -0.9088
vn 0.4177 0.0316 -0.9080
vn 0.4156 0.0321 -0.9090
vn 0.4144 0.1117 -0.9032
vn 0.4226 0.1126 -0.8993
vn 0.4137 0.1116 -0.9036
vn 0.4127 0.2219 -0.8834
vn 0.4724 0.2437 -0.8470
vn 0.4089 0.2204 -0.8856
vn -0.9239 -0.0001 -0.3825
vn -0.8624 -0.3922 -0.3200
vn -0.9239 -0.0001 -0.3827
vn 0.4180 -0.4505 -0.7889
vn 0.4679 -0.4949 -0.7322
vn 0.4736 -0.5000 -0.7251
vn 0.6621 -0.7189 -0.2119
vn 0.6681 -0.7211 -0.1834
vn 0.6687 -0.7212 -0.1808
vn 0.6643 -0.7172 0.2104
vn 0.6659 -0.7231 0.1835
vn 0.6660 -0.7235 0.1818
vn 0.4211 -0.4454 0.7901
vn 0.4624 -0.4986 0.7332
vn 0.4637 -0.5004 0.7311
vn -0.4186 0.4288 0.8006
vn -0.4715 0.4973 0.7282
vn -0.4736 0.5000 0.7251
vn -0.6819 0.6956 0.2263
vn -0.6940 0.6978 0.1772
vn -0.6806 0.6953 0.2311
vn -0.6815 0.6955 -0.2276
vn -0.6940 0.6978 -0.1773
vn -0.6955 0.6980 -0.1705
vn -0.4138 0.4363 -0.7990
vn -0.4795 0.4917 -0.7268
vn -0.4885 0.4993 -0.7156
vn -0.4160 0.0312 -0.9088
vn -0.4174 0.0308 -0.9082
vn -0.4178 0.0307 -0.9080
vn -0.4121 0.1094 -0.9045
vn -0.4205 0.1102 -0.9006
vn -0.4213 0.1103 -0.9002
vn -0.4090 0.2095 -0.8882
vn -0.4709 0.2305 -0.8515
vn -0.4758 0.2321 -0.8484
vn -0.9342 0.0686 -0.3502
vn -0.9346 0.0682 -0.3490
vn -0.9348 0.0681 -0.3486
vn -0.9088 0.2378 -0.3429
vn -0.9112 0.2374 -0.3366
vn -0.9115 0.2374 -0.3358
vn -0.8521 0.4149 -0.3190
vn -0.8679 0.4147 -0.2734
vn -0.8695 0.4147 -0.2684
vn -0.9342 0.0686 0.3502
vn -0.9346 0.0682 0.3490
vn -0.9340 0.0687 0.3505
vn -0.9087 0.2379 0.3429
vn -0.9113 0.2375 0.3362
vn -0.9084 0.2380 0.3437
vn -0.8524 0.4150 0.3181
vn -0.8681 0.4148 0.2728
vn -0.8507 0.4149 0.3228
vn -0.4160 0.0307 0.9088
vn -0.4174 0.0313 0.9082
vn -0.4178 0.0314 0.9080
vn -0.4124 0.1082 0.9046
vn -0.4199 0.1114 0.9007
vn -0.4207 0.1117 0.9003
vn -0.4115 0.2018 0.8888
vn -0.4665 0.2387 0.8517
vn -0.4723 0.2427 0.8474
vn 0.4160 -0.0314 0.9088
vn 0.4176 -0.0321 0.9080
vn 0.4181 -0.0323 0.9078
vn 0.4147 -0.1103 0.9033
vn 0.4222 -0.1135 0.8994
vn 0.4230 -0.1139 0.8989
vn 0.4154 -0.2144 0.8840
vn 0.4685 -0.2514 0.8470
vn 0.4741 -0.2554 0.8426
vn 0.9340 -0.0722 0.3500
vn 0.9345 -0.0727 0.3485
vn 0.9346 -0.0729 0.3481
vn 0.9085 -0.2447 0.3386
vn 0.9106 -0.2464 0.3317
vn 0.9109 -0.2466 0.3309
vn 0.8384 -0.4525 0.3038
vn 0.8466 -0.4638 0.2613
vn 0.8474 -0.4650 0.2563
vn 0.9339 -0.0727 -0.3500
vn 0.9345 -0.0722 -0.3485
vn 0.9347 -0.0721 -0.3481
vn 0.9082 -0.2458 -0.3387
vn 0.9107 -0.2454 -0.3324
vn 0.9109 -0.2453 -0.3317
vn 0.8352 -0.4576 -0.3051
vn 0.8493 -0.4581 -0.2624
vn 0.8506 -0.4581 -0.2581
vn 0.4160 -0.0320 -0.9088
vn 0.4177 -0.0316 -0.9080
vn 0.4181 -0.0315 -0.9078
vn 0.4144 -0.1115 -0.9032
vn 0.4226 -0.1124 -0.8993
vn 0.4234 -0.1125 -0.8989
vn 0.4128 -0.2217 -0.8834
vn 0.4725 -0.2435 -0.8470
vn 0.4769 -0.2451 -0.8441
vn 0.3828 0.0001 -0.9238
vn 0.4123 0.1867 -0.8917
vn 0.3827 0.0000 -0.9239
vn 0.9239 0.0001 -0.3825
vn 0.8630 0.3906 -0.3204
vn 0.9239 0.0001 -0.3827
vn 0.9239 0.0001 0.3825
vn 0.8630 0.3906 0.3204
vn 0.8631 0.3906 0.3202
vn 0.3828 0.0001 0.9238
vn 0.4123 0.1867 0.8917
vn 0.4124 0.1868 0.8917
vn -0.3828 -0.0001 0.9238
vn -0.4123 -0.1871 0.8916
vn -0.4124 -0.1872 0.8916
vn -0.9239 -0.0001 0.3825
vn -0.8624 -0.3922 0.3200
vn -0.8625 -0.3922 0.3199
vn -0.3828 -0.0001 -0.9238
vn -0.4123 -0.1871 -0.8916
vn -0.3827 -0.0000 -0.9239
vn -0.9641 -0.2655 -0.0000
vn -0.4124 0.1870 -0.8916
vn -0.8625 0.3920 0.3200
vn -0.8626 0.3920 0.3198
vn -0.4124 0.1870 0.8916
vn -0.4125 0.1871 0.8915
vn 0.4123 -0.1866 0.8917
vn 0.4125 -0.1867 0.8916
vn 0.8631 -0.3903 0.3203
vn 0.8632 -0.3904 0.3202
vn 0.8631 -0.3903 -0.3203
vn 0.4123 -0.1866 -0.8917
vn -0.8625 0.3920 -0.3200
vn 0.6683 0.7216 -0.1808
vn 0.6657 0.7238 0.1818
vn 0.4635 0.5006 0.7311
vn -0.4733 -0.5002 0.7251
vn -0.4178 -0.0314 0.9080
vn -0.4207 -0.1119 0.9003
vn -0.4722 -0.2429 0.8474
vn 0.4181 0.0323 0.9078
vn 0.4230 0.1141 0.8989
vn 0.4740 0.2556 0.8426
vn 0.9346 0.0729 0.3481
vn 0.9108 0.2470 0.3309
vn 0.8472 0.4654 0.2563
vn 0.9347 0.0721 -0.3481
vn 0.9108 0.2457 -0.3317
vn 0.8504 0.4585 -0.2581
vn 0.6616 -0.7187 -0.2138
vn 0.6642 -0.7167 0.2126
vn 0.4179 -0.4412 0.7941
vn -0.4139 0.4229 0.8061
vn -0.4156 0.0306 0.9090
vn -0.4115 0.1078 0.9050
vn -0.4060 0.1980 0.8922
vn 0.4156 -0.0313 0.9090
vn 0.4138 -0.1099 0.9037
vn 0.4099 -0.2106 0.8875
vn 0.9338 -0.0720 0.3505
vn 0.9083 -0.2445 0.3395
vn 0.8374 -0.4511 0.3087
vn 0.9338 -0.0728 -0.3504
vn 0.9080 -0.2458 -0.3394
vn 0.8337 -0.4575 -0.3092
vn 0.4734 0.5002 -0.7250
vn -0.6952 -0.6983 0.1705
vn -0.6952 -0.6983 -0.1705
vn -0.4883 -0.4995 -0.7156
vn -0.4178 -0.0307 -0.9080
vn -0.4212 -0.1105 -0.9002
vn -0.4757 -0.2324 -0.8484
vn -0.9348 -0.0681 -0.3486
vn -0.9114 -0.2378 -0.3358
vn -0.8693 -0.4151 -0.2684
vn -0.9348 -0.0681 0.3486
vn -0.9115 -0.2378 0.3355
vn -0.8694 -0.4152 0.2678
vn 0.4181 0.0315 -0.9078
vn 0.4233 0.1127 -0.8989
vn 0.4768 0.2453 -0.8441
vn -0.8625 -0.3922 -0.3199
vn 0.4161 -0.4489 -0.7908
vn -0.6955 0.6980 0.1705
vn -0.6802 0.6952 -0.2326
vn -0.4110 0.4338 -0.8018
vn -0.4156 0.0313 -0.9090
vn -0.4114 0.1093 -0.9049
vn -0.4047 0.2080 -0.8905
vn -0.9340 0.0687 -0.3505
vn -0.9085 0.2379 -0.3436
vn -0.8503 0.4149 -0.3238
vn -0.9348 0.0681 0.3486
vn -0.9116 0.2374 0.3355
vn -0.8696 0.4147 0.2678
vn 0.4156 -0.0321 -0.9090
vn 0.4137 -0.1114 -0.9036
vn 0.4090 -0.2203 -0.8856
vn 0.4124 0.1868 -0.8917
vn 0.8631 0.3906 -0.3202
vn 0.9239 0.0001 0.3827
vn 0.3827 0.0000 0.9239
vn -0.3827 -0.0000 0.9239
vn -0.9239 -0.0001 0.3827
vn -0.4124 -0.1872 -0.8916
vn -0.4125 0.1871 -0.8915
vn 0.8632 -0.3904 -0.3202
vn 0.4125 -0.1867 -0.8916
vn -0.8626 0.3920 -0.3198
usemtl Bow_Texture
s 1
f 11/1/1 2/2/2 12/3/3
f 12/3/4 3/4/5 15/5/6
f 15/5/7 4/6/8 18/7/9
f 18/7/10 5/8/11 21/9/12
f 21/9/13 6/10/14 24/11/15
f 6/10/16 27/12/17 24/11/18
f 36/13/19 39/14/19 35/15/19
f 27/16/20 8/17/21 30/18/22
f 30/18/23 1/19/24 11/1/25
f 72/20/26 9/21/27 65/22/28
f 32/23/29 10/24/30 9/21/31
f 31/25/32 11/1/33 10/24/34
f 71/26/35 32/23/36 72/20/37
f 29/27/38 31/25/39 32/23/40
f 28/28/41 30/18/42 31/25/43
f 26/29/44 71/30/45 70/31/46
f 25/32/47 29/33/48 26/29/49
f 24/11/50 28/34/51 25/32/52
f 69/35/53 26/29/54 70/31/55
f 23/36/56 25/32/57 26/29/58
f 22/37/59 24/11/60 25/32/61
f 68/38/62 23/36/63 69/35/64
f 20/39/65 22/37/66 23/36/67
f 19/40/68 21/9/69 22/37/70
f 67/41/71 20/39/72 68/38/73
f 17/42/74 19/40/75 20/39/76
f 16/43/77 18/7/78 19/40/79
f 66/44/80 17/42/81 67/41/82
f 14/45/83 16/43/84 17/42/85
f 13/46/86 15/5/87 16/43/88
f 65/22/89 14/45/90 66/44/91
f 9/21/92 13/46/93 14/45/94
f 10/24/95 12/3/96 13/46/97
f 96/47/98 86/48/99 95/49/100
f 43/50/101 34/51/102 33/52/103
f 44/53/104 35/15/105 34/51/106
f 47/54/107 36/13/108 35/15/109
f 50/55/110 37/56/111 36/13/112
f 53/57/113 38/58/114 37/56/115
f 59/59/116 38/58/117 56/60/118
f 37/56/19 38/58/19 36/13/19
f 59/61/119 40/62/120 39/63/121
f 62/64/122 33/52/123 40/62/124
f 72/65/125 41/66/126 64/67/127
f 64/67/128 42/68/129 63/69/130
f 63/69/131 43/50/132 62/64/133
f 71/70/134 64/67/135 61/71/136
f 61/71/137 63/69/138 60/72/139
f 60/72/140 62/64/141 59/61/142
f 71/73/143 58/74/144 70/75/145
f 61/76/146 57/77/147 58/74/148
f 60/78/149 56/60/150 57/77/151
f 69/79/152 58/74/153 55/80/154
f 55/80/155 57/77/156 54/81/157
f 54/81/158 56/60/159 53/57/160
f 68/82/161 55/80/162 52/83/163
f 52/83/164 54/81/165 51/84/166
f 51/84/167 53/57/168 50/55/169
f 67/85/170 52/83/171 49/86/172
f 49/86/173 51/84/174 48/87/175
f 48/87/176 50/55/177 47/54/178
f 66/88/179 49/86/180 46/89/181
f 46/89/182 48/87/183 45/90/184
f 45/90/185 47/54/186 44/53/187
f 65/91/188 46/89/189 41/66/190
f 41/66/191 45/90/192 42/68/193
f 42/68/194 44/53/195 43/50/196
f 90/92/197 74/93/198 89/94/199
f 91/95/200 76/96/201 90/92/202
f 91/95/203 80/97/204 78/98/205
f 92/99/206 82/100/207 80/97/208
f 93/101/209 84/102/210 82/100/211
f 94/103/212 86/48/213 84/102/214
f 89/94/215 88/104/216 96/47/217
f 33/52/19 34/51/19 40/62/19
f 39/63/19 34/51/19 35/15/19
f 5/8/218 4/6/218 6/10/218
f 3/4/218 6/10/218 4/6/218
f 3/4/218 8/17/218 7/105/218
f 1/19/218 8/17/218 2/2/218
f 87/106/219 89/94/215 96/47/217
f 85/107/220 94/103/212 83/108/221
f 83/108/222 93/101/209 81/109/223
f 81/109/224 92/99/206 79/110/225
f 79/110/226 91/95/203 77/111/227
f 75/112/228 91/95/200 90/92/202
f 73/113/229 90/92/197 89/94/199
f 85/107/230 96/47/98 95/49/100
f 12/3/4 2/2/231 3/4/5
f 15/5/7 3/4/232 4/6/8
f 18/7/10 4/6/233 5/8/11
f 21/9/13 5/8/234 6/10/14
f 69/35/53 23/36/235 26/29/54
f 23/36/56 22/37/236 25/32/57
f 22/37/59 21/9/237 24/11/60
f 68/38/62 20/39/238 23/36/63
f 20/39/65 19/40/239 22/37/66
f 19/40/68 18/7/240 21/9/69
f 67/41/71 17/42/241 20/39/72
f 17/42/74 16/43/242 19/40/75
f 16/43/77 15/5/243 18/7/78
f 66/44/80 14/45/244 17/42/81
f 14/45/83 13/46/245 16/43/84
f 13/46/86 12/3/246 15/5/87
f 44/53/104 47/54/247 35/15/105
f 47/54/107 50/55/248 36/13/108
f 50/55/110 53/57/249 37/56/111
f 53/57/113 56/60/250 38/58/114
f 69/79/152 70/75/251 58/74/153
f 55/80/155 58/74/252 57/77/156
f 54/81/158 57/77/253 56/60/159
f 68/82/161 69/79/254 55/80/162
f 52/83/164 55/80/255 54/81/165
f 51/84/167 54/81/256 53/57/168
f 67/85/170 68/82/257 52/83/171
f 49/86/173 52/83/258 51/84/174
f 48/87/176 51/84/259 50/55/177
f 66/88/179 67/85/260 49/86/180
f 46/89/182 49/86/261 48/87/183
f 45/90/185 48/87/262 47/54/186
f 11/1/1 1/19/263 2/2/2
f 6/10/16 7/114/264 27/12/17
f 36/13/19 38/58/19 39/14/19
f 27/16/20 7/105/265 8/17/21
f 30/18/23 8/17/266 1/19/24
f 72/20/26 32/23/267 9/21/27
f 32/23/29 31/25/268 10/24/30
f 31/25/32 30/18/269 11/1/33
f 71/26/35 29/27/270 32/23/36
f 29/27/38 28/28/271 31/25/39
f 28/28/41 27/16/272 30/18/42
f 26/29/44 29/33/273 71/30/45
f 25/32/47 28/34/274 29/33/48
f 24/11/50 27/12/275 28/34/51
f 65/22/89 9/21/276 14/45/90
f 9/21/92 10/24/277 13/46/93
f 10/24/95 11/1/278 12/3/96
f 96/47/98 88/104/279 86/48/99
f 43/50/101 44/53/280 34/51/102
f 59/59/116 39/14/281 38/58/117
f 59/61/119 62/64/282 40/62/120
f 62/64/122 43/50/283 33/52/123
f 72/65/125 65/91/284 41/66/126
f 64/67/128 41/66/285 42/68/129
f 63/69/131 42/68/286 43/50/132
f 71/70/134 72/65/287 64/67/135
f 61/71/137 64/67/288 63/69/138
f 60/72/140 63/69/289 62/64/141
f 71/73/143 61/76/290 58/74/144
f 61/76/146 60/78/291 57/77/147
f 60/78/149 59/59/292 56/60/150
f 65/91/188 66/88/293 46/89/189
f 41/66/191 46/89/294 45/90/192
f 42/68/194 45/90/295 44/53/195
f 90/92/197 76/96/296 74/93/198
f 91/95/200 78/98/297 76/96/201
f 91/95/203 92/99/298 80/97/204
f 92/99/206 93/101/299 82/100/207
f 93/101/209 94/103/300 84/102/210
f 94/103/212 95/49/301 86/48/213
f 89/94/215 74/93/302 88/104/216
f 39/63/19 40/62/19 34/51/19
f 3/4/218 7/114/218 6/10/218
f 3/4/218 2/2/218 8/17/218
f 87/106/219 73/113/303 89/94/215
f 85/107/220 95/49/301 94/103/212
f 83/108/222 94/103/300 93/101/209
f 81/109/224 93/101/299 92/99/206
f 79/110/226 92/99/298 91/95/203
f 75/112/228 77/111/304 91/95/200
f 73/113/229 75/112/305 90/92/197
f 85/107/230 87/106/306 96/47/98
