# Blender v2.82 (sub 7) OBJ File: ''
# www.blender.org
mtllib bow_000037.mtl
o Bow_Cylinder
v 1.153007 2.374415 -0.141605
v 1.140741 2.457853 -0.100131
v 1.135660 2.492414 -0.000002
v 1.140741 2.457853 0.100126
v 1.153007 2.374415 0.141601
v 1.165274 2.290977 0.100126
v 1.170355 2.256416 -0.000002
v 1.165274 2.290977 -0.100130
v 2.133261 0.346715 -0.141603
v 1.978284 1.036165 -0.141603
v 1.696419 1.716357 -0.141604
v 1.765518 1.720063 -0.100129
v 2.064861 1.038996 -0.100129
v 2.223142 0.348148 -0.100128
v 1.794147 1.721493 -0.000001
v 2.100727 1.040097 -0.000000
v 2.260375 0.348562 0.000000
v 1.765519 1.720144 0.100127
v 2.064858 1.039137 0.100128
v 2.223142 0.348147 0.100128
v 1.696436 1.716351 0.141602
v 1.978295 1.036170 0.141602
v 2.133260 0.346715 0.141603
v 1.627403 1.711760 0.100127
v 1.891786 1.031911 0.100128
v 2.043405 0.344116 0.100128
v 1.598818 1.709671 -0.000001
v 1.855958 1.029948 -0.000001
v 2.006191 0.342853 -0.000000
v 1.627393 1.711846 -0.100130
v 1.891778 1.032026 -0.100129
v 2.043405 0.344101 -0.100129
v 1.152351 -2.374097 -0.141603
v 1.140058 -2.457531 -0.100128
v 1.134966 -2.492090 0.000000
v 1.140058 -2.457531 0.100128
v 1.152351 -2.374097 0.141603
v 1.164645 -2.290663 0.100128
v 1.169737 -2.256104 0.000000
v 1.164645 -2.290663 -0.100128
v 2.133261 -0.346714 -0.141603
v 1.978062 -1.036114 -0.141603
v 1.695976 -1.716214 -0.141603
v 1.765075 -1.719943 -0.100128
v 2.064637 -1.038974 -0.100128
v 2.223141 -0.348152 -0.100128
v 1.793703 -1.721382 0.000000
v 2.100503 -1.040086 0.000000
v 2.260375 -0.348564 0.000000
v 1.765075 -1.720024 0.100129
v 2.064635 -1.039114 0.100128
v 2.223141 -0.348151 0.100128
v 1.695994 -1.716209 0.141603
v 1.978073 -1.036119 0.141603
v 2.133261 -0.346714 0.141603
v 1.626962 -1.711596 0.100128
v 1.891564 -1.031832 0.100128
v 2.043406 -0.344090 0.100128
v 1.598377 -1.709497 0.000000
v 1.855737 -1.029857 0.000000
v 2.006192 -0.342814 0.000000
v 1.626951 -1.711681 -0.100128
v 1.891557 -1.031947 -0.100128
v 2.043406 -0.344075 -0.100128
v 2.155554 0.000000 -0.141603
v 2.246293 0.000000 -0.100128
v 2.283878 0.000000 0.000000
v 2.246293 0.000000 0.100128
v 2.155554 0.000000 0.141603
v 2.064815 0.000000 0.100128
v 2.027230 0.000000 -0.000000
v 2.064815 0.000000 -0.100128
v 1.233792 2.257993 -0.026695
v 1.233174 -2.257701 -0.026693
v 1.252622 2.259294 -0.018877
v 1.252004 -2.259008 -0.018875
v 1.260422 2.259833 -0.000002
v 1.259804 -2.259550 0.000000
v 1.252622 2.259294 0.018873
v 1.252004 -2.259008 0.018875
v 1.233792 2.257993 0.026692
v 1.233174 -2.257701 0.026694
v 1.214962 2.256692 0.018873
v 1.214345 -2.256394 0.018875
v 1.207162 2.256152 -0.000002
v 1.206545 -2.255852 0.000000
v 1.214962 2.256692 -0.018877
v 1.214345 -2.256394 -0.018875
v 0.509202 0.000000 -0.026694
v 0.528077 -0.000000 -0.018875
v 0.535896 -0.000000 -0.000000
v 0.528077 -0.000000 0.018875
v 0.509202 -0.000000 0.026693
v 0.490327 -0.000000 0.018875
v 0.482509 -0.000000 -0.000000
v 0.490327 -0.000000 -0.018875
vt 0.415512 0.435877
vt 0.400099 0.697333
vt 0.403102 0.391658
vt 0.363795 0.918795
vt 0.365342 0.371239
vt 0.329116 0.695481
vt 0.327496 0.392348
vt 0.320164 0.664925
vt 0.314951 0.436624
vt 0.315153 0.701007
vt 0.300410 0.490184
vt 0.268850 0.518222
vt 0.178371 0.696702
vt 0.124572 0.911161
vt 0.164551 0.690291
vt 0.461378 0.516577
vt 0.414213 0.700837
vt 0.429881 0.489274
vt 0.409216 0.665592
vt 0.445757 0.183823
vt 0.420971 0.141474
vt 0.426085 0.118748
vt 0.440749 0.206831
vt 0.419264 0.252824
vt 0.434015 0.316403
vt 0.478969 0.225812
vt 0.475238 0.247511
vt 0.468580 0.349640
vt 0.290702 0.208573
vt 0.252454 0.228467
vt 0.285793 0.185708
vt 0.296979 0.317836
vt 0.256096 0.250048
vt 0.262347 0.351838
vt 0.305723 0.120183
vt 0.310743 0.142781
vt 0.311970 0.254023
vt 0.328331 0.059376
vt 0.331398 0.083632
vt 0.329530 0.190214
vt 0.366080 0.032501
vt 0.366029 0.057475
vt 0.365803 0.164989
vt 0.403723 0.058469
vt 0.400555 0.082803
vt 0.401974 0.189372
vt 0.927082 0.502568
vt 0.597959 0.094171
vt 0.597959 0.502569
vt 0.084417 0.425353
vt 0.093581 0.687590
vt 0.085228 0.655296
vt 0.097874 0.381957
vt 0.136090 0.363958
vt 0.173403 0.387462
vt 0.174224 0.660330
vt 0.184883 0.432511
vt 0.229007 0.516999
vt 0.198137 0.486964
vt 0.036661 0.503074
vt 0.079396 0.690193
vt 0.084817 0.926901
vt 0.068785 0.477796
vt 0.060205 0.171557
vt 0.085982 0.130816
vt 0.064660 0.194867
vt 0.085033 0.242194
vt 0.068777 0.304788
vt 0.026016 0.211401
vt 0.029227 0.233322
vt 0.033444 0.335800
vt 0.252303 0.228478
vt 0.214556 0.206162
vt 0.220008 0.183625
vt 0.248150 0.249811
vt 0.205677 0.314949
vt 0.239475 0.351135
vt 0.201655 0.116878
vt 0.196100 0.139140
vt 0.192219 0.250224
vt 0.180514 0.054675
vt 0.176870 0.078719
vt 0.176195 0.185342
vt 0.143433 0.025416
vt 0.142888 0.050375
vt 0.140549 0.157826
vt 0.105197 0.048969
vt 0.107783 0.073487
vt 0.103823 0.179889
vt 0.081413 0.107781
vt 0.833047 0.502568
vt 0.880064 0.094170
vt 0.880065 0.502568
vt 0.786029 0.502569
vt 0.833046 0.094170
vt 0.739011 0.094171
vt 0.786029 0.094171
vt 0.739012 0.502569
vt 0.691994 0.094171
vt 0.691994 0.502569
vt 0.644976 0.094171
vt 0.644977 0.502569
vt 0.927081 0.094170
vt 0.325070 0.934563
vt 0.403149 0.937053
vt 0.927084 0.910966
vt 0.597959 0.910967
vt 0.644977 0.910967
vt 0.691995 0.910967
vt 0.739013 0.910967
vt 0.786030 0.910967
vt 0.833048 0.910967
vt 0.880066 0.910967
vt 0.162885 0.929390
vn 0.4611 0.3901 -0.7970
vn 0.5237 0.4335 -0.7334
vn 0.4588 0.3885 -0.7991
vn 0.7421 0.6336 -0.2188
vn 0.7498 0.6354 -0.1845
vn 0.7416 0.6334 -0.2211
vn 0.7445 0.6309 0.2184
vn 0.7474 0.6381 0.1847
vn 0.7442 0.6303 0.2213
vn 0.4647 0.3845 0.7977
vn 0.5181 0.4385 0.7344
vn 0.4606 0.3804 0.8020
vn -0.4663 -0.3731 0.8021
vn -0.5286 -0.4360 0.7283
vn -0.4608 -0.3677 0.8077
vn -0.7741 -0.6078 0.1770
vn -0.7621 -0.6071 0.2251
vn -0.7608 -0.6070 0.2298
vn -0.9893 0.1458 -0.0000
vn -0.7620 -0.6071 -0.2255
vn -0.7741 -0.6078 -0.1771
vn -0.7606 -0.6070 -0.2303
vn -0.4616 -0.3807 -0.8013
vn -0.5360 -0.4293 -0.7270
vn -0.4584 -0.3785 -0.8041
vn -0.4160 -0.0266 -0.9090
vn -0.4178 -0.0262 -0.9082
vn -0.4156 -0.0267 -0.9092
vn -0.4159 -0.0933 -0.9046
vn -0.4258 -0.0940 -0.8999
vn -0.4150 -0.0933 -0.9050
vn -0.4236 -0.1748 -0.8888
vn -0.4908 -0.1916 -0.8499
vn -0.4190 -0.1736 -0.8912
vn -0.9348 -0.0580 -0.3504
vn -0.9354 -0.0576 -0.3489
vn -0.9346 -0.0582 -0.3508
vn -0.9175 -0.2021 -0.3425
vn -0.9206 -0.2014 -0.3346
vn -0.9172 -0.2022 -0.3434
vn -0.8840 -0.3430 -0.3178
vn -0.9003 -0.3414 -0.2700
vn -0.8821 -0.3431 -0.3227
vn -0.9354 -0.0576 0.3489
vn -0.9348 -0.0580 0.3504
vn -0.9346 -0.0582 0.3508
vn -0.9206 -0.2015 0.3344
vn -0.9175 -0.2021 0.3425
vn -0.9172 -0.2022 0.3434
vn -0.9004 -0.3414 0.2698
vn -0.8841 -0.3430 0.3175
vn -0.8822 -0.3431 0.3224
vn -0.4161 -0.0260 0.9090
vn -0.4178 -0.0267 0.9081
vn -0.4156 -0.0259 0.9092
vn -0.4162 -0.0919 0.9046
vn -0.4254 -0.0954 0.9000
vn -0.4151 -0.0915 0.9051
vn -0.4261 -0.1667 0.8892
vn -0.4874 -0.2010 0.8497
vn -0.4200 -0.1633 0.8927
vn 0.4161 0.0269 0.9089
vn 0.4179 0.0276 0.9081
vn 0.4156 0.0267 0.9092
vn 0.4170 0.0939 0.9040
vn 0.4262 0.0975 0.8994
vn 0.4159 0.0935 0.9046
vn 0.4267 0.1778 0.8867
vn 0.4871 0.2131 0.8469
vn 0.4206 0.1743 0.8903
vn 0.9346 0.0623 0.3502
vn 0.9352 0.0629 0.3486
vn 0.9344 0.0621 0.3507
vn 0.9165 0.2101 0.3405
vn 0.9190 0.2120 0.3324
vn 0.9161 0.2099 0.3415
vn 0.8702 0.3834 0.3095
vn 0.8802 0.3952 0.2628
vn 0.8689 0.3819 0.3149
vn 0.9346 0.0629 -0.3502
vn 0.9352 0.0624 -0.3486
vn 0.9344 0.0630 -0.3507
vn 0.9162 0.2114 -0.3405
vn 0.9192 0.2107 -0.3326
vn 0.9158 0.2114 -0.3414
vn 0.8674 0.3895 -0.3098
vn 0.8829 0.3888 -0.2632
vn 0.8657 0.3895 -0.3144
vn 0.4161 0.0275 -0.9089
vn 0.4180 0.0270 -0.9081
vn 0.4156 0.0276 -0.9091
vn 0.4167 0.0953 -0.9040
vn 0.4265 0.0960 -0.8994
vn 0.4158 0.0953 -0.9044
vn 0.4241 0.1857 -0.8864
vn 0.4906 0.2040 -0.8472
vn 0.4197 0.1845 -0.8887
vn -0.9239 0.0001 -0.3827
vn -0.8887 -0.2852 -0.3591
vn 0.4610 -0.3903 -0.7970
vn 0.5236 -0.4336 -0.7334
vn 0.5309 -0.4387 -0.7251
vn 0.7419 -0.6338 -0.2188
vn 0.7496 -0.6356 -0.1845
vn 0.7503 -0.6358 -0.1813
vn 0.7443 -0.6311 0.2184
vn 0.7472 -0.6384 0.1847
vn 0.7474 -0.6388 0.1825
vn 0.4646 -0.3846 0.7977
vn 0.5180 -0.4386 0.7344
vn 0.5197 -0.4405 0.7320
vn -0.4661 0.3732 0.8021
vn -0.5284 0.4362 0.7283
vn -0.5308 0.4387 0.7251
vn -0.7619 0.6074 0.2251
vn -0.7739 0.6081 0.1770
vn -0.7606 0.6072 0.2298
vn -0.7618 0.6074 -0.2255
vn -0.7739 0.6081 -0.1770
vn -0.7754 0.6080 -0.1704
vn -0.4615 0.3808 -0.8013
vn -0.5358 0.4294 -0.7270
vn -0.5461 0.4360 -0.7153
vn -0.4160 0.0266 -0.9090
vn -0.4178 0.0262 -0.9082
vn -0.4183 0.0260 -0.9079
vn -0.4159 0.0935 -0.9046
vn -0.4258 0.0941 -0.8999
vn -0.4267 0.0942 -0.8995
vn -0.4236 0.1749 -0.8888
vn -0.4908 0.1918 -0.8499
vn -0.4960 0.1931 -0.8466
vn -0.9348 0.0580 -0.3504
vn -0.9354 0.0576 -0.3489
vn -0.9356 0.0574 -0.3484
vn -0.9175 0.2024 -0.3425
vn -0.9205 0.2017 -0.3346
vn -0.9209 0.2017 -0.3336
vn -0.8839 0.3432 -0.3178
vn -0.9002 0.3417 -0.2700
vn -0.9018 0.3415 -0.2648
vn -0.9348 0.0580 0.3504
vn -0.9354 0.0576 0.3489
vn -0.9346 0.0582 0.3508
vn -0.9175 0.2024 0.3425
vn -0.9206 0.2017 0.3344
vn -0.9171 0.2025 0.3434
vn -0.8839 0.3433 0.3175
vn -0.9002 0.3417 0.2698
vn -0.8821 0.3434 0.3224
vn -0.4161 0.0260 0.9090
vn -0.4178 0.0267 0.9081
vn -0.4183 0.0269 0.9079
vn -0.4162 0.0921 0.9046
vn -0.4254 0.0956 0.9000
vn -0.4264 0.0960 0.8994
vn -0.4260 0.1669 0.8892
vn -0.4873 0.2011 0.8497
vn -0.4940 0.2049 0.8450
vn 0.4161 -0.0269 0.9089
vn 0.4179 -0.0276 0.9081
vn 0.4185 -0.0278 0.9078
vn 0.4170 -0.0940 0.9040
vn 0.4262 -0.0976 0.8994
vn 0.4273 -0.0980 0.8988
vn 0.4266 -0.1780 0.8867
vn 0.4871 -0.2133 0.8469
vn 0.4936 -0.2172 0.8421
vn 0.9346 -0.0623 0.3502
vn 0.9352 -0.0629 0.3486
vn 0.9353 -0.0631 0.3481
vn 0.9164 -0.2104 0.3405
vn 0.9190 -0.2123 0.3324
vn 0.9193 -0.2125 0.3314
vn 0.8701 -0.3836 0.3095
vn 0.8801 -0.3955 0.2628
vn 0.8811 -0.3968 0.2573
vn 0.9346 -0.0629 -0.3502
vn 0.9352 -0.0624 -0.3486
vn 0.9354 -0.0622 -0.3481
vn 0.9161 -0.2116 -0.3405
vn 0.9192 -0.2110 -0.3326
vn 0.9195 -0.2110 -0.3317
vn 0.8672 -0.3898 -0.3098
vn 0.8828 -0.3891 -0.2632
vn 0.8843 -0.3890 -0.2584
vn 0.4161 -0.0275 -0.9089
vn 0.4180 -0.0270 -0.9081
vn 0.4185 -0.0269 -0.9078
vn 0.4167 -0.0955 -0.9040
vn 0.4265 -0.0962 -0.8994
vn 0.4274 -0.0962 -0.8989
vn 0.4241 -0.1858 -0.8864
vn 0.4905 -0.2042 -0.8472
vn 0.4955 -0.2055 -0.8440
vn 0.3827 -0.0000 -0.9239
vn 0.3878 0.1243 -0.9133
vn 0.9239 -0.0001 -0.3827
vn 0.8888 0.2847 -0.3591
vn 0.9239 -0.0001 0.3827
vn 0.8888 0.2847 0.3591
vn 0.3827 -0.0000 0.9239
vn 0.3878 0.1243 0.9133
vn -0.3827 0.0000 0.9239
vn -0.3878 -0.1244 0.9133
vn -0.3879 -0.1244 0.9133
vn -0.9239 0.0001 0.3827
vn -0.8887 -0.2852 0.3591
vn -0.8887 -0.2852 0.3590
vn -0.3827 0.0001 -0.9239
vn -0.3878 -0.1244 -0.9133
vn -0.3827 0.0000 -0.9239
vn -0.9894 -0.1454 -0.0000
vn -0.3878 0.1244 -0.9133
vn -0.8886 0.2853 0.3591
vn -0.3878 0.1244 0.9133
vn 0.3878 -0.1244 0.9133
vn 0.8887 -0.2849 0.3592
vn 0.8887 -0.2849 0.3591
vn 0.8887 -0.2849 -0.3592
vn 0.3878 -0.1244 -0.9133
vn -0.8886 0.2853 -0.3591
vn 0.7505 0.6355 -0.1813
vn 0.7476 0.6386 0.1825
vn 0.5199 0.4403 0.7320
vn -0.5310 -0.4385 0.7251
vn -0.4183 -0.0269 0.9079
vn -0.4265 -0.0959 0.8994
vn -0.4940 -0.2047 0.8450
vn 0.4185 0.0278 0.9078
vn 0.4273 0.0979 0.8988
vn 0.4937 0.2170 0.8421
vn 0.9353 0.0631 0.3481
vn 0.9193 0.2122 0.3314
vn 0.8812 0.3965 0.2573
vn 0.9354 0.0622 -0.3481
vn 0.9196 0.2107 -0.3317
vn 0.8844 0.3887 -0.2584
vn 0.7414 -0.6337 -0.2211
vn 0.7440 -0.6305 0.2213
vn 0.4605 -0.3805 0.8020
vn -0.4607 0.3678 0.8077
vn -0.4156 0.0259 0.9092
vn -0.4151 0.0916 0.9051
vn -0.4199 0.1634 0.8927
vn 0.4156 -0.0267 0.9092
vn 0.4159 -0.0936 0.9046
vn 0.4206 -0.1744 0.8903
vn 0.9344 -0.0621 0.3507
vn 0.9161 -0.2101 0.3415
vn 0.8688 -0.3822 0.3149
vn 0.9344 -0.0630 -0.3507
vn 0.9158 -0.2117 -0.3414
vn 0.8656 -0.3898 -0.3144
vn 0.5310 0.4385 -0.7251
vn -0.7756 -0.6078 0.1704
vn -0.7756 -0.6078 -0.1704
vn -0.5462 -0.4359 -0.7153
vn -0.4183 -0.0260 -0.9079
vn -0.4267 -0.0941 -0.8995
vn -0.4961 -0.1929 -0.8466
vn -0.9356 -0.0574 -0.3484
vn -0.9209 -0.2014 -0.3336
vn -0.9019 -0.3412 -0.2648
vn -0.9356 -0.0574 0.3484
vn -0.9210 -0.2014 0.3335
vn -0.9020 -0.3412 0.2646
vn 0.4185 0.0269 -0.9078
vn 0.4275 0.0961 -0.8989
vn 0.4955 0.2053 -0.8440
vn -0.8887 -0.2852 -0.3590
vn 0.4587 -0.3887 -0.7991
vn -0.7754 0.6080 0.1704
vn -0.7605 0.6072 -0.2303
vn -0.4583 0.3787 -0.8041
vn -0.4156 0.0267 -0.9092
vn -0.4150 0.0934 -0.9050
vn -0.4189 0.1738 -0.8912
vn -0.9346 0.0582 -0.3508
vn -0.9171 0.2025 -0.3434
vn -0.8820 0.3434 -0.3227
vn -0.9356 0.0574 0.3484
vn -0.9209 0.2017 0.3335
vn -0.9019 0.3415 0.2646
vn 0.4156 -0.0276 -0.9091
vn 0.4158 -0.0954 -0.9044
vn 0.4196 -0.1846 -0.8887
vn -0.3879 -0.1244 -0.9133
vn 0.8887 -0.2849 -0.3591
usemtl Bow_Texture
s 1
f 11/1/1 2/2/2 12/3/3
f 12/3/4 3/4/5 15/5/6
f 15/5/7 4/6/8 18/7/9
f 18/7/10 5/8/11 21/9/12
f 21/9/13 6/10/14 24/11/15
f 6/10/16 27/12/17 24/11/18
f 38/13/19 35/14/19 36/15/19
f 27/16/20 8/17/21 30/18/22
f 30/18/23 1/19/24 11/1/25
f 72/20/26 9/21/27 65/22/28
f 32/23/29 10/24/30 9/21/31
f 31/25/32 11/1/33 10/24/34
f 71/26/35 32/23/36 72/20/37
f 29/27/38 31/25/39 32/23/40
f 28/28/41 30/18/42 31/25/43
f 26/29/44 71/30/45 70/31/46
f 25/32/47 29/33/48 26/29/49
f 24/11/50 28/34/51 25/32/52
f 69/35/53 26/29/54 70/31/55
f 23/36/56 25/32/57 26/29/58
f 22/37/59 24/11/60 25/32/61
f 68/38/62 23/36/63 69/35/64
f 20/39/65 22/37/66 23/36/67
f 19/40/68 21/9/69 22/37/70
f 67/41/71 20/39/72 68/38/73
f 17/42/74 19/40/75 20/39/76
f 16/43/77 18/7/78 19/40/79
f 66/44/80 17/42/81 67/41/82
f 14/45/83 16/43/84 17/42/85
f 13/46/86 15/5/87 16/43/88
f 65/22/89 14/45/90 66/44/91
f 9/21/92 13/46/93 14/45/94
f 10/24/95 12/3/96 13/46/97
f 96/47/98 86/48/99 95/49/98
f 43/50/100 34/51/101 33/52/102
f 44/53/103 35/14/104 34/51/105
f 47/54/106 36/15/107 35/14/108
f 50/55/109 37/56/110 36/15/111
f 53/57/112 38/13/113 37/56/114
f 59/58/115 38/13/116 56/59/117
f 37/56/19 38/13/19 36/15/19
f 59/60/118 40/61/119 39/62/120
f 62/63/121 33/52/122 40/61/123
f 72/64/124 41/65/125 64/66/126
f 64/66/127 42/67/128 63/68/129
f 63/68/130 43/50/131 62/63/132
f 71/69/133 64/66/134 61/70/135
f 61/70/136 63/68/137 60/71/138
f 60/71/139 62/63/140 59/60/141
f 71/72/142 58/73/143 70/74/144
f 61/75/145 57/76/146 58/73/147
f 60/77/148 56/59/149 57/76/150
f 69/78/151 58/73/152 55/79/153
f 55/79/154 57/76/155 54/80/156
f 54/80/157 56/59/158 53/57/159
f 68/81/160 55/79/161 52/82/162
f 52/82/163 54/80/164 51/83/165
f 51/83/166 53/57/167 50/55/168
f 67/84/169 52/82/170 49/85/171
f 49/85/172 51/83/173 48/86/174
f 48/86/175 50/55/176 47/54/177
f 66/87/178 49/85/179 46/88/180
f 46/88/181 48/86/182 45/89/183
f 45/89/184 47/54/185 44/53/186
f 65/90/187 46/88/188 41/65/189
f 41/65/190 45/89/191 42/67/192
f 42/67/193 44/53/194 43/50/195
f 90/91/196 74/92/197 89/93/196
f 91/94/198 76/95/199 90/91/198
f 91/94/200 80/96/201 78/97/201
f 92/98/202 82/99/203 80/96/203
f 93/100/204 84/101/205 82/99/206
f 94/102/207 86/48/208 84/101/209
f 89/93/210 88/103/211 96/47/212
f 33/52/19 34/51/19 40/61/19
f 35/14/19 40/61/19 34/51/19
f 5/8/213 4/6/213 6/10/213
f 4/6/213 7/104/213 6/10/213
f 2/2/213 7/105/213 3/4/213
f 1/19/213 8/17/213 2/2/213
f 87/106/214 89/93/210 96/47/212
f 85/107/215 94/102/207 83/108/215
f 83/108/216 93/100/204 81/109/216
f 81/109/217 92/98/202 79/110/217
f 79/110/218 91/94/200 77/111/219
f 75/112/220 91/94/198 90/91/198
f 73/113/221 90/91/196 89/93/196
f 85/107/222 96/47/98 95/49/98
f 12/3/4 2/2/223 3/4/5
f 15/5/7 3/4/224 4/6/8
f 18/7/10 4/6/225 5/8/11
f 21/9/13 5/8/226 6/10/14
f 69/35/53 23/36/227 26/29/54
f 23/36/56 22/37/228 25/32/57
f 22/37/59 21/9/229 24/11/60
f 68/38/62 20/39/230 23/36/63
f 20/39/65 19/40/231 22/37/66
f 19/40/68 18/7/232 21/9/69
f 67/41/71 17/42/233 20/39/72
f 17/42/74 16/43/234 19/40/75
f 16/43/77 15/5/235 18/7/78
f 66/44/80 14/45/236 17/42/81
f 14/45/83 13/46/237 16/43/84
f 13/46/86 12/3/238 15/5/87
f 44/53/103 47/54/239 35/14/104
f 47/54/106 50/55/240 36/15/107
f 50/55/109 53/57/241 37/56/110
f 53/57/112 56/59/242 38/13/113
f 69/78/151 70/74/243 58/73/152
f 55/79/154 58/73/244 57/76/155
f 54/80/157 57/76/245 56/59/158
f 68/81/160 69/78/246 55/79/161
f 52/82/163 55/79/247 54/80/164
f 51/83/166 54/80/248 53/57/167
f 67/84/169 68/81/249 52/82/170
f 49/85/172 52/82/250 51/83/173
f 48/86/175 51/83/251 50/55/176
f 66/87/178 67/84/252 49/85/179
f 46/88/181 49/85/253 48/86/182
f 45/89/184 48/86/254 47/54/185
f 11/1/1 1/19/255 2/2/2
f 6/10/16 7/104/256 27/12/17
f 38/13/19 39/114/19 35/14/19
f 27/16/20 7/105/257 8/17/21
f 30/18/23 8/17/258 1/19/24
f 72/20/26 32/23/259 9/21/27
f 32/23/29 31/25/260 10/24/30
f 31/25/32 30/18/261 11/1/33
f 71/26/35 29/27/262 32/23/36
f 29/27/38 28/28/263 31/25/39
f 28/28/41 27/16/264 30/18/42
f 26/29/44 29/33/265 71/30/45
f 25/32/47 28/34/266 29/33/48
f 24/11/50 27/12/267 28/34/51
f 65/22/89 9/21/268 14/45/90
f 9/21/92 10/24/269 13/46/93
f 10/24/95 11/1/270 12/3/96
f 96/47/98 88/103/271 86/48/99
f 43/50/100 44/53/272 34/51/101
f 59/58/115 39/114/273 38/13/116
f 59/60/118 62/63/274 40/61/119
f 62/63/121 43/50/275 33/52/122
f 72/64/124 65/90/276 41/65/125
f 64/66/127 41/65/277 42/67/128
f 63/68/130 42/67/278 43/50/131
f 71/69/133 72/64/279 64/66/134
f 61/70/136 64/66/280 63/68/137
f 60/71/139 63/68/281 62/63/140
f 71/72/142 61/75/282 58/73/143
f 61/75/145 60/77/283 57/76/146
f 60/77/148 59/58/284 56/59/149
f 65/90/187 66/87/285 46/88/188
f 41/65/190 46/88/286 45/89/191
f 42/67/193 45/89/287 44/53/194
f 90/91/196 76/95/197 74/92/197
f 91/94/198 78/97/199 76/95/199
f 91/94/200 92/98/200 80/96/201
f 92/98/202 93/100/202 82/99/203
f 93/100/204 94/102/204 84/101/205
f 94/102/207 95/49/207 86/48/208
f 89/93/210 74/92/288 88/103/211
f 35/14/19 39/62/19 40/61/19
f 4/6/213 3/4/213 7/104/213
f 2/2/213 8/17/213 7/105/213
f 87/106/214 73/113/214 89/93/210
f 85/107/215 95/49/207 94/102/207
f 83/108/216 94/102/204 93/100/204
f 81/109/217 93/100/202 92/98/202
f 79/110/218 92/98/200 91/94/200
f 75/112/220 77/111/289 91/94/198
f 73/113/221 75/112/221 90/91/196
f 85/107/222 87/106/222 96/47/98
