# Blender v2.82 (sub 7) OBJ File: ''
# www.blender.org
mtllib bow_000068.mtl
o Bow_Cylinder
v 1.254350 2.425206 -0.141605
v 1.247439 2.509258 -0.100131
v 1.244576 2.544073 -0.000002
v 1.247438 2.509258 0.100126
v 1.254350 2.425206 0.141601
v 1.261262 2.341155 0.100126
v 1.264125 2.306340 -0.000002
v 1.261262 2.341155 -0.100130
v 2.137881 0.346988 -0.141603
v 2.003280 1.040710 -0.141603
v 1.754671 1.733763 -0.141604
v 1.823883 1.734029 -0.100129
v 2.089911 1.040885 -0.100129
v 2.227773 0.347014 -0.100128
v 1.852551 1.734131 -0.000001
v 2.125794 1.040951 -0.000000
v 2.265007 0.347006 0.000000
v 1.823883 1.734036 0.100127
v 2.089911 1.040897 0.100128
v 2.227773 0.347014 0.100128
v 1.754672 1.733762 0.141602
v 2.003281 1.040711 0.141602
v 2.137881 0.346988 0.141603
v 1.685461 1.733425 0.100127
v 1.916650 1.040410 0.100128
v 2.047989 0.346840 0.100128
v 1.656794 1.733270 -0.000001
v 1.880767 1.040267 -0.000001
v 2.010755 0.346760 -0.000000
v 1.685461 1.733431 -0.100130
v 1.916651 1.040420 -0.100129
v 2.047989 0.346839 -0.100129
v 1.253407 -2.424804 -0.141603
v 1.246457 -2.508852 -0.100128
v 1.243579 -2.543666 -0.000000
v 1.246457 -2.508852 0.100128
v 1.253407 -2.424804 0.141603
v 1.260357 -2.340756 0.100128
v 1.263236 -2.305943 -0.000000
v 1.260357 -2.340756 -0.100128
v 2.137881 -0.346987 -0.141603
v 2.002965 -1.040649 -0.141603
v 1.754042 -1.733587 -0.141603
v 1.823254 -1.733885 -0.100128
v 2.089596 -1.040863 -0.100128
v 2.227773 -0.347019 -0.100128
v 1.851922 -1.734001 0.000000
v 2.125479 -1.040945 0.000000
v 2.265007 -0.347009 0.000000
v 1.823254 -1.733892 0.100128
v 2.089596 -1.040875 0.100128
v 2.227773 -0.347019 0.100128
v 1.754043 -1.733587 0.141603
v 2.002966 -1.040649 0.141603
v 2.137881 -0.346987 0.141603
v 1.684832 -1.733218 0.100128
v 1.916336 -1.040308 0.100128
v 2.047989 -0.346804 0.100128
v 1.656165 -1.733050 0.000000
v 1.880453 -1.040150 0.000000
v 2.010755 -0.346705 0.000000
v 1.684832 -1.733225 -0.100128
v 1.916336 -1.040319 -0.100128
v 2.047989 -0.346803 -0.100128
v 2.155554 0.000000 -0.141603
v 2.246301 0.000000 -0.100128
v 2.283889 0.000000 0.000000
v 2.246301 0.000000 0.100128
v 2.155554 0.000000 0.141603
v 2.064807 0.000000 0.100128
v 2.027219 0.000000 -0.000000
v 2.064807 0.000000 -0.100128
v 1.327534 2.303862 -0.026695
v 1.326646 -2.303493 -0.026694
v 1.346409 2.303958 -0.018877
v 1.345520 -2.303598 -0.018875
v 1.354227 2.303998 -0.000002
v 1.353339 -2.303641 -0.000000
v 1.346408 2.303958 0.018873
v 1.345520 -2.303598 0.018875
v 1.327534 2.303862 0.026692
v 1.326646 -2.303493 0.026693
v 1.308659 2.303766 0.018873
v 1.307771 -2.303389 0.018875
v 1.300841 2.303726 -0.000002
v 1.299953 -2.303346 -0.000000
v 1.308659 2.303766 -0.018877
v 1.307771 -2.303389 -0.018875
v 1.034966 0.000000 -0.026694
v 1.053841 -0.000000 -0.018875
v 1.061659 -0.000000 -0.000000
v 1.053841 -0.000000 0.018875
v 1.034966 -0.000000 0.026693
v 1.016091 -0.000000 0.018875
v 1.008272 -0.000000 -0.000000
v 1.016091 -0.000000 -0.018875
vt 0.415512 0.435877
vt 0.400099 0.697333
vt 0.403102 0.391658
vt 0.363795 0.918795
vt 0.365342 0.371239
vt 0.329116 0.695481
vt 0.327496 0.392348
vt 0.320164 0.664925
vt 0.314951 0.436624
vt 0.315153 0.701007
vt 0.300410 0.490184
vt 0.268850 0.518222
vt 0.164551 0.690291
vt 0.162885 0.929390
vt 0.124572 0.911161
vt 0.461378 0.516577
vt 0.414213 0.700837
vt 0.429881 0.489274
vt 0.409216 0.665592
vt 0.445757 0.183823
vt 0.420971 0.141474
vt 0.426085 0.118748
vt 0.440749 0.206831
vt 0.419264 0.252824
vt 0.434015 0.316403
vt 0.478969 0.225812
vt 0.475238 0.247511
vt 0.468580 0.349640
vt 0.290702 0.208573
vt 0.252454 0.228467
vt 0.285793 0.185708
vt 0.296979 0.317836
vt 0.256096 0.250048
vt 0.262347 0.351838
vt 0.305723 0.120183
vt 0.310743 0.142781
vt 0.311970 0.254023
vt 0.328331 0.059376
vt 0.331398 0.083632
vt 0.329530 0.190214
vt 0.366080 0.032501
vt 0.366029 0.057475
vt 0.365803 0.164989
vt 0.403723 0.058469
vt 0.400555 0.082803
vt 0.401974 0.189372
vt 0.927082 0.502568
vt 0.597959 0.094171
vt 0.597959 0.502569
vt 0.084417 0.425353
vt 0.093581 0.687590
vt 0.085228 0.655296
vt 0.097874 0.381957
vt 0.136090 0.363958
vt 0.173403 0.387462
vt 0.174224 0.660330
vt 0.184883 0.432511
vt 0.178371 0.696702
vt 0.229007 0.516999
vt 0.198137 0.486964
vt 0.036661 0.503074
vt 0.079396 0.690193
vt 0.084817 0.926901
vt 0.068785 0.477796
vt 0.060205 0.171557
vt 0.085982 0.130816
vt 0.064660 0.194867
vt 0.085033 0.242194
vt 0.068777 0.304788
vt 0.026016 0.211401
vt 0.029227 0.233322
vt 0.033444 0.335800
vt 0.252303 0.228478
vt 0.214556 0.206162
vt 0.220008 0.183625
vt 0.248150 0.249811
vt 0.205677 0.314949
vt 0.239475 0.351135
vt 0.201655 0.116878
vt 0.196100 0.139140
vt 0.192219 0.250224
vt 0.180514 0.054675
vt 0.176870 0.078719
vt 0.176195 0.185342
vt 0.143433 0.025416
vt 0.142888 0.050375
vt 0.140549 0.157826
vt 0.105197 0.048969
vt 0.107783 0.073487
vt 0.103823 0.179889
vt 0.081413 0.107781
vt 0.833047 0.502568
vt 0.880064 0.094170
vt 0.880065 0.502568
vt 0.786029 0.502569
vt 0.833046 0.094170
vt 0.739011 0.094171
vt 0.786029 0.094171
vt 0.739012 0.502569
vt 0.691994 0.094171
vt 0.691994 0.502569
vt 0.644976 0.094171
vt 0.644977 0.502569
vt 0.927081 0.094170
vt 0.403149 0.937053
vt 0.927084 0.910966
vt 0.597959 0.910967
vt 0.644977 0.910967
vt 0.691995 0.910967
vt 0.739013 0.910967
vt 0.786030 0.910967
vt 0.833048 0.910967
vt 0.880066 0.910967
vt 0.325070 0.934563
vn 0.4818 0.3579 -0.7999
vn 0.5499 0.3989 -0.7338
vn 0.4793 0.3564 -0.8021
vn 0.7801 0.5852 -0.2213
vn 0.7884 0.5867 -0.1849
vn 0.7795 0.5851 -0.2238
vn 0.7824 0.5822 0.2214
vn 0.7861 0.5898 0.1851
vn 0.7820 0.5815 0.2245
vn 0.4854 0.3519 0.8003
vn 0.5444 0.4045 0.7348
vn 0.4809 0.3480 0.8048
vn -0.4886 -0.3421 0.8027
vn -0.5553 -0.4014 0.7284
vn -0.4828 -0.3370 0.8083
vn -0.8114 -0.5571 0.1769
vn -0.7994 -0.5572 0.2247
vn -0.7981 -0.5571 0.2294
vn -0.9966 0.0824 -0.0000
vn -0.7994 -0.5572 -0.2247
vn -0.8114 -0.5571 -0.1769
vn -0.7981 -0.5571 -0.2294
vn -0.4841 -0.3498 -0.8021
vn -0.5623 -0.3940 -0.7270
vn -0.4807 -0.3478 -0.8049
vn -0.4161 -0.0210 -0.9091
vn -0.4183 -0.0205 -0.9081
vn -0.4156 -0.0212 -0.9093
vn -0.4185 -0.0810 -0.9046
vn -0.4291 -0.0814 -0.8996
vn -0.4175 -0.0810 -0.9051
vn -0.4311 -0.1539 -0.8891
vn -0.5007 -0.1678 -0.8492
vn -0.4263 -0.1529 -0.8916
vn -0.9355 -0.0452 -0.3506
vn -0.9361 -0.0446 -0.3488
vn -0.9352 -0.0453 -0.3511
vn -0.9232 -0.1747 -0.3423
vn -0.9266 -0.1738 -0.3335
vn -0.9228 -0.1747 -0.3433
vn -0.8998 -0.2994 -0.3173
vn -0.9163 -0.2970 -0.2685
vn -0.8980 -0.2996 -0.3223
vn -0.9361 -0.0446 0.3488
vn -0.9355 -0.0452 0.3506
vn -0.9352 -0.0454 0.3511
vn -0.9266 -0.1738 0.3335
vn -0.9232 -0.1747 0.3423
vn -0.9228 -0.1748 0.3433
vn -0.9164 -0.2970 0.2685
vn -0.8999 -0.2994 0.3172
vn -0.8980 -0.2996 0.3222
vn -0.4162 -0.0204 0.9091
vn -0.4182 -0.0211 0.9081
vn -0.4156 -0.0202 0.9093
vn -0.4187 -0.0795 0.9046
vn -0.4289 -0.0830 0.8995
vn -0.4175 -0.0791 0.9052
vn -0.4334 -0.1456 0.8894
vn -0.4978 -0.1776 0.8489
vn -0.4270 -0.1424 0.8930
vn 0.4162 0.0214 0.9090
vn 0.4182 0.0221 0.9081
vn 0.4156 0.0212 0.9093
vn 0.4187 0.0814 0.9045
vn 0.4289 0.0850 0.8993
vn 0.4175 0.0810 0.9050
vn 0.4328 0.1563 0.8878
vn 0.4968 0.1897 0.8469
vn 0.4265 0.1530 0.8915
vn 0.9352 0.0501 0.3505
vn 0.9359 0.0507 0.3487
vn 0.9350 0.0499 0.3510
vn 0.9218 0.1833 0.3416
vn 0.9247 0.1853 0.3327
vn 0.9215 0.1831 0.3426
vn 0.8867 0.3412 0.3119
vn 0.8978 0.3530 0.2634
vn 0.8853 0.3398 0.3175
vn 0.9352 0.0507 -0.3505
vn 0.9359 0.0501 -0.3487
vn 0.9350 0.0509 -0.3510
vn 0.9215 0.1847 -0.3415
vn 0.9249 0.1839 -0.3327
vn 0.9212 0.1848 -0.3425
vn 0.8842 0.3478 -0.3117
vn 0.9003 0.3463 -0.2636
vn 0.8825 0.3479 -0.3165
vn 0.4161 0.0220 -0.9090
vn 0.4183 0.0215 -0.9081
vn 0.4156 0.0222 -0.9093
vn 0.4185 0.0830 -0.9044
vn 0.4292 0.0834 -0.8994
vn 0.4175 0.0829 -0.9049
vn 0.4304 0.1645 -0.8875
vn 0.4998 0.1800 -0.8472
vn 0.4257 0.1634 -0.8900
vn -0.9239 0.0002 -0.3827
vn -0.9177 -0.1162 -0.3799
vn 0.4816 -0.3581 -0.7999
vn 0.5497 -0.3992 -0.7338
vn 0.5577 -0.4039 -0.7251
vn 0.7798 -0.5856 -0.2213
vn 0.7882 -0.5871 -0.1849
vn 0.7889 -0.5871 -0.1815
vn 0.7821 -0.5825 0.2214
vn 0.7858 -0.5901 0.1851
vn 0.7860 -0.5906 0.1827
vn 0.4852 -0.3521 0.8003
vn 0.5443 -0.4048 0.7348
vn 0.5462 -0.4066 0.7324
vn -0.4884 0.3423 0.8027
vn -0.5551 0.4016 0.7284
vn -0.5577 0.4039 0.7251
vn -0.7992 0.5575 0.2246
vn -0.8111 0.5575 0.1769
vn -0.7979 0.5575 0.2294
vn -0.7992 0.5575 -0.2247
vn -0.8111 0.5575 -0.1769
vn -0.8126 0.5573 -0.1704
vn -0.4839 0.3500 -0.8021
vn -0.5621 0.3943 -0.7270
vn -0.5729 0.4003 -0.7152
vn -0.4161 0.0210 -0.9091
vn -0.4183 0.0205 -0.9081
vn -0.4188 0.0203 -0.9078
vn -0.4184 0.0812 -0.9046
vn -0.4291 0.0816 -0.8996
vn -0.4301 0.0817 -0.8991
vn -0.4310 0.1541 -0.8891
vn -0.5006 0.1680 -0.8492
vn -0.5060 0.1691 -0.8458
vn -0.9355 0.0452 -0.3506
vn -0.9361 0.0446 -0.3488
vn -0.9364 0.0445 -0.3482
vn -0.9231 0.1751 -0.3423
vn -0.9265 0.1743 -0.3335
vn -0.9269 0.1742 -0.3325
vn -0.8997 0.2998 -0.3173
vn -0.9162 0.2974 -0.2685
vn -0.9178 0.2971 -0.2633
vn -0.9355 0.0452 0.3506
vn -0.9361 0.0446 0.3488
vn -0.9352 0.0454 0.3511
vn -0.9231 0.1751 0.3423
vn -0.9265 0.1743 0.3335
vn -0.9227 0.1752 0.3433
vn -0.8997 0.2998 0.3172
vn -0.9162 0.2974 0.2685
vn -0.8979 0.3000 0.3222
vn -0.4162 0.0204 0.9091
vn -0.4182 0.0211 0.9081
vn -0.4188 0.0213 0.9078
vn -0.4187 0.0797 0.9046
vn -0.4288 0.0832 0.8995
vn -0.4300 0.0836 0.8989
vn -0.4333 0.1458 0.8894
vn -0.4978 0.1778 0.8489
vn -0.5048 0.1813 0.8440
vn 0.4162 -0.0214 0.9090
vn 0.4182 -0.0221 0.9081
vn 0.4188 -0.0224 0.9078
vn 0.4187 -0.0816 0.9044
vn 0.4289 -0.0852 0.8993
vn 0.4301 -0.0856 0.8987
vn 0.4328 -0.1565 0.8878
vn 0.4967 -0.1899 0.8469
vn 0.5037 -0.1936 0.8419
vn 0.9352 -0.0501 0.3505
vn 0.9359 -0.0507 0.3487
vn 0.9361 -0.0509 0.3481
vn 0.9217 -0.1837 0.3415
vn 0.9246 -0.1857 0.3327
vn 0.9249 -0.1860 0.3316
vn 0.8866 -0.3416 0.3119
vn 0.8976 -0.3534 0.2634
vn 0.8987 -0.3547 0.2577
vn 0.9352 -0.0507 -0.3505
vn 0.9359 -0.0501 -0.3487
vn 0.9361 -0.0500 -0.3481
vn 0.9215 -0.1851 -0.3415
vn 0.9248 -0.1843 -0.3327
vn 0.9252 -0.1843 -0.3317
vn 0.8841 -0.3482 -0.3117
vn 0.9002 -0.3467 -0.2636
vn 0.9017 -0.3465 -0.2586
vn 0.4161 -0.0220 -0.9090
vn 0.4183 -0.0215 -0.9081
vn 0.4188 -0.0213 -0.9078
vn 0.4185 -0.0832 -0.9044
vn 0.4291 -0.0836 -0.8994
vn 0.4301 -0.0837 -0.8989
vn 0.4303 -0.1647 -0.8875
vn 0.4997 -0.1802 -0.8472
vn 0.5049 -0.1814 -0.8439
vn 0.3827 -0.0001 -0.9239
vn 0.3825 0.0484 -0.9227
vn 0.9239 -0.0002 -0.3827
vn 0.9177 0.1162 -0.3799
vn 0.9239 -0.0002 0.3827
vn 0.9177 0.1162 0.3799
vn 0.3827 -0.0001 0.9239
vn 0.3825 0.0484 0.9227
vn -0.3827 0.0001 0.9239
vn -0.3825 -0.0484 0.9227
vn -0.9239 0.0002 0.3827
vn -0.9177 -0.1162 0.3799
vn -0.3827 0.0001 -0.9239
vn -0.3825 -0.0484 -0.9227
vn -0.9966 -0.0820 -0.0000
vn -0.3825 0.0486 -0.9227
vn -0.9177 0.1165 0.3799
vn -0.3825 0.0486 0.9227
vn 0.3825 -0.0486 0.9227
vn 0.9177 -0.1165 0.3799
vn 0.9177 -0.1165 -0.3799
vn 0.3825 -0.0486 -0.9227
vn -0.9177 0.1165 -0.3799
vn 0.7891 0.5868 -0.1815
vn 0.7863 0.5902 0.1827
vn 0.5464 0.4063 0.7324
vn -0.5579 -0.4037 0.7251
vn -0.4188 -0.0213 0.9078
vn -0.4301 -0.0834 0.8989
vn -0.5049 -0.1811 0.8440
vn 0.4188 0.0224 0.9078
vn 0.4301 0.0855 0.8987
vn 0.5038 0.1933 0.8419
vn 0.9361 0.0509 0.3481
vn 0.9250 0.1856 0.3316
vn 0.8989 0.3543 0.2577
vn 0.9361 0.0500 -0.3481
vn 0.9253 0.1838 -0.3317
vn 0.9019 0.3461 -0.2586
vn 0.7792 -0.5855 -0.2238
vn 0.7817 -0.5818 0.2244
vn 0.4807 -0.3482 0.8048
vn -0.4826 0.3372 0.8083
vn -0.4156 0.0202 0.9093
vn -0.4175 0.0793 0.9052
vn -0.4269 0.1426 0.8930
vn 0.4156 -0.0212 0.9093
vn 0.4175 -0.0812 0.9050
vn 0.4264 -0.1532 0.8915
vn 0.9350 -0.0499 0.3510
vn 0.9214 -0.1835 0.3426
vn 0.8852 -0.3402 0.3175
vn 0.9350 -0.0509 -0.3510
vn 0.9211 -0.1852 -0.3425
vn 0.8823 -0.3483 -0.3165
vn 0.5579 0.4037 -0.7251
vn -0.8129 -0.5570 0.1704
vn -0.8129 -0.5570 -0.1704
vn -0.5731 -0.4000 -0.7152
vn -0.4188 -0.0203 -0.9078
vn -0.4302 -0.0815 -0.8991
vn -0.5061 -0.1688 -0.8458
vn -0.9364 -0.0445 -0.3482
vn -0.9270 -0.1737 -0.3325
vn -0.9180 -0.2967 -0.2633
vn -0.9364 -0.0445 0.3482
vn -0.9270 -0.1737 0.3324
vn -0.9180 -0.2967 0.2633
vn 0.4188 0.0213 -0.9078
vn 0.4302 0.0835 -0.8989
vn 0.5050 0.1812 -0.8439
vn 0.4791 -0.3566 -0.8021
vn -0.8126 0.5573 0.1704
vn -0.7979 0.5575 -0.2294
vn -0.4805 0.3481 -0.8049
vn -0.4156 0.0212 -0.9093
vn -0.4174 0.0812 -0.9051
vn -0.4263 0.1531 -0.8915
vn -0.9352 0.0454 -0.3511
vn -0.9227 0.1752 -0.3433
vn -0.8979 0.3000 -0.3223
vn -0.9364 0.0445 0.3482
vn -0.9269 0.1742 0.3325
vn -0.9178 0.2971 0.2633
vn 0.4156 -0.0222 -0.9093
vn 0.4175 -0.0831 -0.9049
vn 0.4257 -0.1636 -0.8900
usemtl Bow_Texture
s 1
f 11/1/1 2/2/2 12/3/3
f 12/3/4 3/4/5 15/5/6
f 15/5/7 4/6/8 18/7/9
f 18/7/10 5/8/11 21/9/12
f 21/9/13 6/10/14 24/11/15
f 6/10/16 27/12/17 24/11/18
f 36/13/19 39/14/19 35/15/19
f 27/16/20 8/17/21 30/18/22
f 30/18/23 1/19/24 11/1/25
f 72/20/26 9/21/27 65/22/28
f 32/23/29 10/24/30 9/21/31
f 31/25/32 11/1/33 10/24/34
f 71/26/35 32/23/36 72/20/37
f 29/27/38 31/25/39 32/23/40
f 28/28/41 30/18/42 31/25/43
f 26/29/44 71/30/45 70/31/46
f 25/32/47 29/33/48 26/29/49
f 24/11/50 28/34/51 25/32/52
f 69/35/53 26/29/54 70/31/55
f 23/36/56 25/32/57 26/29/58
f 22/37/59 24/11/60 25/32/61
f 68/38/62 23/36/63 69/35/64
f 20/39/65 22/37/66 23/36/67
f 19/40/68 21/9/69 22/37/70
f 67/41/71 20/39/72 68/38/73
f 17/42/74 19/40/75 20/39/76
f 16/43/77 18/7/78 19/40/79
f 66/44/80 17/42/81 67/41/82
f 14/45/83 16/43/84 17/42/85
f 13/46/86 15/5/87 16/43/88
f 65/22/89 14/45/90 66/44/91
f 9/21/92 13/46/93 14/45/94
f 10/24/95 12/3/96 13/46/97
f 96/47/98 86/48/99 95/49/98
f 43/50/100 34/51/101 33/52/102
f 44/53/103 35/15/104 34/51/105
f 47/54/106 36/13/107 35/15/108
f 50/55/109 37/56/110 36/13/111
f 53/57/112 38/58/113 37/56/114
f 59/59/115 38/58/116 56/60/117
f 37/56/19 38/58/19 36/13/19
f 59/61/118 40/62/119 39/63/120
f 62/64/121 33/52/122 40/62/123
f 72/65/124 41/66/125 64/67/126
f 64/67/127 42/68/128 63/69/129
f 63/69/130 43/50/131 62/64/132
f 71/70/133 64/67/134 61/71/135
f 61/71/136 63/69/137 60/72/138
f 60/72/139 62/64/140 59/61/141
f 71/73/142 58/74/143 70/75/144
f 61/76/145 57/77/146 58/74/147
f 60/78/148 56/60/149 57/77/150
f 69/79/151 58/74/152 55/80/153
f 55/80/154 57/77/155 54/81/156
f 54/81/157 56/60/158 53/57/159
f 68/82/160 55/80/161 52/83/162
f 52/83/163 54/81/164 51/84/165
f 51/84/166 53/57/167 50/55/168
f 67/85/169 52/83/170 49/86/171
f 49/86/172 51/84/173 48/87/174
f 48/87/175 50/55/176 47/54/177
f 66/88/178 49/86/179 46/89/180
f 46/89/181 48/87/182 45/90/183
f 45/90/184 47/54/185 44/53/186
f 65/91/187 46/89/188 41/66/189
f 41/66/190 45/90/191 42/68/192
f 42/68/193 44/53/194 43/50/195
f 90/92/196 74/93/197 89/94/196
f 91/95/198 76/96/199 90/92/198
f 91/95/200 80/97/201 78/98/201
f 92/99/202 82/100/203 80/97/203
f 93/101/204 84/102/205 82/100/205
f 94/103/206 86/48/207 84/102/207
f 89/94/208 88/104/209 96/47/208
f 33/52/19 34/51/19 40/62/19
f 35/15/19 40/62/19 34/51/19
f 5/8/210 4/6/210 6/10/210
f 3/4/210 6/10/210 4/6/210
f 3/4/210 8/17/210 7/105/210
f 1/19/210 8/17/210 2/2/210
f 87/106/211 89/94/208 96/47/208
f 85/107/212 94/103/206 83/108/212
f 83/108/213 93/101/204 81/109/213
f 81/109/214 92/99/202 79/110/214
f 79/110/215 91/95/200 77/111/215
f 75/112/216 91/95/198 90/92/198
f 73/113/217 90/92/196 89/94/196
f 85/107/218 96/47/98 95/49/98
f 12/3/4 2/2/219 3/4/5
f 15/5/7 3/4/220 4/6/8
f 18/7/10 4/6/221 5/8/11
f 21/9/13 5/8/222 6/10/14
f 69/35/53 23/36/223 26/29/54
f 23/36/56 22/37/224 25/32/57
f 22/37/59 21/9/225 24/11/60
f 68/38/62 20/39/226 23/36/63
f 20/39/65 19/40/227 22/37/66
f 19/40/68 18/7/228 21/9/69
f 67/41/71 17/42/229 20/39/72
f 17/42/74 16/43/230 19/40/75
f 16/43/77 15/5/231 18/7/78
f 66/44/80 14/45/232 17/42/81
f 14/45/83 13/46/233 16/43/84
f 13/46/86 12/3/234 15/5/87
f 44/53/103 47/54/235 35/15/104
f 47/54/106 50/55/236 36/13/107
f 50/55/109 53/57/237 37/56/110
f 53/57/112 56/60/238 38/58/113
f 69/79/151 70/75/239 58/74/152
f 55/80/154 58/74/240 57/77/155
f 54/81/157 57/77/241 56/60/158
f 68/82/160 69/79/242 55/80/161
f 52/83/163 55/80/243 54/81/164
f 51/84/166 54/81/244 53/57/167
f 67/85/169 68/82/245 52/83/170
f 49/86/172 52/83/246 51/84/173
f 48/87/175 51/84/247 50/55/176
f 66/88/178 67/85/248 49/86/179
f 46/89/181 49/86/249 48/87/182
f 45/90/184 48/87/250 47/54/185
f 11/1/1 1/19/251 2/2/2
f 6/10/16 7/114/252 27/12/17
f 36/13/19 38/58/19 39/14/19
f 27/16/20 7/105/253 8/17/21
f 30/18/23 8/17/254 1/19/24
f 72/20/26 32/23/255 9/21/27
f 32/23/29 31/25/256 10/24/30
f 31/25/32 30/18/257 11/1/33
f 71/26/35 29/27/258 32/23/36
f 29/27/38 28/28/259 31/25/39
f 28/28/41 27/16/260 30/18/42
f 26/29/44 29/33/261 71/30/45
f 25/32/47 28/34/262 29/33/48
f 24/11/50 27/12/263 28/34/51
f 65/22/89 9/21/264 14/45/90
f 9/21/92 10/24/265 13/46/93
f 10/24/95 11/1/266 12/3/96
f 96/47/98 88/104/99 86/48/99
f 43/50/100 44/53/267 34/51/101
f 59/59/115 39/14/268 38/58/116
f 59/61/118 62/64/269 40/62/119
f 62/64/121 43/50/270 33/52/122
f 72/65/124 65/91/271 41/66/125
f 64/67/127 41/66/272 42/68/128
f 63/69/130 42/68/273 43/50/131
f 71/70/133 72/65/274 64/67/134
f 61/71/136 64/67/275 63/69/137
f 60/72/139 63/69/276 62/64/140
f 71/73/142 61/76/277 58/74/143
f 61/76/145 60/78/278 57/77/146
f 60/78/148 59/59/279 56/60/149
f 65/91/187 66/88/280 46/89/188
f 41/66/190 46/89/281 45/90/191
f 42/68/193 45/90/282 44/53/194
f 90/92/196 76/96/197 74/93/197
f 91/95/198 78/98/199 76/96/199
f 91/95/200 92/99/200 80/97/201
f 92/99/202 93/101/202 82/100/203
f 93/101/204 94/103/204 84/102/205
f 94/103/206 95/49/206 86/48/207
f 89/94/208 74/93/209 88/104/209
f 35/15/19 39/63/19 40/62/19
f 3/4/210 7/114/210 6/10/210
f 3/4/210 2/2/210 8/17/210
f 87/106/211 73/113/211 89/94/208
f 85/107/212 95/49/206 94/103/206
f 83/108/213 94/103/204 93/101/204
f 81/109/214 93/101/202 92/99/202
f 79/110/215 92/99/200 91/95/200
f 75/112/216 77/111/216 91/95/198
f 73/113/217 75/112/217 90/92/196
f 85/107/218 87/106/218 96/47/98
