# Blender v2.82 (sub 7) OBJ File: ''
# www.blender.org
mtllib bow_000038.mtl
o Bow_Cylinder
v 1.134950 2.364233 -0.141605
v 1.121639 2.447511 -0.100131
v 1.116125 2.482006 -0.000002
v 1.121638 2.447511 0.100126
v 1.134950 2.364233 0.141601
v 1.148262 2.280956 0.100126
v 1.153776 2.246461 -0.000002
v 1.148262 2.280956 -0.100130
v 2.132681 0.346676 -0.141603
v 1.974446 1.035385 -0.141603
v 1.686559 1.713046 -0.141604
v 1.755618 1.717386 -0.100129
v 2.061006 1.038648 -0.100129
v 2.222558 0.348299 -0.100128
v 1.784233 1.719056 -0.000001
v 2.096866 1.039913 -0.000000
v 2.259792 0.348761 0.000000
v 1.755617 1.717485 0.100127
v 2.061001 1.038816 0.100128
v 2.222558 0.348298 0.100128
v 1.686580 1.713040 0.141602
v 1.974459 1.035390 0.141602
v 2.132681 0.346676 0.141603
v 1.617613 1.707622 0.100127
v 1.887992 1.030415 0.100128
v 2.042837 0.343689 0.100128
v 1.589060 1.705150 -0.000001
v 1.852184 1.028116 -0.000001
v 2.005630 0.342234 -0.000000
v 1.617599 1.707726 -0.100130
v 1.887982 1.030553 -0.100129
v 2.042838 0.343671 -0.100129
v 1.134409 -2.363966 -0.141603
v 1.121075 -2.447239 -0.100128
v 1.115552 -2.481733 0.000000
v 1.121075 -2.447239 0.100128
v 1.134409 -2.363966 0.141603
v 1.147743 -2.280692 0.100128
v 1.153266 -2.246199 0.000000
v 1.147743 -2.280692 -0.100128
v 2.132681 -0.346675 -0.141603
v 1.974262 -1.035342 -0.141603
v 1.686193 -1.712925 -0.141603
v 1.755251 -1.717284 -0.100128
v 2.060821 -1.038628 -0.100128
v 2.222558 -0.348302 -0.100128
v 1.783866 -1.718962 0.000000
v 2.096681 -1.039903 0.000000
v 2.259792 -0.348763 0.000000
v 1.755251 -1.717383 0.100128
v 2.060816 -1.038797 0.100128
v 2.222558 -0.348301 0.100128
v 1.686215 -1.712919 0.141603
v 1.974275 -1.035347 0.141603
v 2.132681 -0.346675 0.141603
v 1.617249 -1.707484 0.100128
v 1.887809 -1.030349 0.100128
v 2.042839 -0.343668 0.100128
v 1.588696 -1.705004 0.000000
v 1.852002 -1.028040 0.000000
v 2.005631 -0.342202 0.000000
v 1.617234 -1.707587 -0.100128
v 1.887799 -1.030487 -0.100128
v 2.042839 -0.343650 -0.100128
v 2.155554 0.000000 -0.141603
v 2.246290 0.000000 -0.100128
v 2.283875 0.000000 0.000000
v 2.246290 0.000000 0.100128
v 2.155554 0.000000 0.141603
v 2.064817 0.000000 0.100128
v 2.027233 0.000000 -0.000000
v 2.064817 0.000000 -0.100128
v 1.217189 2.248833 -0.026696
v 1.216679 -2.248588 -0.026693
v 1.236001 2.250371 -0.018877
v 1.235490 -2.250131 -0.018875
v 1.243793 2.251008 -0.000002
v 1.243283 -2.250769 0.000000
v 1.236001 2.250371 0.018873
v 1.235490 -2.250131 0.018875
v 1.217189 2.248833 0.026691
v 1.216679 -2.248588 0.026694
v 1.198377 2.247296 0.018873
v 1.197867 -2.247046 0.018875
v 1.190584 2.246660 -0.000002
v 1.190074 -2.246407 0.000000
v 1.198377 2.247296 -0.018877
v 1.197867 -2.247046 -0.018875
v 0.452291 0.000000 -0.026694
v 0.471166 -0.000000 -0.018875
v 0.478985 -0.000000 -0.000000
v 0.471166 -0.000000 0.018875
v 0.452291 -0.000000 0.026693
v 0.433416 -0.000000 0.018875
v 0.425598 -0.000000 -0.000000
v 0.433416 -0.000000 -0.018875
vt 0.415512 0.435877
vt 0.400099 0.697333
vt 0.403102 0.391658
vt 0.363795 0.918795
vt 0.365342 0.371239
vt 0.329116 0.695481
vt 0.327496 0.392348
vt 0.320164 0.664925
vt 0.314951 0.436624
vt 0.315153 0.701007
vt 0.300410 0.490184
vt 0.268850 0.518222
vt 0.164551 0.690291
vt 0.162885 0.929390
vt 0.124572 0.911161
vt 0.461378 0.516577
vt 0.414213 0.700837
vt 0.429881 0.489274
vt 0.409216 0.665592
vt 0.445757 0.183823
vt 0.420971 0.141474
vt 0.426085 0.118748
vt 0.440749 0.206831
vt 0.419264 0.252824
vt 0.434015 0.316403
vt 0.478969 0.225812
vt 0.475238 0.247511
vt 0.468580 0.349640
vt 0.290702 0.208573
vt 0.252454 0.228467
vt 0.285793 0.185708
vt 0.296979 0.317836
vt 0.256096 0.250048
vt 0.262347 0.351838
vt 0.305723 0.120183
vt 0.310743 0.142781
vt 0.311970 0.254023
vt 0.328331 0.059376
vt 0.331398 0.083632
vt 0.329530 0.190214
vt 0.366080 0.032501
vt 0.366029 0.057475
vt 0.365803 0.164989
vt 0.403723 0.058469
vt 0.400555 0.082803
vt 0.401974 0.189372
vt 0.927082 0.502568
vt 0.597959 0.094171
vt 0.597959 0.502569
vt 0.084417 0.425353
vt 0.093581 0.687590
vt 0.085228 0.655296
vt 0.097874 0.381957
vt 0.136090 0.363958
vt 0.173403 0.387462
vt 0.174224 0.660330
vt 0.184883 0.432511
vt 0.178371 0.696702
vt 0.229007 0.516999
vt 0.198137 0.486964
vt 0.036661 0.503074
vt 0.079396 0.690193
vt 0.084817 0.926901
vt 0.068785 0.477796
vt 0.060205 0.171557
vt 0.085982 0.130816
vt 0.064660 0.194867
vt 0.085033 0.242194
vt 0.068777 0.304788
vt 0.026016 0.211401
vt 0.029227 0.233322
vt 0.033444 0.335800
vt 0.252303 0.228478
vt 0.214556 0.206162
vt 0.220008 0.183625
vt 0.248150 0.249811
vt 0.205677 0.314949
vt 0.239475 0.351135
vt 0.201655 0.116878
vt 0.196100 0.139140
vt 0.192219 0.250224
vt 0.180514 0.054675
vt 0.176870 0.078719
vt 0.176195 0.185342
vt 0.143433 0.025416
vt 0.142888 0.050375
vt 0.140549 0.157826
vt 0.105197 0.048969
vt 0.107783 0.073487
vt 0.103823 0.179889
vt 0.081413 0.107781
vt 0.833047 0.502568
vt 0.880064 0.094170
vt 0.880065 0.502568
vt 0.786029 0.502569
vt 0.833046 0.094170
vt 0.739011 0.094171
vt 0.786029 0.094171
vt 0.739012 0.502569
vt 0.691994 0.094171
vt 0.691994 0.502569
vt 0.644976 0.094171
vt 0.644977 0.502569
vt 0.927081 0.094170
vt 0.403149 0.937053
vt 0.927084 0.910966
vt 0.597959 0.910967
vt 0.644977 0.910967
vt 0.691995 0.910967
vt 0.739013 0.910967
vt 0.786030 0.910967
vt 0.833048 0.910967
vt 0.880066 0.910967
vt 0.325070 0.934563
vn 0.4569 0.3964 -0.7963
vn 0.5183 0.4401 -0.7333
vn 0.4547 0.3948 -0.7984
vn 0.7344 0.6428 -0.2182
vn 0.7419 0.6446 -0.1844
vn 0.7338 0.6426 -0.2204
vn 0.7367 0.6402 0.2177
vn 0.7395 0.6473 0.1846
vn 0.7364 0.6396 0.2205
vn 0.4605 0.3908 0.7970
vn 0.5127 0.4449 0.7343
vn 0.4565 0.3867 0.8013
vn -0.4617 -0.3790 0.8020
vn -0.5231 -0.4426 0.7283
vn -0.4563 -0.3736 0.8076
vn -0.7664 -0.6175 0.1770
vn -0.7544 -0.6166 0.2252
vn -0.7530 -0.6165 0.2300
vn -0.9874 0.1581 -0.0000
vn -0.7542 -0.6166 -0.2256
vn -0.7664 -0.6175 -0.1771
vn -0.7529 -0.6165 -0.2305
vn -0.4570 -0.3866 -0.8011
vn -0.5305 -0.4360 -0.7270
vn -0.4538 -0.3844 -0.8039
vn -0.4160 -0.0273 -0.9089
vn -0.4178 -0.0269 -0.9082
vn -0.4156 -0.0274 -0.9092
vn -0.4155 -0.0953 -0.9046
vn -0.4252 -0.0960 -0.9000
vn -0.4146 -0.0953 -0.9050
vn -0.4222 -0.1786 -0.8888
vn -0.4889 -0.1959 -0.8501
vn -0.4176 -0.1774 -0.8912
vn -0.9347 -0.0596 -0.3503
vn -0.9353 -0.0592 -0.3489
vn -0.9345 -0.0598 -0.3508
vn -0.9165 -0.2065 -0.3425
vn -0.9195 -0.2059 -0.3348
vn -0.9162 -0.2066 -0.3434
vn -0.8808 -0.3509 -0.3179
vn -0.8971 -0.3495 -0.2703
vn -0.8790 -0.3510 -0.3228
vn -0.9353 -0.0592 0.3489
vn -0.9347 -0.0596 0.3504
vn -0.9345 -0.0598 0.3508
vn -0.9196 -0.2059 0.3346
vn -0.9165 -0.2065 0.3425
vn -0.9162 -0.2066 0.3434
vn -0.8972 -0.3495 0.2701
vn -0.8809 -0.3509 0.3176
vn -0.8791 -0.3510 0.3224
vn -0.4161 -0.0268 0.9089
vn -0.4177 -0.0274 0.9082
vn -0.4156 -0.0266 0.9092
vn -0.4158 -0.0939 0.9046
vn -0.4248 -0.0974 0.9000
vn -0.4147 -0.0935 0.9051
vn -0.4246 -0.1706 0.8892
vn -0.4853 -0.2052 0.8499
vn -0.4186 -0.1671 0.8927
vn 0.4161 0.0276 0.9089
vn 0.4179 0.0283 0.9081
vn 0.4156 0.0274 0.9092
vn 0.4167 0.0959 0.9040
vn 0.4257 0.0994 0.8994
vn 0.4157 0.0955 0.9045
vn 0.4255 0.1818 0.8865
vn 0.4852 0.2174 0.8469
vn 0.4195 0.1782 0.8901
vn 0.9345 0.0638 0.3502
vn 0.9351 0.0644 0.3486
vn 0.9343 0.0637 0.3507
vn 0.9155 0.2144 0.3403
vn 0.9180 0.2163 0.3323
vn 0.9152 0.2141 0.3413
vn 0.8670 0.3910 0.3090
vn 0.8768 0.4028 0.2626
vn 0.8657 0.3895 0.3144
vn 0.9345 0.0644 -0.3502
vn 0.9351 0.0639 -0.3486
vn 0.9343 0.0645 -0.3507
vn 0.9152 0.2156 -0.3403
vn 0.9182 0.2150 -0.3326
vn 0.9149 0.2157 -0.3412
vn 0.8641 0.3970 -0.3094
vn 0.8795 0.3965 -0.2632
vn 0.8625 0.3970 -0.3139
vn 0.4160 0.0282 -0.9089
vn 0.4179 0.0277 -0.9081
vn 0.4156 0.0283 -0.9091
vn 0.4165 0.0973 -0.9039
vn 0.4261 0.0980 -0.8994
vn 0.4156 0.0972 -0.9044
vn 0.4230 0.1896 -0.8861
vn 0.4888 0.2083 -0.8472
vn 0.4186 0.1883 -0.8884
vn -0.9239 0.0001 -0.3826
vn -0.8850 -0.3011 -0.3552
vn -0.9239 0.0001 -0.3827
vn 0.4568 -0.3965 -0.7963
vn 0.5182 -0.4402 -0.7333
vn 0.5253 -0.4453 -0.7251
vn 0.7342 -0.6429 -0.2181
vn 0.7417 -0.6448 -0.1844
vn 0.7424 -0.6450 -0.1812
vn 0.7365 -0.6404 0.2177
vn 0.7394 -0.6475 0.1846
vn 0.7395 -0.6479 0.1824
vn 0.4604 -0.3909 0.7970
vn 0.5126 -0.4451 0.7343
vn 0.5143 -0.4469 0.7319
vn -0.4616 0.3792 0.8020
vn -0.5230 0.4428 0.7283
vn -0.5253 0.4453 0.7251
vn -0.7542 0.6168 0.2252
vn -0.7662 0.6177 0.1770
vn -0.7529 0.6167 0.2300
vn -0.7541 0.6168 -0.2256
vn -0.7662 0.6177 -0.1771
vn -0.7677 0.6177 -0.1704
vn -0.4569 0.3867 -0.8011
vn -0.5304 0.4361 -0.7270
vn -0.5406 0.4428 -0.7153
vn -0.4160 0.0273 -0.9089
vn -0.4178 0.0269 -0.9082
vn -0.4182 0.0267 -0.9079
vn -0.4155 0.0954 -0.9046
vn -0.4252 0.0961 -0.9000
vn -0.4261 0.0962 -0.8996
vn -0.4221 0.1787 -0.8888
vn -0.4888 0.1961 -0.8501
vn -0.4940 0.1974 -0.8468
vn -0.9347 0.0596 -0.3504
vn -0.9353 0.0592 -0.3489
vn -0.9355 0.0591 -0.3485
vn -0.9165 0.2067 -0.3425
vn -0.9195 0.2061 -0.3348
vn -0.9198 0.2060 -0.3339
vn -0.8807 0.3511 -0.3179
vn -0.8970 0.3497 -0.2703
vn -0.8986 0.3495 -0.2651
vn -0.9347 0.0596 0.3504
vn -0.9353 0.0592 0.3489
vn -0.9345 0.0598 0.3508
vn -0.9165 0.2068 0.3426
vn -0.9195 0.2061 0.3346
vn -0.9161 0.2068 0.3435
vn -0.8808 0.3511 0.3176
vn -0.8971 0.3497 0.2701
vn -0.8790 0.3512 0.3224
vn -0.4161 0.0268 0.9089
vn -0.4177 0.0274 0.9082
vn -0.4182 0.0276 0.9079
vn -0.4157 0.0940 0.9046
vn -0.4248 0.0975 0.9000
vn -0.4258 0.0979 0.8995
vn -0.4246 0.1707 0.8892
vn -0.4853 0.2053 0.8499
vn -0.4918 0.2091 0.8452
vn 0.4161 -0.0276 0.9089
vn 0.4179 -0.0283 0.9081
vn 0.4184 -0.0285 0.9078
vn 0.4167 -0.0960 0.9040
vn 0.4257 -0.0996 0.8994
vn 0.4268 -0.1000 0.8988
vn 0.4255 -0.1819 0.8865
vn 0.4852 -0.2175 0.8469
vn 0.4916 -0.2214 0.8422
vn 0.9345 -0.0638 0.3502
vn 0.9351 -0.0644 0.3486
vn 0.9352 -0.0646 0.3481
vn 0.9155 -0.2146 0.3403
vn 0.9180 -0.2165 0.3323
vn 0.9183 -0.2167 0.3313
vn 0.8669 -0.3912 0.3090
vn 0.8767 -0.4030 0.2626
vn 0.8777 -0.4043 0.2572
vn 0.9345 -0.0644 -0.3502
vn 0.9351 -0.0639 -0.3486
vn 0.9353 -0.0637 -0.3481
vn 0.9152 -0.2158 -0.3403
vn 0.9182 -0.2153 -0.3326
vn 0.9185 -0.2152 -0.3317
vn 0.8640 -0.3973 -0.3094
vn 0.8794 -0.3967 -0.2632
vn 0.8809 -0.3966 -0.2584
vn 0.4160 -0.0282 -0.9089
vn 0.4179 -0.0277 -0.9081
vn 0.4184 -0.0276 -0.9078
vn 0.4164 -0.0974 -0.9039
vn 0.4261 -0.0982 -0.8994
vn 0.4270 -0.0982 -0.8989
vn 0.4229 -0.1897 -0.8861
vn 0.4887 -0.2085 -0.8472
vn 0.4936 -0.2099 -0.8440
vn 0.3827 -0.0000 -0.9239
vn 0.3896 0.1323 -0.9114
vn 0.9239 -0.0001 -0.3826
vn 0.8851 0.3006 -0.3553
vn 0.9239 -0.0001 -0.3827
vn 0.9239 -0.0001 0.3826
vn 0.8851 0.3006 0.3553
vn 0.3827 -0.0000 0.9239
vn 0.3896 0.1323 0.9114
vn 0.3896 0.1324 0.9114
vn -0.3827 0.0000 0.9239
vn -0.3896 -0.1324 0.9114
vn -0.3896 -0.1325 0.9114
vn -0.9239 0.0001 0.3826
vn -0.8850 -0.3011 0.3552
vn -0.3827 0.0000 -0.9239
vn -0.3896 -0.1324 -0.9114
vn -0.9875 -0.1578 -0.0000
vn -0.3896 0.1325 -0.9114
vn -0.8849 0.3012 0.3552
vn -0.3896 0.1325 0.9114
vn 0.3896 -0.1324 0.9114
vn 0.8851 -0.3007 0.3553
vn 0.8851 -0.3007 -0.3553
vn 0.3896 -0.1324 -0.9114
vn -0.8849 0.3012 -0.3552
vn 0.7426 0.6448 -0.1812
vn 0.7397 0.6477 0.1824
vn 0.5144 0.4468 0.7319
vn -0.5255 -0.4451 0.7251
vn -0.4182 -0.0276 0.9079
vn -0.4258 -0.0978 0.8995
vn -0.4919 -0.2090 0.8452
vn 0.4184 0.0285 0.9078
vn 0.4268 0.0999 0.8988
vn 0.4917 0.2213 0.8422
vn 0.9352 0.0646 0.3481
vn 0.9183 0.2165 0.3313
vn 0.8778 0.4041 0.2572
vn 0.9353 0.0637 -0.3481
vn 0.9186 0.2150 -0.3317
vn 0.8810 0.3964 -0.2584
vn 0.7336 -0.6428 -0.2204
vn 0.7363 -0.6398 0.2205
vn 0.4564 -0.3868 0.8013
vn -0.4562 0.3737 0.8076
vn -0.4156 0.0266 0.9092
vn -0.4147 0.0936 0.9051
vn -0.4185 0.1672 0.8927
vn 0.4156 -0.0274 0.9092
vn 0.4157 -0.0956 0.9045
vn 0.4195 -0.1783 0.8901
vn 0.9343 -0.0637 0.3507
vn 0.9152 -0.2144 0.3413
vn 0.8656 -0.3898 0.3144
vn 0.9343 -0.0645 -0.3507
vn 0.9149 -0.2159 -0.3412
vn 0.8624 -0.3973 -0.3139
vn 0.5255 0.4451 -0.7251
vn -0.7679 -0.6175 0.1704
vn -0.7679 -0.6175 -0.1704
vn -0.5407 -0.4427 -0.7153
vn -0.4182 -0.0267 -0.9079
vn -0.4261 -0.0961 -0.8996
vn -0.4940 -0.1973 -0.8468
vn -0.9355 -0.0590 -0.3485
vn -0.9199 -0.2058 -0.3339
vn -0.8987 -0.3493 -0.2651
vn -0.9355 -0.0590 0.3485
vn -0.9199 -0.2058 0.3337
vn -0.8988 -0.3493 0.2649
vn 0.4184 0.0276 -0.9078
vn 0.4270 0.0981 -0.8989
vn 0.4937 0.2097 -0.8440
vn 0.4546 -0.3949 -0.7984
vn -0.7677 0.6177 0.1704
vn -0.7527 0.6167 -0.2305
vn -0.4537 0.3846 -0.8039
vn -0.4156 0.0274 -0.9092
vn -0.4146 0.0954 -0.9050
vn -0.4175 0.1775 -0.8912
vn -0.9345 0.0598 -0.3508
vn -0.9161 0.2068 -0.3434
vn -0.8789 0.3512 -0.3228
vn -0.9355 0.0591 0.3485
vn -0.9199 0.2061 0.3337
vn -0.8987 0.3495 0.2649
vn 0.4156 -0.0283 -0.9091
vn 0.4156 -0.0974 -0.9043
vn 0.4185 -0.1884 -0.8884
vn 0.3896 0.1324 -0.9114
vn 0.9239 -0.0001 0.3827
vn -0.9239 0.0001 0.3827
vn -0.3896 -0.1325 -0.9114
usemtl Bow_Texture
s 1
f 11/1/1 2/2/2 12/3/3
f 12/3/4 3/4/5 15/5/6
f 15/5/7 4/6/8 18/7/9
f 18/7/10 5/8/11 21/9/12
f 21/9/13 6/10/14 24/11/15
f 6/10/16 27/12/17 24/11/18
f 36/13/19 39/14/19 35/15/19
f 27/16/20 8/17/21 30/18/22
f 30/18/23 1/19/24 11/1/25
f 72/20/26 9/21/27 65/22/28
f 32/23/29 10/24/30 9/21/31
f 31/25/32 11/1/33 10/24/34
f 71/26/35 32/23/36 72/20/37
f 29/27/38 31/25/39 32/23/40
f 28/28/41 30/18/42 31/25/43
f 26/29/44 71/30/45 70/31/46
f 25/32/47 29/33/48 26/29/49
f 24/11/50 28/34/51 25/32/52
f 69/35/53 26/29/54 70/31/55
f 23/36/56 25/32/57 26/29/58
f 22/37/59 24/11/60 25/32/61
f 68/38/62 23/36/63 69/35/64
f 20/39/65 22/37/66 23/36/67
f 19/40/68 21/9/69 22/37/70
f 67/41/71 20/39/72 68/38/73
f 17/42/74 19/40/75 20/39/76
f 16/43/77 18/7/78 19/40/79
f 66/44/80 17/42/81 67/41/82
f 14/45/83 16/43/84 17/42/85
f 13/46/86 15/5/87 16/43/88
f 65/22/89 14/45/90 66/44/91
f 9/21/92 13/46/93 14/45/94
f 10/24/95 12/3/96 13/46/97
f 96/47/98 86/48/99 95/49/100
f 43/50/101 34/51/102 33/52/103
f 44/53/104 35/15/105 34/51/106
f 47/54/107 36/13/108 35/15/109
f 50/55/110 37/56/111 36/13/112
f 53/57/113 38/58/114 37/56/115
f 59/59/116 38/58/117 56/60/118
f 37/56/19 38/58/19 36/13/19
f 59/61/119 40/62/120 39/63/121
f 62/64/122 33/52/123 40/62/124
f 72/65/125 41/66/126 64/67/127
f 64/67/128 42/68/129 63/69/130
f 63/69/131 43/50/132 62/64/133
f 71/70/134 64/67/135 61/71/136
f 61/71/137 63/69/138 60/72/139
f 60/72/140 62/64/141 59/61/142
f 71/73/143 58/74/144 70/75/145
f 61/76/146 57/77/147 58/74/148
f 60/78/149 56/60/150 57/77/151
f 69/79/152 58/74/153 55/80/154
f 55/80/155 57/77/156 54/81/157
f 54/81/158 56/60/159 53/57/160
f 68/82/161 55/80/162 52/83/163
f 52/83/164 54/81/165 51/84/166
f 51/84/167 53/57/168 50/55/169
f 67/85/170 52/83/171 49/86/172
f 49/86/173 51/84/174 48/87/175
f 48/87/176 50/55/177 47/54/178
f 66/88/179 49/86/180 46/89/181
f 46/89/182 48/87/183 45/90/184
f 45/90/185 47/54/186 44/53/187
f 65/91/188 46/89/189 41/66/190
f 41/66/191 45/90/192 42/68/193
f 42/68/194 44/53/195 43/50/196
f 90/92/197 74/93/198 89/94/197
f 91/95/199 76/96/200 90/92/201
f 91/95/202 80/97/203 78/98/203
f 92/99/204 82/100/205 80/97/206
f 93/101/207 84/102/208 82/100/209
f 94/103/210 86/48/211 84/102/211
f 89/94/212 88/104/213 96/47/212
f 33/52/19 34/51/19 40/62/19
f 35/15/19 40/62/19 34/51/19
f 5/8/214 4/6/214 6/10/214
f 3/4/214 6/10/214 4/6/214
f 3/4/214 8/17/214 7/105/214
f 1/19/214 8/17/214 2/2/214
f 87/106/215 89/94/212 96/47/212
f 85/107/216 94/103/210 83/108/216
f 83/108/217 93/101/207 81/109/217
f 81/109/218 92/99/204 79/110/218
f 79/110/219 91/95/202 77/111/219
f 75/112/220 91/95/199 90/92/201
f 73/113/221 90/92/197 89/94/197
f 85/107/222 96/47/98 95/49/100
f 12/3/4 2/2/223 3/4/5
f 15/5/7 3/4/224 4/6/8
f 18/7/10 4/6/225 5/8/11
f 21/9/13 5/8/226 6/10/14
f 69/35/53 23/36/227 26/29/54
f 23/36/56 22/37/228 25/32/57
f 22/37/59 21/9/229 24/11/60
f 68/38/62 20/39/230 23/36/63
f 20/39/65 19/40/231 22/37/66
f 19/40/68 18/7/232 21/9/69
f 67/41/71 17/42/233 20/39/72
f 17/42/74 16/43/234 19/40/75
f 16/43/77 15/5/235 18/7/78
f 66/44/80 14/45/236 17/42/81
f 14/45/83 13/46/237 16/43/84
f 13/46/86 12/3/238 15/5/87
f 44/53/104 47/54/239 35/15/105
f 47/54/107 50/55/240 36/13/108
f 50/55/110 53/57/241 37/56/111
f 53/57/113 56/60/242 38/58/114
f 69/79/152 70/75/243 58/74/153
f 55/80/155 58/74/244 57/77/156
f 54/81/158 57/77/245 56/60/159
f 68/82/161 69/79/246 55/80/162
f 52/83/164 55/80/247 54/81/165
f 51/84/167 54/81/248 53/57/168
f 67/85/170 68/82/249 52/83/171
f 49/86/173 52/83/250 51/84/174
f 48/87/176 51/84/251 50/55/177
f 66/88/179 67/85/252 49/86/180
f 46/89/182 49/86/253 48/87/183
f 45/90/185 48/87/254 47/54/186
f 11/1/1 1/19/255 2/2/2
f 6/10/16 7/114/256 27/12/17
f 36/13/19 38/58/19 39/14/19
f 27/16/20 7/105/257 8/17/21
f 30/18/23 8/17/258 1/19/24
f 72/20/26 32/23/259 9/21/27
f 32/23/29 31/25/260 10/24/30
f 31/25/32 30/18/261 11/1/33
f 71/26/35 29/27/262 32/23/36
f 29/27/38 28/28/263 31/25/39
f 28/28/41 27/16/264 30/18/42
f 26/29/44 29/33/265 71/30/45
f 25/32/47 28/34/266 29/33/48
f 24/11/50 27/12/267 28/34/51
f 65/22/89 9/21/268 14/45/90
f 9/21/92 10/24/269 13/46/93
f 10/24/95 11/1/270 12/3/96
f 96/47/98 88/104/99 86/48/99
f 43/50/101 44/53/271 34/51/102
f 59/59/116 39/14/272 38/58/117
f 59/61/119 62/64/273 40/62/120
f 62/64/122 43/50/274 33/52/123
f 72/65/125 65/91/275 41/66/126
f 64/67/128 41/66/276 42/68/129
f 63/69/131 42/68/277 43/50/132
f 71/70/134 72/65/278 64/67/135
f 61/71/137 64/67/279 63/69/138
f 60/72/140 63/69/280 62/64/141
f 71/73/143 61/76/281 58/74/144
f 61/76/146 60/78/282 57/77/147
f 60/78/149 59/59/283 56/60/150
f 65/91/188 66/88/284 46/89/189
f 41/66/191 46/89/285 45/90/192
f 42/68/194 45/90/286 44/53/195
f 90/92/197 76/96/287 74/93/198
f 91/95/199 78/98/200 76/96/200
f 91/95/202 92/99/288 80/97/203
f 92/99/204 93/101/204 82/100/205
f 93/101/207 94/103/207 84/102/208
f 94/103/210 95/49/289 86/48/211
f 89/94/212 74/93/290 88/104/213
f 35/15/19 39/63/19 40/62/19
f 3/4/214 7/114/214 6/10/214
f 3/4/214 2/2/214 8/17/214
f 87/106/215 73/113/215 89/94/212
f 85/107/216 95/49/289 94/103/210
f 83/108/217 94/103/207 93/101/207
f 81/109/218 93/101/204 92/99/204
f 79/110/219 92/99/288 91/95/202
f 75/112/220 77/111/220 91/95/199
f 73/113/221 75/112/221 90/92/197
f 85/107/222 87/106/222 96/47/98
