# Blender v2.82 (sub 7) OBJ File: ''
# www.blender.org
mtllib bow_000058.mtl
o Bow_Cylinder
v 0.602026 1.850188 -0.141605
v 0.548804 1.915608 -0.100131
v 0.526758 1.942706 -0.000003
v 0.548803 1.915608 0.100126
v 0.602025 1.850188 0.141600
v 0.655248 1.784768 0.100126
v 0.677294 1.757670 -0.000002
v 0.655248 1.784768 -0.100131
v 2.129709 0.346411 -0.141603
v 1.894019 1.012578 -0.141603
v 1.404872 1.562636 -0.141604
v 1.468228 1.589736 -0.100130
v 1.979250 1.026792 -0.100129
v 2.219451 0.350172 -0.100128
v 1.495132 1.599769 -0.000001
v 2.014790 1.031895 -0.000000
v 2.256730 0.350473 0.000000
v 1.467784 1.590703 0.100127
v 1.978864 1.028332 0.100128
v 2.219452 0.350166 0.100128
v 1.405108 1.562669 0.141602
v 1.894132 1.012655 0.141602
v 2.129709 0.346411 0.141603
v 1.347404 1.525469 0.100127
v 1.813281 0.982881 0.100128
v 2.040678 0.334482 0.100128
v 1.324644 1.507894 -0.000001
v 1.780355 0.968375 -0.000001
v 2.003918 0.328236 -0.000000
v 1.346808 1.526420 -0.100130
v 1.812903 0.984137 -0.100129
v 2.040687 0.334375 -0.100129
v 0.597596 -1.845672 -0.141603
v 0.544181 -1.910935 -0.100129
v 0.522056 -1.937968 -0.000000
v 0.544181 -1.910935 0.100128
v 0.597596 -1.845672 0.141603
v 0.651012 -1.780410 0.100128
v 0.673137 -1.753377 -0.000000
v 0.651012 -1.780410 -0.100128
v 2.129709 -0.346409 -0.141603
v 1.892055 -1.011877 -0.141603
v 1.401288 -1.560489 -0.141603
v 1.464563 -1.587776 -0.100128
v 1.977243 -1.026342 -0.100128
v 2.219446 -0.350208 -0.100128
v 1.491437 -1.597888 0.000000
v 2.012768 -1.031550 0.000000
v 2.256726 -0.350495 0.000000
v 1.464117 -1.588741 0.100128
v 1.976853 -1.027881 0.100128
v 2.219446 -0.350202 0.100128
v 1.401524 -1.560523 0.141603
v 1.892168 -1.011954 0.141603
v 2.129709 -0.346409 0.141603
v 1.343930 -1.523152 0.100128
v 1.811405 -0.981941 0.100128
v 2.040712 -0.334253 0.100128
v 1.321221 -1.505511 0.000000
v 1.778522 -0.967339 0.000000
v 2.003971 -0.327883 0.000000
v 1.343331 -1.524101 -0.100128
v 1.811023 -0.983197 -0.100128
v 2.040721 -0.334144 -0.100128
v 2.155554 0.000000 -0.141603
v 2.246276 0.000000 -0.100128
v 2.283854 0.000000 0.000000
v 2.246275 0.000000 0.100128
v 2.155554 0.000000 0.141603
v 2.064832 0.000000 0.100128
v 2.027254 0.000000 -0.000000
v 2.064832 0.000000 -0.100128
v 0.730996 1.791477 -0.026696
v 0.726739 -1.787342 -0.026694
v 0.746510 1.802228 -0.018878
v 0.742221 -1.798138 -0.018875
v 0.752936 1.806681 -0.000002
v 0.748635 -1.802610 -0.000000
v 0.746510 1.802228 0.018873
v 0.742221 -1.798138 0.018875
v 0.730996 1.791477 0.026691
v 0.726739 -1.787342 0.026693
v 0.715482 1.780726 0.018873
v 0.711257 -1.776546 0.018875
v 0.709055 1.776273 -0.000002
v 0.704843 -1.772074 -0.000000
v 0.715482 1.780726 -0.018878
v 0.711257 -1.776546 -0.018875
v -0.665652 -0.000000 -0.026694
v -0.646778 -0.000000 -0.018876
v -0.638959 -0.000000 -0.000000
v -0.646778 -0.000000 0.018875
v -0.665652 -0.000000 0.026693
v -0.684528 -0.000000 0.018875
v -0.692346 -0.000000 -0.000000
v -0.684528 -0.000000 -0.018876
vt 0.415512 0.435877
vt 0.400099 0.697333
vt 0.403102 0.391658
vt 0.363795 0.918795
vt 0.365342 0.371239
vt 0.329116 0.695481
vt 0.327496 0.392348
vt 0.320164 0.664925
vt 0.314951 0.436624
vt 0.315153 0.701007
vt 0.300410 0.490184
vt 0.268850 0.518222
vt 0.164551 0.690291
vt 0.162885 0.929390
vt 0.124572 0.911161
vt 0.461378 0.516577
vt 0.414213 0.700837
vt 0.429881 0.489274
vt 0.409216 0.665592
vt 0.445757 0.183823
vt 0.420971 0.141474
vt 0.426085 0.118748
vt 0.440749 0.206831
vt 0.419264 0.252824
vt 0.434015 0.316403
vt 0.478969 0.225812
vt 0.475238 0.247511
vt 0.468580 0.349640
vt 0.290702 0.208573
vt 0.252454 0.228467
vt 0.285793 0.185708
vt 0.296979 0.317836
vt 0.256096 0.250048
vt 0.262347 0.351838
vt 0.305723 0.120183
vt 0.310743 0.142781
vt 0.311970 0.254023
vt 0.328331 0.059376
vt 0.331398 0.083632
vt 0.329530 0.190214
vt 0.366080 0.032501
vt 0.366029 0.057475
vt 0.365803 0.164989
vt 0.403723 0.058469
vt 0.400555 0.082803
vt 0.401974 0.189372
vt 0.927082 0.502568
vt 0.597959 0.094171
vt 0.597959 0.502569
vt 0.084417 0.425353
vt 0.093581 0.687590
vt 0.085228 0.655296
vt 0.097874 0.381957
vt 0.136090 0.363958
vt 0.173403 0.387462
vt 0.174224 0.660330
vt 0.184883 0.432511
vt 0.178371 0.696702
vt 0.229007 0.516999
vt 0.198137 0.486964
vt 0.068785 0.477796
vt 0.084817 0.926901
vt 0.036661 0.503074
vt 0.079396 0.690193
vt 0.060205 0.171557
vt 0.085982 0.130816
vt 0.064660 0.194867
vt 0.085033 0.242194
vt 0.068777 0.304788
vt 0.026016 0.211401
vt 0.029227 0.233322
vt 0.033444 0.335800
vt 0.252303 0.228478
vt 0.214556 0.206162
vt 0.220008 0.183625
vt 0.248150 0.249811
vt 0.205677 0.314949
vt 0.239475 0.351135
vt 0.201655 0.116878
vt 0.196100 0.139140
vt 0.192219 0.250224
vt 0.180514 0.054675
vt 0.176870 0.078719
vt 0.176195 0.185342
vt 0.143433 0.025416
vt 0.142888 0.050375
vt 0.140549 0.157826
vt 0.105197 0.048969
vt 0.107783 0.073487
vt 0.103823 0.179889
vt 0.081413 0.107781
vt 0.833047 0.502568
vt 0.880064 0.094170
vt 0.880065 0.502568
vt 0.786029 0.502569
vt 0.833046 0.094170
vt 0.739011 0.094171
vt 0.786029 0.094171
vt 0.739012 0.502569
vt 0.691994 0.094171
vt 0.691994 0.502569
vt 0.644976 0.094171
vt 0.644977 0.502569
vt 0.927081 0.094170
vt 0.325070 0.934563
vt 0.403149 0.937053
vt 0.927084 0.910966
vt 0.597959 0.910967
vt 0.644977 0.910967
vt 0.691995 0.910967
vt 0.739013 0.910967
vt 0.786030 0.910967
vt 0.833048 0.910967
vt 0.880066 0.910967
vn 0.2221 0.6265 -0.7471
vn 0.2313 0.6464 -0.7271
vn 0.2218 0.6258 -0.7478
vn 0.3283 0.9271 -0.1810
vn 0.3287 0.9274 -0.1788
vn 0.3283 0.9270 -0.1811
vn 0.3283 0.9284 0.1741
vn 0.3284 0.9275 0.1784
vn 0.3283 0.9285 0.1737
vn 0.2222 0.6212 0.7515
vn 0.2286 0.6464 0.7280
vn 0.2216 0.6191 0.7534
vn -0.2127 -0.5700 0.7937
vn -0.2315 -0.6456 0.7278
vn -0.2110 -0.5633 0.7989
vn -0.3532 -0.9184 0.1781
vn -0.3420 -0.9107 0.2318
vn -0.3408 -0.9097 0.2371
vn -0.7738 0.6334 -0.0000
vn -0.7739 0.6334 0.0000
vn -0.3408 -0.9097 -0.2374
vn -0.3531 -0.9183 -0.1787
vn -0.3394 -0.9086 -0.2433
vn -0.2075 -0.5784 -0.7889
vn -0.2396 -0.6442 -0.7264
vn -0.2062 -0.5756 -0.7913
vn -0.4161 -0.0309 -0.9088
vn -0.4182 -0.0304 -0.9079
vn -0.4156 -0.0310 -0.9090
vn -0.4028 -0.1424 -0.9042
vn -0.4094 -0.1436 -0.9010
vn -0.4021 -0.1423 -0.9045
vn -0.3486 -0.3093 -0.8847
vn -0.3927 -0.3383 -0.8552
vn -0.3456 -0.3073 -0.8866
vn -0.9343 -0.0673 -0.3500
vn -0.9351 -0.0667 -0.3481
vn -0.9341 -0.0675 -0.3506
vn -0.8862 -0.3106 -0.3438
vn -0.8883 -0.3104 -0.3384
vn -0.8860 -0.3106 -0.3444
vn -0.7177 -0.6159 -0.3250
vn -0.7324 -0.6196 -0.2822
vn -0.7160 -0.6154 -0.3296
vn -0.9351 -0.0667 0.3481
vn -0.9343 -0.0673 0.3500
vn -0.9341 -0.0675 0.3506
vn -0.8885 -0.3104 0.3380
vn -0.8861 -0.3106 0.3439
vn -0.8859 -0.3107 0.3446
vn -0.7328 -0.6199 0.2805
vn -0.7190 -0.6165 0.3209
vn -0.7175 -0.6160 0.3252
vn -0.4162 -0.0302 0.9088
vn -0.4181 -0.0310 0.9079
vn -0.4156 -0.0300 0.9091
vn -0.4031 -0.1415 0.9042
vn -0.4084 -0.1443 0.9013
vn -0.4024 -0.1411 0.9045
vn -0.3505 -0.3019 0.8866
vn -0.3863 -0.3426 0.8564
vn -0.3467 -0.2977 0.8895
vn 0.4160 0.0312 0.9088
vn 0.4177 0.0319 0.9080
vn 0.4156 0.0310 0.9090
vn 0.4104 0.1451 0.9003
vn 0.4126 0.1463 0.8991
vn 0.4101 0.1450 0.9005
vn 0.3692 0.3290 0.8692
vn 0.3946 0.3580 0.8463
vn 0.3664 0.3257 0.8716
vn 0.9340 0.0717 0.3500
vn 0.9345 0.0722 0.3486
vn 0.9338 0.0715 0.3505
vn 0.8891 0.3154 0.3318
vn 0.8894 0.3158 0.3305
vn 0.8890 0.3154 0.3319
vn 0.7111 0.6467 0.2757
vn 0.7133 0.6523 0.2562
vn 0.7109 0.6460 0.2780
vn 0.9340 0.0721 -0.3500
vn 0.9345 0.0717 -0.3486
vn 0.9338 0.0723 -0.3505
vn 0.8890 0.3156 -0.3319
vn 0.8890 0.3156 -0.3317
vn 0.8889 0.3156 -0.3319
vn 0.7080 0.6475 -0.2820
vn 0.7148 0.6493 -0.2595
vn 0.7073 0.6473 -0.2841
vn 0.4160 0.0317 -0.9088
vn 0.4178 0.0313 -0.9080
vn 0.4156 0.0318 -0.9090
vn 0.4102 0.1456 -0.9003
vn 0.4128 0.1461 -0.8990
vn 0.4100 0.1456 -0.9004
vn 0.3688 0.3344 -0.8673
vn 0.3983 0.3547 -0.8459
vn 0.3671 0.3332 -0.8685
vn -0.9243 0.0002 -0.3817
vn -0.7806 -0.6133 -0.1208
vn -0.9239 0.0001 -0.3827
vn 0.2203 -0.6271 -0.7471
vn 0.2294 -0.6470 -0.7271
vn 0.2304 -0.6492 -0.7249
vn 0.3256 -0.9280 -0.1810
vn 0.3259 -0.9283 -0.1788
vn 0.3260 -0.9284 -0.1786
vn 0.3255 -0.9294 0.1741
vn 0.3257 -0.9285 0.1784
vn 0.3257 -0.9284 0.1787
vn 0.2204 -0.6218 0.7515
vn 0.2267 -0.6471 0.7280
vn 0.2269 -0.6478 0.7272
vn -0.2110 0.5706 0.7937
vn -0.2296 0.6463 0.7278
vn -0.2303 0.6492 0.7250
vn -0.3393 0.9117 0.2318
vn -0.3505 0.9195 0.1781
vn -0.3381 0.9107 0.2371
vn -0.3460 0.9076 -0.2376
vn -0.3423 0.9223 -0.1793
vn -0.3464 0.9056 -0.2446
vn -0.2058 0.5790 -0.7889
vn -0.2377 0.6449 -0.7264
vn -0.2420 0.6537 -0.7170
vn -0.4161 0.0309 -0.9088
vn -0.4182 0.0304 -0.9078
vn -0.4188 0.0302 -0.9076
vn -0.4024 0.1436 -0.9041
vn -0.4090 0.1448 -0.9010
vn -0.4097 0.1450 -0.9006
vn -0.3477 0.3104 -0.8847
vn -0.3917 0.3395 -0.8552
vn -0.3954 0.3419 -0.8525
vn -0.9343 0.0672 -0.3500
vn -0.9351 0.0666 -0.3481
vn -0.9353 0.0664 -0.3474
vn -0.8853 0.3132 -0.3438
vn -0.8874 0.3130 -0.3384
vn -0.8877 0.3130 -0.3377
vn -0.7159 0.6180 -0.3250
vn -0.7306 0.6218 -0.2822
vn -0.7322 0.6222 -0.2772
vn -0.9344 0.0672 0.3500
vn -0.9351 0.0666 0.3481
vn -0.9341 0.0674 0.3506
vn -0.8852 0.3133 0.3439
vn -0.8876 0.3131 0.3380
vn -0.8849 0.3133 0.3446
vn -0.7172 0.6186 0.3209
vn -0.7310 0.6221 0.2805
vn -0.7156 0.6181 0.3252
vn -0.4162 0.0302 0.9088
vn -0.4182 0.0310 0.9078
vn -0.4187 0.0312 0.9076
vn -0.4027 0.1427 0.9041
vn -0.4080 0.1455 0.9013
vn -0.4085 0.1458 0.9010
vn -0.3496 0.3030 0.8866
vn -0.3853 0.3437 0.8564
vn -0.3888 0.3477 0.8532
vn 0.4161 -0.0312 0.9088
vn 0.4177 -0.0319 0.9080
vn 0.4182 -0.0320 0.9078
vn 0.4102 -0.1464 0.9002
vn 0.4122 -0.1475 0.8990
vn 0.4125 -0.1477 0.8989
vn 0.3682 -0.3301 0.8692
vn 0.3935 -0.3591 0.8463
vn 0.3960 -0.3620 0.8439
vn 0.9340 -0.0717 0.3500
vn 0.9345 -0.0722 0.3486
vn 0.9346 -0.0723 0.3482
vn 0.8882 -0.3180 0.3315
vn 0.8885 -0.3183 0.3305
vn 0.8886 -0.3183 0.3304
vn 0.7092 -0.6488 0.2757
vn 0.7114 -0.6544 0.2562
vn 0.7116 -0.6551 0.2540
vn 0.9340 -0.0721 -0.3500
vn 0.9345 -0.0717 -0.3486
vn 0.9347 -0.0716 -0.3482
vn 0.8882 -0.3181 -0.3316
vn 0.8881 -0.3181 -0.3316
vn 0.8881 -0.3181 -0.3317
vn 0.7061 -0.6496 -0.2820
vn 0.7129 -0.6514 -0.2595
vn 0.7136 -0.6516 -0.2573
vn 0.4160 -0.0317 -0.9088
vn 0.4178 -0.0313 -0.9080
vn 0.4182 -0.0312 -0.9078
vn 0.4101 -0.1469 -0.9002
vn 0.4124 -0.1473 -0.8990
vn 0.4126 -0.1474 -0.8989
vn 0.3678 -0.3355 -0.8673
vn 0.3973 -0.3558 -0.8459
vn 0.3994 -0.3573 -0.8443
vn 0.3834 -0.0001 -0.9236
vn 0.6407 0.4949 -0.5869
vn 0.3827 -0.0001 -0.9239
vn 0.9243 -0.0002 -0.3817
vn 0.7862 0.6052 -0.1246
vn 0.9239 -0.0002 -0.3827
vn 0.9243 -0.0002 0.3817
vn 0.7862 0.6052 0.1246
vn 0.7863 0.6053 0.1238
vn 0.3834 -0.0001 0.9236
vn 0.6407 0.4950 0.5869
vn 0.6413 0.4954 0.5859
vn -0.3834 0.0001 0.9236
vn -0.6416 -0.4998 0.5819
vn -0.6422 -0.5003 0.5808
vn -0.9243 0.0002 0.3817
vn -0.7806 -0.6133 0.1208
vn -0.7807 -0.6133 0.1199
vn -0.3834 0.0001 -0.9236
vn -0.6416 -0.4998 -0.5818
vn -0.3827 0.0000 -0.9239
vn -0.7757 -0.6311 -0.0000
vn -0.6396 0.4986 -0.5851
vn -0.7803 0.6135 0.1218
vn -0.7804 0.6135 0.1209
vn -0.6396 0.4986 0.5851
vn -0.6402 0.4991 0.5840
vn 0.6388 -0.4938 0.5900
vn 0.6393 -0.4943 0.5890
vn 0.7859 -0.6055 0.1256
vn 0.7860 -0.6055 0.1247
vn 0.7859 -0.6055 -0.1256
vn 0.6388 -0.4938 -0.5900
vn -0.7803 0.6135 -0.1218
vn 0.3287 0.9274 -0.1786
vn 0.3284 0.9275 0.1787
vn 0.2288 0.6472 0.7272
vn -0.2322 -0.6485 0.7250
vn -0.4186 -0.0312 0.9076
vn -0.4090 -0.1446 0.9010
vn -0.3898 -0.3466 0.8532
vn 0.4182 0.0320 0.9078
vn 0.4129 0.1465 0.8989
vn 0.3970 0.3608 0.8439
vn 0.9346 0.0723 0.3482
vn 0.8895 0.3158 0.3304
vn 0.7135 0.6530 0.2540
vn 0.9347 0.0716 -0.3482
vn 0.8890 0.3156 -0.3316
vn 0.7155 0.6495 -0.2573
vn 0.3256 -0.9280 -0.1811
vn 0.3255 -0.9294 0.1737
vn 0.2198 -0.6197 0.7534
vn -0.2094 0.5639 0.7989
vn -0.4156 0.0300 0.9091
vn -0.4021 0.1423 0.9045
vn -0.3458 0.2987 0.8895
vn 0.4156 -0.0310 0.9090
vn 0.4099 -0.1463 0.9003
vn 0.3654 -0.3268 0.8716
vn 0.9338 -0.0715 0.3505
vn 0.8882 -0.3180 0.3316
vn 0.7090 -0.6481 0.2780
vn 0.9338 -0.0723 -0.3505
vn 0.7054 -0.6494 -0.2841
vn 0.2323 0.6485 -0.7249
vn -0.3547 -0.9193 0.1707
vn -0.3547 -0.9193 -0.1707
vn -0.2439 -0.6530 -0.7170
vn -0.4188 -0.0302 -0.9076
vn -0.4101 -0.1438 -0.9006
vn -0.3964 -0.3407 -0.8525
vn -0.9353 -0.0665 -0.3475
vn -0.8886 -0.3103 -0.3377
vn -0.7340 -0.6200 -0.2772
vn -0.9353 -0.0665 0.3475
vn -0.8888 -0.3104 0.3372
vn -0.7343 -0.6203 0.2758
vn 0.4182 0.0312 -0.9078
vn 0.4131 0.1461 -0.8989
vn 0.4004 0.3561 -0.8443
vn -0.7807 -0.6133 -0.1199
vn 0.2200 -0.6265 -0.7478
vn -0.3520 0.9203 0.1707
vn -0.3419 0.9235 -0.1738
vn -0.2045 0.5762 -0.7913
vn -0.4156 0.0310 -0.9090
vn -0.4018 0.1435 -0.9044
vn -0.3447 0.3083 -0.8866
vn -0.9341 0.0674 -0.3506
vn -0.8850 0.3132 -0.3444
vn -0.7142 0.6175 -0.3296
vn -0.9353 0.0664 0.3474
vn -0.8879 0.3130 0.3372
vn -0.7325 0.6224 0.2758
vn 0.4156 -0.0318 -0.9090
vn 0.4099 -0.1468 -0.9003
vn 0.3661 -0.3343 -0.8685
vn 0.6413 0.4954 -0.5859
vn 0.7863 0.6053 -0.1238
vn 0.9239 -0.0002 0.3827
vn 0.3827 -0.0001 0.9239
vn -0.3827 0.0000 0.9239
vn -0.9239 0.0001 0.3827
vn -0.6422 -0.5003 -0.5808
vn -0.6402 0.4991 -0.5840
vn 0.7860 -0.6055 -0.1247
vn 0.6393 -0.4943 -0.5890
vn -0.7804 0.6135 -0.1209
usemtl Bow_Texture
s 1
f 11/1/1 2/2/2 12/3/3
f 12/3/4 3/4/5 15/5/6
f 15/5/7 4/6/8 18/7/9
f 18/7/10 5/8/11 21/9/12
f 21/9/13 6/10/14 24/11/15
f 6/10/16 27/12/17 24/11/18
f 36/13/19 39/14/19 35/15/20
f 27/16/21 8/17/22 30/18/23
f 30/18/24 1/19/25 11/1/26
f 72/20/27 9/21/28 65/22/29
f 32/23/30 10/24/31 9/21/32
f 31/25/33 11/1/34 10/24/35
f 71/26/36 32/23/37 72/20/38
f 29/27/39 31/25/40 32/23/41
f 28/28/42 30/18/43 31/25/44
f 26/29/45 71/30/46 70/31/47
f 25/32/48 29/33/49 26/29/50
f 24/11/51 28/34/52 25/32/53
f 69/35/54 26/29/55 70/31/56
f 23/36/57 25/32/58 26/29/59
f 22/37/60 24/11/61 25/32/62
f 68/38/63 23/36/64 69/35/65
f 20/39/66 22/37/67 23/36/68
f 19/40/69 21/9/70 22/37/71
f 67/41/72 20/39/73 68/38/74
f 17/42/75 19/40/76 20/39/77
f 16/43/78 18/7/79 19/40/80
f 66/44/81 17/42/82 67/41/83
f 14/45/84 16/43/85 17/42/86
f 13/46/87 15/5/88 16/43/89
f 65/22/90 14/45/91 66/44/92
f 9/21/93 13/46/94 14/45/95
f 10/24/96 12/3/97 13/46/98
f 96/47/99 86/48/100 95/49/101
f 43/50/102 34/51/103 33/52/104
f 44/53/105 35/15/106 34/51/107
f 47/54/108 36/13/109 35/15/110
f 50/55/111 37/56/112 36/13/113
f 53/57/114 38/58/115 37/56/116
f 59/59/117 38/58/118 56/60/119
f 37/56/19 38/58/19 36/13/19
f 62/61/120 39/62/121 59/63/122
f 62/61/123 33/52/124 40/64/125
f 72/65/126 41/66/127 64/67/128
f 64/67/129 42/68/130 63/69/131
f 63/69/132 43/50/133 62/61/134
f 71/70/135 64/67/136 61/71/137
f 61/71/138 63/69/139 60/72/140
f 60/72/141 62/61/142 59/63/143
f 71/73/144 58/74/145 70/75/146
f 61/76/147 57/77/148 58/74/149
f 60/78/150 56/60/151 57/77/152
f 69/79/153 58/74/154 55/80/155
f 55/80/156 57/77/157 54/81/158
f 54/81/159 56/60/160 53/57/161
f 68/82/162 55/80/163 52/83/164
f 52/83/165 54/81/166 51/84/167
f 51/84/168 53/57/169 50/55/170
f 67/85/171 52/83/172 49/86/173
f 49/86/174 51/84/175 48/87/176
f 48/87/177 50/55/178 47/54/179
f 66/88/180 49/86/181 46/89/182
f 46/89/183 48/87/184 45/90/185
f 45/90/186 47/54/187 44/53/188
f 65/91/189 46/89/190 41/66/191
f 41/66/192 45/90/193 42/68/194
f 42/68/195 44/53/196 43/50/197
f 90/92/198 74/93/199 89/94/200
f 91/95/201 76/96/202 90/92/203
f 91/95/204 80/97/205 78/98/206
f 92/99/207 82/100/208 80/97/209
f 93/101/210 84/102/211 82/100/212
f 94/103/213 86/48/214 84/102/215
f 89/94/216 88/104/217 96/47/218
f 33/52/19 34/51/19 40/64/19
f 39/62/19 34/51/19 35/15/20
f 5/8/219 4/6/219 6/10/219
f 4/6/219 7/105/219 6/10/219
f 3/4/219 8/17/219 7/106/219
f 1/19/219 8/17/219 2/2/219
f 87/107/220 89/94/216 96/47/218
f 85/108/221 94/103/213 83/109/222
f 83/109/223 93/101/210 81/110/224
f 81/110/225 92/99/207 79/111/226
f 79/111/227 91/95/204 77/112/228
f 75/113/229 91/95/201 90/92/203
f 73/114/230 90/92/198 89/94/200
f 85/108/231 96/47/99 95/49/101
f 12/3/4 2/2/232 3/4/5
f 15/5/7 3/4/233 4/6/8
f 18/7/10 4/6/234 5/8/11
f 21/9/13 5/8/235 6/10/14
f 69/35/54 23/36/236 26/29/55
f 23/36/57 22/37/237 25/32/58
f 22/37/60 21/9/238 24/11/61
f 68/38/63 20/39/239 23/36/64
f 20/39/66 19/40/240 22/37/67
f 19/40/69 18/7/241 21/9/70
f 67/41/72 17/42/242 20/39/73
f 17/42/75 16/43/243 19/40/76
f 16/43/78 15/5/244 18/7/79
f 66/44/81 14/45/245 17/42/82
f 14/45/84 13/46/246 16/43/85
f 13/46/87 12/3/247 15/5/88
f 44/53/105 47/54/248 35/15/106
f 47/54/108 50/55/249 36/13/109
f 50/55/111 53/57/250 37/56/112
f 53/57/114 56/60/251 38/58/115
f 69/79/153 70/75/252 58/74/154
f 55/80/156 58/74/253 57/77/157
f 54/81/159 57/77/254 56/60/160
f 68/82/162 69/79/255 55/80/163
f 52/83/165 55/80/256 54/81/166
f 51/84/168 54/81/257 53/57/169
f 67/85/171 68/82/258 52/83/172
f 49/86/174 52/83/259 51/84/175
f 48/87/177 51/84/260 50/55/178
f 66/88/180 67/85/261 49/86/181
f 46/89/183 49/86/183 48/87/184
f 45/90/186 48/87/262 47/54/187
f 11/1/1 1/19/263 2/2/2
f 6/10/16 7/105/264 27/12/17
f 36/13/19 38/58/19 39/14/19
f 27/16/21 7/106/265 8/17/22
f 30/18/24 8/17/266 1/19/25
f 72/20/27 32/23/267 9/21/28
f 32/23/30 31/25/268 10/24/31
f 31/25/33 30/18/269 11/1/34
f 71/26/36 29/27/270 32/23/37
f 29/27/39 28/28/271 31/25/40
f 28/28/42 27/16/272 30/18/43
f 26/29/45 29/33/273 71/30/46
f 25/32/48 28/34/274 29/33/49
f 24/11/51 27/12/275 28/34/52
f 65/22/90 9/21/276 14/45/91
f 9/21/93 10/24/277 13/46/94
f 10/24/96 11/1/278 12/3/97
f 96/47/99 88/104/279 86/48/100
f 43/50/102 44/53/280 34/51/103
f 59/59/117 39/14/281 38/58/118
f 62/61/120 40/64/282 39/62/121
f 62/61/123 43/50/283 33/52/124
f 72/65/126 65/91/284 41/66/127
f 64/67/129 41/66/285 42/68/130
f 63/69/132 42/68/286 43/50/133
f 71/70/135 72/65/287 64/67/136
f 61/71/138 64/67/288 63/69/139
f 60/72/141 63/69/289 62/61/142
f 71/73/144 61/76/290 58/74/145
f 61/76/147 60/78/291 57/77/148
f 60/78/150 59/59/292 56/60/151
f 65/91/189 66/88/293 46/89/190
f 41/66/192 46/89/294 45/90/193
f 42/68/195 45/90/295 44/53/196
f 90/92/198 76/96/296 74/93/199
f 91/95/201 78/98/297 76/96/202
f 91/95/204 92/99/298 80/97/205
f 92/99/207 93/101/299 82/100/208
f 93/101/210 94/103/300 84/102/211
f 94/103/213 95/49/301 86/48/214
f 89/94/216 74/93/302 88/104/217
f 39/62/19 40/64/19 34/51/19
f 4/6/219 3/4/219 7/105/219
f 3/4/219 2/2/219 8/17/219
f 87/107/220 73/114/303 89/94/216
f 85/108/221 95/49/301 94/103/213
f 83/109/223 94/103/300 93/101/210
f 81/110/225 93/101/299 92/99/207
f 79/111/227 92/99/298 91/95/204
f 75/113/229 77/112/304 91/95/201
f 73/114/230 75/113/305 90/92/198
f 85/108/231 87/107/306 96/47/99
