# Blender v2.82 (sub 7) OBJ File: ''
# www.blender.org
mtllib bow_000017.mtl
o Bow_Cylinder
v 1.255514 2.426385 -0.141605
v 1.248768 2.510450 -0.100130
v 1.245974 2.545271 -0.000002
v 1.248768 2.510450 0.100126
v 1.255513 2.426385 0.141601
v 1.262260 2.342320 0.100126
v 1.265054 2.307499 -0.000002
v 1.262260 2.342320 -0.100130
v 2.137186 0.346953 -0.141603
v 2.002292 1.040619 -0.141603
v 1.754472 1.733955 -0.141604
v 1.823685 1.734138 -0.100129
v 2.088923 1.040822 -0.100129
v 2.227077 0.347139 -0.100128
v 1.852354 1.734210 -0.000001
v 2.124807 1.040905 -0.000000
v 2.264311 0.347213 0.000000
v 1.823685 1.734140 0.100127
v 2.088923 1.040824 0.100128
v 2.227077 0.347139 0.100128
v 1.754473 1.733955 0.141602
v 2.002292 1.040619 0.141602
v 2.137186 0.346953 0.141603
v 1.685260 1.733745 0.100127
v 1.915660 1.040398 0.100128
v 2.047294 0.346748 0.100128
v 1.656592 1.733652 -0.000001
v 1.879777 1.040303 -0.000001
v 2.010060 0.346660 -0.000000
v 1.685260 1.733747 -0.100130
v 1.915661 1.040399 -0.100129
v 2.047294 0.346748 -0.100129
v 1.256848 -2.426951 -0.141603
v 1.250157 -2.511020 -0.100128
v 1.247385 -2.545842 -0.000000
v 1.250157 -2.511020 0.100128
v 1.256848 -2.426951 0.141603
v 1.263541 -2.342882 0.100128
v 1.266313 -2.308060 -0.000000
v 1.263541 -2.342882 -0.100128
v 2.137186 -0.346953 -0.141603
v 2.002738 -1.040706 -0.141603
v 1.755363 -1.734200 -0.141603
v 1.824576 -1.734339 -0.100128
v 2.089369 -1.040853 -0.100128
v 2.227077 -0.347130 -0.100128
v 1.853245 -1.734393 0.000000
v 2.125253 -1.040913 0.000000
v 2.264312 -0.347207 0.000000
v 1.824576 -1.734341 0.100128
v 2.089369 -1.040855 0.100128
v 2.227077 -0.347130 0.100128
v 1.755364 -1.734200 0.141603
v 2.002738 -1.040706 0.141603
v 2.137186 -0.346953 0.141603
v 1.686151 -1.734035 0.100128
v 1.916106 -1.040540 0.100128
v 2.047294 -0.346798 0.100128
v 1.657482 -1.733961 -0.000000
v 1.880222 -1.040468 0.000000
v 2.010061 -0.346737 0.000000
v 1.686151 -1.734037 -0.100128
v 1.916106 -1.040542 -0.100128
v 2.047294 -0.346798 -0.100128
v 2.155554 0.000000 -0.141603
v 2.246300 0.000000 -0.100128
v 2.283889 0.000000 0.000000
v 2.246300 0.000000 0.100128
v 2.155554 0.000000 0.141603
v 2.064807 0.000000 0.100128
v 2.027219 0.000000 -0.000000
v 2.064807 0.000000 -0.100128
v 1.328458 2.304896 -0.026695
v 1.329715 -2.305416 -0.026694
v 1.347333 2.304955 -0.018877
v 1.348590 -2.305462 -0.018875
v 1.355151 2.304979 -0.000002
v 1.356408 -2.305482 -0.000000
v 1.347333 2.304955 0.018873
v 1.348590 -2.305462 0.018875
v 1.328458 2.304896 0.026692
v 1.329715 -2.305416 0.026693
v 1.309583 2.304837 0.018873
v 1.310840 -2.305370 0.018875
v 1.301765 2.304813 -0.000002
v 1.303021 -2.305350 -0.000000
v 1.309583 2.304837 -0.018877
v 1.310840 -2.305370 -0.018875
v 1.245389 0.000000 -0.026694
v 1.264264 -0.000000 -0.018875
v 1.272082 -0.000000 -0.000000
v 1.264264 -0.000000 0.018875
v 1.245389 -0.000000 0.026693
v 1.226514 -0.000000 0.018875
v 1.218695 -0.000000 -0.000000
v 1.226514 -0.000000 -0.018875
vt 0.415512 0.435877
vt 0.400099 0.697333
vt 0.403102 0.391658
vt 0.363795 0.918795
vt 0.365342 0.371239
vt 0.329116 0.695481
vt 0.327496 0.392348
vt 0.320164 0.664925
vt 0.314951 0.436624
vt 0.315153 0.701007
vt 0.300410 0.490184
vt 0.268850 0.518222
vt 0.164551 0.690291
vt 0.162885 0.929390
vt 0.124572 0.911161
vt 0.461378 0.516577
vt 0.414213 0.700837
vt 0.429881 0.489274
vt 0.409216 0.665592
vt 0.445757 0.183823
vt 0.420971 0.141474
vt 0.426085 0.118748
vt 0.440749 0.206831
vt 0.419264 0.252824
vt 0.434015 0.316403
vt 0.478969 0.225812
vt 0.475238 0.247511
vt 0.468580 0.349640
vt 0.290702 0.208573
vt 0.252454 0.228467
vt 0.285793 0.185708
vt 0.296979 0.317836
vt 0.256096 0.250048
vt 0.262347 0.351838
vt 0.305723 0.120183
vt 0.310743 0.142781
vt 0.311970 0.254023
vt 0.328331 0.059376
vt 0.331398 0.083632
vt 0.329530 0.190214
vt 0.366080 0.032501
vt 0.366029 0.057475
vt 0.365803 0.164989
vt 0.403723 0.058469
vt 0.400555 0.082803
vt 0.401974 0.189372
vt 0.927082 0.502568
vt 0.597959 0.094171
vt 0.597959 0.502569
vt 0.084417 0.425353
vt 0.093581 0.687590
vt 0.085228 0.655296
vt 0.097874 0.381957
vt 0.136090 0.363958
vt 0.173403 0.387462
vt 0.174224 0.660330
vt 0.184883 0.432511
vt 0.178371 0.696702
vt 0.229007 0.516999
vt 0.198137 0.486964
vt 0.036661 0.503074
vt 0.079396 0.690193
vt 0.084817 0.926901
vt 0.068785 0.477796
vt 0.060205 0.171557
vt 0.085982 0.130816
vt 0.064660 0.194867
vt 0.085033 0.242194
vt 0.068777 0.304788
vt 0.026016 0.211401
vt 0.029227 0.233322
vt 0.033444 0.335800
vt 0.252303 0.228478
vt 0.214556 0.206162
vt 0.220008 0.183625
vt 0.248150 0.249811
vt 0.205677 0.314949
vt 0.239475 0.351135
vt 0.201655 0.116878
vt 0.196100 0.139140
vt 0.192219 0.250224
vt 0.180514 0.054675
vt 0.176870 0.078719
vt 0.176195 0.185342
vt 0.143433 0.025416
vt 0.142888 0.050375
vt 0.140549 0.157826
vt 0.105197 0.048969
vt 0.107783 0.073487
vt 0.103823 0.179889
vt 0.081413 0.107781
vt 0.833047 0.502568
vt 0.880064 0.094170
vt 0.880065 0.502568
vt 0.786029 0.502569
vt 0.833046 0.094170
vt 0.739011 0.094171
vt 0.786029 0.094171
vt 0.739012 0.502569
vt 0.691994 0.094171
vt 0.691994 0.502569
vt 0.644976 0.094171
vt 0.644977 0.502569
vt 0.927081 0.094170
vt 0.403149 0.937053
vt 0.927084 0.910966
vt 0.597959 0.910967
vt 0.644977 0.910967
vt 0.691995 0.910967
vt 0.739013 0.910967
vt 0.786030 0.910967
vt 0.833048 0.910967
vt 0.880066 0.910967
vt 0.325070 0.934563
vn 0.4823 0.3569 -0.8000
vn 0.5507 0.3978 -0.7338
vn 0.4798 0.3553 -0.8022
vn 0.7812 0.5837 -0.2214
vn 0.7896 0.5852 -0.1849
vn 0.7806 0.5836 -0.2239
vn 0.7835 0.5806 0.2216
vn 0.7872 0.5882 0.1851
vn 0.7831 0.5799 0.2246
vn 0.4859 0.3509 0.8005
vn 0.5452 0.4035 0.7348
vn 0.4814 0.3469 0.8049
vn -0.4892 -0.3411 0.8027
vn -0.5561 -0.4003 0.7284
vn -0.4834 -0.3360 0.8084
vn -0.8125 -0.5555 0.1769
vn -0.8005 -0.5556 0.2246
vn -0.7992 -0.5555 0.2293
vn -0.9968 0.0794 -0.0000
vn -0.8005 -0.5556 -0.2246
vn -0.8125 -0.5555 -0.1769
vn -0.7992 -0.5555 -0.2294
vn -0.4847 -0.3488 -0.8021
vn -0.5631 -0.3929 -0.7270
vn -0.4813 -0.3469 -0.8050
vn -0.4161 -0.0219 -0.9090
vn -0.4182 -0.0213 -0.9081
vn -0.4156 -0.0220 -0.9093
vn -0.4184 -0.0812 -0.9046
vn -0.4292 -0.0816 -0.8995
vn -0.4174 -0.0812 -0.9051
vn -0.4312 -0.1534 -0.8891
vn -0.5009 -0.1672 -0.8492
vn -0.4264 -0.1524 -0.8916
vn -0.9354 -0.0471 -0.3505
vn -0.9361 -0.0465 -0.3487
vn -0.9352 -0.0472 -0.3511
vn -0.9232 -0.1750 -0.3423
vn -0.9266 -0.1742 -0.3334
vn -0.9228 -0.1751 -0.3433
vn -0.9002 -0.2983 -0.3172
vn -0.9167 -0.2959 -0.2685
vn -0.8984 -0.2985 -0.3222
vn -0.9361 -0.0465 0.3487
vn -0.9354 -0.0471 0.3505
vn -0.9352 -0.0472 0.3511
vn -0.9266 -0.1742 0.3334
vn -0.9232 -0.1750 0.3423
vn -0.9228 -0.1751 0.3433
vn -0.9167 -0.2959 0.2684
vn -0.9002 -0.2983 0.3172
vn -0.8984 -0.2985 0.3222
vn -0.4162 -0.0212 0.9090
vn -0.4182 -0.0220 0.9081
vn -0.4156 -0.0210 0.9093
vn -0.4187 -0.0796 0.9046
vn -0.4289 -0.0832 0.8995
vn -0.4175 -0.0792 0.9052
vn -0.4336 -0.1451 0.8894
vn -0.4981 -0.1770 0.8488
vn -0.4271 -0.1419 0.8930
vn 0.4162 0.0222 0.9090
vn 0.4182 0.0230 0.9081
vn 0.4156 0.0220 0.9093
vn 0.4186 0.0816 0.9045
vn 0.4289 0.0852 0.8993
vn 0.4174 0.0812 0.9051
vn 0.4329 0.1557 0.8879
vn 0.4970 0.1891 0.8469
vn 0.4265 0.1524 0.8916
vn 0.9351 0.0520 0.3504
vn 0.9358 0.0526 0.3486
vn 0.9349 0.0518 0.3510
vn 0.9217 0.1837 0.3417
vn 0.9246 0.1858 0.3327
vn 0.9213 0.1835 0.3427
vn 0.8870 0.3402 0.3121
vn 0.8981 0.3521 0.2634
vn 0.8856 0.3388 0.3177
vn 0.9351 0.0525 -0.3504
vn 0.9358 0.0520 -0.3487
vn 0.9349 0.0527 -0.3510
vn 0.9214 0.1851 -0.3416
vn 0.9248 0.1844 -0.3327
vn 0.9210 0.1852 -0.3426
vn 0.8846 0.3468 -0.3119
vn 0.9007 0.3454 -0.2636
vn 0.8828 0.3469 -0.3167
vn 0.4161 0.0229 -0.9090
vn 0.4182 0.0223 -0.9081
vn 0.4156 0.0230 -0.9093
vn 0.4184 0.0832 -0.9045
vn 0.4291 0.0836 -0.8994
vn 0.4174 0.0831 -0.9049
vn 0.4304 0.1639 -0.8876
vn 0.5000 0.1794 -0.8472
vn 0.4257 0.1629 -0.8901
vn -0.9239 -0.0002 -0.3827
vn -0.9234 -0.0338 -0.3825
vn 0.4826 -0.3565 -0.8000
vn 0.5509 -0.3975 -0.7338
vn 0.5589 -0.4022 -0.7251
vn 0.7816 -0.5832 -0.2214
vn 0.7899 -0.5847 -0.1849
vn 0.7907 -0.5848 -0.1815
vn 0.7838 -0.5801 0.2216
vn 0.7876 -0.5877 0.1851
vn 0.7878 -0.5882 0.1828
vn 0.4861 -0.3505 0.8005
vn 0.5455 -0.4031 0.7348
vn 0.5474 -0.4049 0.7324
vn -0.4894 0.3408 0.8027
vn -0.5564 0.3999 0.7284
vn -0.5589 0.4022 0.7251
vn -0.8009 0.5551 0.2246
vn -0.8128 0.5550 0.1769
vn -0.7996 0.5550 0.2293
vn -0.9968 0.0793 -0.0000
vn -0.8009 0.5551 -0.2246
vn -0.8128 0.5550 -0.1769
vn -0.8143 0.5548 -0.1704
vn -0.4850 0.3485 -0.8021
vn -0.5634 0.3925 -0.7270
vn -0.5742 0.3985 -0.7152
vn -0.4161 0.0219 -0.9090
vn -0.4183 0.0213 -0.9081
vn -0.4188 0.0211 -0.9078
vn -0.4185 0.0809 -0.9046
vn -0.4292 0.0813 -0.8995
vn -0.4303 0.0814 -0.8990
vn -0.4313 0.1531 -0.8891
vn -0.5010 0.1669 -0.8492
vn -0.5064 0.1679 -0.8458
vn -0.9354 0.0471 -0.3505
vn -0.9361 0.0465 -0.3487
vn -0.9363 0.0463 -0.3482
vn -0.9233 0.1744 -0.3423
vn -0.9267 0.1736 -0.3334
vn -0.9271 0.1735 -0.3324
vn -0.9004 0.2977 -0.3172
vn -0.9169 0.2953 -0.2685
vn -0.9185 0.2950 -0.2632
vn -0.9354 0.0471 0.3505
vn -0.9361 0.0465 0.3487
vn -0.9352 0.0472 0.3511
vn -0.9233 0.1744 0.3423
vn -0.9267 0.1736 0.3334
vn -0.9229 0.1745 0.3433
vn -0.9004 0.2977 0.3172
vn -0.9169 0.2953 0.2684
vn -0.8985 0.2979 0.3222
vn -0.4162 0.0212 0.9090
vn -0.4182 0.0220 0.9081
vn -0.4188 0.0222 0.9078
vn -0.4187 0.0794 0.9046
vn -0.4290 0.0829 0.8995
vn -0.4302 0.0834 0.8989
vn -0.4337 0.1448 0.8894
vn -0.4982 0.1767 0.8488
vn -0.5053 0.1802 0.8439
vn 0.4162 -0.0222 0.9090
vn 0.4182 -0.0230 0.9081
vn 0.4188 -0.0232 0.9078
vn 0.4186 -0.0813 0.9045
vn 0.4289 -0.0850 0.8993
vn 0.4301 -0.0854 0.8987
vn 0.4330 -0.1555 0.8879
vn 0.4971 -0.1888 0.8469
vn 0.5041 -0.1925 0.8419
vn 0.9351 -0.0520 0.3504
vn 0.9358 -0.0526 0.3486
vn 0.9360 -0.0528 0.3481
vn 0.9218 -0.1832 0.3417
vn 0.9247 -0.1852 0.3327
vn 0.9250 -0.1854 0.3316
vn 0.8873 -0.3397 0.3121
vn 0.8984 -0.3515 0.2634
vn 0.8995 -0.3528 0.2577
vn 0.9351 -0.0525 -0.3504
vn 0.9358 -0.0520 -0.3487
vn 0.9360 -0.0518 -0.3481
vn 0.9215 -0.1846 -0.3417
vn 0.9249 -0.1838 -0.3327
vn 0.9253 -0.1837 -0.3317
vn 0.8848 -0.3463 -0.3119
vn 0.9009 -0.3448 -0.2636
vn 0.9024 -0.3446 -0.2586
vn 0.4161 -0.0229 -0.9090
vn 0.4182 -0.0223 -0.9081
vn 0.4188 -0.0222 -0.9078
vn 0.4184 -0.0829 -0.9045
vn 0.4292 -0.0833 -0.8994
vn 0.4302 -0.0834 -0.8989
vn 0.4305 -0.1637 -0.8876
vn 0.5001 -0.1791 -0.8472
vn 0.5053 -0.1803 -0.8439
vn 0.3827 0.0001 -0.9239
vn 0.3827 0.0140 -0.9238
vn 0.9239 0.0002 -0.3827
vn 0.9234 0.0338 -0.3824
vn 0.9239 0.0002 0.3827
vn 0.9234 0.0338 0.3824
vn 0.3827 0.0001 0.9239
vn 0.3827 0.0140 0.9238
vn -0.3827 -0.0001 0.9239
vn -0.3827 -0.0140 0.9238
vn -0.9239 -0.0002 0.3827
vn -0.9234 -0.0338 0.3825
vn -0.9234 -0.0338 0.3824
vn -0.3827 -0.0001 -0.9239
vn -0.3827 -0.0140 -0.9238
vn -0.9968 -0.0800 -0.0000
vn -0.3827 0.0138 -0.9238
vn -0.9234 0.0333 0.3824
vn -0.3827 0.0138 0.9238
vn 0.3827 -0.0138 0.9238
vn 0.9234 -0.0333 0.3824
vn 0.9234 -0.0333 -0.3824
vn 0.3827 -0.0138 -0.9238
vn -0.9234 0.0333 -0.3825
vn 0.7903 0.5853 -0.1815
vn 0.7874 0.5887 0.1828
vn 0.5472 0.4052 0.7324
vn -0.5587 -0.4026 0.7251
vn -0.4188 -0.0222 0.9078
vn -0.4301 -0.0836 0.8989
vn -0.5052 -0.1806 0.8439
vn 0.4188 0.0232 0.9078
vn 0.4301 0.0857 0.8987
vn 0.5040 0.1928 0.8419
vn 0.9360 0.0528 0.3481
vn 0.9249 0.1860 0.3316
vn 0.8993 0.3534 0.2577
vn 0.9360 0.0518 -0.3481
vn 0.9252 0.1843 -0.3317
vn 0.9022 0.3452 -0.2586
vn 0.7809 -0.5831 -0.2239
vn 0.7835 -0.5794 0.2246
vn 0.4816 -0.3466 0.8049
vn -0.4836 0.3357 0.8084
vn -0.4156 0.0210 0.9093
vn -0.4175 0.0790 0.9052
vn -0.4272 0.1417 0.8930
vn 0.4156 -0.0220 0.9093
vn 0.4174 -0.0809 0.9051
vn 0.4266 -0.1522 0.8916
vn 0.9349 -0.0518 0.3510
vn 0.9214 -0.1829 0.3428
vn 0.8858 -0.3382 0.3177
vn 0.9349 -0.0527 -0.3510
vn 0.9211 -0.1846 -0.3427
vn 0.8830 -0.3464 -0.3167
vn 0.5587 0.4026 -0.7251
vn -0.8140 -0.5554 0.1704
vn -0.8140 -0.5554 -0.1704
vn -0.5739 -0.3989 -0.7152
vn -0.4188 -0.0212 -0.9078
vn -0.4302 -0.0816 -0.8990
vn -0.5063 -0.1682 -0.8458
vn -0.9363 -0.0463 -0.3482
vn -0.9269 -0.1741 -0.3324
vn -0.9183 -0.2956 -0.2632
vn -0.9363 -0.0463 0.3482
vn -0.9269 -0.1741 0.3324
vn -0.9183 -0.2956 0.2632
vn 0.4188 0.0222 -0.9078
vn 0.4301 0.0836 -0.8989
vn 0.5052 0.1806 -0.8439
vn -0.9234 -0.0338 -0.3824
vn 0.4800 -0.3550 -0.8022
vn -0.8143 0.5548 0.1704
vn -0.7996 0.5550 -0.2294
vn -0.4816 0.3465 -0.8050
vn -0.4156 0.0220 -0.9093
vn -0.4175 0.0809 -0.9051
vn -0.4265 0.1522 -0.8916
vn -0.9352 0.0472 -0.3511
vn -0.9229 0.1745 -0.3433
vn -0.8985 0.2979 -0.3222
vn -0.9363 0.0463 0.3482
vn -0.9271 0.1735 0.3324
vn -0.9185 0.2950 0.2632
vn 0.4156 -0.0230 -0.9093
vn 0.4174 -0.0829 -0.9050
vn 0.4258 -0.1626 -0.8901
vn -0.9234 0.0333 -0.3824
usemtl Bow_Texture
s 1
f 11/1/1 2/2/2 12/3/3
f 12/3/4 3/4/5 15/5/6
f 15/5/7 4/6/8 18/7/9
f 18/7/10 5/8/11 21/9/12
f 21/9/13 6/10/14 24/11/15
f 6/10/16 27/12/17 24/11/18
f 36/13/19 39/14/19 35/15/19
f 27/16/20 8/17/21 30/18/22
f 30/18/23 1/19/24 11/1/25
f 72/20/26 9/21/27 65/22/28
f 32/23/29 10/24/30 9/21/31
f 31/25/32 11/1/33 10/24/34
f 71/26/35 32/23/36 72/20/37
f 29/27/38 31/25/39 32/23/40
f 28/28/41 30/18/42 31/25/43
f 26/29/44 71/30/45 70/31/46
f 25/32/47 29/33/48 26/29/49
f 24/11/50 28/34/51 25/32/52
f 69/35/53 26/29/54 70/31/55
f 23/36/56 25/32/57 26/29/58
f 22/37/59 24/11/60 25/32/61
f 68/38/62 23/36/63 69/35/64
f 20/39/65 22/37/66 23/36/67
f 19/40/68 21/9/69 22/37/70
f 67/41/71 20/39/72 68/38/73
f 17/42/74 19/40/75 20/39/76
f 16/43/77 18/7/78 19/40/79
f 66/44/80 17/42/81 67/41/82
f 14/45/83 16/43/84 17/42/85
f 13/46/86 15/5/87 16/43/88
f 65/22/89 14/45/90 66/44/91
f 9/21/92 13/46/93 14/45/94
f 10/24/95 12/3/96 13/46/97
f 96/47/98 86/48/99 95/49/98
f 43/50/100 34/51/101 33/52/102
f 44/53/103 35/15/104 34/51/105
f 47/54/106 36/13/107 35/15/108
f 50/55/109 37/56/110 36/13/111
f 53/57/112 38/58/113 37/56/114
f 59/59/115 38/58/116 56/60/117
f 37/56/19 38/58/118 36/13/19
f 59/61/119 40/62/120 39/63/121
f 62/64/122 33/52/123 40/62/124
f 72/65/125 41/66/126 64/67/127
f 64/67/128 42/68/129 63/69/130
f 63/69/131 43/50/132 62/64/133
f 71/70/134 64/67/135 61/71/136
f 61/71/137 63/69/138 60/72/139
f 60/72/140 62/64/141 59/61/142
f 71/73/143 58/74/144 70/75/145
f 61/76/146 57/77/147 58/74/148
f 60/78/149 56/60/150 57/77/151
f 69/79/152 58/74/153 55/80/154
f 55/80/155 57/77/156 54/81/157
f 54/81/158 56/60/159 53/57/160
f 68/82/161 55/80/162 52/83/163
f 52/83/164 54/81/165 51/84/166
f 51/84/167 53/57/168 50/55/169
f 67/85/170 52/83/171 49/86/172
f 49/86/173 51/84/174 48/87/175
f 48/87/176 50/55/177 47/54/178
f 66/88/179 49/86/180 46/89/181
f 46/89/182 48/87/183 45/90/184
f 45/90/185 47/54/186 44/53/187
f 65/91/188 46/89/189 41/66/190
f 41/66/191 45/90/192 42/68/193
f 42/68/194 44/53/195 43/50/196
f 90/92/197 74/93/198 89/94/197
f 91/95/199 76/96/200 90/92/199
f 91/95/201 80/97/202 78/98/202
f 92/99/203 82/100/204 80/97/204
f 93/101/205 84/102/206 82/100/206
f 94/103/207 86/48/208 84/102/209
f 89/94/210 88/104/211 96/47/210
f 33/52/19 34/51/19 40/62/19
f 35/15/19 40/62/19 34/51/19
f 5/8/212 4/6/212 6/10/212
f 3/4/212 6/10/212 4/6/212
f 3/4/212 8/17/212 7/105/212
f 1/19/212 8/17/212 2/2/212
f 87/106/213 89/94/210 96/47/210
f 85/107/214 94/103/207 83/108/214
f 83/108/215 93/101/205 81/109/215
f 81/109/216 92/99/203 79/110/216
f 79/110/217 91/95/201 77/111/217
f 75/112/218 91/95/199 90/92/199
f 73/113/219 90/92/197 89/94/197
f 85/107/220 96/47/98 95/49/98
f 12/3/4 2/2/221 3/4/5
f 15/5/7 3/4/222 4/6/8
f 18/7/10 4/6/223 5/8/11
f 21/9/13 5/8/224 6/10/14
f 69/35/53 23/36/225 26/29/54
f 23/36/56 22/37/226 25/32/57
f 22/37/59 21/9/227 24/11/60
f 68/38/62 20/39/228 23/36/63
f 20/39/65 19/40/229 22/37/66
f 19/40/68 18/7/230 21/9/69
f 67/41/71 17/42/231 20/39/72
f 17/42/74 16/43/232 19/40/75
f 16/43/77 15/5/233 18/7/78
f 66/44/80 14/45/234 17/42/81
f 14/45/83 13/46/235 16/43/84
f 13/46/86 12/3/236 15/5/87
f 44/53/103 47/54/237 35/15/104
f 47/54/106 50/55/238 36/13/107
f 50/55/109 53/57/239 37/56/110
f 53/57/112 56/60/240 38/58/113
f 69/79/152 70/75/241 58/74/153
f 55/80/155 58/74/242 57/77/156
f 54/81/158 57/77/243 56/60/159
f 68/82/161 69/79/244 55/80/162
f 52/83/164 55/80/245 54/81/165
f 51/84/167 54/81/246 53/57/168
f 67/85/170 68/82/247 52/83/171
f 49/86/173 52/83/248 51/84/174
f 48/87/176 51/84/249 50/55/177
f 66/88/179 67/85/250 49/86/180
f 46/89/182 49/86/251 48/87/183
f 45/90/185 48/87/252 47/54/186
f 11/1/1 1/19/253 2/2/2
f 6/10/16 7/114/254 27/12/17
f 36/13/19 38/58/118 39/14/19
f 27/16/20 7/105/255 8/17/21
f 30/18/23 8/17/256 1/19/24
f 72/20/26 32/23/257 9/21/27
f 32/23/29 31/25/258 10/24/30
f 31/25/32 30/18/259 11/1/33
f 71/26/35 29/27/260 32/23/36
f 29/27/38 28/28/261 31/25/39
f 28/28/41 27/16/262 30/18/42
f 26/29/44 29/33/263 71/30/45
f 25/32/47 28/34/264 29/33/48
f 24/11/50 27/12/265 28/34/51
f 65/22/89 9/21/266 14/45/90
f 9/21/92 10/24/267 13/46/93
f 10/24/95 11/1/268 12/3/96
f 96/47/98 88/104/269 86/48/99
f 43/50/100 44/53/270 34/51/101
f 59/59/115 39/14/271 38/58/116
f 59/61/119 62/64/272 40/62/120
f 62/64/122 43/50/273 33/52/123
f 72/65/125 65/91/274 41/66/126
f 64/67/128 41/66/275 42/68/129
f 63/69/131 42/68/276 43/50/132
f 71/70/134 72/65/277 64/67/135
f 61/71/137 64/67/278 63/69/138
f 60/72/140 63/69/279 62/64/141
f 71/73/143 61/76/280 58/74/144
f 61/76/146 60/78/281 57/77/147
f 60/78/149 59/59/282 56/60/150
f 65/91/188 66/88/283 46/89/189
f 41/66/191 46/89/284 45/90/192
f 42/68/194 45/90/285 44/53/195
f 90/92/197 76/96/198 74/93/198
f 91/95/199 78/98/200 76/96/200
f 91/95/201 92/99/201 80/97/202
f 92/99/203 93/101/203 82/100/204
f 93/101/205 94/103/205 84/102/206
f 94/103/207 95/49/207 86/48/208
f 89/94/210 74/93/211 88/104/211
f 35/15/19 39/63/19 40/62/19
f 3/4/212 7/114/212 6/10/212
f 3/4/212 2/2/212 8/17/212
f 87/106/213 73/113/213 89/94/210
f 85/107/214 95/49/207 94/103/207
f 83/108/215 94/103/205 93/101/205
f 81/109/216 93/101/203 92/99/203
f 79/110/217 92/99/201 91/95/201
f 75/112/218 77/111/218 91/95/199
f 73/113/219 75/112/219 90/92/197
f 85/107/220 87/106/286 96/47/98
