# Blender v2.82 (sub 7) OBJ File: ''
# www.blender.org
mtllib bow_000035.mtl
o Bow_Cylinder
v 1.183214 2.390718 -0.141605
v 1.172646 2.474388 -0.100131
v 1.168268 2.509045 -0.000002
v 1.172645 2.474388 0.100126
v 1.183214 2.390718 0.141601
v 1.193783 2.307048 0.100126
v 1.198160 2.272390 -0.000002
v 1.193783 2.307048 -0.100130
v 2.134332 0.346784 -0.141603
v 1.984996 1.037480 -0.141603
v 1.713163 1.721748 -0.141604
v 1.782316 1.724406 -0.100129
v 2.071597 1.039568 -0.100129
v 2.224218 0.347874 -0.100128
v 1.810963 1.725436 -0.000001
v 2.107471 1.040383 -0.000000
v 2.261452 0.348196 0.000000
v 1.782317 1.724460 0.100127
v 2.071596 1.039664 0.100128
v 2.224218 0.347873 0.100128
v 1.713174 1.721745 0.141602
v 1.985003 1.037483 0.141602
v 2.134332 0.346784 0.141603
v 1.644055 1.718497 0.100127
v 1.898437 1.034416 0.100128
v 2.044459 0.344858 0.100128
v 1.615430 1.717027 -0.000001
v 1.862583 1.033009 -0.000001
v 2.007236 0.343926 -0.000000
v 1.644049 1.718554 -0.100130
v 1.898433 1.034495 -0.100129
v 2.044460 0.344847 -0.100129
v 1.183871 -2.391023 -0.141603
v 1.173329 -2.474695 -0.100128
v 1.168963 -2.509355 0.000000
v 1.173329 -2.474696 0.100128
v 1.183871 -2.391023 0.141603
v 1.194413 -2.307349 0.100128
v 1.198779 -2.272691 0.000000
v 1.194413 -2.307349 -0.100128
v 2.134332 -0.346784 -0.141603
v 1.985219 -1.037529 -0.141603
v 1.713605 -1.721883 -0.141603
v 1.782759 -1.724518 -0.100128
v 2.071820 -1.039588 -0.100128
v 2.224218 -0.347869 -0.100128
v 1.811407 -1.725540 0.000000
v 2.107694 -1.040392 0.000000
v 2.261452 -0.348193 0.000000
v 1.782760 -1.724572 0.100129
v 2.071819 -1.039685 0.100128
v 2.224218 -0.347869 0.100128
v 1.713617 -1.721879 0.141603
v 1.985226 -1.037531 0.141603
v 2.134332 -0.346784 0.141603
v 1.644496 -1.718654 0.100128
v 1.898659 -1.034492 0.100128
v 2.044459 -0.344883 0.100128
v 1.615870 -1.717193 0.000000
v 1.862804 -1.033096 0.000000
v 2.007236 -0.343965 0.000000
v 1.644490 -1.718711 -0.100128
v 1.898655 -1.034571 -0.100128
v 2.044459 -0.344872 -0.100128
v 2.155554 0.000000 -0.141603
v 2.246296 0.000000 -0.100128
v 2.283883 0.000000 0.000000
v 2.246296 0.000000 0.100128
v 2.155554 0.000000 0.141603
v 2.064812 0.000000 0.100128
v 2.027225 0.000000 -0.000000
v 2.064812 0.000000 -0.100128
v 1.261617 2.272678 -0.026695
v 1.262236 -2.272959 -0.026693
v 1.280470 2.273597 -0.018877
v 1.281089 -2.273871 -0.018875
v 1.288279 2.273977 -0.000002
v 1.288898 -2.274249 0.000000
v 1.280470 2.273597 0.018873
v 1.281089 -2.273871 0.018875
v 1.261617 2.272678 0.026692
v 1.262236 -2.272959 0.026694
v 1.242765 2.271760 0.018873
v 1.243383 -2.272046 0.018875
v 1.234955 2.271379 -0.000002
v 1.235574 -2.271668 0.000000
v 1.242765 2.271760 -0.018877
v 1.243383 -2.272046 -0.018875
v 0.618495 0.000000 -0.026694
v 0.637370 -0.000000 -0.018875
v 0.645188 -0.000000 -0.000000
v 0.637370 -0.000000 0.018875
v 0.618495 -0.000000 0.026693
v 0.599620 -0.000000 0.018875
v 0.591802 -0.000000 -0.000000
v 0.599620 -0.000000 -0.018875
vt 0.415512 0.435877
vt 0.400099 0.697333
vt 0.403102 0.391658
vt 0.363795 0.918795
vt 0.365342 0.371239
vt 0.329116 0.695481
vt 0.327496 0.392348
vt 0.320164 0.664925
vt 0.314951 0.436624
vt 0.315153 0.701007
vt 0.300410 0.490184
vt 0.268850 0.518222
vt 0.164551 0.690291
vt 0.162885 0.929390
vt 0.124572 0.911161
vt 0.461378 0.516577
vt 0.414213 0.700837
vt 0.429881 0.489274
vt 0.409216 0.665592
vt 0.445757 0.183823
vt 0.420971 0.141474
vt 0.426085 0.118748
vt 0.440749 0.206831
vt 0.419264 0.252824
vt 0.434015 0.316403
vt 0.478969 0.225812
vt 0.475238 0.247511
vt 0.468580 0.349640
vt 0.290702 0.208573
vt 0.252454 0.228467
vt 0.285793 0.185708
vt 0.296979 0.317836
vt 0.256096 0.250048
vt 0.262347 0.351838
vt 0.305723 0.120183
vt 0.310743 0.142781
vt 0.311970 0.254023
vt 0.328331 0.059376
vt 0.331398 0.083632
vt 0.329530 0.190214
vt 0.366080 0.032501
vt 0.366029 0.057475
vt 0.365803 0.164989
vt 0.403723 0.058469
vt 0.400555 0.082803
vt 0.401974 0.189372
vt 0.927082 0.502568
vt 0.597959 0.094171
vt 0.597959 0.502569
vt 0.084417 0.425353
vt 0.093581 0.687590
vt 0.085228 0.655296
vt 0.097874 0.381957
vt 0.136090 0.363958
vt 0.173403 0.387462
vt 0.174224 0.660330
vt 0.184883 0.432511
vt 0.178371 0.696702
vt 0.229007 0.516999
vt 0.198137 0.486964
vt 0.036661 0.503074
vt 0.079396 0.690193
vt 0.084817 0.926901
vt 0.068785 0.477796
vt 0.060205 0.171557
vt 0.085982 0.130816
vt 0.064660 0.194867
vt 0.085033 0.242194
vt 0.068777 0.304788
vt 0.026016 0.211401
vt 0.029227 0.233322
vt 0.033444 0.335800
vt 0.252303 0.228478
vt 0.214556 0.206162
vt 0.220008 0.183625
vt 0.248150 0.249811
vt 0.205677 0.314949
vt 0.239475 0.351135
vt 0.201655 0.116878
vt 0.196100 0.139140
vt 0.192219 0.250224
vt 0.180514 0.054675
vt 0.176870 0.078719
vt 0.176195 0.185342
vt 0.143433 0.025416
vt 0.142888 0.050375
vt 0.140549 0.157826
vt 0.105197 0.048969
vt 0.107783 0.073487
vt 0.103823 0.179889
vt 0.081413 0.107781
vt 0.833047 0.502568
vt 0.880064 0.094170
vt 0.880065 0.502568
vt 0.786029 0.502569
vt 0.833046 0.094170
vt 0.739011 0.094171
vt 0.786029 0.094171
vt 0.739012 0.502569
vt 0.691994 0.094171
vt 0.691994 0.502569
vt 0.644976 0.094171
vt 0.644977 0.502569
vt 0.927081 0.094170
vt 0.325070 0.934563
vt 0.403149 0.937053
vt 0.927084 0.910966
vt 0.597959 0.910967
vt 0.644977 0.910967
vt 0.691995 0.910967
vt 0.739013 0.910967
vt 0.786030 0.910967
vt 0.833048 0.910967
vt 0.880066 0.910967
vn 0.4678 0.3799 -0.7980
vn 0.5323 0.4227 -0.7335
vn 0.4654 0.3783 -0.8002
vn 0.7545 0.6185 -0.2197
vn 0.7624 0.6202 -0.1846
vn 0.7539 0.6183 -0.2221
vn 0.7568 0.6157 0.2195
vn 0.7600 0.6231 0.1848
vn 0.7565 0.6150 0.2224
vn 0.4714 0.3741 0.7986
vn 0.5267 0.4279 0.7345
vn 0.4671 0.3701 0.8030
vn -0.4735 -0.3634 0.8023
vn -0.5373 -0.4252 0.7284
vn -0.4680 -0.3580 0.8080
vn -0.7863 -0.5919 0.1770
vn -0.7743 -0.5915 0.2249
vn -0.7730 -0.5914 0.2297
vn -0.9922 0.1250 -0.0000
vn -0.7742 -0.5915 -0.2252
vn -0.7863 -0.5920 -0.1770
vn -0.7729 -0.5914 -0.2299
vn -0.4689 -0.3710 -0.8015
vn -0.5446 -0.4182 -0.7270
vn -0.4657 -0.3689 -0.8044
vn -0.4161 -0.0253 -0.9090
vn -0.4179 -0.0248 -0.9081
vn -0.4156 -0.0254 -0.9092
vn -0.4167 -0.0899 -0.9046
vn -0.4268 -0.0905 -0.8998
vn -0.4157 -0.0899 -0.9050
vn -0.4260 -0.1685 -0.8889
vn -0.4940 -0.1845 -0.8497
vn -0.4213 -0.1674 -0.8913
vn -0.9350 -0.0550 -0.3504
vn -0.9356 -0.0545 -0.3489
vn -0.9348 -0.0552 -0.3509
vn -0.9192 -0.1945 -0.3424
vn -0.9224 -0.1938 -0.3342
vn -0.9188 -0.1946 -0.3434
vn -0.8890 -0.3298 -0.3176
vn -0.9054 -0.3280 -0.2695
vn -0.8872 -0.3299 -0.3226
vn -0.9356 -0.0545 0.3489
vn -0.9350 -0.0550 0.3504
vn -0.9348 -0.0552 0.3509
vn -0.9224 -0.1938 0.3341
vn -0.9192 -0.1945 0.3424
vn -0.9188 -0.1946 0.3434
vn -0.9055 -0.3280 0.2693
vn -0.8891 -0.3298 0.3174
vn -0.8873 -0.3299 0.3224
vn -0.4161 -0.0247 0.9090
vn -0.4179 -0.0254 0.9081
vn -0.4156 -0.0245 0.9092
vn -0.4169 -0.0885 0.9046
vn -0.4265 -0.0920 0.8998
vn -0.4158 -0.0881 0.9052
vn -0.4284 -0.1603 0.8892
vn -0.4908 -0.1940 0.8494
vn -0.4222 -0.1570 0.8928
vn 0.4161 0.0256 0.9090
vn 0.4180 0.0264 0.9081
vn 0.4156 0.0254 0.9092
vn 0.4175 0.0904 0.9042
vn 0.4270 0.0940 0.8994
vn 0.4164 0.0900 0.9047
vn 0.4286 0.1713 0.8871
vn 0.4902 0.2061 0.8469
vn 0.4224 0.1678 0.8907
vn 0.9347 0.0595 0.3503
vn 0.9353 0.0601 0.3486
vn 0.9346 0.0593 0.3508
vn 0.9180 0.2027 0.3409
vn 0.9206 0.2046 0.3325
vn 0.9177 0.2025 0.3419
vn 0.8754 0.3707 0.3104
vn 0.8857 0.3825 0.2630
vn 0.8740 0.3692 0.3158
vn 0.9347 0.0600 -0.3503
vn 0.9354 0.0595 -0.3486
vn 0.9345 0.0602 -0.3508
vn 0.9177 0.2040 -0.3409
vn 0.9209 0.2033 -0.3326
vn 0.9174 0.2041 -0.3418
vn 0.8727 0.3769 -0.3105
vn 0.8884 0.3760 -0.2634
vn 0.8710 0.3770 -0.3151
vn 0.4161 0.0262 -0.9090
vn 0.4180 0.0257 -0.9081
vn 0.4156 0.0264 -0.9092
vn 0.4172 0.0919 -0.9042
vn 0.4273 0.0925 -0.8994
vn 0.4163 0.0919 -0.9046
vn 0.4260 0.1792 -0.8868
vn 0.4935 0.1968 -0.8472
vn 0.4215 0.1781 -0.8892
vn -0.9239 -0.0001 -0.3827
vn -0.8956 -0.2537 -0.3655
vn 0.4679 -0.3798 -0.7980
vn 0.5324 -0.4225 -0.7335
vn 0.5399 -0.4274 -0.7251
vn 0.7547 -0.6182 -0.2197
vn 0.7626 -0.6200 -0.1846
vn 0.7633 -0.6201 -0.1814
vn 0.7570 -0.6154 0.2195
vn 0.7602 -0.6228 0.1848
vn 0.7604 -0.6233 0.1826
vn 0.4715 -0.3740 0.7986
vn 0.5268 -0.4277 0.7345
vn 0.5287 -0.4295 0.7321
vn -0.4737 0.3632 0.8023
vn -0.5375 0.4250 0.7284
vn -0.5399 0.4274 0.7251
vn -0.7745 0.5913 0.2249
vn -0.7865 0.5917 0.1770
vn -0.7732 0.5911 0.2297
vn -0.7744 0.5912 -0.2252
vn -0.7865 0.5917 -0.1770
vn -0.7880 0.5916 -0.1704
vn -0.4691 0.3708 -0.8015
vn -0.5447 0.4181 -0.7270
vn -0.5552 0.4245 -0.7153
vn -0.4161 0.0253 -0.9090
vn -0.4179 0.0248 -0.9081
vn -0.4185 0.0247 -0.9079
vn -0.4167 0.0898 -0.9046
vn -0.4268 0.0904 -0.8998
vn -0.4278 0.0904 -0.8993
vn -0.4260 0.1683 -0.8889
vn -0.4941 0.1843 -0.8497
vn -0.4993 0.1855 -0.8463
vn -0.9350 0.0550 -0.3504
vn -0.9356 0.0545 -0.3489
vn -0.9358 0.0544 -0.3484
vn -0.9193 0.1942 -0.3424
vn -0.9224 0.1935 -0.3342
vn -0.9228 0.1934 -0.3333
vn -0.8891 0.3295 -0.3176
vn -0.9055 0.3277 -0.2695
vn -0.9072 0.3275 -0.2643
vn -0.9350 0.0550 0.3504
vn -0.9356 0.0545 0.3489
vn -0.9348 0.0552 0.3509
vn -0.9193 0.1942 0.3424
vn -0.9225 0.1935 0.3341
vn -0.9189 0.1943 0.3434
vn -0.8892 0.3295 0.3174
vn -0.9056 0.3277 0.2693
vn -0.8874 0.3297 0.3224
vn -0.4161 0.0247 0.9090
vn -0.4179 0.0254 0.9081
vn -0.4184 0.0256 0.9079
vn -0.4170 0.0883 0.9046
vn -0.4265 0.0919 0.8998
vn -0.4276 0.0923 0.8992
vn -0.4285 0.1602 0.8892
vn -0.4908 0.1938 0.8494
vn -0.4976 0.1975 0.8446
vn 0.4161 -0.0256 0.9090
vn 0.4180 -0.0264 0.9081
vn 0.4186 -0.0266 0.9078
vn 0.4175 -0.0903 0.9042
vn 0.4270 -0.0939 0.8994
vn 0.4281 -0.0943 0.8988
vn 0.4286 -0.1711 0.8871
vn 0.4902 -0.2059 0.8469
vn 0.4969 -0.2097 0.8421
vn 0.9347 -0.0595 0.3503
vn 0.9353 -0.0601 0.3486
vn 0.9355 -0.0603 0.3481
vn 0.9181 -0.2024 0.3409
vn 0.9207 -0.2044 0.3325
vn 0.9210 -0.2046 0.3314
vn 0.8755 -0.3704 0.3104
vn 0.8859 -0.3822 0.2630
vn 0.8869 -0.3835 0.2575
vn 0.9347 -0.0600 -0.3503
vn 0.9354 -0.0595 -0.3486
vn 0.9356 -0.0594 -0.3481
vn 0.9178 -0.2037 -0.3409
vn 0.9209 -0.2031 -0.3326
vn 0.9213 -0.2030 -0.3317
vn 0.8728 -0.3767 -0.3105
vn 0.8885 -0.3758 -0.2634
vn 0.8900 -0.3756 -0.2585
vn 0.4161 -0.0262 -0.9090
vn 0.4180 -0.0257 -0.9081
vn 0.4186 -0.0256 -0.9078
vn 0.4172 -0.0918 -0.9042
vn 0.4273 -0.0924 -0.8994
vn 0.4283 -0.0925 -0.8989
vn 0.4261 -0.1791 -0.8868
vn 0.4935 -0.1966 -0.8472
vn 0.4986 -0.1979 -0.8439
vn 0.3827 0.0001 -0.9239
vn 0.3853 0.1091 -0.9163
vn 0.3827 0.0000 -0.9239
vn 0.9239 0.0001 -0.3827
vn 0.8956 0.2535 -0.3655
vn 0.9239 0.0001 0.3827
vn 0.8956 0.2535 0.3655
vn 0.3827 0.0001 0.9239
vn 0.3853 0.1091 0.9163
vn -0.3827 -0.0001 0.9239
vn -0.3853 -0.1091 0.9163
vn -0.9239 -0.0001 0.3827
vn -0.8956 -0.2537 0.3655
vn -0.8956 -0.2538 0.3655
vn -0.3827 -0.0001 -0.9239
vn -0.3853 -0.1091 -0.9163
vn -0.3827 -0.0000 -0.9239
vn -0.9921 -0.1253 -0.0000
vn -0.3853 0.1090 -0.9163
vn -0.8956 0.2536 0.3655
vn -0.8956 0.2536 0.3654
vn -0.3853 0.1090 0.9163
vn 0.3853 -0.1090 0.9163
vn 0.8957 -0.2533 0.3655
vn 0.8957 -0.2533 -0.3655
vn 0.3853 -0.1090 -0.9163
vn -0.8956 0.2536 -0.3655
vn 0.7631 0.6203 -0.1813
vn 0.7602 0.6235 0.1826
vn 0.5285 0.4297 0.7321
vn -0.5398 -0.4276 0.7251
vn -0.4184 -0.0256 0.9079
vn -0.4276 -0.0924 0.8992
vn -0.4975 -0.1976 0.8446
vn 0.4186 0.0266 0.9078
vn 0.4281 0.0944 0.8988
vn 0.4969 0.2099 0.8421
vn 0.9355 0.0603 0.3481
vn 0.9210 0.2049 0.3314
vn 0.8868 0.3838 0.2575
vn 0.9356 0.0594 -0.3481
vn 0.9212 0.2033 -0.3317
vn 0.8899 0.3759 -0.2585
vn 0.7541 -0.6181 -0.2221
vn 0.7567 -0.6148 0.2224
vn 0.4673 -0.3699 0.8030
vn -0.4681 0.3579 0.8080
vn -0.4156 0.0245 0.9092
vn -0.4159 0.0879 0.9052
vn -0.4222 0.1569 0.8928
vn 0.4156 -0.0254 0.9092
vn 0.4164 -0.0899 0.9047
vn 0.4225 -0.1677 0.8907
vn 0.9346 -0.0593 0.3508
vn 0.9177 -0.2022 0.3419
vn 0.8742 -0.3689 0.3158
vn 0.9345 -0.0602 -0.3508
vn 0.9174 -0.2038 -0.3418
vn 0.8711 -0.3767 -0.3151
vn 0.5398 0.4276 -0.7251
vn -0.7878 -0.5919 0.1704
vn -0.7878 -0.5919 -0.1704
vn -0.5550 -0.4247 -0.7153
vn -0.4184 -0.0247 -0.9079
vn -0.4278 -0.0906 -0.8993
vn -0.4993 -0.1857 -0.8463
vn -0.9358 -0.0544 -0.3484
vn -0.9227 -0.1937 -0.3333
vn -0.9071 -0.3277 -0.2643
vn -0.9358 -0.0544 0.3484
vn -0.9228 -0.1937 0.3331
vn -0.9071 -0.3278 0.2641
vn 0.4186 0.0256 -0.9078
vn 0.4283 0.0926 -0.8989
vn 0.4985 0.1981 -0.8439
vn -0.8956 -0.2538 -0.3655
vn 0.4655 -0.3782 -0.8002
vn -0.7880 0.5916 0.1704
vn -0.7731 0.5911 -0.2299
vn -0.4658 0.3687 -0.8044
vn -0.4156 0.0254 -0.9092
vn -0.4157 0.0897 -0.9050
vn -0.4213 0.1672 -0.8913
vn -0.9348 0.0552 -0.3509
vn -0.9189 0.1943 -0.3434
vn -0.8873 0.3296 -0.3226
vn -0.9358 0.0544 0.3484
vn -0.9228 0.1934 0.3331
vn -0.9072 0.3275 0.2641
vn 0.4156 -0.0264 -0.9092
vn 0.4163 -0.0917 -0.9046
vn 0.4216 -0.1779 -0.8892
vn 0.3827 0.0000 0.9239
vn -0.3827 -0.0000 0.9239
vn -0.8956 0.2536 -0.3654
usemtl Bow_Texture
s 1
f 11/1/1 2/2/2 12/3/3
f 12/3/4 3/4/5 15/5/6
f 15/5/7 4/6/8 18/7/9
f 18/7/10 5/8/11 21/9/12
f 21/9/13 6/10/14 24/11/15
f 6/10/16 27/12/17 24/11/18
f 36/13/19 39/14/19 35/15/19
f 27/16/20 8/17/21 30/18/22
f 30/18/23 1/19/24 11/1/25
f 72/20/26 9/21/27 65/22/28
f 32/23/29 10/24/30 9/21/31
f 31/25/32 11/1/33 10/24/34
f 71/26/35 32/23/36 72/20/37
f 29/27/38 31/25/39 32/23/40
f 28/28/41 30/18/42 31/25/43
f 26/29/44 71/30/45 70/31/46
f 25/32/47 29/33/48 26/29/49
f 24/11/50 28/34/51 25/32/52
f 69/35/53 26/29/54 70/31/55
f 23/36/56 25/32/57 26/29/58
f 22/37/59 24/11/60 25/32/61
f 68/38/62 23/36/63 69/35/64
f 20/39/65 22/37/66 23/36/67
f 19/40/68 21/9/69 22/37/70
f 67/41/71 20/39/72 68/38/73
f 17/42/74 19/40/75 20/39/76
f 16/43/77 18/7/78 19/40/79
f 66/44/80 17/42/81 67/41/82
f 14/45/83 16/43/84 17/42/85
f 13/46/86 15/5/87 16/43/88
f 65/22/89 14/45/90 66/44/91
f 9/21/92 13/46/93 14/45/94
f 10/24/95 12/3/96 13/46/97
f 96/47/98 86/48/99 95/49/98
f 43/50/100 34/51/101 33/52/102
f 44/53/103 35/15/104 34/51/105
f 47/54/106 36/13/107 35/15/108
f 50/55/109 37/56/110 36/13/111
f 53/57/112 38/58/113 37/56/114
f 59/59/115 38/58/116 56/60/117
f 37/56/19 38/58/19 36/13/19
f 59/61/118 40/62/119 39/63/120
f 62/64/121 33/52/122 40/62/123
f 72/65/124 41/66/125 64/67/126
f 64/67/127 42/68/128 63/69/129
f 63/69/130 43/50/131 62/64/132
f 71/70/133 64/67/134 61/71/135
f 61/71/136 63/69/137 60/72/138
f 60/72/139 62/64/140 59/61/141
f 71/73/142 58/74/143 70/75/144
f 61/76/145 57/77/146 58/74/147
f 60/78/148 56/60/149 57/77/150
f 69/79/151 58/74/152 55/80/153
f 55/80/154 57/77/155 54/81/156
f 54/81/157 56/60/158 53/57/159
f 68/82/160 55/80/161 52/83/162
f 52/83/163 54/81/164 51/84/165
f 51/84/166 53/57/167 50/55/168
f 67/85/169 52/83/170 49/86/171
f 49/86/172 51/84/173 48/87/174
f 48/87/175 50/55/176 47/54/177
f 66/88/178 49/86/179 46/89/180
f 46/89/181 48/87/182 45/90/183
f 45/90/184 47/54/185 44/53/186
f 65/91/187 46/89/188 41/66/189
f 41/66/190 45/90/191 42/68/192
f 42/68/193 44/53/194 43/50/195
f 90/92/196 74/93/197 89/94/198
f 91/95/199 76/96/200 90/92/199
f 91/95/201 80/97/202 78/98/202
f 92/99/203 82/100/204 80/97/204
f 93/101/205 84/102/206 82/100/206
f 94/103/207 86/48/208 84/102/209
f 89/94/210 88/104/211 96/47/212
f 33/52/19 34/51/19 40/62/19
f 39/63/19 34/51/19 35/15/19
f 5/8/213 4/6/213 6/10/213
f 4/6/213 7/105/213 6/10/213
f 3/4/213 8/17/213 7/106/213
f 1/19/213 8/17/213 2/2/213
f 87/107/214 89/94/210 96/47/212
f 85/108/215 94/103/207 83/109/216
f 83/109/217 93/101/205 81/110/217
f 81/110/218 92/99/203 79/111/218
f 79/111/219 91/95/201 77/112/219
f 75/113/220 91/95/199 90/92/199
f 73/114/221 90/92/196 89/94/198
f 85/108/222 96/47/98 95/49/98
f 12/3/4 2/2/223 3/4/5
f 15/5/7 3/4/224 4/6/8
f 18/7/10 4/6/225 5/8/11
f 21/9/13 5/8/226 6/10/14
f 69/35/53 23/36/227 26/29/54
f 23/36/56 22/37/228 25/32/57
f 22/37/59 21/9/229 24/11/60
f 68/38/62 20/39/230 23/36/63
f 20/39/65 19/40/231 22/37/66
f 19/40/68 18/7/232 21/9/69
f 67/41/71 17/42/233 20/39/72
f 17/42/74 16/43/234 19/40/75
f 16/43/77 15/5/235 18/7/78
f 66/44/80 14/45/236 17/42/81
f 14/45/83 13/46/237 16/43/84
f 13/46/86 12/3/238 15/5/87
f 44/53/103 47/54/239 35/15/104
f 47/54/106 50/55/240 36/13/107
f 50/55/109 53/57/241 37/56/110
f 53/57/112 56/60/242 38/58/113
f 69/79/151 70/75/243 58/74/152
f 55/80/154 58/74/244 57/77/155
f 54/81/157 57/77/245 56/60/158
f 68/82/160 69/79/246 55/80/161
f 52/83/163 55/80/247 54/81/164
f 51/84/166 54/81/248 53/57/167
f 67/85/169 68/82/249 52/83/170
f 49/86/172 52/83/250 51/84/173
f 48/87/175 51/84/251 50/55/176
f 66/88/178 67/85/252 49/86/179
f 46/89/181 49/86/253 48/87/182
f 45/90/184 48/87/254 47/54/185
f 11/1/1 1/19/255 2/2/2
f 6/10/16 7/105/256 27/12/17
f 36/13/19 38/58/19 39/14/19
f 27/16/20 7/106/257 8/17/21
f 30/18/23 8/17/258 1/19/24
f 72/20/26 32/23/259 9/21/27
f 32/23/29 31/25/260 10/24/30
f 31/25/32 30/18/261 11/1/33
f 71/26/35 29/27/262 32/23/36
f 29/27/38 28/28/263 31/25/39
f 28/28/41 27/16/264 30/18/42
f 26/29/44 29/33/265 71/30/45
f 25/32/47 28/34/266 29/33/48
f 24/11/50 27/12/267 28/34/51
f 65/22/89 9/21/268 14/45/90
f 9/21/92 10/24/269 13/46/93
f 10/24/95 11/1/270 12/3/96
f 96/47/98 88/104/271 86/48/99
f 43/50/100 44/53/272 34/51/101
f 59/59/115 39/14/273 38/58/116
f 59/61/118 62/64/274 40/62/119
f 62/64/121 43/50/275 33/52/122
f 72/65/124 65/91/276 41/66/125
f 64/67/127 41/66/277 42/68/128
f 63/69/130 42/68/278 43/50/131
f 71/70/133 72/65/279 64/67/134
f 61/71/136 64/67/280 63/69/137
f 60/72/139 63/69/281 62/64/140
f 71/73/142 61/76/282 58/74/143
f 61/76/145 60/78/283 57/77/146
f 60/78/148 59/59/284 56/60/149
f 65/91/187 66/88/285 46/89/188
f 41/66/190 46/89/286 45/90/191
f 42/68/193 45/90/287 44/53/194
f 90/92/196 76/96/197 74/93/197
f 91/95/199 78/98/200 76/96/200
f 91/95/201 92/99/201 80/97/202
f 92/99/203 93/101/288 82/100/204
f 93/101/205 94/103/289 84/102/206
f 94/103/207 95/49/207 86/48/208
f 89/94/210 74/93/211 88/104/211
f 39/63/19 40/62/19 34/51/19
f 4/6/213 3/4/213 7/105/213
f 3/4/213 2/2/213 8/17/213
f 87/107/214 73/114/214 89/94/210
f 85/108/215 95/49/207 94/103/207
f 83/109/217 94/103/289 93/101/205
f 81/110/218 93/101/288 92/99/203
f 79/111/219 92/99/201 91/95/201
f 75/113/220 77/112/220 91/95/199
f 73/114/221 75/113/221 90/92/196
f 85/108/222 87/107/290 96/47/98
