# Blender v2.82 (sub 7) OBJ File: ''
# www.blender.org
mtllib bow_000033.mtl
o Bow_Cylinder
v 1.206871 2.402810 -0.141605
v 1.197577 2.486631 -0.100131
v 1.193728 2.521351 -0.000002
v 1.197577 2.486631 0.100126
v 1.206871 2.402810 0.141601
v 1.216165 2.318989 0.100126
v 1.220015 2.284269 -0.000002
v 1.216166 2.318989 -0.100130
v 2.135316 0.346845 -0.141603
v 1.990623 1.038530 -0.141603
v 1.726591 1.725849 -0.141604
v 1.795774 1.727697 -0.100129
v 2.077238 1.040010 -0.100129
v 2.225205 0.347629 -0.100128
v 1.824431 1.728417 -0.000001
v 2.113117 1.040589 -0.000000
v 2.262439 0.347863 0.000000
v 1.795775 1.727733 0.100127
v 2.077238 1.040075 0.100128
v 2.225205 0.347628 0.100128
v 1.726598 1.725846 0.141602
v 1.990628 1.038532 0.141602
v 2.135316 0.346845 0.141603
v 1.657433 1.723610 0.100127
v 1.904030 1.036392 0.100128
v 2.045433 0.345475 0.100128
v 1.628785 1.722601 -0.000001
v 1.868161 1.035414 -0.000001
v 2.008205 0.344814 -0.000000
v 1.657430 1.723647 -0.100130
v 1.904028 1.036445 -0.100129
v 2.045434 0.345467 -0.100129
v 1.206211 -2.402511 -0.141603
v 1.196890 -2.486329 -0.100128
v 1.193029 -2.521048 0.000000
v 1.196890 -2.486329 0.100128
v 1.206211 -2.402511 0.141603
v 1.215532 -2.318693 0.100128
v 1.219393 -2.283975 -0.000000
v 1.215532 -2.318693 -0.100128
v 2.135316 -0.346845 -0.141603
v 1.990401 -1.038483 -0.141603
v 1.726148 -1.725717 -0.141603
v 1.795330 -1.727587 -0.100128
v 2.077016 -1.039991 -0.100128
v 2.225205 -0.347633 -0.100128
v 1.823988 -1.728316 0.000000
v 2.112895 -1.040582 0.000000
v 2.262439 -0.347866 0.000000
v 1.795331 -1.727623 0.100128
v 2.077016 -1.040056 0.100128
v 2.225205 -0.347632 0.100128
v 1.726156 -1.725714 0.141603
v 1.990406 -1.038485 0.141603
v 2.135316 -0.346844 0.141603
v 1.656991 -1.723455 0.100128
v 1.903809 -1.036317 0.100128
v 2.045434 -0.345450 0.100128
v 1.628344 -1.722438 0.000000
v 1.867940 -1.035327 0.000000
v 2.008206 -0.344775 0.000000
v 1.656987 -1.723493 -0.100128
v 1.903807 -1.036370 -0.100128
v 2.045434 -0.345442 -0.100128
v 2.155554 0.000000 -0.141603
v 2.246298 0.000000 -0.100128
v 2.283886 0.000000 0.000000
v 2.246298 0.000000 0.100128
v 2.155554 0.000000 0.141603
v 2.064810 0.000000 0.100128
v 2.027222 0.000000 -0.000000
v 2.064810 0.000000 -0.100128
v 1.283469 2.283591 -0.026695
v 1.282847 -2.283317 -0.026693
v 1.302333 2.284222 -0.018877
v 1.301711 -2.283955 -0.018875
v 1.310147 2.284484 -0.000002
v 1.309525 -2.284219 0.000000
v 1.302333 2.284222 0.018873
v 1.301711 -2.283955 0.018875
v 1.283469 2.283591 0.026692
v 1.282847 -2.283317 0.026694
v 1.264605 2.282960 0.018873
v 1.263983 -2.282680 0.018875
v 1.256790 2.282698 -0.000002
v 1.256169 -2.282416 0.000000
v 1.264605 2.282960 -0.018877
v 1.263983 -2.282680 -0.018875
v 0.721189 0.000000 -0.026694
v 0.740064 -0.000000 -0.018875
v 0.747883 -0.000000 -0.000000
v 0.740064 -0.000000 0.018875
v 0.721189 -0.000000 0.026693
v 0.702315 -0.000000 0.018875
v 0.694496 -0.000000 -0.000000
v 0.702315 -0.000000 -0.018875
vt 0.415512 0.435877
vt 0.400099 0.697333
vt 0.403102 0.391658
vt 0.363795 0.918795
vt 0.365342 0.371239
vt 0.329116 0.695481
vt 0.327496 0.392348
vt 0.320164 0.664925
vt 0.314951 0.436624
vt 0.315153 0.701007
vt 0.300410 0.490184
vt 0.268850 0.518222
vt 0.164551 0.690291
vt 0.162885 0.929390
vt 0.124572 0.911161
vt 0.461378 0.516577
vt 0.414213 0.700837
vt 0.429881 0.489274
vt 0.409216 0.665592
vt 0.445757 0.183823
vt 0.420971 0.141474
vt 0.426085 0.118748
vt 0.440749 0.206831
vt 0.419264 0.252824
vt 0.434015 0.316403
vt 0.478969 0.225812
vt 0.475238 0.247511
vt 0.468580 0.349640
vt 0.290702 0.208573
vt 0.252454 0.228467
vt 0.285793 0.185708
vt 0.296979 0.317836
vt 0.256096 0.250048
vt 0.262347 0.351838
vt 0.305723 0.120183
vt 0.310743 0.142781
vt 0.311970 0.254023
vt 0.328331 0.059376
vt 0.331398 0.083632
vt 0.329530 0.190214
vt 0.366080 0.032501
vt 0.366029 0.057475
vt 0.365803 0.164989
vt 0.403723 0.058469
vt 0.400555 0.082803
vt 0.401974 0.189372
vt 0.927082 0.502568
vt 0.597959 0.094171
vt 0.597959 0.502569
vt 0.084417 0.425353
vt 0.093581 0.687590
vt 0.085228 0.655296
vt 0.097874 0.381957
vt 0.136090 0.363958
vt 0.173403 0.387462
vt 0.174224 0.660330
vt 0.184883 0.432511
vt 0.178371 0.696702
vt 0.229007 0.516999
vt 0.198137 0.486964
vt 0.036661 0.503074
vt 0.079396 0.690193
vt 0.084817 0.926901
vt 0.068785 0.477796
vt 0.060205 0.171557
vt 0.085982 0.130816
vt 0.064660 0.194867
vt 0.085033 0.242194
vt 0.068777 0.304788
vt 0.026016 0.211401
vt 0.029227 0.233322
vt 0.033444 0.335800
vt 0.252303 0.228478
vt 0.214556 0.206162
vt 0.220008 0.183625
vt 0.248150 0.249811
vt 0.205677 0.314949
vt 0.239475 0.351135
vt 0.201655 0.116878
vt 0.196100 0.139140
vt 0.192219 0.250224
vt 0.180514 0.054675
vt 0.176870 0.078719
vt 0.176195 0.185342
vt 0.143433 0.025416
vt 0.142888 0.050375
vt 0.140549 0.157826
vt 0.105197 0.048969
vt 0.107783 0.073487
vt 0.103823 0.179889
vt 0.081413 0.107781
vt 0.833047 0.502568
vt 0.880064 0.094170
vt 0.880065 0.502568
vt 0.786029 0.502569
vt 0.833046 0.094170
vt 0.739011 0.094171
vt 0.786029 0.094171
vt 0.739012 0.502569
vt 0.691994 0.094171
vt 0.691994 0.502569
vt 0.644976 0.094171
vt 0.644977 0.502569
vt 0.927081 0.094170
vt 0.403149 0.937053
vt 0.927084 0.910966
vt 0.597959 0.910967
vt 0.644977 0.910967
vt 0.691995 0.910967
vt 0.739013 0.910967
vt 0.786030 0.910967
vt 0.833048 0.910967
vt 0.880066 0.910967
vt 0.325070 0.934563
vn 0.4727 0.3722 -0.7987
vn 0.5385 0.4145 -0.7336
vn 0.4702 0.3707 -0.8009
vn 0.7635 0.6070 -0.2203
vn 0.7716 0.6086 -0.1847
vn 0.7630 0.6069 -0.2227
vn 0.7659 0.6041 0.2202
vn 0.7693 0.6116 0.1849
vn 0.7655 0.6034 0.2232
vn 0.4763 0.3664 0.7993
vn 0.5330 0.4198 0.7346
vn 0.4720 0.3624 0.8037
vn -0.4789 -0.3560 0.8025
vn -0.5437 -0.4170 0.7284
vn -0.4732 -0.3507 0.8081
vn -0.7952 -0.5799 0.1770
vn -0.7832 -0.5796 0.2248
vn -0.7819 -0.5795 0.2296
vn -0.9939 0.1105 -0.0000
vn -0.7832 -0.5796 -0.2250
vn -0.7952 -0.5799 -0.1770
vn -0.7819 -0.5795 -0.2297
vn -0.4743 -0.3636 -0.8017
vn -0.5509 -0.4099 -0.7270
vn -0.4710 -0.3616 -0.8046
vn -0.4161 -0.0241 -0.9090
vn -0.4180 -0.0236 -0.9081
vn -0.4156 -0.0242 -0.9092
vn -0.4173 -0.0871 -0.9046
vn -0.4276 -0.0877 -0.8997
vn -0.4163 -0.0871 -0.9051
vn -0.4278 -0.1636 -0.8890
vn -0.4964 -0.1789 -0.8495
vn -0.4230 -0.1625 -0.8914
vn -0.9351 -0.0523 -0.3505
vn -0.9358 -0.0518 -0.3488
vn -0.9349 -0.0524 -0.3510
vn -0.9205 -0.1882 -0.3424
vn -0.9238 -0.1875 -0.3339
vn -0.9201 -0.1883 -0.3433
vn -0.8928 -0.3196 -0.3175
vn -0.9093 -0.3176 -0.2691
vn -0.8910 -0.3197 -0.3224
vn -0.9358 -0.0518 0.3488
vn -0.9351 -0.0523 0.3505
vn -0.9349 -0.0524 0.3510
vn -0.9238 -0.1875 0.3339
vn -0.9205 -0.1882 0.3424
vn -0.9201 -0.1883 0.3434
vn -0.9093 -0.3176 0.2690
vn -0.8928 -0.3196 0.3173
vn -0.8910 -0.3197 0.3223
vn -0.4161 -0.0235 0.9090
vn -0.4180 -0.0242 0.9081
vn -0.4156 -0.0233 0.9093
vn -0.4175 -0.0856 0.9046
vn -0.4273 -0.0892 0.8997
vn -0.4164 -0.0852 0.9052
vn -0.4302 -0.1554 0.8893
vn -0.4932 -0.1885 0.8492
vn -0.4239 -0.1521 0.8929
vn 0.4161 0.0245 0.9090
vn 0.4181 0.0252 0.9081
vn 0.4156 0.0242 0.9092
vn 0.4179 0.0876 0.9043
vn 0.4276 0.0912 0.8994
vn 0.4167 0.0872 0.9048
vn 0.4300 0.1662 0.8874
vn 0.4925 0.2006 0.8469
vn 0.4238 0.1628 0.8910
vn 0.9349 0.0569 0.3503
vn 0.9355 0.0575 0.3486
vn 0.9347 0.0567 0.3509
vn 0.9192 0.1966 0.3411
vn 0.9219 0.1986 0.3325
vn 0.9189 0.1964 0.3422
vn 0.8793 0.3608 0.3109
vn 0.8899 0.3726 0.2631
vn 0.8779 0.3593 0.3164
vn 0.9349 0.0575 -0.3503
vn 0.9355 0.0569 -0.3486
vn 0.9347 0.0576 -0.3509
vn 0.9189 0.1979 -0.3411
vn 0.9222 0.1972 -0.3327
vn 0.9186 0.1980 -0.3421
vn 0.8766 0.3672 -0.3109
vn 0.8925 0.3661 -0.2634
vn 0.8749 0.3672 -0.3156
vn 0.4161 0.0251 -0.9090
vn 0.4181 0.0246 -0.9081
vn 0.4156 0.0252 -0.9092
vn 0.4176 0.0891 -0.9043
vn 0.4279 0.0897 -0.8994
vn 0.4166 0.0890 -0.9047
vn 0.4275 0.1743 -0.8871
vn 0.4957 0.1911 -0.8472
vn 0.4230 0.1731 -0.8895
vn -0.9239 0.0001 -0.3827
vn -0.9020 -0.2219 -0.3703
vn 0.4726 -0.3724 -0.7987
vn 0.5384 -0.4146 -0.7336
vn 0.5461 -0.4195 -0.7251
vn 0.7634 -0.6072 -0.2203
vn 0.7714 -0.6089 -0.1847
vn 0.7721 -0.6090 -0.1814
vn 0.7657 -0.6043 0.2203
vn 0.7691 -0.6118 0.1849
vn 0.7693 -0.6123 0.1826
vn 0.4762 -0.3665 0.7993
vn 0.5328 -0.4200 0.7346
vn 0.5347 -0.4218 0.7322
vn -0.4788 0.3561 0.8025
vn -0.5436 0.4171 0.7284
vn -0.5461 0.4195 0.7251
vn -0.7831 0.5799 0.2248
vn -0.7950 0.5802 0.1770
vn -0.7818 0.5798 0.2296
vn -0.7830 0.5799 -0.2250
vn -0.7950 0.5802 -0.1770
vn -0.7965 0.5801 -0.1704
vn -0.4742 0.3638 -0.8018
vn -0.5508 0.4100 -0.7270
vn -0.5613 0.4163 -0.7152
vn -0.4161 0.0241 -0.9090
vn -0.4180 0.0236 -0.9081
vn -0.4186 0.0235 -0.9079
vn -0.4172 0.0873 -0.9046
vn -0.4276 0.0878 -0.8997
vn -0.4285 0.0878 -0.8992
vn -0.4277 0.1637 -0.8890
vn -0.4963 0.1790 -0.8495
vn -0.5016 0.1802 -0.8461
vn -0.9351 0.0523 -0.3505
vn -0.9358 0.0518 -0.3488
vn -0.9359 0.0516 -0.3483
vn -0.9205 0.1885 -0.3424
vn -0.9237 0.1878 -0.3339
vn -0.9241 0.1877 -0.3330
vn -0.8927 0.3198 -0.3175
vn -0.9092 0.3178 -0.2691
vn -0.9108 0.3176 -0.2639
vn -0.9351 0.0523 0.3505
vn -0.9358 0.0518 0.3488
vn -0.9349 0.0524 0.3510
vn -0.9204 0.1885 0.3424
vn -0.9237 0.1878 0.3339
vn -0.9201 0.1886 0.3434
vn -0.8927 0.3199 0.3173
vn -0.9092 0.3179 0.2690
vn -0.8909 0.3200 0.3223
vn -0.4161 0.0235 0.9090
vn -0.4180 0.0242 0.9081
vn -0.4185 0.0244 0.9079
vn -0.4175 0.0858 0.9046
vn -0.4272 0.0893 0.8997
vn -0.4284 0.0898 0.8991
vn -0.4301 0.1555 0.8893
vn -0.4932 0.1886 0.8492
vn -0.5001 0.1923 0.8444
vn 0.4161 -0.0245 0.9090
vn 0.4181 -0.0252 0.9081
vn 0.4186 -0.0254 0.9078
vn 0.4178 -0.0877 0.9043
vn 0.4276 -0.0913 0.8994
vn 0.4287 -0.0918 0.8988
vn 0.4300 -0.1663 0.8874
vn 0.4924 -0.2007 0.8469
vn 0.4992 -0.2045 0.8420
vn 0.9349 -0.0569 0.3503
vn 0.9355 -0.0575 0.3486
vn 0.9357 -0.0577 0.3481
vn 0.9192 -0.1969 0.3411
vn 0.9219 -0.1988 0.3325
vn 0.9222 -0.1991 0.3315
vn 0.8792 -0.3611 0.3109
vn 0.8898 -0.3729 0.2631
vn 0.8909 -0.3742 0.2576
vn 0.9349 -0.0575 -0.3503
vn 0.9355 -0.0569 -0.3486
vn 0.9357 -0.0568 -0.3481
vn 0.9189 -0.1982 -0.3411
vn 0.9221 -0.1975 -0.3327
vn 0.9225 -0.1974 -0.3317
vn 0.8765 -0.3674 -0.3109
vn 0.8924 -0.3664 -0.2634
vn 0.8939 -0.3662 -0.2585
vn 0.4161 -0.0251 -0.9090
vn 0.4181 -0.0246 -0.9081
vn 0.4187 -0.0244 -0.9078
vn 0.4176 -0.0892 -0.9042
vn 0.4279 -0.0898 -0.8994
vn 0.4289 -0.0899 -0.8989
vn 0.4275 -0.1744 -0.8871
vn 0.4956 -0.1913 -0.8472
vn 0.5007 -0.1925 -0.8439
vn 0.3827 -0.0001 -0.9239
vn 0.3839 0.0944 -0.9185
vn 0.3827 -0.0000 -0.9239
vn 0.9239 -0.0001 -0.3827
vn 0.9020 0.2218 -0.3704
vn 0.9239 -0.0001 0.3827
vn 0.9020 0.2218 0.3704
vn 0.9020 0.2218 0.3703
vn 0.3827 -0.0001 0.9239
vn 0.3839 0.0944 0.9185
vn -0.3827 0.0001 0.9239
vn -0.3839 -0.0944 0.9185
vn -0.9239 0.0001 0.3827
vn -0.9020 -0.2219 0.3703
vn -0.3827 0.0001 -0.9239
vn -0.3839 -0.0944 -0.9185
vn -0.3827 0.0000 -0.9239
vn -0.9939 -0.1102 -0.0000
vn -0.3838 0.0945 -0.9186
vn -0.9019 0.2221 0.3703
vn -0.3838 0.0945 0.9185
vn -0.3839 0.0945 0.9185
vn 0.3838 -0.0945 0.9186
vn 0.3839 -0.0945 0.9185
vn 0.9020 -0.2220 0.3704
vn 0.9020 -0.2220 0.3703
vn 0.9020 -0.2220 -0.3703
vn 0.3838 -0.0945 -0.9186
vn -0.9019 0.2221 -0.3703
vn 0.7723 0.6088 -0.1814
vn 0.7695 0.6120 0.1826
vn 0.5349 0.4216 0.7322
vn -0.5462 -0.4194 0.7251
vn -0.4185 -0.0244 0.9079
vn -0.4284 -0.0896 0.8991
vn -0.5001 -0.1921 0.8444
vn 0.4186 0.0254 0.9078
vn 0.4288 0.0916 0.8988
vn 0.4993 0.2043 0.8420
vn 0.9357 0.0577 0.3481
vn 0.9223 0.1988 0.3315
vn 0.8910 0.3739 0.2575
vn 0.9357 0.0568 -0.3481
vn 0.9225 0.1972 -0.3317
vn 0.8940 0.3659 -0.2585
vn 0.7628 -0.6071 -0.2227
vn 0.7653 -0.6037 0.2232
vn 0.4719 -0.3625 0.8037
vn -0.4731 0.3509 0.8081
vn -0.4156 0.0233 0.9093
vn -0.4164 0.0854 0.9052
vn -0.4238 0.1522 0.8929
vn 0.4156 -0.0242 0.9092
vn 0.4167 -0.0873 0.9048
vn 0.4237 -0.1629 0.8910
vn 0.9347 -0.0567 0.3509
vn 0.9188 -0.1966 0.3421
vn 0.8778 -0.3596 0.3164
vn 0.9347 -0.0576 -0.3509
vn 0.9185 -0.1983 -0.3420
vn 0.8748 -0.3675 -0.3156
vn 0.5462 0.4193 -0.7251
vn -0.7967 -0.5798 0.1704
vn -0.7967 -0.5798 -0.1704
vn -0.5615 -0.4162 -0.7152
vn -0.4186 -0.0235 -0.9079
vn -0.4286 -0.0877 -0.8992
vn -0.5017 -0.1800 -0.8461
vn -0.9359 -0.0516 -0.3483
vn -0.9241 -0.1874 -0.3330
vn -0.9109 -0.3173 -0.2639
vn -0.9359 -0.0516 0.3483
vn -0.9242 -0.1874 0.3329
vn -0.9109 -0.3173 0.2638
vn 0.4187 0.0244 -0.9078
vn 0.4289 0.0897 -0.8989
vn 0.5008 0.1924 -0.8439
vn 0.4701 -0.3708 -0.8009
vn -0.7965 0.5801 0.1704
vn -0.7817 0.5798 -0.2297
vn -0.4709 0.3617 -0.8046
vn -0.4156 0.0242 -0.9092
vn -0.4163 0.0872 -0.9051
vn -0.4230 0.1626 -0.8914
vn -0.9349 0.0524 -0.3510
vn -0.9201 0.1886 -0.3433
vn -0.8909 0.3200 -0.3224
vn -0.9359 0.0516 0.3483
vn -0.9241 0.1877 0.3329
vn -0.9108 0.3176 0.2638
vn 0.4156 -0.0252 -0.9092
vn 0.4166 -0.0892 -0.9047
vn 0.4229 -0.1732 -0.8895
vn 0.9020 0.2218 -0.3703
vn 0.3827 -0.0000 0.9239
vn -0.3827 0.0000 0.9239
vn -0.3839 0.0945 -0.9185
vn 0.3839 -0.0945 -0.9185
usemtl Bow_Texture
s 1
f 11/1/1 2/2/2 12/3/3
f 12/3/4 3/4/5 15/5/6
f 15/5/7 4/6/8 18/7/9
f 18/7/10 5/8/11 21/9/12
f 21/9/13 6/10/14 24/11/15
f 6/10/16 27/12/17 24/11/18
f 36/13/19 39/14/19 35/15/19
f 27/16/20 8/17/21 30/18/22
f 30/18/23 1/19/24 11/1/25
f 72/20/26 9/21/27 65/22/28
f 32/23/29 10/24/30 9/21/31
f 31/25/32 11/1/33 10/24/34
f 71/26/35 32/23/36 72/20/37
f 29/27/38 31/25/39 32/23/40
f 28/28/41 30/18/42 31/25/43
f 26/29/44 71/30/45 70/31/46
f 25/32/47 29/33/48 26/29/49
f 24/11/50 28/34/51 25/32/52
f 69/35/53 26/29/54 70/31/55
f 23/36/56 25/32/57 26/29/58
f 22/37/59 24/11/60 25/32/61
f 68/38/62 23/36/63 69/35/64
f 20/39/65 22/37/66 23/36/67
f 19/40/68 21/9/69 22/37/70
f 67/41/71 20/39/72 68/38/73
f 17/42/74 19/40/75 20/39/76
f 16/43/77 18/7/78 19/40/79
f 66/44/80 17/42/81 67/41/82
f 14/45/83 16/43/84 17/42/85
f 13/46/86 15/5/87 16/43/88
f 65/22/89 14/45/90 66/44/91
f 9/21/92 13/46/93 14/45/94
f 10/24/95 12/3/96 13/46/97
f 96/47/98 86/48/99 95/49/98
f 43/50/100 34/51/101 33/52/102
f 44/53/103 35/15/104 34/51/105
f 47/54/106 36/13/107 35/15/108
f 50/55/109 37/56/110 36/13/111
f 53/57/112 38/58/113 37/56/114
f 59/59/115 38/58/116 56/60/117
f 37/56/19 38/58/19 36/13/19
f 59/61/118 40/62/119 39/63/120
f 62/64/121 33/52/122 40/62/123
f 72/65/124 41/66/125 64/67/126
f 64/67/127 42/68/128 63/69/129
f 63/69/130 43/50/131 62/64/132
f 71/70/133 64/67/134 61/71/135
f 61/71/136 63/69/137 60/72/138
f 60/72/139 62/64/140 59/61/141
f 71/73/142 58/74/143 70/75/144
f 61/76/145 57/77/146 58/74/147
f 60/78/148 56/60/149 57/77/150
f 69/79/151 58/74/152 55/80/153
f 55/80/154 57/77/155 54/81/156
f 54/81/157 56/60/158 53/57/159
f 68/82/160 55/80/161 52/83/162
f 52/83/163 54/81/164 51/84/165
f 51/84/166 53/57/167 50/55/168
f 67/85/169 52/83/170 49/86/171
f 49/86/172 51/84/173 48/87/174
f 48/87/175 50/55/176 47/54/177
f 66/88/178 49/86/179 46/89/180
f 46/89/181 48/87/182 45/90/183
f 45/90/184 47/54/185 44/53/186
f 65/91/187 46/89/188 41/66/189
f 41/66/190 45/90/191 42/68/192
f 42/68/193 44/53/194 43/50/195
f 90/92/196 74/93/197 89/94/198
f 91/95/199 76/96/200 90/92/199
f 91/95/201 80/97/202 78/98/203
f 92/99/204 82/100/205 80/97/205
f 93/101/206 84/102/207 82/100/207
f 94/103/208 86/48/209 84/102/209
f 89/94/210 88/104/211 96/47/212
f 33/52/19 34/51/19 40/62/19
f 35/15/19 40/62/19 34/51/19
f 5/8/213 4/6/213 6/10/213
f 3/4/213 6/10/213 4/6/213
f 3/4/213 8/17/213 7/105/213
f 1/19/213 8/17/213 2/2/213
f 87/106/214 89/94/210 96/47/212
f 85/107/215 94/103/208 83/108/215
f 83/108/216 93/101/206 81/109/217
f 81/109/218 92/99/204 79/110/219
f 79/110/220 91/95/201 77/111/221
f 75/112/222 91/95/199 90/92/199
f 73/113/223 90/92/196 89/94/198
f 85/107/224 96/47/98 95/49/98
f 12/3/4 2/2/225 3/4/5
f 15/5/7 3/4/226 4/6/8
f 18/7/10 4/6/227 5/8/11
f 21/9/13 5/8/228 6/10/14
f 69/35/53 23/36/229 26/29/54
f 23/36/56 22/37/230 25/32/57
f 22/37/59 21/9/231 24/11/60
f 68/38/62 20/39/232 23/36/63
f 20/39/65 19/40/233 22/37/66
f 19/40/68 18/7/234 21/9/69
f 67/41/71 17/42/235 20/39/72
f 17/42/74 16/43/236 19/40/75
f 16/43/77 15/5/237 18/7/78
f 66/44/80 14/45/238 17/42/81
f 14/45/83 13/46/239 16/43/84
f 13/46/86 12/3/240 15/5/87
f 44/53/103 47/54/241 35/15/104
f 47/54/106 50/55/242 36/13/107
f 50/55/109 53/57/243 37/56/110
f 53/57/112 56/60/244 38/58/113
f 69/79/151 70/75/245 58/74/152
f 55/80/154 58/74/246 57/77/155
f 54/81/157 57/77/247 56/60/158
f 68/82/160 69/79/248 55/80/161
f 52/83/163 55/80/249 54/81/164
f 51/84/166 54/81/250 53/57/167
f 67/85/169 68/82/251 52/83/170
f 49/86/172 52/83/252 51/84/173
f 48/87/175 51/84/253 50/55/176
f 66/88/178 67/85/254 49/86/179
f 46/89/181 49/86/255 48/87/182
f 45/90/184 48/87/256 47/54/185
f 11/1/1 1/19/257 2/2/2
f 6/10/16 7/114/258 27/12/17
f 36/13/19 38/58/19 39/14/19
f 27/16/20 7/105/259 8/17/21
f 30/18/23 8/17/260 1/19/24
f 72/20/26 32/23/261 9/21/27
f 32/23/29 31/25/262 10/24/30
f 31/25/32 30/18/263 11/1/33
f 71/26/35 29/27/264 32/23/36
f 29/27/38 28/28/265 31/25/39
f 28/28/41 27/16/266 30/18/42
f 26/29/44 29/33/267 71/30/45
f 25/32/47 28/34/268 29/33/48
f 24/11/50 27/12/269 28/34/51
f 65/22/89 9/21/270 14/45/90
f 9/21/92 10/24/271 13/46/93
f 10/24/95 11/1/272 12/3/96
f 96/47/98 88/104/99 86/48/99
f 43/50/100 44/53/273 34/51/101
f 59/59/115 39/14/274 38/58/116
f 59/61/118 62/64/275 40/62/119
f 62/64/121 43/50/276 33/52/122
f 72/65/124 65/91/277 41/66/125
f 64/67/127 41/66/278 42/68/128
f 63/69/130 42/68/279 43/50/131
f 71/70/133 72/65/280 64/67/134
f 61/71/136 64/67/281 63/69/137
f 60/72/139 63/69/282 62/64/140
f 71/73/142 61/76/283 58/74/143
f 61/76/145 60/78/284 57/77/146
f 60/78/148 59/59/285 56/60/149
f 65/91/187 66/88/286 46/89/188
f 41/66/190 46/89/287 45/90/191
f 42/68/193 45/90/288 44/53/194
f 90/92/196 76/96/197 74/93/197
f 91/95/199 78/98/289 76/96/200
f 91/95/201 92/99/201 80/97/202
f 92/99/204 93/101/290 82/100/205
f 93/101/206 94/103/291 84/102/207
f 94/103/208 95/49/208 86/48/209
f 89/94/210 74/93/211 88/104/211
f 35/15/19 39/63/19 40/62/19
f 3/4/213 7/114/213 6/10/213
f 3/4/213 2/2/213 8/17/213
f 87/106/214 73/113/292 89/94/210
f 85/107/215 95/49/208 94/103/208
f 83/108/216 94/103/291 93/101/206
f 81/109/218 93/101/290 92/99/204
f 79/110/220 92/99/201 91/95/201
f 75/112/222 77/111/222 91/95/199
f 73/113/223 75/112/293 90/92/196
f 85/107/224 87/106/224 96/47/98
