# Blender v2.82 (sub 7) OBJ File: ''
# www.blender.org
mtllib bow_000056.mtl
o Bow_Cylinder
v 0.602651 1.850713 -0.141605
v 0.549451 1.916151 -0.100131
v 0.527415 1.943256 -0.000003
v 0.549451 1.916151 0.100126
v 0.602651 1.850713 0.141600
v 0.655851 1.785275 0.100126
v 0.677888 1.758170 -0.000002
v 0.655852 1.785275 -0.100131
v 2.129826 0.346419 -0.141603
v 1.894362 1.012666 -0.141603
v 1.405401 1.562890 -0.141604
v 1.468765 1.589968 -0.100130
v 1.979597 1.026851 -0.100129
v 2.219570 0.350150 -0.100128
v 1.495672 1.599992 -0.000001
v 2.015139 1.031943 -0.000000
v 2.256848 0.350438 0.000000
v 1.468322 1.590935 0.100127
v 1.979212 1.028392 0.100128
v 2.219570 0.350144 0.100128
v 1.405637 1.562922 0.141602
v 1.894474 1.012744 0.141602
v 2.129826 0.346420 0.141603
v 1.347920 1.525741 0.100127
v 1.813614 0.982996 0.100128
v 2.040791 0.334520 0.100128
v 1.325154 1.508175 -0.000001
v 1.780682 0.968502 -0.000001
v 2.004029 0.328287 -0.000000
v 1.347324 1.526692 -0.100130
v 1.813236 0.984253 -0.100129
v 2.040800 0.334414 -0.100129
v 0.598220 -1.846198 -0.141603
v 0.544827 -1.911479 -0.100129
v 0.522711 -1.938519 -0.000000
v 0.544827 -1.911479 0.100128
v 0.598220 -1.846198 0.141603
v 0.651614 -1.780918 0.100128
v 0.673729 -1.753878 -0.000000
v 0.651614 -1.780918 -0.100128
v 2.129826 -0.346417 -0.141603
v 1.892397 -1.011966 -0.141603
v 1.401815 -1.560744 -0.141603
v 1.465100 -1.588009 -0.100128
v 1.977591 -1.026402 -0.100128
v 2.219564 -0.350186 -0.100128
v 1.491978 -1.598112 0.000000
v 2.013117 -1.031598 0.000000
v 2.256845 -0.350461 0.000000
v 1.464654 -1.588975 0.100128
v 1.977201 -1.027941 0.100128
v 2.219565 -0.350180 0.100128
v 1.402052 -1.560777 0.141603
v 1.892510 -1.012043 0.141603
v 2.129826 -0.346418 0.141603
v 1.344445 -1.523427 0.100128
v 1.811737 -0.982058 0.100128
v 2.040825 -0.334292 0.100128
v 1.321730 -1.505792 0.000000
v 1.778849 -0.967466 0.000000
v 2.004082 -0.327935 0.000000
v 1.343846 -1.524376 -0.100128
v 1.811356 -0.983313 -0.100128
v 2.040834 -0.334183 -0.100128
v 2.155554 0.000000 -0.141603
v 2.246276 0.000000 -0.100128
v 2.283855 0.000000 0.000000
v 2.246276 0.000000 0.100128
v 2.155554 0.000000 0.141603
v 2.064831 0.000000 0.100128
v 2.027253 0.000000 -0.000000
v 2.064832 0.000000 -0.100128
v 0.731602 1.791958 -0.026696
v 0.727343 -1.787825 -0.026694
v 0.747119 1.802704 -0.018878
v 0.742829 -1.798616 -0.018875
v 0.753547 1.807155 -0.000002
v 0.749244 -1.803086 -0.000000
v 0.747119 1.802704 0.018873
v 0.742829 -1.798616 0.018875
v 0.731601 1.791958 0.026691
v 0.727343 -1.787825 0.026693
v 0.716084 1.781213 0.018873
v 0.711857 -1.777034 0.018875
v 0.709656 1.776762 -0.000002
v 0.705442 -1.772564 -0.000000
v 0.716084 1.781213 -0.018878
v 0.711857 -1.777034 -0.018875
v -0.665652 -0.000000 -0.026694
v -0.646778 -0.000000 -0.018876
v -0.638959 -0.000000 -0.000000
v -0.646778 -0.000000 0.018875
v -0.665652 -0.000000 0.026693
v -0.684528 -0.000000 0.018875
v -0.692346 -0.000000 -0.000000
v -0.684528 -0.000000 -0.018876
vt 0.415512 0.435877
vt 0.400099 0.697333
vt 0.403102 0.391658
vt 0.363795 0.918795
vt 0.365342 0.371239
vt 0.329116 0.695481
vt 0.327496 0.392348
vt 0.320164 0.664925
vt 0.314951 0.436624
vt 0.315153 0.701007
vt 0.300410 0.490184
vt 0.268850 0.518222
vt 0.164551 0.690291
vt 0.162885 0.929390
vt 0.124572 0.911161
vt 0.461378 0.516577
vt 0.414213 0.700837
vt 0.429881 0.489274
vt 0.409216 0.665592
vt 0.445757 0.183823
vt 0.420971 0.141474
vt 0.426085 0.118748
vt 0.440749 0.206831
vt 0.419264 0.252824
vt 0.434015 0.316403
vt 0.478969 0.225812
vt 0.475238 0.247511
vt 0.468580 0.349640
vt 0.290702 0.208573
vt 0.252454 0.228467
vt 0.285793 0.185708
vt 0.296979 0.317836
vt 0.256096 0.250048
vt 0.262347 0.351838
vt 0.305723 0.120183
vt 0.310743 0.142781
vt 0.311970 0.254023
vt 0.328331 0.059376
vt 0.331398 0.083632
vt 0.329530 0.190214
vt 0.366080 0.032501
vt 0.366029 0.057475
vt 0.365803 0.164989
vt 0.403723 0.058469
vt 0.400555 0.082803
vt 0.401974 0.189372
vt 0.927082 0.502568
vt 0.597959 0.094171
vt 0.597959 0.502569
vt 0.084417 0.425353
vt 0.093581 0.687590
vt 0.085228 0.655296
vt 0.097874 0.381957
vt 0.136090 0.363958
vt 0.173403 0.387462
vt 0.174224 0.660330
vt 0.184883 0.432511
vt 0.178371 0.696702
vt 0.229007 0.516999
vt 0.198137 0.486964
vt 0.068785 0.477796
vt 0.084817 0.926901
vt 0.036661 0.503074
vt 0.079396 0.690193
vt 0.060205 0.171557
vt 0.085982 0.130816
vt 0.064660 0.194867
vt 0.085033 0.242194
vt 0.068777 0.304788
vt 0.026016 0.211401
vt 0.029227 0.233322
vt 0.033444 0.335800
vt 0.252303 0.228478
vt 0.214556 0.206162
vt 0.220008 0.183625
vt 0.248150 0.249811
vt 0.205677 0.314949
vt 0.239475 0.351135
vt 0.201655 0.116878
vt 0.196100 0.139140
vt 0.192219 0.250224
vt 0.180514 0.054675
vt 0.176870 0.078719
vt 0.176195 0.185342
vt 0.143433 0.025416
vt 0.142888 0.050375
vt 0.140549 0.157826
vt 0.105197 0.048969
vt 0.107783 0.073487
vt 0.103823 0.179889
vt 0.081413 0.107781
vt 0.833047 0.502568
vt 0.880064 0.094170
vt 0.880065 0.502568
vt 0.786029 0.502569
vt 0.833046 0.094170
vt 0.739011 0.094171
vt 0.786029 0.094171
vt 0.739012 0.502569
vt 0.691994 0.094171
vt 0.691994 0.502569
vt 0.644976 0.094171
vt 0.644977 0.502569
vt 0.927081 0.094170
vt 0.403149 0.937053
vt 0.927084 0.910966
vt 0.597959 0.910967
vt 0.644977 0.910967
vt 0.691995 0.910967
vt 0.739013 0.910967
vt 0.786030 0.910967
vt 0.833048 0.910967
vt 0.880066 0.910967
vt 0.325070 0.934563
vn 0.2223 0.6264 -0.7471
vn 0.2315 0.6463 -0.7271
vn 0.2220 0.6258 -0.7478
vn 0.3286 0.9270 -0.1810
vn 0.3290 0.9273 -0.1788
vn 0.3286 0.9269 -0.1811
vn 0.3286 0.9283 0.1741
vn 0.3288 0.9274 0.1784
vn 0.3286 0.9284 0.1737
vn 0.2224 0.6211 0.7515
vn 0.2288 0.6463 0.7280
vn 0.2219 0.6190 0.7534
vn -0.2129 -0.5699 0.7937
vn -0.2317 -0.6455 0.7278
vn -0.2112 -0.5632 0.7989
vn -0.3536 -0.9183 0.1781
vn -0.3423 -0.9106 0.2318
vn -0.3411 -0.9096 0.2371
vn -0.7741 0.6331 -0.0000
vn -0.3411 -0.9096 -0.2374
vn -0.3534 -0.9182 -0.1787
vn -0.3397 -0.9085 -0.2433
vn -0.2077 -0.5784 -0.7889
vn -0.2398 -0.6441 -0.7264
vn -0.2064 -0.5756 -0.7913
vn -0.4161 -0.0307 -0.9088
vn -0.4182 -0.0302 -0.9079
vn -0.4156 -0.0309 -0.9090
vn -0.4028 -0.1423 -0.9042
vn -0.4094 -0.1435 -0.9010
vn -0.4022 -0.1421 -0.9045
vn -0.3487 -0.3092 -0.8847
vn -0.3928 -0.3382 -0.8552
vn -0.3457 -0.3072 -0.8866
vn -0.9344 -0.0669 -0.3500
vn -0.9351 -0.0664 -0.3482
vn -0.9341 -0.0671 -0.3506
vn -0.8863 -0.3103 -0.3438
vn -0.8885 -0.3101 -0.3384
vn -0.8861 -0.3103 -0.3444
vn -0.7179 -0.6156 -0.3250
vn -0.7326 -0.6194 -0.2822
vn -0.7162 -0.6152 -0.3296
vn -0.9351 -0.0664 0.3481
vn -0.9344 -0.0669 0.3500
vn -0.9341 -0.0671 0.3506
vn -0.8886 -0.3101 0.3380
vn -0.8862 -0.3103 0.3439
vn -0.8860 -0.3104 0.3446
vn -0.7330 -0.6197 0.2805
vn -0.7192 -0.6162 0.3209
vn -0.7177 -0.6158 0.3252
vn -0.4162 -0.0301 0.9088
vn -0.4181 -0.0309 0.9079
vn -0.4156 -0.0299 0.9091
vn -0.4031 -0.1413 0.9042
vn -0.4084 -0.1442 0.9013
vn -0.4025 -0.1410 0.9045
vn -0.3506 -0.3018 0.8866
vn -0.3864 -0.3424 0.8564
vn -0.3468 -0.2975 0.8895
vn 0.4161 0.0311 0.9088
vn 0.4177 0.0317 0.9080
vn 0.4156 0.0309 0.9090
vn 0.4104 0.1450 0.9003
vn 0.4127 0.1462 0.8991
vn 0.4101 0.1449 0.9005
vn 0.3693 0.3289 0.8692
vn 0.3947 0.3578 0.8463
vn 0.3665 0.3256 0.8716
vn 0.9340 0.0714 0.3500
vn 0.9345 0.0719 0.3486
vn 0.9339 0.0712 0.3505
vn 0.8892 0.3151 0.3318
vn 0.8895 0.3155 0.3305
vn 0.8891 0.3151 0.3319
vn 0.7114 0.6465 0.2757
vn 0.7135 0.6521 0.2562
vn 0.7111 0.6458 0.2780
vn 0.9340 0.0718 -0.3500
vn 0.9345 0.0714 -0.3486
vn 0.9338 0.0720 -0.3505
vn 0.8891 0.3153 -0.3319
vn 0.8891 0.3153 -0.3317
vn 0.7082 0.6472 -0.2820
vn 0.7151 0.6491 -0.2595
vn 0.7076 0.6470 -0.2841
vn 0.4160 0.0316 -0.9088
vn 0.4178 0.0312 -0.9080
vn 0.4156 0.0317 -0.9090
vn 0.4103 0.1455 -0.9003
vn 0.4129 0.1460 -0.8990
vn 0.4101 0.1454 -0.9004
vn 0.3689 0.3343 -0.8673
vn 0.3985 0.3545 -0.8459
vn 0.3672 0.3331 -0.8685
vn -0.9243 0.0002 -0.3817
vn -0.7805 -0.6133 -0.1209
vn -0.9239 0.0001 -0.3827
vn 0.2205 -0.6271 -0.7471
vn 0.2296 -0.6470 -0.7271
vn 0.2306 -0.6491 -0.7249
vn 0.3259 -0.9279 -0.1810
vn 0.3262 -0.9282 -0.1788
vn 0.3263 -0.9282 -0.1786
vn 0.3259 -0.9293 0.1741
vn 0.3260 -0.9284 0.1784
vn 0.3260 -0.9283 0.1787
vn 0.2206 -0.6218 0.7515
vn 0.2269 -0.6470 0.7280
vn 0.2271 -0.6478 0.7272
vn -0.2112 0.5705 0.7937
vn -0.2298 0.6462 0.7278
vn -0.2305 0.6491 0.7250
vn -0.3396 0.9116 0.2318
vn -0.3508 0.9193 0.1781
vn -0.3384 0.9106 0.2371
vn -0.3463 0.9075 -0.2376
vn -0.3426 0.9222 -0.1793
vn -0.3467 0.9055 -0.2446
vn -0.2060 0.5790 -0.7889
vn -0.2379 0.6448 -0.7264
vn -0.2422 0.6537 -0.7170
vn -0.4161 0.0307 -0.9088
vn -0.4182 0.0302 -0.9078
vn -0.4188 0.0301 -0.9076
vn -0.4024 0.1435 -0.9041
vn -0.4090 0.1447 -0.9010
vn -0.4097 0.1448 -0.9006
vn -0.3478 0.3102 -0.8847
vn -0.3918 0.3393 -0.8552
vn -0.3955 0.3418 -0.8525
vn -0.9344 0.0669 -0.3500
vn -0.9351 0.0663 -0.3481
vn -0.9354 0.0661 -0.3474
vn -0.8854 0.3129 -0.3438
vn -0.8875 0.3127 -0.3384
vn -0.8878 0.3127 -0.3377
vn -0.7161 0.6178 -0.3250
vn -0.7308 0.6216 -0.2822
vn -0.7324 0.6219 -0.2772
vn -0.9344 0.0669 0.3500
vn -0.9351 0.0663 0.3481
vn -0.9341 0.0671 0.3506
vn -0.8853 0.3130 0.3439
vn -0.8877 0.3128 0.3380
vn -0.8850 0.3130 0.3446
vn -0.7174 0.6183 0.3209
vn -0.7312 0.6218 0.2805
vn -0.7159 0.6179 0.3252
vn -0.4162 0.0301 0.9088
vn -0.4182 0.0309 0.9078
vn -0.4187 0.0311 0.9076
vn -0.4027 0.1425 0.9041
vn -0.4080 0.1454 0.9013
vn -0.4086 0.1457 0.9010
vn -0.3497 0.3028 0.8866
vn -0.3854 0.3436 0.8564
vn -0.3889 0.3476 0.8532
vn 0.4161 -0.0311 0.9088
vn 0.4177 -0.0317 0.9080
vn 0.4182 -0.0319 0.9078
vn 0.4102 -0.1463 0.9002
vn 0.4123 -0.1474 0.8990
vn 0.4125 -0.1475 0.8989
vn 0.3684 -0.3300 0.8692
vn 0.3936 -0.3590 0.8463
vn 0.3961 -0.3619 0.8439
vn 0.9340 -0.0714 0.3500
vn 0.9345 -0.0719 0.3486
vn 0.9347 -0.0720 0.3482
vn 0.8884 -0.3177 0.3315
vn 0.8886 -0.3180 0.3305
vn 0.8887 -0.3180 0.3304
vn 0.7095 -0.6486 0.2757
vn 0.7116 -0.6542 0.2562
vn 0.7118 -0.6548 0.2540
vn 0.9340 -0.0718 -0.3500
vn 0.9345 -0.0714 -0.3486
vn 0.9347 -0.0713 -0.3482
vn 0.8883 -0.3178 -0.3316
vn 0.8882 -0.3178 -0.3316
vn 0.8882 -0.3178 -0.3317
vn 0.7063 -0.6493 -0.2820
vn 0.7131 -0.6512 -0.2595
vn 0.7138 -0.6514 -0.2573
vn 0.4160 -0.0316 -0.9088
vn 0.4178 -0.0312 -0.9080
vn 0.4183 -0.0311 -0.9078
vn 0.4101 -0.1467 -0.9002
vn 0.4124 -0.1472 -0.8990
vn 0.4127 -0.1472 -0.8989
vn 0.3679 -0.3354 -0.8673
vn 0.3974 -0.3557 -0.8459
vn 0.3995 -0.3571 -0.8443
vn 0.3834 -0.0001 -0.9236
vn 0.6405 0.4949 -0.5872
vn 0.3827 -0.0001 -0.9239
vn 0.9243 -0.0002 -0.3817
vn 0.7862 0.6053 -0.1247
vn 0.9239 -0.0002 -0.3827
vn 0.9243 -0.0002 0.3817
vn 0.7862 0.6053 0.1247
vn 0.7863 0.6053 0.1239
vn 0.3834 -0.0001 0.9236
vn 0.6405 0.4949 0.5872
vn 0.6411 0.4953 0.5862
vn -0.3834 0.0001 0.9236
vn -0.6414 -0.4997 0.5822
vn -0.6419 -0.5002 0.5812
vn -0.9243 0.0002 0.3817
vn -0.7805 -0.6133 0.1209
vn -0.7806 -0.6134 0.1200
vn -0.3834 0.0001 -0.9236
vn -0.6414 -0.4997 -0.5822
vn -0.3827 0.0000 -0.9239
vn -0.7759 -0.6308 -0.0000
vn -0.6394 0.4985 -0.5854
vn -0.7802 0.6135 0.1219
vn -0.7803 0.6136 0.1210
vn -0.6394 0.4986 0.5854
vn -0.6400 0.4990 0.5843
vn 0.6385 -0.4937 0.5903
vn 0.6391 -0.4942 0.5893
vn 0.7858 -0.6055 0.1257
vn 0.7859 -0.6056 0.1248
vn 0.7858 -0.6055 -0.1257
vn 0.6386 -0.4938 -0.5903
vn -0.7802 0.6135 -0.1219
vn 0.3290 0.9273 -0.1786
vn 0.3288 0.9274 0.1787
vn 0.2290 0.6471 0.7272
vn -0.2324 -0.6484 0.7250
vn -0.4186 -0.0311 0.9076
vn -0.4090 -0.1445 0.9010
vn -0.3899 -0.3464 0.8532
vn 0.4182 0.0319 0.9078
vn 0.4129 0.1463 0.8989
vn 0.3972 0.3607 0.8439
vn 0.9347 0.0720 0.3482
vn 0.8896 0.3155 0.3304
vn 0.7138 0.6527 0.2540
vn 0.9347 0.0713 -0.3482
vn 0.8892 0.3153 -0.3316
vn 0.7157 0.6493 -0.2573
vn 0.3259 -0.9279 -0.1811
vn 0.3258 -0.9293 0.1737
vn 0.2200 -0.6197 0.7534
vn -0.2096 0.5638 0.7989
vn -0.4156 0.0298 0.9091
vn -0.4021 0.1422 0.9045
vn -0.3459 0.2986 0.8895
vn 0.4156 -0.0309 0.9090
vn 0.4100 -0.1462 0.9003
vn 0.3655 -0.3267 0.8716
vn 0.9339 -0.0712 0.3505
vn 0.8883 -0.3177 0.3316
vn 0.7092 -0.6479 0.2780
vn 0.9338 -0.0720 -0.3505
vn 0.7056 -0.6491 -0.2841
vn 0.2325 0.6484 -0.7249
vn -0.3550 -0.9192 0.1707
vn -0.3550 -0.9191 -0.1707
vn -0.2442 -0.6529 -0.7170
vn -0.4188 -0.0301 -0.9076
vn -0.4101 -0.1436 -0.9006
vn -0.3965 -0.3406 -0.8525
vn -0.9353 -0.0662 -0.3475
vn -0.8887 -0.3100 -0.3377
vn -0.7342 -0.6197 -0.2772
vn -0.9353 -0.0662 0.3475
vn -0.8889 -0.3101 0.3372
vn -0.7345 -0.6200 0.2758
vn 0.4182 0.0311 -0.9078
vn 0.4131 0.1460 -0.8989
vn 0.4005 0.3559 -0.8443
vn -0.7806 -0.6134 -0.1200
vn 0.2202 -0.6264 -0.7478
vn -0.3523 0.9202 0.1707
vn -0.3422 0.9234 -0.1738
vn -0.2047 0.5762 -0.7913
vn -0.4156 0.0309 -0.9090
vn -0.4018 0.1433 -0.9044
vn -0.3448 0.3082 -0.8866
vn -0.9341 0.0671 -0.3506
vn -0.8851 0.3129 -0.3444
vn -0.7144 0.6173 -0.3296
vn -0.9354 0.0661 0.3474
vn -0.8880 0.3127 0.3372
vn -0.7327 0.6222 0.2758
vn 0.4156 -0.0317 -0.9090
vn 0.4099 -0.1467 -0.9003
vn 0.3662 -0.3342 -0.8685
vn 0.6411 0.4953 -0.5862
vn 0.7863 0.6053 -0.1239
vn 0.9239 -0.0002 0.3827
vn 0.3827 -0.0001 0.9239
vn -0.3827 0.0000 0.9239
vn -0.9239 0.0001 0.3827
vn -0.6419 -0.5002 -0.5812
vn -0.6399 0.4990 -0.5844
vn 0.7859 -0.6056 -0.1248
vn 0.6391 -0.4942 -0.5893
vn -0.7803 0.6136 -0.1210
usemtl Bow_Texture
s 1
f 11/1/1 2/2/2 12/3/3
f 12/3/4 3/4/5 15/5/6
f 15/5/7 4/6/8 18/7/9
f 18/7/10 5/8/11 21/9/12
f 21/9/13 6/10/14 24/11/15
f 6/10/16 27/12/17 24/11/18
f 36/13/19 39/14/19 35/15/19
f 27/16/20 8/17/21 30/18/22
f 30/18/23 1/19/24 11/1/25
f 72/20/26 9/21/27 65/22/28
f 32/23/29 10/24/30 9/21/31
f 31/25/32 11/1/33 10/24/34
f 71/26/35 32/23/36 72/20/37
f 29/27/38 31/25/39 32/23/40
f 28/28/41 30/18/42 31/25/43
f 26/29/44 71/30/45 70/31/46
f 25/32/47 29/33/48 26/29/49
f 24/11/50 28/34/51 25/32/52
f 69/35/53 26/29/54 70/31/55
f 23/36/56 25/32/57 26/29/58
f 22/37/59 24/11/60 25/32/61
f 68/38/62 23/36/63 69/35/64
f 20/39/65 22/37/66 23/36/67
f 19/40/68 21/9/69 22/37/70
f 67/41/71 20/39/72 68/38/73
f 17/42/74 19/40/75 20/39/76
f 16/43/77 18/7/78 19/40/79
f 66/44/80 17/42/81 67/41/82
f 14/45/83 16/43/84 17/42/83
f 13/46/85 15/5/86 16/43/87
f 65/22/88 14/45/89 66/44/90
f 9/21/91 13/46/92 14/45/93
f 10/24/94 12/3/95 13/46/96
f 96/47/97 86/48/98 95/49/99
f 43/50/100 34/51/101 33/52/102
f 44/53/103 35/15/104 34/51/105
f 47/54/106 36/13/107 35/15/108
f 50/55/109 37/56/110 36/13/111
f 53/57/112 38/58/113 37/56/114
f 59/59/115 38/58/116 56/60/117
f 37/56/19 38/58/19 36/13/19
f 62/61/118 39/62/119 59/63/120
f 62/61/121 33/52/122 40/64/123
f 72/65/124 41/66/125 64/67/126
f 64/67/127 42/68/128 63/69/129
f 63/69/130 43/50/131 62/61/132
f 71/70/133 64/67/134 61/71/135
f 61/71/136 63/69/137 60/72/138
f 60/72/139 62/61/140 59/63/141
f 71/73/142 58/74/143 70/75/144
f 61/76/145 57/77/146 58/74/147
f 60/78/148 56/60/149 57/77/150
f 69/79/151 58/74/152 55/80/153
f 55/80/154 57/77/155 54/81/156
f 54/81/157 56/60/158 53/57/159
f 68/82/160 55/80/161 52/83/162
f 52/83/163 54/81/164 51/84/165
f 51/84/166 53/57/167 50/55/168
f 67/85/169 52/83/170 49/86/171
f 49/86/172 51/84/173 48/87/174
f 48/87/175 50/55/176 47/54/177
f 66/88/178 49/86/179 46/89/180
f 46/89/181 48/87/182 45/90/183
f 45/90/184 47/54/185 44/53/186
f 65/91/187 46/89/188 41/66/189
f 41/66/190 45/90/191 42/68/192
f 42/68/193 44/53/194 43/50/195
f 90/92/196 74/93/197 89/94/198
f 91/95/199 76/96/200 90/92/201
f 91/95/202 80/97/203 78/98/204
f 92/99/205 82/100/206 80/97/207
f 93/101/208 84/102/209 82/100/210
f 94/103/211 86/48/212 84/102/213
f 89/94/214 88/104/215 96/47/216
f 33/52/19 34/51/19 40/64/19
f 39/62/19 34/51/19 35/15/19
f 5/8/217 4/6/217 6/10/217
f 3/4/217 6/10/217 4/6/217
f 2/2/217 7/105/217 3/4/217
f 1/19/217 8/17/217 2/2/217
f 87/106/218 89/94/214 96/47/216
f 85/107/219 94/103/211 83/108/220
f 83/108/221 93/101/208 81/109/222
f 81/109/223 92/99/205 79/110/224
f 79/110/225 91/95/202 77/111/226
f 75/112/227 91/95/199 90/92/201
f 73/113/228 90/92/196 89/94/198
f 85/107/229 96/47/97 95/49/99
f 12/3/4 2/2/230 3/4/5
f 15/5/7 3/4/231 4/6/8
f 18/7/10 4/6/232 5/8/11
f 21/9/13 5/8/233 6/10/14
f 69/35/53 23/36/234 26/29/54
f 23/36/56 22/37/235 25/32/57
f 22/37/59 21/9/236 24/11/60
f 68/38/62 20/39/237 23/36/63
f 20/39/65 19/40/238 22/37/66
f 19/40/68 18/7/239 21/9/69
f 67/41/71 17/42/240 20/39/72
f 17/42/74 16/43/241 19/40/75
f 16/43/77 15/5/242 18/7/78
f 66/44/80 14/45/243 17/42/81
f 14/45/83 13/46/244 16/43/84
f 13/46/85 12/3/245 15/5/86
f 44/53/103 47/54/246 35/15/104
f 47/54/106 50/55/247 36/13/107
f 50/55/109 53/57/248 37/56/110
f 53/57/112 56/60/249 38/58/113
f 69/79/151 70/75/250 58/74/152
f 55/80/154 58/74/251 57/77/155
f 54/81/157 57/77/252 56/60/158
f 68/82/160 69/79/253 55/80/161
f 52/83/163 55/80/254 54/81/164
f 51/84/166 54/81/255 53/57/167
f 67/85/169 68/82/256 52/83/170
f 49/86/172 52/83/257 51/84/173
f 48/87/175 51/84/258 50/55/176
f 66/88/178 67/85/259 49/86/179
f 46/89/181 49/86/181 48/87/182
f 45/90/184 48/87/260 47/54/185
f 11/1/1 1/19/261 2/2/2
f 6/10/16 7/114/262 27/12/17
f 36/13/19 38/58/19 39/14/19
f 27/16/20 7/105/263 8/17/21
f 30/18/23 8/17/264 1/19/24
f 72/20/26 32/23/265 9/21/27
f 32/23/29 31/25/266 10/24/30
f 31/25/32 30/18/267 11/1/33
f 71/26/35 29/27/268 32/23/36
f 29/27/38 28/28/269 31/25/39
f 28/28/41 27/16/270 30/18/42
f 26/29/44 29/33/271 71/30/45
f 25/32/47 28/34/272 29/33/48
f 24/11/50 27/12/273 28/34/51
f 65/22/88 9/21/274 14/45/89
f 9/21/91 10/24/275 13/46/92
f 10/24/94 11/1/276 12/3/95
f 96/47/97 88/104/277 86/48/98
f 43/50/100 44/53/278 34/51/101
f 59/59/115 39/14/279 38/58/116
f 62/61/118 40/64/280 39/62/119
f 62/61/121 43/50/281 33/52/122
f 72/65/124 65/91/282 41/66/125
f 64/67/127 41/66/283 42/68/128
f 63/69/130 42/68/284 43/50/131
f 71/70/133 72/65/285 64/67/134
f 61/71/136 64/67/286 63/69/137
f 60/72/139 63/69/287 62/61/140
f 71/73/142 61/76/288 58/74/143
f 61/76/145 60/78/289 57/77/146
f 60/78/148 59/59/290 56/60/149
f 65/91/187 66/88/291 46/89/188
f 41/66/190 46/89/292 45/90/191
f 42/68/193 45/90/293 44/53/194
f 90/92/196 76/96/294 74/93/197
f 91/95/199 78/98/295 76/96/200
f 91/95/202 92/99/296 80/97/203
f 92/99/205 93/101/297 82/100/206
f 93/101/208 94/103/298 84/102/209
f 94/103/211 95/49/299 86/48/212
f 89/94/214 74/93/300 88/104/215
f 39/62/19 40/64/19 34/51/19
f 3/4/217 7/114/217 6/10/217
f 2/2/217 8/17/217 7/105/217
f 87/106/218 73/113/301 89/94/214
f 85/107/219 95/49/299 94/103/211
f 83/108/221 94/103/298 93/101/208
f 81/109/223 93/101/297 92/99/205
f 79/110/225 92/99/296 91/95/202
f 75/112/227 77/111/302 91/95/199
f 73/113/228 75/112/303 90/92/196
f 85/107/229 87/106/304 96/47/97
