# Blender v2.82 (sub 7) OBJ File: ''
# www.blender.org
mtllib bow_000049.mtl
o Bow_Cylinder
v 0.610506 1.861233 -0.141605
v 0.557886 1.927137 -0.100131
v 0.536090 1.954436 -0.000003
v 0.557886 1.927137 0.100126
v 0.610506 1.861233 0.141600
v 0.663127 1.795328 0.100126
v 0.684923 1.768029 -0.000002
v 0.663127 1.795328 -0.100131
v 2.130236 0.346450 -0.141603
v 1.896476 1.013297 -0.141603
v 1.410694 1.566334 -0.141604
v 1.474226 1.593033 -0.100130
v 1.981755 1.027248 -0.100129
v 2.219987 0.350057 -0.100128
v 1.501185 1.602912 -0.000001
v 2.017308 1.032252 -0.000000
v 2.257265 0.350307 0.000000
v 1.473796 1.593990 0.100127
v 1.981381 1.028769 0.100128
v 2.219987 0.350051 0.100128
v 1.410927 1.566364 0.141602
v 1.896587 1.013373 0.141602
v 2.130236 0.346451 0.141603
v 1.352892 1.529663 0.100127
v 1.815559 0.984053 0.100128
v 2.041172 0.334762 0.100128
v 1.329963 1.512316 -0.000001
v 1.782542 0.969762 -0.000001
v 2.004394 0.328630 -0.000000
v 1.352312 1.530605 -0.100130
v 1.815192 0.985294 -0.100129
v 2.041180 0.334657 -0.100129
v 0.611384 -1.862113 -0.141603
v 0.558802 -1.928049 -0.100129
v 0.537022 -1.955360 -0.000000
v 0.558802 -1.928049 0.100128
v 0.611384 -1.862113 0.141603
v 0.663967 -1.796178 0.100128
v 0.685747 -1.768867 -0.000000
v 0.663967 -1.796178 -0.100129
v 2.130237 -0.346450 -0.141603
v 1.896863 -1.013433 -0.141603
v 1.411402 -1.566751 -0.141603
v 1.474949 -1.593413 -0.100128
v 1.982150 -1.027335 -0.100128
v 2.219988 -0.350050 -0.100128
v 1.501914 -1.603276 0.000000
v 2.017706 -1.032318 0.000000
v 2.257266 -0.350303 0.000000
v 1.474520 -1.594370 0.100128
v 1.981777 -1.028856 0.100128
v 2.219989 -0.350044 0.100128
v 1.411635 -1.566781 0.141603
v 1.896975 -1.013509 0.141603
v 2.130237 -0.346451 0.141603
v 1.353579 -1.530113 0.100128
v 1.815930 -0.984236 0.100128
v 2.041165 -0.334807 0.100128
v 1.330639 -1.512779 -0.000000
v 1.782904 -0.969965 0.000000
v 2.004384 -0.328699 0.000000
v 1.352998 -1.531055 -0.100128
v 1.815563 -0.985477 -0.100128
v 2.041174 -0.334702 -0.100128
v 2.155554 0.000000 -0.141603
v 2.246279 0.000000 -0.100128
v 2.283858 0.000000 0.000000
v 2.246279 0.000000 0.100128
v 2.155554 0.000000 0.141603
v 2.064829 0.000000 0.100128
v 2.027250 0.000000 -0.000000
v 2.064829 0.000000 -0.100128
v 0.738933 1.801342 -0.026696
v 0.739776 -1.802148 -0.026694
v 0.754545 1.811950 -0.018878
v 0.755394 -1.812747 -0.018875
v 0.761012 1.816344 -0.000002
v 0.761864 -1.817137 -0.000000
v 0.754545 1.811950 0.018873
v 0.755394 -1.812747 0.018875
v 0.738933 1.801342 0.026691
v 0.739776 -1.802148 0.026693
v 0.723321 1.790734 0.018873
v 0.724158 -1.791549 0.018875
v 0.716854 1.786340 -0.000002
v 0.717689 -1.787159 -0.000000
v 0.723321 1.790734 -0.018878
v 0.724158 -1.791550 -0.018875
v -0.653125 -0.000000 -0.026694
v -0.634250 -0.000000 -0.018876
v -0.626432 -0.000000 -0.000000
v -0.634250 -0.000000 0.018875
v -0.653125 -0.000000 0.026693
v -0.672000 -0.000000 0.018875
v -0.679818 -0.000000 -0.000000
v -0.672000 -0.000000 -0.018876
vt 0.415512 0.435877
vt 0.400099 0.697333
vt 0.403102 0.391658
vt 0.363795 0.918795
vt 0.365342 0.371239
vt 0.329116 0.695481
vt 0.327496 0.392348
vt 0.320164 0.664925
vt 0.314951 0.436624
vt 0.315153 0.701007
vt 0.300410 0.490184
vt 0.268850 0.518222
vt 0.164551 0.690291
vt 0.162885 0.929390
vt 0.124572 0.911161
vt 0.461378 0.516577
vt 0.414213 0.700837
vt 0.429881 0.489274
vt 0.409216 0.665592
vt 0.445757 0.183823
vt 0.420971 0.141474
vt 0.426085 0.118748
vt 0.440749 0.206831
vt 0.419264 0.252824
vt 0.434015 0.316403
vt 0.478969 0.225812
vt 0.475238 0.247511
vt 0.468580 0.349640
vt 0.290702 0.208573
vt 0.252454 0.228467
vt 0.285793 0.185708
vt 0.296979 0.317836
vt 0.256096 0.250048
vt 0.262347 0.351838
vt 0.305723 0.120183
vt 0.310743 0.142781
vt 0.311970 0.254023
vt 0.328331 0.059376
vt 0.331398 0.083632
vt 0.329530 0.190214
vt 0.366080 0.032501
vt 0.366029 0.057475
vt 0.365803 0.164989
vt 0.403723 0.058469
vt 0.400555 0.082803
vt 0.401974 0.189372
vt 0.927082 0.502568
vt 0.597959 0.094171
vt 0.597959 0.502569
vt 0.084417 0.425353
vt 0.093581 0.687590
vt 0.085228 0.655296
vt 0.097874 0.381957
vt 0.136090 0.363958
vt 0.173403 0.387462
vt 0.174224 0.660330
vt 0.184883 0.432511
vt 0.178371 0.696702
vt 0.229007 0.516999
vt 0.198137 0.486964
vt 0.036661 0.503074
vt 0.079396 0.690193
vt 0.084817 0.926901
vt 0.068785 0.477796
vt 0.060205 0.171557
vt 0.085982 0.130816
vt 0.064660 0.194867
vt 0.085033 0.242194
vt 0.068777 0.304788
vt 0.026016 0.211401
vt 0.029227 0.233322
vt 0.033444 0.335800
vt 0.252303 0.228478
vt 0.214556 0.206162
vt 0.220008 0.183625
vt 0.248150 0.249811
vt 0.205677 0.314949
vt 0.239475 0.351135
vt 0.201655 0.116878
vt 0.196100 0.139140
vt 0.192219 0.250224
vt 0.180514 0.054675
vt 0.176870 0.078719
vt 0.176195 0.185342
vt 0.143433 0.025416
vt 0.142888 0.050375
vt 0.140549 0.157826
vt 0.105197 0.048969
vt 0.107783 0.073487
vt 0.103823 0.179889
vt 0.081413 0.107781
vt 0.833047 0.502568
vt 0.880064 0.094170
vt 0.880065 0.502568
vt 0.786029 0.502569
vt 0.833046 0.094170
vt 0.739011 0.094171
vt 0.786029 0.094171
vt 0.739012 0.502569
vt 0.691994 0.094171
vt 0.691994 0.502569
vt 0.644976 0.094171
vt 0.644977 0.502569
vt 0.927081 0.094170
vt 0.403149 0.937053
vt 0.927084 0.910966
vt 0.597959 0.910967
vt 0.644977 0.910967
vt 0.691995 0.910967
vt 0.739013 0.910967
vt 0.786030 0.910967
vt 0.833048 0.910967
vt 0.880066 0.910967
vt 0.325070 0.934563
vn 0.2274 0.6235 -0.7481
vn 0.2371 0.6441 -0.7272
vn 0.2271 0.6228 -0.7487
vn 0.3366 0.9240 -0.1816
vn 0.3370 0.9244 -0.1789
vn 0.3365 0.9240 -0.1818
vn 0.3366 0.9253 0.1748
vn 0.3367 0.9245 0.1785
vn 0.3366 0.9253 0.1745
vn 0.2275 0.6182 0.7524
vn 0.2344 0.6442 0.7281
vn 0.2269 0.6160 0.7543
vn -0.2179 -0.5678 0.7938
vn -0.2374 -0.6434 0.7278
vn -0.2161 -0.5611 0.7990
vn -0.3617 -0.9151 0.1780
vn -0.3504 -0.9075 0.2317
vn -0.3492 -0.9066 0.2370
vn -0.7818 0.6235 -0.0000
vn -0.3491 -0.9066 -0.2372
vn -0.3615 -0.9151 -0.1787
vn -0.3478 -0.9055 -0.2430
vn -0.2127 -0.5763 -0.7891
vn -0.2455 -0.6419 -0.7264
vn -0.2113 -0.5735 -0.7915
vn -0.4161 -0.0302 -0.9088
vn -0.4182 -0.0297 -0.9079
vn -0.4156 -0.0304 -0.9091
vn -0.4032 -0.1412 -0.9042
vn -0.4097 -0.1424 -0.9010
vn -0.4025 -0.1411 -0.9045
vn -0.3504 -0.3071 -0.8848
vn -0.3948 -0.3359 -0.8551
vn -0.3473 -0.3051 -0.8867
vn -0.9344 -0.0658 -0.3500
vn -0.9352 -0.0652 -0.3482
vn -0.9342 -0.0660 -0.3506
vn -0.8871 -0.3080 -0.3437
vn -0.8892 -0.3078 -0.3384
vn -0.8869 -0.3080 -0.3444
vn -0.7215 -0.6115 -0.3249
vn -0.7362 -0.6151 -0.2821
vn -0.7198 -0.6110 -0.3295
vn -0.9352 -0.0652 0.3482
vn -0.9344 -0.0658 0.3500
vn -0.9342 -0.0660 0.3506
vn -0.8894 -0.3079 0.3380
vn -0.8870 -0.3081 0.3439
vn -0.8868 -0.3081 0.3446
vn -0.7366 -0.6154 0.2804
vn -0.7228 -0.6120 0.3208
vn -0.7213 -0.6116 0.3251
vn -0.4162 -0.0296 0.9088
vn -0.4181 -0.0304 0.9079
vn -0.4156 -0.0294 0.9091
vn -0.4035 -0.1403 0.9042
vn -0.4088 -0.1431 0.9014
vn -0.4028 -0.1400 0.9045
vn -0.3522 -0.2997 0.8866
vn -0.3884 -0.3403 0.8564
vn -0.3484 -0.2955 0.8896
vn 0.4161 0.0306 0.9088
vn 0.4178 0.0312 0.9080
vn 0.4156 0.0304 0.9091
vn 0.4107 0.1439 0.9004
vn 0.4130 0.1452 0.8991
vn 0.4104 0.1438 0.9005
vn 0.3708 0.3263 0.8695
vn 0.3966 0.3556 0.8463
vn 0.3678 0.3231 0.8720
vn 0.9341 0.0703 0.3501
vn 0.9346 0.0708 0.3486
vn 0.9339 0.0701 0.3505
vn 0.8899 0.3129 0.3319
vn 0.8903 0.3132 0.3305
vn 0.8899 0.3128 0.3321
vn 0.7148 0.6424 0.2763
vn 0.7171 0.6481 0.2563
vn 0.7145 0.6417 0.2787
vn 0.9340 0.0708 -0.3501
vn 0.9346 0.0703 -0.3486
vn 0.9339 0.0709 -0.3505
vn 0.8898 0.3131 -0.3320
vn 0.8899 0.3131 -0.3317
vn 0.7117 0.6432 -0.2825
vn 0.7187 0.6451 -0.2596
vn 0.7110 0.6430 -0.2846
vn 0.4160 0.0311 -0.9088
vn 0.4178 0.0307 -0.9080
vn 0.4156 0.0312 -0.9090
vn 0.4105 0.1444 -0.9003
vn 0.4132 0.1449 -0.8990
vn 0.4103 0.1443 -0.9005
vn 0.3703 0.3318 -0.8676
vn 0.4005 0.3522 -0.8459
vn 0.3685 0.3306 -0.8689
vn -0.9243 -0.0000 -0.3817
vn -0.7824 -0.6097 -0.1272
vn -0.9239 -0.0000 -0.3827
vn 0.2278 -0.6233 -0.7481
vn 0.2375 -0.6440 -0.7272
vn 0.2386 -0.6462 -0.7249
vn 0.3371 -0.9238 -0.1816
vn 0.3375 -0.9242 -0.1789
vn 0.3376 -0.9242 -0.1787
vn 0.3371 -0.9251 0.1748
vn 0.3373 -0.9243 0.1785
vn 0.3373 -0.9243 0.1788
vn 0.2279 -0.6181 0.7524
vn 0.2348 -0.6441 0.7281
vn 0.2350 -0.6449 0.7273
vn -0.2182 0.5677 0.7938
vn -0.2377 0.6433 0.7278
vn -0.2385 0.6462 0.7250
vn -0.3509 0.9073 0.2317
vn -0.3622 0.9149 0.1780
vn -0.3497 0.9064 0.2370
vn -0.3497 0.9064 -0.2372
vn -0.3621 0.9149 -0.1787
vn -0.3637 0.9158 -0.1707
vn -0.2131 0.5761 -0.7891
vn -0.2459 0.6418 -0.7264
vn -0.2503 0.6506 -0.7169
vn -0.4161 0.0302 -0.9088
vn -0.4182 0.0297 -0.9079
vn -0.4188 0.0296 -0.9076
vn -0.4032 0.1410 -0.9042
vn -0.4098 0.1422 -0.9010
vn -0.4105 0.1423 -0.9007
vn -0.3506 0.3069 -0.8848
vn -0.3950 0.3357 -0.8551
vn -0.3987 0.3381 -0.8525
vn -0.9344 0.0658 -0.3500
vn -0.9351 0.0653 -0.3482
vn -0.9354 0.0651 -0.3476
vn -0.8873 0.3075 -0.3437
vn -0.8894 0.3073 -0.3384
vn -0.8897 0.3073 -0.3378
vn -0.7218 0.6111 -0.3249
vn -0.7366 0.6147 -0.2821
vn -0.7382 0.6150 -0.2771
vn -0.9344 0.0658 0.3500
vn -0.9351 0.0653 0.3482
vn -0.9342 0.0660 0.3506
vn -0.8872 0.3076 0.3439
vn -0.8895 0.3074 0.3380
vn -0.8869 0.3076 0.3446
vn -0.7232 0.6116 0.3208
vn -0.7370 0.6150 0.2804
vn -0.7216 0.6112 0.3251
vn -0.4162 0.0296 0.9088
vn -0.4181 0.0304 0.9079
vn -0.4186 0.0306 0.9076
vn -0.4035 0.1401 0.9042
vn -0.4088 0.1429 0.9014
vn -0.4094 0.1432 0.9011
vn -0.3524 0.2995 0.8866
vn -0.3886 0.3400 0.8564
vn -0.3922 0.3440 0.8531
vn 0.4161 -0.0306 0.9088
vn 0.4178 -0.0312 0.9080
vn 0.4182 -0.0314 0.9078
vn 0.4107 -0.1437 0.9004
vn 0.4131 -0.1449 0.8991
vn 0.4134 -0.1451 0.8989
vn 0.3709 -0.3261 0.8695
vn 0.3969 -0.3554 0.8463
vn 0.3994 -0.3583 0.8439
vn 0.9341 -0.0703 0.3501
vn 0.9346 -0.0708 0.3486
vn 0.9347 -0.0710 0.3482
vn 0.8901 -0.3124 0.3320
vn 0.8905 -0.3128 0.3305
vn 0.8905 -0.3128 0.3304
vn 0.7152 -0.6420 0.2763
vn 0.7175 -0.6477 0.2563
vn 0.7177 -0.6484 0.2540
vn 0.9340 -0.0708 -0.3501
vn 0.9346 -0.0703 -0.3486
vn 0.9348 -0.0702 -0.3482
vn 0.8900 -0.3126 -0.3321
vn 0.8901 -0.3126 -0.3317
vn 0.8901 -0.3126 -0.3316
vn 0.7120 -0.6428 -0.2825
vn 0.7190 -0.6447 -0.2596
vn 0.7197 -0.6448 -0.2573
vn 0.4160 -0.0311 -0.9088
vn 0.4178 -0.0307 -0.9080
vn 0.4183 -0.0306 -0.9078
vn 0.4106 -0.1441 -0.9004
vn 0.4133 -0.1447 -0.8990
vn 0.4135 -0.1447 -0.8989
vn 0.3705 -0.3316 -0.8676
vn 0.4007 -0.3520 -0.8459
vn 0.4028 -0.3534 -0.8443
vn 0.3834 0.0000 -0.9236
vn 0.6311 0.4838 -0.6064
vn 0.3827 0.0000 -0.9239
vn 0.9243 0.0000 -0.3817
vn 0.7878 0.6019 -0.1309
vn 0.9239 0.0000 -0.3827
vn 0.9243 0.0000 0.3817
vn 0.7878 0.6019 0.1309
vn 0.7879 0.6019 0.1300
vn 0.3834 0.0000 0.9236
vn 0.6311 0.4838 0.6064
vn 0.6317 0.4842 0.6054
vn -0.3834 -0.0000 0.9236
vn -0.6319 -0.4884 0.6017
vn -0.6325 -0.4889 0.6008
vn -0.9243 -0.0000 0.3817
vn -0.7824 -0.6097 0.1272
vn -0.7824 -0.6098 0.1264
vn -0.3834 -0.0000 -0.9236
vn -0.6319 -0.4884 -0.6017
vn -0.3827 -0.0000 -0.9239
vn -0.7815 -0.6239 -0.0000
vn -0.6323 0.4887 -0.6012
vn -0.7824 0.6097 0.1270
vn -0.7825 0.6097 0.1262
vn -0.6323 0.4887 0.6011
vn -0.6329 0.4891 0.6002
vn 0.6315 -0.4840 0.6058
vn 0.6321 -0.4844 0.6048
vn 0.7879 -0.6018 0.1307
vn 0.7880 -0.6019 0.1299
vn 0.7879 -0.6018 -0.1307
vn 0.6315 -0.4840 -0.6058
vn -0.7824 0.6097 -0.1270
vn 0.3370 0.9244 -0.1787
vn 0.3367 0.9245 0.1788
vn 0.2346 0.6450 0.7273
vn -0.2381 -0.6463 0.7250
vn -0.4186 -0.0306 0.9076
vn -0.4093 -0.1434 0.9011
vn -0.3920 -0.3443 0.8531
vn 0.4182 0.0314 0.9078
vn 0.4133 0.1453 0.8989
vn 0.3992 0.3585 0.8439
vn 0.9347 0.0710 0.3482
vn 0.8903 0.3133 0.3304
vn 0.7173 0.6488 0.2540
vn 0.9348 0.0702 -0.3482
vn 0.8899 0.3131 -0.3316
vn 0.7193 0.6453 -0.2573
vn 0.3371 -0.9238 -0.1818
vn 0.3371 -0.9251 0.1745
vn 0.2273 -0.6159 0.7543
vn -0.2165 0.5610 0.7990
vn -0.4156 0.0294 0.9091
vn -0.4029 0.1397 0.9045
vn -0.3486 0.2952 0.8896
vn 0.4156 -0.0304 0.9091
vn 0.4104 -0.1435 0.9005
vn 0.3680 -0.3228 0.8720
vn 0.9339 -0.0701 0.3505
vn 0.8900 -0.3123 0.3322
vn 0.7149 -0.6413 0.2787
vn 0.9339 -0.0709 -0.3505
vn 0.8899 -0.3126 -0.3321
vn 0.7114 -0.6426 -0.2846
vn 0.2382 0.6464 -0.7249
vn -0.3631 -0.9160 0.1707
vn -0.3631 -0.9160 -0.1707
vn -0.2500 -0.6508 -0.7170
vn -0.4188 -0.0296 -0.9076
vn -0.4104 -0.1426 -0.9007
vn -0.3986 -0.3383 -0.8525
vn -0.9354 -0.0651 -0.3476
vn -0.8895 -0.3078 -0.3378
vn -0.7378 -0.6155 -0.2771
vn -0.9354 -0.0651 0.3476
vn -0.8896 -0.3078 0.3373
vn -0.7381 -0.6157 0.2757
vn 0.4183 0.0306 -0.9078
vn 0.4135 0.1449 -0.8989
vn 0.4026 0.3536 -0.8443
vn -0.7824 -0.6098 -0.1264
vn 0.2274 -0.6226 -0.7487
vn -0.3637 0.9158 0.1707
vn -0.3483 0.9053 -0.2430
vn -0.2117 0.5733 -0.7915
vn -0.4156 0.0304 -0.9091
vn -0.4026 0.1409 -0.9045
vn -0.3475 0.3049 -0.8867
vn -0.9342 0.0660 -0.3506
vn -0.8870 0.3075 -0.3444
vn -0.7202 0.6106 -0.3295
vn -0.9354 0.0651 0.3476
vn -0.8898 0.3073 0.3373
vn -0.7385 0.6153 0.2757
vn 0.4156 -0.0312 -0.9090
vn 0.4103 -0.1441 -0.9005
vn 0.3687 -0.3303 -0.8689
vn 0.6317 0.4842 -0.6054
vn 0.7879 0.6019 -0.1300
vn 0.9239 0.0000 0.3827
vn 0.3827 0.0000 0.9239
vn -0.3827 -0.0000 0.9239
vn -0.9239 -0.0000 0.3827
vn -0.6325 -0.4889 -0.6008
vn -0.6329 0.4891 -0.6002
vn 0.7880 -0.6019 -0.1299
vn 0.6321 -0.4845 -0.6048
vn -0.7825 0.6097 -0.1262
usemtl Bow_Texture
s 1
f 11/1/1 2/2/2 12/3/3
f 12/3/4 3/4/5 15/5/6
f 15/5/7 4/6/8 18/7/9
f 18/7/10 5/8/11 21/9/12
f 21/9/13 6/10/14 24/11/15
f 6/10/16 27/12/17 24/11/18
f 36/13/19 39/14/19 35/15/19
f 27/16/20 8/17/21 30/18/22
f 30/18/23 1/19/24 11/1/25
f 72/20/26 9/21/27 65/22/28
f 32/23/29 10/24/30 9/21/31
f 31/25/32 11/1/33 10/24/34
f 71/26/35 32/23/36 72/20/37
f 29/27/38 31/25/39 32/23/40
f 28/28/41 30/18/42 31/25/43
f 26/29/44 71/30/45 70/31/46
f 25/32/47 29/33/48 26/29/49
f 24/11/50 28/34/51 25/32/52
f 69/35/53 26/29/54 70/31/55
f 23/36/56 25/32/57 26/29/58
f 22/37/59 24/11/60 25/32/61
f 68/38/62 23/36/63 69/35/64
f 20/39/65 22/37/66 23/36/67
f 19/40/68 21/9/69 22/37/70
f 67/41/71 20/39/72 68/38/73
f 17/42/74 19/40/75 20/39/76
f 16/43/77 18/7/78 19/40/79
f 66/44/80 17/42/81 67/41/82
f 14/45/83 16/43/84 17/42/83
f 13/46/85 15/5/86 16/43/87
f 65/22/88 14/45/89 66/44/90
f 9/21/91 13/46/92 14/45/93
f 10/24/94 12/3/95 13/46/96
f 96/47/97 86/48/98 95/49/99
f 43/50/100 34/51/101 33/52/102
f 44/53/103 35/15/104 34/51/105
f 47/54/106 36/13/107 35/15/108
f 50/55/109 37/56/110 36/13/111
f 53/57/112 38/58/113 37/56/114
f 59/59/115 38/58/116 56/60/117
f 37/56/19 38/58/19 36/13/19
f 59/61/118 40/62/119 39/63/120
f 62/64/121 33/52/122 40/62/123
f 72/65/124 41/66/125 64/67/126
f 64/67/127 42/68/128 63/69/129
f 63/69/130 43/50/131 62/64/132
f 71/70/133 64/67/134 61/71/135
f 61/71/136 63/69/137 60/72/138
f 60/72/139 62/64/140 59/61/141
f 71/73/142 58/74/143 70/75/144
f 61/76/145 57/77/146 58/74/147
f 60/78/148 56/60/149 57/77/150
f 69/79/151 58/74/152 55/80/153
f 55/80/154 57/77/155 54/81/156
f 54/81/157 56/60/158 53/57/159
f 68/82/160 55/80/161 52/83/162
f 52/83/163 54/81/164 51/84/165
f 51/84/166 53/57/167 50/55/168
f 67/85/169 52/83/170 49/86/171
f 49/86/172 51/84/173 48/87/174
f 48/87/175 50/55/176 47/54/177
f 66/88/178 49/86/179 46/89/180
f 46/89/181 48/87/182 45/90/183
f 45/90/184 47/54/185 44/53/186
f 65/91/187 46/89/188 41/66/189
f 41/66/190 45/90/191 42/68/192
f 42/68/193 44/53/194 43/50/195
f 90/92/196 74/93/197 89/94/198
f 91/95/199 76/96/200 90/92/201
f 91/95/202 80/97/203 78/98/204
f 92/99/205 82/100/206 80/97/207
f 93/101/208 84/102/209 82/100/210
f 94/103/211 86/48/212 84/102/213
f 89/94/214 88/104/215 96/47/216
f 33/52/19 34/51/19 40/62/19
f 39/63/19 34/51/19 35/15/19
f 5/8/217 4/6/217 6/10/217
f 3/4/217 6/10/217 4/6/217
f 2/2/217 7/105/217 3/4/217
f 1/19/217 8/17/217 2/2/217
f 87/106/218 89/94/214 96/47/216
f 85/107/219 94/103/211 83/108/220
f 83/108/221 93/101/208 81/109/222
f 81/109/223 92/99/205 79/110/224
f 79/110/225 91/95/202 77/111/226
f 75/112/227 91/95/199 90/92/201
f 73/113/228 90/92/196 89/94/198
f 85/107/229 96/47/97 95/49/99
f 12/3/4 2/2/230 3/4/5
f 15/5/7 3/4/231 4/6/8
f 18/7/10 4/6/232 5/8/11
f 21/9/13 5/8/233 6/10/14
f 69/35/53 23/36/234 26/29/54
f 23/36/56 22/37/235 25/32/57
f 22/37/59 21/9/236 24/11/60
f 68/38/62 20/39/237 23/36/63
f 20/39/65 19/40/238 22/37/66
f 19/40/68 18/7/239 21/9/69
f 67/41/71 17/42/240 20/39/72
f 17/42/74 16/43/241 19/40/75
f 16/43/77 15/5/242 18/7/78
f 66/44/80 14/45/243 17/42/81
f 14/45/83 13/46/244 16/43/84
f 13/46/85 12/3/245 15/5/86
f 44/53/103 47/54/246 35/15/104
f 47/54/106 50/55/247 36/13/107
f 50/55/109 53/57/248 37/56/110
f 53/57/112 56/60/249 38/58/113
f 69/79/151 70/75/250 58/74/152
f 55/80/154 58/74/251 57/77/155
f 54/81/157 57/77/252 56/60/158
f 68/82/160 69/79/253 55/80/161
f 52/83/163 55/80/254 54/81/164
f 51/84/166 54/81/255 53/57/167
f 67/85/169 68/82/256 52/83/170
f 49/86/172 52/83/257 51/84/173
f 48/87/175 51/84/258 50/55/176
f 66/88/178 67/85/259 49/86/179
f 46/89/181 49/86/260 48/87/182
f 45/90/184 48/87/261 47/54/185
f 11/1/1 1/19/262 2/2/2
f 6/10/16 7/114/263 27/12/17
f 36/13/19 38/58/19 39/14/19
f 27/16/20 7/105/264 8/17/21
f 30/18/23 8/17/265 1/19/24
f 72/20/26 32/23/266 9/21/27
f 32/23/29 31/25/267 10/24/30
f 31/25/32 30/18/268 11/1/33
f 71/26/35 29/27/269 32/23/36
f 29/27/38 28/28/270 31/25/39
f 28/28/41 27/16/271 30/18/42
f 26/29/44 29/33/272 71/30/45
f 25/32/47 28/34/273 29/33/48
f 24/11/50 27/12/274 28/34/51
f 65/22/88 9/21/275 14/45/89
f 9/21/91 10/24/276 13/46/92
f 10/24/94 11/1/277 12/3/95
f 96/47/97 88/104/278 86/48/98
f 43/50/100 44/53/279 34/51/101
f 59/59/115 39/14/280 38/58/116
f 59/61/118 62/64/281 40/62/119
f 62/64/121 43/50/282 33/52/122
f 72/65/124 65/91/283 41/66/125
f 64/67/127 41/66/284 42/68/128
f 63/69/130 42/68/285 43/50/131
f 71/70/133 72/65/286 64/67/134
f 61/71/136 64/67/287 63/69/137
f 60/72/139 63/69/288 62/64/140
f 71/73/142 61/76/289 58/74/143
f 61/76/145 60/78/290 57/77/146
f 60/78/148 59/59/291 56/60/149
f 65/91/187 66/88/292 46/89/188
f 41/66/190 46/89/293 45/90/191
f 42/68/193 45/90/294 44/53/194
f 90/92/196 76/96/295 74/93/197
f 91/95/199 78/98/296 76/96/200
f 91/95/202 92/99/297 80/97/203
f 92/99/205 93/101/298 82/100/206
f 93/101/208 94/103/299 84/102/209
f 94/103/211 95/49/300 86/48/212
f 89/94/214 74/93/301 88/104/215
f 39/63/19 40/62/19 34/51/19
f 3/4/217 7/114/217 6/10/217
f 2/2/217 8/17/217 7/105/217
f 87/106/218 73/113/302 89/94/214
f 85/107/219 95/49/300 94/103/211
f 83/108/221 94/103/299 93/101/208
f 81/109/223 93/101/298 92/99/205
f 79/110/225 92/99/297 91/95/202
f 75/112/227 77/111/303 91/95/199
f 73/113/228 75/112/304 90/92/196
f 85/107/229 87/106/305 96/47/97
