# Blender v2.82 (sub 7) OBJ File: ''
# www.blender.org
mtllib bow_000015.mtl
o Bow_Cylinder
v 1.256297 2.426703 -0.141605
v 1.249584 2.510770 -0.100130
v 1.246803 2.545592 -0.000002
v 1.249583 2.510771 0.100126
v 1.256296 2.426703 0.141601
v 1.263010 2.342636 0.100126
v 1.265791 2.307814 -0.000002
v 1.263010 2.342636 -0.100130
v 2.137274 0.346957 -0.141603
v 2.002581 1.040663 -0.141603
v 1.754987 1.734079 -0.141604
v 1.824199 1.734239 -0.100129
v 2.089212 1.040840 -0.100129
v 2.227165 0.347120 -0.100128
v 1.852868 1.734303 -0.000001
v 2.125096 1.040913 -0.000000
v 2.264399 0.347185 0.000000
v 1.824199 1.734241 0.100127
v 2.089211 1.040842 0.100128
v 2.227165 0.347120 0.100128
v 1.754987 1.734079 0.141602
v 2.002580 1.040663 0.141602
v 2.137273 0.346958 0.141603
v 1.685774 1.733896 0.100127
v 1.915949 1.040469 0.100128
v 2.047381 0.346778 0.100128
v 1.657106 1.733815 -0.000001
v 1.880065 1.040386 -0.000001
v 2.010148 0.346701 -0.000000
v 1.685774 1.733898 -0.100130
v 1.915949 1.040470 -0.100129
v 2.047381 0.346778 -0.100129
v 1.253107 -2.425348 -0.141603
v 1.246266 -2.509404 -0.100128
v 1.243431 -2.544222 0.000000
v 1.246266 -2.509404 0.100128
v 1.253107 -2.425348 0.141603
v 1.259950 -2.341292 0.100128
v 1.262784 -2.306474 0.000000
v 1.259950 -2.341292 -0.100128
v 2.137273 -0.346956 -0.141603
v 2.001517 -1.040454 -0.141603
v 1.752859 -1.733489 -0.141603
v 1.822072 -1.733755 -0.100128
v 2.088148 -1.040764 -0.100128
v 2.227165 -0.347139 -0.100128
v 1.850741 -1.733863 0.000000
v 2.124031 -1.040891 0.000000
v 2.264399 -0.347197 0.000000
v 1.822072 -1.733757 0.100128
v 2.088147 -1.040766 0.100128
v 2.227165 -0.347139 0.100128
v 1.752860 -1.733489 0.141603
v 2.001517 -1.040454 0.141603
v 2.137273 -0.346956 0.141603
v 1.683647 -1.733199 0.100128
v 1.914886 -1.040127 0.100128
v 2.047381 -0.346658 0.100128
v 1.654979 -1.733074 0.000000
v 1.879002 -1.039989 0.000000
v 2.010148 -0.346516 0.000000
v 1.683647 -1.733202 -0.100128
v 1.914886 -1.040128 -0.100128
v 2.047381 -0.346657 -0.100128
v 2.155554 0.000000 -0.141603
v 2.246301 0.000000 -0.100128
v 2.283889 0.000000 0.000000
v 2.246300 0.000000 0.100128
v 2.155554 0.000000 0.141603
v 2.064807 0.000000 0.100128
v 2.027219 0.000000 -0.000000
v 2.064807 0.000000 -0.100128
v 1.329194 2.305187 -0.026695
v 1.326191 -2.303943 -0.026693
v 1.348068 2.305238 -0.018877
v 1.345066 -2.304024 -0.018875
v 1.355887 2.305259 -0.000002
v 1.352884 -2.304057 0.000000
v 1.348068 2.305238 0.018873
v 1.345066 -2.304024 0.018875
v 1.329194 2.305187 0.026692
v 1.326191 -2.303943 0.026694
v 1.310319 2.305135 0.018873
v 1.307316 -2.303863 0.018875
v 1.302500 2.305114 -0.000002
v 1.299498 -2.303830 0.000000
v 1.310319 2.305135 -0.018877
v 1.307316 -2.303863 -0.018875
v 1.273089 0.000000 -0.026694
v 1.291964 -0.000000 -0.018875
v 1.299783 -0.000000 -0.000000
v 1.291964 -0.000000 0.018875
v 1.273089 -0.000000 0.026693
v 1.254215 -0.000000 0.018875
v 1.246396 -0.000000 -0.000000
v 1.254215 -0.000000 -0.018875
vt 0.415512 0.435877
vt 0.400099 0.697333
vt 0.403102 0.391658
vt 0.363795 0.918795
vt 0.365342 0.371239
vt 0.329116 0.695481
vt 0.327496 0.392348
vt 0.320164 0.664925
vt 0.314951 0.436624
vt 0.315153 0.701007
vt 0.300410 0.490184
vt 0.268850 0.518222
vt 0.164551 0.690291
vt 0.162885 0.929390
vt 0.124572 0.911161
vt 0.461378 0.516577
vt 0.414213 0.700837
vt 0.429881 0.489274
vt 0.409216 0.665592
vt 0.445757 0.183823
vt 0.420971 0.141474
vt 0.426085 0.118748
vt 0.440749 0.206831
vt 0.419264 0.252824
vt 0.434015 0.316403
vt 0.478969 0.225812
vt 0.475238 0.247511
vt 0.468580 0.349640
vt 0.290702 0.208573
vt 0.252454 0.228467
vt 0.285793 0.185708
vt 0.296979 0.317836
vt 0.256096 0.250048
vt 0.262347 0.351838
vt 0.305723 0.120183
vt 0.310743 0.142781
vt 0.311970 0.254023
vt 0.328331 0.059376
vt 0.331398 0.083632
vt 0.329530 0.190214
vt 0.366080 0.032501
vt 0.366029 0.057475
vt 0.365803 0.164989
vt 0.403723 0.058469
vt 0.400555 0.082803
vt 0.401974 0.189372
vt 0.927082 0.502568
vt 0.597959 0.094171
vt 0.597959 0.502569
vt 0.084417 0.425353
vt 0.093581 0.687590
vt 0.085228 0.655296
vt 0.097874 0.381957
vt 0.136090 0.363958
vt 0.173403 0.387462
vt 0.174224 0.660330
vt 0.184883 0.432511
vt 0.178371 0.696702
vt 0.229007 0.516999
vt 0.198137 0.486964
vt 0.036661 0.503074
vt 0.079396 0.690193
vt 0.084817 0.926901
vt 0.068785 0.477796
vt 0.060205 0.171557
vt 0.085982 0.130816
vt 0.064660 0.194867
vt 0.085033 0.242194
vt 0.068777 0.304788
vt 0.026016 0.211401
vt 0.029227 0.233322
vt 0.033444 0.335800
vt 0.252303 0.228478
vt 0.214556 0.206162
vt 0.220008 0.183625
vt 0.248150 0.249811
vt 0.205677 0.314949
vt 0.239475 0.351135
vt 0.201655 0.116878
vt 0.196100 0.139140
vt 0.192219 0.250224
vt 0.180514 0.054675
vt 0.176870 0.078719
vt 0.176195 0.185342
vt 0.143433 0.025416
vt 0.142888 0.050375
vt 0.140549 0.157826
vt 0.105197 0.048969
vt 0.107783 0.073487
vt 0.103823 0.179889
vt 0.081413 0.107781
vt 0.833047 0.502568
vt 0.880064 0.094170
vt 0.880065 0.502568
vt 0.786029 0.502569
vt 0.833046 0.094170
vt 0.739011 0.094171
vt 0.786029 0.094171
vt 0.739012 0.502569
vt 0.691994 0.094171
vt 0.691994 0.502569
vt 0.644976 0.094171
vt 0.644977 0.502569
vt 0.927081 0.094170
vt 0.325070 0.934563
vt 0.403149 0.937053
vt 0.927084 0.910966
vt 0.597959 0.910967
vt 0.644977 0.910967
vt 0.691995 0.910967
vt 0.739013 0.910967
vt 0.786030 0.910967
vt 0.833048 0.910967
vt 0.880066 0.910967
vn 0.4825 0.3567 -0.8000
vn 0.5508 0.3976 -0.7338
vn 0.4799 0.3551 -0.8022
vn 0.7814 0.5834 -0.2214
vn 0.7898 0.5849 -0.1849
vn 0.7808 0.5833 -0.2239
vn 0.7837 0.5803 0.2216
vn 0.7874 0.5879 0.1851
vn 0.7833 0.5796 0.2246
vn 0.4860 0.3507 0.8005
vn 0.5453 0.4032 0.7348
vn 0.4815 0.3467 0.8049
vn -0.4893 -0.3409 0.8027
vn -0.5562 -0.4000 0.7284
vn -0.4835 -0.3358 0.8084
vn -0.8127 -0.5552 0.1769
vn -0.8008 -0.5553 0.2246
vn -0.7995 -0.5552 0.2293
vn -0.9967 0.0811 -0.0000
vn -0.8008 -0.5553 -0.2246
vn -0.8127 -0.5552 -0.1769
vn -0.7995 -0.5552 -0.2294
vn -0.4849 -0.3486 -0.8021
vn -0.5633 -0.3927 -0.7270
vn -0.4815 -0.3467 -0.8050
vn -0.4161 -0.0217 -0.9090
vn -0.4182 -0.0212 -0.9081
vn -0.4156 -0.0219 -0.9093
vn -0.4184 -0.0811 -0.9046
vn -0.4292 -0.0815 -0.8995
vn -0.4174 -0.0811 -0.9051
vn -0.4313 -0.1533 -0.8891
vn -0.5010 -0.1670 -0.8492
vn -0.4265 -0.1523 -0.8916
vn -0.9354 -0.0468 -0.3505
vn -0.9361 -0.0463 -0.3487
vn -0.9352 -0.0470 -0.3511
vn -0.9232 -0.1748 -0.3423
vn -0.9266 -0.1739 -0.3334
vn -0.9228 -0.1748 -0.3433
vn -0.9003 -0.2980 -0.3172
vn -0.9168 -0.2956 -0.2684
vn -0.8985 -0.2982 -0.3222
vn -0.9361 -0.0463 0.3487
vn -0.9354 -0.0468 0.3505
vn -0.9352 -0.0470 0.3511
vn -0.9266 -0.1739 0.3334
vn -0.9232 -0.1748 0.3423
vn -0.9228 -0.1748 0.3433
vn -0.9168 -0.2956 0.2684
vn -0.9003 -0.2980 0.3172
vn -0.8985 -0.2982 0.3222
vn -0.4162 -0.0211 0.9090
vn -0.4182 -0.0219 0.9081
vn -0.4156 -0.0209 0.9093
vn -0.4187 -0.0795 0.9046
vn -0.4289 -0.0831 0.8995
vn -0.4175 -0.0791 0.9052
vn -0.4336 -0.1449 0.8894
vn -0.4982 -0.1769 0.8488
vn -0.4272 -0.1418 0.8930
vn 0.4162 0.0221 0.9090
vn 0.4182 0.0229 0.9081
vn 0.4156 0.0219 0.9093
vn 0.4186 0.0815 0.9045
vn 0.4289 0.0851 0.8993
vn 0.4174 0.0811 0.9051
vn 0.4329 0.1556 0.8879
vn 0.4971 0.1890 0.8469
vn 0.4265 0.1523 0.8916
vn 0.9352 0.0517 0.3504
vn 0.9358 0.0524 0.3486
vn 0.9350 0.0515 0.3510
vn 0.9217 0.1835 0.3417
vn 0.9246 0.1855 0.3327
vn 0.9214 0.1832 0.3428
vn 0.8872 0.3399 0.3121
vn 0.8982 0.3518 0.2634
vn 0.8857 0.3385 0.3177
vn 0.9351 0.0523 -0.3504
vn 0.9358 0.0518 -0.3487
vn 0.9349 0.0525 -0.3510
vn 0.9215 0.1849 -0.3416
vn 0.9249 0.1841 -0.3327
vn 0.9211 0.1850 -0.3426
vn 0.8847 0.3465 -0.3119
vn 0.9008 0.3451 -0.2636
vn 0.8829 0.3466 -0.3167
vn 0.4161 0.0228 -0.9090
vn 0.4182 0.0222 -0.9081
vn 0.4156 0.0229 -0.9093
vn 0.4184 0.0830 -0.9045
vn 0.4291 0.0835 -0.8994
vn 0.4174 0.0830 -0.9049
vn 0.4305 0.1638 -0.8876
vn 0.5000 0.1793 -0.8472
vn 0.4258 0.1627 -0.8901
vn -0.9239 0.0006 -0.3827
vn -0.9237 -0.0213 -0.3826
vn 0.4819 -0.3574 -0.8000
vn 0.5502 -0.3985 -0.7338
vn 0.5582 -0.4032 -0.7251
vn 0.7805 -0.5846 -0.2214
vn 0.7889 -0.5861 -0.1849
vn 0.7896 -0.5862 -0.1815
vn 0.7828 -0.5815 0.2216
vn 0.7865 -0.5891 0.1851
vn 0.7867 -0.5896 0.1828
vn 0.4855 -0.3514 0.8005
vn 0.5447 -0.4041 0.7348
vn 0.5467 -0.4059 0.7324
vn -0.4888 0.3416 0.8027
vn -0.5556 0.4009 0.7284
vn -0.5582 0.4032 0.7251
vn -0.7999 0.5565 0.2246
vn -0.8119 0.5564 0.1769
vn -0.7986 0.5564 0.2293
vn -0.7999 0.5565 -0.2246
vn -0.8119 0.5564 -0.1769
vn -0.8133 0.5563 -0.1704
vn -0.4843 0.3493 -0.8021
vn -0.5627 0.3936 -0.7270
vn -0.5735 0.3996 -0.7152
vn -0.4161 0.0218 -0.9090
vn -0.4182 0.0212 -0.9081
vn -0.4188 0.0211 -0.9078
vn -0.4183 0.0817 -0.9046
vn -0.4291 0.0821 -0.8995
vn -0.4301 0.0822 -0.8990
vn -0.4311 0.1539 -0.8891
vn -0.5007 0.1678 -0.8492
vn -0.5061 0.1689 -0.8458
vn -0.9354 0.0468 -0.3505
vn -0.9361 0.0463 -0.3488
vn -0.9363 0.0461 -0.3482
vn -0.9229 0.1762 -0.3423
vn -0.9263 0.1754 -0.3334
vn -0.9267 0.1753 -0.3324
vn -0.8998 0.2994 -0.3172
vn -0.9164 0.2970 -0.2685
vn -0.9180 0.2967 -0.2632
vn -0.9354 0.0468 0.3505
vn -0.9361 0.0463 0.3488
vn -0.9352 0.0470 0.3511
vn -0.9229 0.1762 0.3423
vn -0.9263 0.1754 0.3334
vn -0.9225 0.1763 0.3433
vn -0.8998 0.2994 0.3172
vn -0.9164 0.2970 0.2684
vn -0.8980 0.2996 0.3222
vn -0.4162 0.0211 0.9090
vn -0.4182 0.0219 0.9081
vn -0.4188 0.0221 0.9078
vn -0.4186 0.0802 0.9046
vn -0.4288 0.0838 0.8995
vn -0.4300 0.0842 0.8989
vn -0.4334 0.1456 0.8894
vn -0.4979 0.1776 0.8488
vn -0.5049 0.1812 0.8439
vn 0.4162 -0.0221 0.9090
vn 0.4182 -0.0229 0.9081
vn 0.4188 -0.0231 0.9078
vn 0.4186 -0.0821 0.9045
vn 0.4288 -0.0857 0.8993
vn 0.4300 -0.0862 0.8987
vn 0.4327 -0.1563 0.8879
vn 0.4968 -0.1897 0.8469
vn 0.5038 -0.1934 0.8419
vn 0.9352 -0.0517 0.3504
vn 0.9358 -0.0524 0.3486
vn 0.9360 -0.0525 0.3481
vn 0.9215 -0.1849 0.3416
vn 0.9243 -0.1869 0.3327
vn 0.9247 -0.1871 0.3316
vn 0.8866 -0.3413 0.3121
vn 0.8977 -0.3532 0.2634
vn 0.8988 -0.3545 0.2577
vn 0.9351 -0.0523 -0.3504
vn 0.9358 -0.0518 -0.3486
vn 0.9360 -0.0516 -0.3481
vn 0.9212 -0.1862 -0.3415
vn 0.9246 -0.1855 -0.3327
vn 0.9250 -0.1854 -0.3317
vn 0.8841 -0.3479 -0.3119
vn 0.9003 -0.3465 -0.2636
vn 0.9018 -0.3462 -0.2586
vn 0.4161 -0.0228 -0.9090
vn 0.4182 -0.0222 -0.9081
vn 0.4188 -0.0221 -0.9078
vn 0.4183 -0.0837 -0.9044
vn 0.4290 -0.0841 -0.8994
vn 0.4300 -0.0842 -0.8989
vn 0.4302 -0.1644 -0.8876
vn 0.4998 -0.1800 -0.8472
vn 0.5050 -0.1812 -0.8439
vn 0.3827 -0.0003 -0.9239
vn 0.3827 0.0088 -0.9238
vn 0.3827 -0.0002 -0.9239
vn 0.9239 -0.0006 -0.3827
vn 0.9237 0.0213 -0.3826
vn 0.9239 -0.0006 0.3827
vn 0.9237 0.0213 0.3826
vn 0.3827 -0.0002 0.9239
vn 0.3827 0.0088 0.9238
vn -0.3827 0.0003 0.9239
vn -0.3827 -0.0088 0.9238
vn -0.9239 0.0006 0.3827
vn -0.9237 -0.0213 0.3826
vn -0.3827 0.0002 -0.9239
vn -0.3827 -0.0088 -0.9238
vn -0.9968 -0.0796 -0.0000
vn -0.3827 0.0093 -0.9238
vn -0.9237 0.0225 0.3826
vn -0.3827 0.0093 0.9238
vn 0.3827 -0.0093 0.9238
vn 0.9237 -0.0225 0.3826
vn 0.9237 -0.0225 -0.3826
vn 0.3827 -0.0093 -0.9238
vn -0.9236 0.0225 -0.3826
vn 0.7905 0.5850 -0.1815
vn 0.7876 0.5884 0.1828
vn 0.5473 0.4050 0.7324
vn -0.5588 -0.4024 0.7251
vn -0.4188 -0.0221 0.9078
vn -0.4302 -0.0835 0.8989
vn -0.5052 -0.1804 0.8439
vn 0.4188 0.0231 0.9078
vn 0.4301 0.0855 0.8987
vn 0.5041 0.1926 0.8419
vn 0.9360 0.0525 0.3481
vn 0.9250 0.1857 0.3316
vn 0.8994 0.3531 0.2577
vn 0.9360 0.0516 -0.3481
vn 0.9253 0.1840 -0.3317
vn 0.9023 0.3449 -0.2586
vn 0.7799 -0.5845 -0.2239
vn 0.7824 -0.5808 0.2246
vn 0.4810 -0.3474 0.8049
vn -0.4830 0.3365 0.8084
vn -0.4156 0.0209 0.9093
vn -0.4174 0.0797 0.9052
vn -0.4270 0.1425 0.8930
vn 0.4156 -0.0219 0.9093
vn 0.4174 -0.0817 0.9050
vn 0.4263 -0.1529 0.8916
vn 0.9350 -0.0515 0.3510
vn 0.9211 -0.1846 0.3426
vn 0.8852 -0.3399 0.3177
vn 0.9349 -0.0525 -0.3510
vn 0.9208 -0.1863 -0.3425
vn 0.8824 -0.3480 -0.3167
vn 0.5588 0.4024 -0.7251
vn -0.8142 -0.5550 0.1704
vn -0.8142 -0.5550 -0.1704
vn -0.5741 -0.3987 -0.7152
vn -0.4188 -0.0210 -0.9078
vn -0.4302 -0.0815 -0.8990
vn -0.5064 -0.1681 -0.8458
vn -0.9363 -0.0461 -0.3482
vn -0.9270 -0.1738 -0.3324
vn -0.9184 -0.2953 -0.2632
vn -0.9363 -0.0461 0.3482
vn -0.9270 -0.1738 0.3324
vn -0.9184 -0.2953 0.2632
vn 0.4188 0.0221 -0.9078
vn 0.4302 0.0835 -0.8989
vn 0.5053 0.1804 -0.8439
vn 0.4794 -0.3559 -0.8022
vn -0.8133 0.5563 0.1704
vn -0.7986 0.5564 -0.2294
vn -0.4809 0.3474 -0.8050
vn -0.4156 0.0219 -0.9093
vn -0.4173 0.0817 -0.9051
vn -0.4263 0.1529 -0.8916
vn -0.9352 0.0470 -0.3511
vn -0.9225 0.1763 -0.3433
vn -0.8980 0.2996 -0.3222
vn -0.9363 0.0461 0.3482
vn -0.9267 0.1753 0.3324
vn -0.9180 0.2967 0.2632
vn 0.4156 -0.0229 -0.9093
vn 0.4173 -0.0836 -0.9049
vn 0.4255 -0.1634 -0.8901
vn -0.3827 0.0002 0.9239
usemtl Bow_Texture
s 1
f 11/1/1 2/2/2 12/3/3
f 12/3/4 3/4/5 15/5/6
f 15/5/7 4/6/8 18/7/9
f 18/7/10 5/8/11 21/9/12
f 21/9/13 6/10/14 24/11/15
f 6/10/16 27/12/17 24/11/18
f 36/13/19 39/14/19 35/15/19
f 27/16/20 8/17/21 30/18/22
f 30/18/23 1/19/24 11/1/25
f 72/20/26 9/21/27 65/22/28
f 32/23/29 10/24/30 9/21/31
f 31/25/32 11/1/33 10/24/34
f 71/26/35 32/23/36 72/20/37
f 29/27/38 31/25/39 32/23/40
f 28/28/41 30/18/42 31/25/43
f 26/29/44 71/30/45 70/31/46
f 25/32/47 29/33/48 26/29/49
f 24/11/50 28/34/51 25/32/52
f 69/35/53 26/29/54 70/31/55
f 23/36/56 25/32/57 26/29/58
f 22/37/59 24/11/60 25/32/61
f 68/38/62 23/36/63 69/35/64
f 20/39/65 22/37/66 23/36/67
f 19/40/68 21/9/69 22/37/70
f 67/41/71 20/39/72 68/38/73
f 17/42/74 19/40/75 20/39/76
f 16/43/77 18/7/78 19/40/79
f 66/44/80 17/42/81 67/41/82
f 14/45/83 16/43/84 17/42/85
f 13/46/86 15/5/87 16/43/88
f 65/22/89 14/45/90 66/44/91
f 9/21/92 13/46/93 14/45/94
f 10/24/95 12/3/96 13/46/97
f 96/47/98 86/48/99 95/49/98
f 43/50/100 34/51/101 33/52/102
f 44/53/103 35/15/104 34/51/105
f 47/54/106 36/13/107 35/15/108
f 50/55/109 37/56/110 36/13/111
f 53/57/112 38/58/113 37/56/114
f 59/59/115 38/58/116 56/60/117
f 37/56/19 38/58/19 36/13/19
f 59/61/118 40/62/119 39/63/120
f 62/64/121 33/52/122 40/62/123
f 72/65/124 41/66/125 64/67/126
f 64/67/127 42/68/128 63/69/129
f 63/69/130 43/50/131 62/64/132
f 71/70/133 64/67/134 61/71/135
f 61/71/136 63/69/137 60/72/138
f 60/72/139 62/64/140 59/61/141
f 71/73/142 58/74/143 70/75/144
f 61/76/145 57/77/146 58/74/147
f 60/78/148 56/60/149 57/77/150
f 69/79/151 58/74/152 55/80/153
f 55/80/154 57/77/155 54/81/156
f 54/81/157 56/60/158 53/57/159
f 68/82/160 55/80/161 52/83/162
f 52/83/163 54/81/164 51/84/165
f 51/84/166 53/57/167 50/55/168
f 67/85/169 52/83/170 49/86/171
f 49/86/172 51/84/173 48/87/174
f 48/87/175 50/55/176 47/54/177
f 66/88/178 49/86/179 46/89/180
f 46/89/181 48/87/182 45/90/183
f 45/90/184 47/54/185 44/53/186
f 65/91/187 46/89/188 41/66/189
f 41/66/190 45/90/191 42/68/192
f 42/68/193 44/53/194 43/50/195
f 90/92/196 74/93/197 89/94/198
f 91/95/199 76/96/200 90/92/199
f 91/95/201 80/97/202 78/98/202
f 92/99/203 82/100/204 80/97/204
f 93/101/205 84/102/206 82/100/206
f 94/103/207 86/48/208 84/102/208
f 89/94/209 88/104/210 96/47/209
f 33/52/19 34/51/19 40/62/19
f 35/15/19 40/62/19 34/51/19
f 5/8/211 4/6/211 6/10/211
f 4/6/211 7/105/211 6/10/211
f 3/4/211 8/17/211 7/106/211
f 1/19/211 8/17/211 2/2/211
f 87/107/212 89/94/209 96/47/209
f 85/108/213 94/103/207 83/109/213
f 83/109/214 93/101/205 81/110/214
f 81/110/215 92/99/203 79/111/215
f 79/111/216 91/95/201 77/112/216
f 75/113/217 91/95/199 90/92/199
f 73/114/218 90/92/196 89/94/198
f 85/108/219 96/47/98 95/49/98
f 12/3/4 2/2/220 3/4/5
f 15/5/7 3/4/221 4/6/8
f 18/7/10 4/6/222 5/8/11
f 21/9/13 5/8/223 6/10/14
f 69/35/53 23/36/224 26/29/54
f 23/36/56 22/37/225 25/32/57
f 22/37/59 21/9/226 24/11/60
f 68/38/62 20/39/227 23/36/63
f 20/39/65 19/40/228 22/37/66
f 19/40/68 18/7/229 21/9/69
f 67/41/71 17/42/230 20/39/72
f 17/42/74 16/43/231 19/40/75
f 16/43/77 15/5/232 18/7/78
f 66/44/80 14/45/233 17/42/81
f 14/45/83 13/46/234 16/43/84
f 13/46/86 12/3/235 15/5/87
f 44/53/103 47/54/236 35/15/104
f 47/54/106 50/55/237 36/13/107
f 50/55/109 53/57/238 37/56/110
f 53/57/112 56/60/239 38/58/113
f 69/79/151 70/75/240 58/74/152
f 55/80/154 58/74/241 57/77/155
f 54/81/157 57/77/242 56/60/158
f 68/82/160 69/79/243 55/80/161
f 52/83/163 55/80/244 54/81/164
f 51/84/166 54/81/245 53/57/167
f 67/85/169 68/82/246 52/83/170
f 49/86/172 52/83/247 51/84/173
f 48/87/175 51/84/248 50/55/176
f 66/88/178 67/85/249 49/86/179
f 46/89/181 49/86/250 48/87/182
f 45/90/184 48/87/251 47/54/185
f 11/1/1 1/19/252 2/2/2
f 6/10/16 7/105/253 27/12/17
f 36/13/19 38/58/19 39/14/19
f 27/16/20 7/106/254 8/17/21
f 30/18/23 8/17/255 1/19/24
f 72/20/26 32/23/256 9/21/27
f 32/23/29 31/25/257 10/24/30
f 31/25/32 30/18/258 11/1/33
f 71/26/35 29/27/259 32/23/36
f 29/27/38 28/28/260 31/25/39
f 28/28/41 27/16/261 30/18/42
f 26/29/44 29/33/262 71/30/45
f 25/32/47 28/34/263 29/33/48
f 24/11/50 27/12/264 28/34/51
f 65/22/89 9/21/265 14/45/90
f 9/21/92 10/24/266 13/46/93
f 10/24/95 11/1/267 12/3/96
f 96/47/98 88/104/99 86/48/99
f 43/50/100 44/53/268 34/51/101
f 59/59/115 39/14/269 38/58/116
f 59/61/118 62/64/270 40/62/119
f 62/64/121 43/50/271 33/52/122
f 72/65/124 65/91/272 41/66/125
f 64/67/127 41/66/273 42/68/128
f 63/69/130 42/68/274 43/50/131
f 71/70/133 72/65/275 64/67/134
f 61/71/136 64/67/276 63/69/137
f 60/72/139 63/69/277 62/64/140
f 71/73/142 61/76/278 58/74/143
f 61/76/145 60/78/279 57/77/146
f 60/78/148 59/59/280 56/60/149
f 65/91/187 66/88/281 46/89/188
f 41/66/190 46/89/282 45/90/191
f 42/68/193 45/90/283 44/53/194
f 90/92/196 76/96/197 74/93/197
f 91/95/199 78/98/200 76/96/200
f 91/95/201 92/99/201 80/97/202
f 92/99/203 93/101/203 82/100/204
f 93/101/205 94/103/284 84/102/206
f 94/103/207 95/49/207 86/48/208
f 89/94/209 74/93/210 88/104/210
f 35/15/19 39/63/19 40/62/19
f 4/6/211 3/4/211 7/105/211
f 3/4/211 2/2/211 8/17/211
f 87/107/212 73/114/212 89/94/209
f 85/108/213 95/49/207 94/103/207
f 83/109/214 94/103/284 93/101/205
f 81/110/215 93/101/203 92/99/203
f 79/111/216 92/99/201 91/95/201
f 75/113/217 77/112/217 91/95/199
f 73/114/218 75/113/218 90/92/196
f 85/108/219 87/107/219 96/47/98
