# Blender v2.82 (sub 7) OBJ File: ''
# www.blender.org
mtllib bow_000034.mtl
o Bow_Cylinder
v 1.195703 2.397185 -0.141605
v 1.185815 2.480938 -0.100131
v 1.181719 2.515630 -0.000002
v 1.185815 2.480938 0.100126
v 1.195702 2.397185 0.141601
v 1.205590 2.313432 0.100126
v 1.209686 2.278740 -0.000002
v 1.205590 2.313432 -0.100130
v 2.134824 0.346815 -0.141603
v 1.987904 1.038030 -0.141603
v 1.720200 1.723925 -0.141604
v 1.789369 1.726153 -0.100129
v 2.074513 1.039800 -0.100129
v 2.224712 0.347750 -0.100128
v 1.818023 1.727020 -0.000001
v 2.110389 1.040493 -0.000000
v 2.261946 0.348029 0.000000
v 1.789371 1.726198 0.100127
v 2.074512 1.039880 0.100128
v 2.224712 0.347749 0.100128
v 1.720209 1.723922 0.141602
v 1.987910 1.038032 0.141602
v 2.134824 0.346815 0.141603
v 1.651063 1.721214 0.100127
v 1.901325 1.035455 0.100128
v 2.044945 0.345178 0.100128
v 1.622425 1.719991 -0.000001
v 1.865463 1.034276 -0.000001
v 2.007720 0.344387 -0.000000
v 1.651059 1.721261 -0.100130
v 1.901323 1.035521 -0.100129
v 2.044946 0.345169 -0.100129
v 1.192053 -2.395508 -0.141603
v 1.182017 -2.479243 -0.100128
v 1.177859 -2.513928 0.000000
v 1.182017 -2.479243 0.100128
v 1.192053 -2.395508 0.141603
v 1.202090 -2.311773 0.100128
v 1.206247 -2.277088 -0.000000
v 1.202090 -2.311773 -0.100128
v 2.134824 -0.346814 -0.141603
v 1.986673 -1.037765 -0.141603
v 1.717748 -1.723182 -0.141603
v 1.786914 -1.725533 -0.100128
v 2.073279 -1.039690 -0.100128
v 2.224711 -0.347772 -0.100128
v 1.815566 -1.726451 0.000000
v 2.109154 -1.040446 0.000000
v 2.261945 -0.348043 0.000000
v 1.786915 -1.725578 0.100128
v 2.073278 -1.039769 0.100128
v 2.224711 -0.347771 0.100128
v 1.717758 -1.723179 0.141603
v 1.986679 -1.037767 0.141603
v 2.134824 -0.346814 0.141603
v 1.648617 -1.720348 0.100128
v 1.900100 -1.035036 0.100128
v 2.044948 -0.345038 0.100128
v 1.619980 -1.719074 0.000000
v 1.864239 -1.033793 0.000000
v 2.007724 -0.344172 0.000000
v 1.648612 -1.720395 -0.100128
v 1.900097 -1.035101 -0.100128
v 2.044948 -0.345028 -0.100128
v 2.155554 0.000000 -0.141603
v 2.246297 0.000000 -0.100128
v 2.283884 0.000000 0.000000
v 2.246297 0.000000 0.100128
v 2.155554 0.000000 0.141603
v 2.064811 0.000000 0.100128
v 2.027224 0.000000 -0.000000
v 2.064811 0.000000 -0.100128
v 1.273143 2.278512 -0.026695
v 1.269705 -2.276973 -0.026694
v 1.292002 2.279277 -0.018877
v 1.288563 -2.277772 -0.018875
v 1.299814 2.279594 -0.000002
v 1.296374 -2.278102 0.000000
v 1.292002 2.279277 0.018873
v 1.288563 -2.277772 0.018875
v 1.273143 2.278512 0.026692
v 1.269705 -2.276973 0.026694
v 1.254283 2.277747 0.018873
v 1.250847 -2.276175 0.018875
v 1.246471 2.277431 -0.000002
v 1.243035 -2.275844 -0.000000
v 1.254284 2.277747 -0.018877
v 1.250847 -2.276175 -0.018875
v 0.670709 0.000000 -0.026694
v 0.689584 -0.000000 -0.018875
v 0.697403 -0.000000 -0.000000
v 0.689584 -0.000000 0.018875
v 0.670709 -0.000000 0.026693
v 0.651834 -0.000000 0.018875
v 0.644016 -0.000000 -0.000000
v 0.651834 -0.000000 -0.018875
vt 0.415512 0.435877
vt 0.400099 0.697333
vt 0.403102 0.391658
vt 0.363795 0.918795
vt 0.365342 0.371239
vt 0.329116 0.695481
vt 0.327496 0.392348
vt 0.320164 0.664925
vt 0.314951 0.436624
vt 0.315153 0.701007
vt 0.300410 0.490184
vt 0.268850 0.518222
vt 0.164551 0.690291
vt 0.162885 0.929390
vt 0.124572 0.911161
vt 0.461378 0.516577
vt 0.414213 0.700837
vt 0.429881 0.489274
vt 0.409216 0.665592
vt 0.445757 0.183823
vt 0.420971 0.141474
vt 0.426085 0.118748
vt 0.440749 0.206831
vt 0.419264 0.252824
vt 0.434015 0.316403
vt 0.478969 0.225812
vt 0.475238 0.247511
vt 0.468580 0.349640
vt 0.290702 0.208573
vt 0.252454 0.228467
vt 0.285793 0.185708
vt 0.296979 0.317836
vt 0.256096 0.250048
vt 0.262347 0.351838
vt 0.305723 0.120183
vt 0.310743 0.142781
vt 0.311970 0.254023
vt 0.328331 0.059376
vt 0.331398 0.083632
vt 0.329530 0.190214
vt 0.366080 0.032501
vt 0.366029 0.057475
vt 0.365803 0.164989
vt 0.403723 0.058469
vt 0.400555 0.082803
vt 0.401974 0.189372
vt 0.927082 0.502568
vt 0.597959 0.094171
vt 0.597959 0.502569
vt 0.084417 0.425353
vt 0.093581 0.687590
vt 0.085228 0.655296
vt 0.097874 0.381957
vt 0.136090 0.363958
vt 0.173403 0.387462
vt 0.174224 0.660330
vt 0.184883 0.432511
vt 0.178371 0.696702
vt 0.229007 0.516999
vt 0.198137 0.486964
vt 0.036661 0.503074
vt 0.079396 0.690193
vt 0.084817 0.926901
vt 0.068785 0.477796
vt 0.060205 0.171557
vt 0.085982 0.130816
vt 0.064660 0.194867
vt 0.085033 0.242194
vt 0.068777 0.304788
vt 0.026016 0.211401
vt 0.029227 0.233322
vt 0.033444 0.335800
vt 0.252303 0.228478
vt 0.214556 0.206162
vt 0.220008 0.183625
vt 0.248150 0.249811
vt 0.205677 0.314949
vt 0.239475 0.351135
vt 0.201655 0.116878
vt 0.196100 0.139140
vt 0.192219 0.250224
vt 0.180514 0.054675
vt 0.176870 0.078719
vt 0.176195 0.185342
vt 0.143433 0.025416
vt 0.142888 0.050375
vt 0.140549 0.157826
vt 0.105197 0.048969
vt 0.107783 0.073487
vt 0.103823 0.179889
vt 0.081413 0.107781
vt 0.833047 0.502568
vt 0.880064 0.094170
vt 0.880065 0.502568
vt 0.786029 0.502569
vt 0.833046 0.094170
vt 0.739011 0.094171
vt 0.786029 0.094171
vt 0.739012 0.502569
vt 0.691994 0.094171
vt 0.691994 0.502569
vt 0.644976 0.094171
vt 0.644977 0.502569
vt 0.927081 0.094170
vt 0.403149 0.937053
vt 0.927084 0.910966
vt 0.597959 0.910967
vt 0.644977 0.910967
vt 0.691995 0.910967
vt 0.739013 0.910967
vt 0.786030 0.910967
vt 0.833048 0.910967
vt 0.880066 0.910967
vt 0.325070 0.934563
vn 0.4704 0.3758 -0.7984
vn 0.5356 0.4183 -0.7336
vn 0.4680 0.3742 -0.8006
vn 0.7593 0.6124 -0.2200
vn 0.7674 0.6140 -0.1847
vn 0.7588 0.6122 -0.2224
vn 0.7617 0.6095 0.2199
vn 0.7650 0.6169 0.1849
vn 0.7613 0.6088 0.2229
vn 0.4740 0.3700 0.7990
vn 0.5301 0.4236 0.7346
vn 0.4697 0.3659 0.8034
vn -0.4764 -0.3594 0.8024
vn -0.5408 -0.4208 0.7284
vn -0.4708 -0.3541 0.8080
vn -0.7911 -0.5855 0.1770
vn -0.7791 -0.5852 0.2249
vn -0.7778 -0.5851 0.2296
vn -0.9929 0.1190 -0.0000
vn -0.7790 -0.5852 -0.2251
vn -0.7911 -0.5855 -0.1770
vn -0.7777 -0.5851 -0.2298
vn -0.4718 -0.3670 -0.8017
vn -0.5480 -0.4138 -0.7270
vn -0.4685 -0.3650 -0.8045
vn -0.4161 -0.0247 -0.9090
vn -0.4180 -0.0242 -0.9081
vn -0.4156 -0.0248 -0.9092
vn -0.4170 -0.0885 -0.9046
vn -0.4272 -0.0890 -0.8998
vn -0.4160 -0.0884 -0.9050
vn -0.4269 -0.1659 -0.8889
vn -0.4953 -0.1815 -0.8496
vn -0.4222 -0.1648 -0.8914
vn -0.9350 -0.0537 -0.3504
vn -0.9357 -0.0532 -0.3488
vn -0.9349 -0.0538 -0.3509
vn -0.9199 -0.1912 -0.3424
vn -0.9231 -0.1905 -0.3341
vn -0.9195 -0.1913 -0.3434
vn -0.8910 -0.3244 -0.3175
vn -0.9075 -0.3225 -0.2693
vn -0.8892 -0.3245 -0.3225
vn -0.9357 -0.0532 0.3488
vn -0.9350 -0.0536 0.3504
vn -0.9349 -0.0538 0.3509
vn -0.9231 -0.1905 0.3340
vn -0.9199 -0.1912 0.3424
vn -0.9195 -0.1913 0.3434
vn -0.9075 -0.3225 0.2692
vn -0.8911 -0.3244 0.3174
vn -0.8893 -0.3245 0.3223
vn -0.4161 -0.0241 0.9090
vn -0.4180 -0.0248 0.9081
vn -0.4156 -0.0239 0.9092
vn -0.4172 -0.0870 0.9046
vn -0.4269 -0.0906 0.8998
vn -0.4161 -0.0866 0.9052
vn -0.4293 -0.1577 0.8893
vn -0.4921 -0.1911 0.8493
vn -0.4231 -0.1544 0.8928
vn 0.4161 0.0250 0.9090
vn 0.4180 0.0258 0.9081
vn 0.4156 0.0248 0.9092
vn 0.4177 0.0890 0.9042
vn 0.4273 0.0926 0.8994
vn 0.4166 0.0885 0.9048
vn 0.4293 0.1686 0.8873
vn 0.4914 0.2032 0.8469
vn 0.4231 0.1651 0.8909
vn 0.9348 0.0582 0.3503
vn 0.9354 0.0588 0.3486
vn 0.9346 0.0580 0.3509
vn 0.9186 0.1995 0.3410
vn 0.9213 0.2015 0.3325
vn 0.9183 0.1993 0.3420
vn 0.8775 0.3654 0.3107
vn 0.8879 0.3773 0.2631
vn 0.8761 0.3640 0.3161
vn 0.9348 0.0588 -0.3503
vn 0.9355 0.0582 -0.3486
vn 0.9346 0.0589 -0.3508
vn 0.9184 0.2008 -0.3410
vn 0.9216 0.2002 -0.3327
vn 0.9180 0.2009 -0.3419
vn 0.8748 0.3718 -0.3107
vn 0.8906 0.3708 -0.2634
vn 0.8731 0.3718 -0.3154
vn 0.4161 0.0257 -0.9090
vn 0.4181 0.0252 -0.9081
vn 0.4156 0.0258 -0.9092
vn 0.4174 0.0904 -0.9042
vn 0.4276 0.0910 -0.8994
vn 0.4165 0.0904 -0.9046
vn 0.4268 0.1766 -0.8869
vn 0.4946 0.1938 -0.8472
vn 0.4223 0.1754 -0.8893
vn -0.9239 0.0006 -0.3827
vn -0.8992 -0.2366 -0.3680
vn -0.9239 0.0005 -0.3827
vn 0.4697 -0.3766 -0.7984
vn 0.5349 -0.4192 -0.7336
vn 0.5425 -0.4242 -0.7251
vn 0.7583 -0.6137 -0.2200
vn 0.7663 -0.6154 -0.1847
vn 0.7670 -0.6155 -0.1814
vn 0.7606 -0.6109 0.2199
vn 0.7639 -0.6183 0.1849
vn 0.7641 -0.6187 0.1826
vn 0.4733 -0.3708 0.7990
vn 0.5293 -0.4245 0.7346
vn 0.5312 -0.4263 0.7322
vn -0.4758 0.3603 0.8024
vn -0.5400 0.4218 0.7284
vn -0.5425 0.4242 0.7251
vn -0.7781 0.5866 0.2249
vn -0.7901 0.5869 0.1770
vn -0.7768 0.5865 0.2296
vn -0.7780 0.5866 -0.2251
vn -0.7901 0.5869 -0.1770
vn -0.7915 0.5869 -0.1704
vn -0.4712 0.3679 -0.8017
vn -0.5472 0.4147 -0.7270
vn -0.5577 0.4211 -0.7153
vn -0.4161 0.0247 -0.9090
vn -0.4180 0.0242 -0.9081
vn -0.4185 0.0241 -0.9079
vn -0.4168 0.0892 -0.9046
vn -0.4271 0.0898 -0.8998
vn -0.4280 0.0898 -0.8993
vn -0.4266 0.1666 -0.8889
vn -0.4949 0.1824 -0.8496
vn -0.5002 0.1836 -0.8462
vn -0.9350 0.0537 -0.3504
vn -0.9357 0.0532 -0.3489
vn -0.9359 0.0530 -0.3484
vn -0.9195 0.1929 -0.3424
vn -0.9228 0.1922 -0.3341
vn -0.9231 0.1921 -0.3331
vn -0.8905 0.3260 -0.3175
vn -0.9069 0.3241 -0.2693
vn -0.9085 0.3238 -0.2641
vn -0.9350 0.0537 0.3504
vn -0.9357 0.0532 0.3489
vn -0.9349 0.0538 0.3509
vn -0.9195 0.1929 0.3424
vn -0.9228 0.1922 0.3340
vn -0.9192 0.1930 0.3434
vn -0.8905 0.3260 0.3174
vn -0.9069 0.3241 0.2692
vn -0.8887 0.3261 0.3223
vn -0.4161 0.0241 0.9090
vn -0.4179 0.0248 0.9081
vn -0.4185 0.0250 0.9079
vn -0.4171 0.0877 0.9046
vn -0.4267 0.0913 0.8998
vn -0.4278 0.0917 0.8992
vn -0.4291 0.1585 0.8893
vn -0.4917 0.1919 0.8493
vn -0.4986 0.1956 0.8445
vn 0.4161 -0.0250 0.9090
vn 0.4180 -0.0258 0.9081
vn 0.4186 -0.0260 0.9078
vn 0.4176 -0.0897 0.9042
vn 0.4272 -0.0933 0.8993
vn 0.4283 -0.0937 0.8988
vn 0.4290 -0.1693 0.8873
vn 0.4910 -0.2040 0.8469
vn 0.4978 -0.2078 0.8420
vn 0.9348 -0.0582 0.3503
vn 0.9354 -0.0588 0.3486
vn 0.9356 -0.0590 0.3481
vn 0.9183 -0.2011 0.3409
vn 0.9210 -0.2031 0.3325
vn 0.9213 -0.2033 0.3315
vn 0.8768 -0.3670 0.3107
vn 0.8873 -0.3789 0.2631
vn 0.8883 -0.3802 0.2575
vn 0.9348 -0.0588 -0.3503
vn 0.9355 -0.0582 -0.3486
vn 0.9357 -0.0581 -0.3481
vn 0.9181 -0.2024 -0.3409
vn 0.9212 -0.2018 -0.3326
vn 0.9216 -0.2017 -0.3317
vn 0.8741 -0.3733 -0.3107
vn 0.8899 -0.3724 -0.2634
vn 0.8914 -0.3722 -0.2585
vn 0.4161 -0.0257 -0.9090
vn 0.4181 -0.0252 -0.9081
vn 0.4186 -0.0250 -0.9078
vn 0.4174 -0.0912 -0.9042
vn 0.4275 -0.0918 -0.8994
vn 0.4284 -0.0919 -0.8989
vn 0.4265 -0.1774 -0.8869
vn 0.4943 -0.1947 -0.8472
vn 0.4994 -0.1959 -0.8439
vn 0.3827 -0.0003 -0.9239
vn 0.3847 0.1012 -0.9175
vn 0.3827 -0.0002 -0.9239
vn 0.9239 -0.0006 -0.3827
vn 0.8992 0.2364 -0.3680
vn 0.9239 -0.0005 -0.3827
vn 0.9239 -0.0006 0.3827
vn 0.8992 0.2364 0.3680
vn 0.8993 0.2364 0.3680
vn 0.3827 -0.0003 0.9239
vn 0.3847 0.1012 0.9175
vn -0.3827 0.0003 0.9239
vn -0.3846 -0.1012 0.9175
vn -0.3847 -0.1012 0.9175
vn -0.9239 0.0006 0.3827
vn -0.8992 -0.2366 0.3680
vn -0.3827 0.0003 -0.9239
vn -0.3846 -0.1012 -0.9175
vn -0.3827 0.0002 -0.9239
vn -0.9931 -0.1172 -0.0000
vn -0.3845 0.1017 -0.9175
vn -0.8989 0.2378 0.3681
vn -0.8989 0.2378 0.3680
vn -0.3845 0.1017 0.9175
vn 0.3845 -0.1016 0.9175
vn 0.8989 -0.2376 0.3681
vn 0.8989 -0.2376 -0.3681
vn 0.3845 -0.1016 -0.9175
vn -0.8989 0.2377 -0.3681
vn 0.7681 0.6142 -0.1814
vn 0.7652 0.6174 0.1826
vn 0.5319 0.4254 0.7322
vn -0.5432 -0.4232 0.7251
vn -0.4185 -0.0250 0.9079
vn -0.4280 -0.0910 0.8992
vn -0.4989 -0.1947 0.8445
vn 0.4186 0.0260 0.9078
vn 0.4284 0.0930 0.8988
vn 0.4981 0.2070 0.8420
vn 0.9356 0.0590 0.3481
vn 0.9216 0.2017 0.3315
vn 0.8890 0.3786 0.2575
vn 0.9357 0.0581 -0.3481
vn 0.9219 0.2001 -0.3317
vn 0.8921 0.3706 -0.2585
vn 0.7577 -0.6136 -0.2224
vn 0.7603 -0.6102 0.2229
vn 0.4691 -0.3668 0.8034
vn -0.4702 0.3550 0.8080
vn -0.4156 0.0239 0.9092
vn -0.4160 0.0873 0.9052
vn -0.4228 0.1552 0.8928
vn 0.4156 -0.0248 0.9092
vn 0.4165 -0.0893 0.9047
vn 0.4228 -0.1659 0.8909
vn 0.9346 -0.0580 0.3509
vn 0.9180 -0.2009 0.3419
vn 0.8755 -0.3656 0.3161
vn 0.9346 -0.0589 -0.3508
vn 0.9177 -0.2025 -0.3418
vn 0.8724 -0.3734 -0.3154
vn 0.5432 0.4232 -0.7251
vn -0.7926 -0.5855 0.1704
vn -0.7926 -0.5855 -0.1704
vn -0.5585 -0.4201 -0.7153
vn -0.4185 -0.0241 -0.9079
vn -0.4282 -0.0891 -0.8993
vn -0.5006 -0.1827 -0.8462
vn -0.9359 -0.0530 -0.3484
vn -0.9235 -0.1904 -0.3331
vn -0.9091 -0.3222 -0.2641
vn -0.9359 -0.0530 0.3484
vn -0.9235 -0.1904 0.3330
vn -0.9091 -0.3222 0.2640
vn 0.4186 0.0250 -0.9078
vn 0.4286 0.0911 -0.8989
vn 0.4997 0.1950 -0.8439
vn 0.4673 -0.3751 -0.8006
vn -0.7915 0.5869 0.1704
vn -0.7767 0.5864 -0.2298
vn -0.4679 0.3658 -0.8045
vn -0.4156 0.0248 -0.9092
vn -0.4159 0.0892 -0.9050
vn -0.4219 0.1655 -0.8914
vn -0.9349 0.0538 -0.3509
vn -0.9192 0.1929 -0.3434
vn -0.8886 0.3261 -0.3225
vn -0.9359 0.0530 0.3484
vn -0.9232 0.1921 0.3330
vn -0.9085 0.3238 0.2640
vn 0.4156 -0.0258 -0.9092
vn 0.4164 -0.0911 -0.9046
vn 0.4220 -0.1762 -0.8893
vn 0.8993 0.2364 -0.3680
vn 0.9239 -0.0005 0.3827
vn 0.3827 -0.0002 0.9239
vn -0.3827 0.0002 0.9239
vn -0.9239 0.0005 0.3827
vn -0.3847 -0.1012 -0.9175
vn -0.8989 0.2378 -0.3681
usemtl Bow_Texture
s 1
f 11/1/1 2/2/2 12/3/3
f 12/3/4 3/4/5 15/5/6
f 15/5/7 4/6/8 18/7/9
f 18/7/10 5/8/11 21/9/12
f 21/9/13 6/10/14 24/11/15
f 6/10/16 27/12/17 24/11/18
f 36/13/19 39/14/19 35/15/19
f 27/16/20 8/17/21 30/18/22
f 30/18/23 1/19/24 11/1/25
f 72/20/26 9/21/27 65/22/28
f 32/23/29 10/24/30 9/21/31
f 31/25/32 11/1/33 10/24/34
f 71/26/35 32/23/36 72/20/37
f 29/27/38 31/25/39 32/23/40
f 28/28/41 30/18/42 31/25/43
f 26/29/44 71/30/45 70/31/46
f 25/32/47 29/33/48 26/29/49
f 24/11/50 28/34/51 25/32/52
f 69/35/53 26/29/54 70/31/55
f 23/36/56 25/32/57 26/29/58
f 22/37/59 24/11/60 25/32/61
f 68/38/62 23/36/63 69/35/64
f 20/39/65 22/37/66 23/36/67
f 19/40/68 21/9/69 22/37/70
f 67/41/71 20/39/72 68/38/73
f 17/42/74 19/40/75 20/39/76
f 16/43/77 18/7/78 19/40/79
f 66/44/80 17/42/81 67/41/82
f 14/45/83 16/43/84 17/42/85
f 13/46/86 15/5/87 16/43/88
f 65/22/89 14/45/90 66/44/91
f 9/21/92 13/46/93 14/45/94
f 10/24/95 12/3/96 13/46/97
f 96/47/98 86/48/99 95/49/100
f 43/50/101 34/51/102 33/52/103
f 44/53/104 35/15/105 34/51/106
f 47/54/107 36/13/108 35/15/109
f 50/55/110 37/56/111 36/13/112
f 53/57/113 38/58/114 37/56/115
f 59/59/116 38/58/117 56/60/118
f 37/56/19 38/58/19 36/13/19
f 59/61/119 40/62/120 39/63/121
f 62/64/122 33/52/123 40/62/124
f 72/65/125 41/66/126 64/67/127
f 64/67/128 42/68/129 63/69/130
f 63/69/131 43/50/132 62/64/133
f 71/70/134 64/67/135 61/71/136
f 61/71/137 63/69/138 60/72/139
f 60/72/140 62/64/141 59/61/142
f 71/73/143 58/74/144 70/75/145
f 61/76/146 57/77/147 58/74/148
f 60/78/149 56/60/150 57/77/151
f 69/79/152 58/74/153 55/80/154
f 55/80/155 57/77/156 54/81/157
f 54/81/158 56/60/159 53/57/160
f 68/82/161 55/80/162 52/83/163
f 52/83/164 54/81/165 51/84/166
f 51/84/167 53/57/168 50/55/169
f 67/85/170 52/83/171 49/86/172
f 49/86/173 51/84/174 48/87/175
f 48/87/176 50/55/177 47/54/178
f 66/88/179 49/86/180 46/89/181
f 46/89/182 48/87/183 45/90/184
f 45/90/185 47/54/186 44/53/187
f 65/91/188 46/89/189 41/66/190
f 41/66/191 45/90/192 42/68/193
f 42/68/194 44/53/195 43/50/196
f 90/92/197 74/93/198 89/94/199
f 91/95/200 76/96/201 90/92/202
f 91/95/203 80/97/204 78/98/205
f 92/99/206 82/100/207 80/97/207
f 93/101/208 84/102/209 82/100/210
f 94/103/211 86/48/212 84/102/212
f 89/94/213 88/104/214 96/47/215
f 33/52/19 34/51/19 40/62/19
f 35/15/19 40/62/19 34/51/19
f 5/8/216 4/6/216 6/10/216
f 3/4/216 6/10/216 4/6/216
f 3/4/216 8/17/216 7/105/216
f 1/19/216 8/17/216 2/2/216
f 87/106/217 89/94/213 96/47/215
f 85/107/218 94/103/211 83/108/219
f 83/108/220 93/101/208 81/109/220
f 81/109/221 92/99/206 79/110/221
f 79/110/222 91/95/203 77/111/222
f 75/112/223 91/95/200 90/92/202
f 73/113/224 90/92/197 89/94/199
f 85/107/225 96/47/98 95/49/100
f 12/3/4 2/2/226 3/4/5
f 15/5/7 3/4/227 4/6/8
f 18/7/10 4/6/228 5/8/11
f 21/9/13 5/8/229 6/10/14
f 69/35/53 23/36/230 26/29/54
f 23/36/56 22/37/231 25/32/57
f 22/37/59 21/9/232 24/11/60
f 68/38/62 20/39/233 23/36/63
f 20/39/65 19/40/234 22/37/66
f 19/40/68 18/7/235 21/9/69
f 67/41/71 17/42/236 20/39/72
f 17/42/74 16/43/237 19/40/75
f 16/43/77 15/5/238 18/7/78
f 66/44/80 14/45/239 17/42/81
f 14/45/83 13/46/240 16/43/84
f 13/46/86 12/3/241 15/5/87
f 44/53/104 47/54/242 35/15/105
f 47/54/107 50/55/243 36/13/108
f 50/55/110 53/57/244 37/56/111
f 53/57/113 56/60/245 38/58/114
f 69/79/152 70/75/246 58/74/153
f 55/80/155 58/74/247 57/77/156
f 54/81/158 57/77/248 56/60/159
f 68/82/161 69/79/249 55/80/162
f 52/83/164 55/80/250 54/81/165
f 51/84/167 54/81/251 53/57/168
f 67/85/170 68/82/252 52/83/171
f 49/86/173 52/83/253 51/84/174
f 48/87/176 51/84/254 50/55/177
f 66/88/179 67/85/255 49/86/180
f 46/89/182 49/86/256 48/87/183
f 45/90/185 48/87/257 47/54/186
f 11/1/1 1/19/258 2/2/2
f 6/10/16 7/114/259 27/12/17
f 36/13/19 38/58/19 39/14/19
f 27/16/20 7/105/260 8/17/21
f 30/18/23 8/17/261 1/19/24
f 72/20/26 32/23/262 9/21/27
f 32/23/29 31/25/263 10/24/30
f 31/25/32 30/18/264 11/1/33
f 71/26/35 29/27/265 32/23/36
f 29/27/38 28/28/266 31/25/39
f 28/28/41 27/16/267 30/18/42
f 26/29/44 29/33/268 71/30/45
f 25/32/47 28/34/269 29/33/48
f 24/11/50 27/12/270 28/34/51
f 65/22/89 9/21/271 14/45/90
f 9/21/92 10/24/272 13/46/93
f 10/24/95 11/1/273 12/3/96
f 96/47/98 88/104/99 86/48/99
f 43/50/101 44/53/274 34/51/102
f 59/59/116 39/14/275 38/58/117
f 59/61/119 62/64/276 40/62/120
f 62/64/122 43/50/277 33/52/123
f 72/65/125 65/91/278 41/66/126
f 64/67/128 41/66/279 42/68/129
f 63/69/131 42/68/280 43/50/132
f 71/70/134 72/65/281 64/67/135
f 61/71/137 64/67/282 63/69/138
f 60/72/140 63/69/283 62/64/141
f 71/73/143 61/76/284 58/74/144
f 61/76/146 60/78/285 57/77/147
f 60/78/149 59/59/286 56/60/150
f 65/91/188 66/88/287 46/89/189
f 41/66/191 46/89/288 45/90/192
f 42/68/194 45/90/289 44/53/195
f 90/92/197 76/96/198 74/93/198
f 91/95/200 78/98/290 76/96/201
f 91/95/203 92/99/291 80/97/204
f 92/99/206 93/101/292 82/100/207
f 93/101/208 94/103/293 84/102/209
f 94/103/211 95/49/294 86/48/212
f 89/94/213 74/93/295 88/104/214
f 35/15/19 39/63/19 40/62/19
f 3/4/216 7/114/216 6/10/216
f 3/4/216 2/2/216 8/17/216
f 87/106/217 73/113/217 89/94/213
f 85/107/218 95/49/294 94/103/211
f 83/108/220 94/103/293 93/101/208
f 81/109/221 93/101/292 92/99/206
f 79/110/222 92/99/291 91/95/203
f 75/112/223 77/111/223 91/95/200
f 73/113/224 75/112/224 90/92/197
f 85/107/225 87/106/296 96/47/98
