# Blender v2.82 (sub 7) OBJ File: ''
# www.blender.org
mtllib bow_000072.mtl
o Bow_Cylinder
v 1.259770 2.427985 -0.141605
v 1.253188 2.512063 -0.100130
v 1.250462 2.546889 -0.000002
v 1.253188 2.512063 0.100126
v 1.259769 2.427985 0.141601
v 1.266352 2.343907 0.100126
v 1.269078 2.309082 -0.000002
v 1.266352 2.343907 -0.100130
v 2.137883 0.346989 -0.141603
v 2.004189 1.040887 -0.141603
v 1.757379 1.734583 -0.141604
v 1.826592 1.734663 -0.100129
v 2.090820 1.040941 -0.100129
v 2.227774 0.346997 -0.100128
v 1.855261 1.734696 -0.000001
v 2.126704 1.040962 -0.000000
v 2.265009 0.346995 0.000000
v 1.826592 1.734663 0.100127
v 2.090820 1.040945 0.100128
v 2.227774 0.346997 0.100128
v 1.757379 1.734583 0.141602
v 2.004189 1.040887 0.141602
v 2.137883 0.346989 0.141603
v 1.688165 1.734503 0.100127
v 1.917557 1.040795 0.100128
v 2.047991 0.346943 0.100128
v 1.659497 1.734470 -0.000001
v 1.881674 1.040752 -0.000001
v 2.010757 0.346918 -0.000000
v 1.688166 1.734503 -0.100130
v 1.917558 1.040798 -0.100129
v 2.047991 0.346942 -0.100129
v 1.260411 -2.428256 -0.141603
v 1.253855 -2.512335 -0.100128
v 1.251140 -2.547162 0.000000
v 1.253855 -2.512335 0.100128
v 1.260411 -2.428256 0.141603
v 1.266968 -2.344176 0.100128
v 1.269683 -2.309350 0.000000
v 1.266968 -2.344176 -0.100128
v 2.137883 -0.346989 -0.141603
v 2.004404 -1.040928 -0.141603
v 1.757807 -1.734700 -0.141603
v 1.827021 -1.734758 -0.100128
v 2.091034 -1.040956 -0.100128
v 2.227775 -0.346993 -0.100128
v 1.855690 -1.734782 0.000000
v 2.126918 -1.040965 0.000000
v 2.265009 -0.346993 0.000000
v 1.827021 -1.734758 0.100128
v 2.091034 -1.040960 0.100128
v 2.227775 -0.346993 0.100128
v 1.757807 -1.734700 0.141603
v 2.004404 -1.040928 0.141603
v 2.137883 -0.346989 0.141603
v 1.688594 -1.734641 0.100128
v 1.917772 -1.040863 0.100128
v 2.047991 -0.346966 0.100128
v 1.659925 -1.734617 0.000000
v 1.881888 -1.040830 0.000000
v 2.010757 -0.346955 0.000000
v 1.688594 -1.734641 -0.100128
v 1.917772 -1.040866 -0.100128
v 2.047991 -0.346966 -0.100128
v 2.155554 0.000000 -0.141603
v 2.246301 0.000000 -0.100128
v 2.283889 0.000000 0.000000
v 2.246301 0.000000 0.100128
v 2.155554 0.000000 0.141603
v 2.064807 0.000000 0.100128
v 2.027219 0.000000 -0.000000
v 2.064807 0.000000 -0.100128
v 1.332477 2.306355 -0.026695
v 1.333081 -2.306603 -0.026693
v 1.351352 2.306376 -0.018877
v 1.351956 -2.306619 -0.018875
v 1.359170 2.306385 -0.000002
v 1.359775 -2.306626 0.000000
v 1.351352 2.306376 0.018873
v 1.351956 -2.306619 0.018875
v 1.332477 2.306355 0.026692
v 1.333081 -2.306603 0.026694
v 1.313602 2.306333 0.018873
v 1.314206 -2.306587 0.018875
v 1.305784 2.306324 -0.000002
v 1.306388 -2.306581 0.000000
v 1.313602 2.306333 -0.018877
v 1.314206 -2.306587 -0.018875
v 1.593687 0.000000 -0.026694
v 1.612562 -0.000000 -0.018875
v 1.620380 -0.000000 -0.000000
v 1.612562 -0.000000 0.018875
v 1.593687 -0.000000 0.026693
v 1.574812 -0.000000 0.018875
v 1.566993 -0.000000 -0.000000
v 1.574812 -0.000000 -0.018875
vt 0.415512 0.435877
vt 0.400099 0.697333
vt 0.403102 0.391658
vt 0.363795 0.918795
vt 0.365342 0.371239
vt 0.329116 0.695481
vt 0.327496 0.392348
vt 0.320164 0.664925
vt 0.314951 0.436624
vt 0.315153 0.701007
vt 0.300410 0.490184
vt 0.268850 0.518222
vt 0.164551 0.690291
vt 0.162885 0.929390
vt 0.124572 0.911161
vt 0.461378 0.516577
vt 0.414213 0.700837
vt 0.429881 0.489274
vt 0.409216 0.665592
vt 0.445757 0.183823
vt 0.420971 0.141474
vt 0.426085 0.118748
vt 0.440749 0.206831
vt 0.419264 0.252824
vt 0.434015 0.316403
vt 0.478969 0.225812
vt 0.475238 0.247511
vt 0.468580 0.349640
vt 0.290702 0.208573
vt 0.252454 0.228467
vt 0.285793 0.185708
vt 0.296979 0.317836
vt 0.256096 0.250048
vt 0.262347 0.351838
vt 0.305723 0.120183
vt 0.310743 0.142781
vt 0.311970 0.254023
vt 0.328331 0.059376
vt 0.331398 0.083632
vt 0.329530 0.190214
vt 0.366080 0.032501
vt 0.366029 0.057475
vt 0.365803 0.164989
vt 0.403723 0.058469
vt 0.400555 0.082803
vt 0.401974 0.189372
vt 0.597959 0.502569
vt 0.927081 0.094170
vt 0.597959 0.094171
vt 0.084417 0.425353
vt 0.093581 0.687590
vt 0.085228 0.655296
vt 0.097874 0.381957
vt 0.136090 0.363958
vt 0.173403 0.387462
vt 0.174224 0.660330
vt 0.184883 0.432511
vt 0.178371 0.696702
vt 0.229007 0.516999
vt 0.198137 0.486964
vt 0.036661 0.503074
vt 0.079396 0.690193
vt 0.084817 0.926901
vt 0.068785 0.477796
vt 0.060205 0.171557
vt 0.085982 0.130816
vt 0.064660 0.194867
vt 0.085033 0.242194
vt 0.068777 0.304788
vt 0.026016 0.211401
vt 0.029227 0.233322
vt 0.033444 0.335800
vt 0.252303 0.228478
vt 0.214556 0.206162
vt 0.220008 0.183625
vt 0.248150 0.249811
vt 0.205677 0.314949
vt 0.239475 0.351135
vt 0.201655 0.116878
vt 0.196100 0.139140
vt 0.192219 0.250224
vt 0.180514 0.054675
vt 0.176870 0.078719
vt 0.176195 0.185342
vt 0.143433 0.025416
vt 0.142888 0.050375
vt 0.140549 0.157826
vt 0.105197 0.048969
vt 0.107783 0.073487
vt 0.103823 0.179889
vt 0.081413 0.107781
vt 0.880065 0.502568
vt 0.833046 0.094170
vt 0.880064 0.094170
vt 0.833047 0.502568
vt 0.786029 0.094171
vt 0.739012 0.502569
vt 0.786029 0.502569
vt 0.691994 0.502569
vt 0.739011 0.094171
vt 0.644977 0.502569
vt 0.691994 0.094171
vt 0.644976 0.094171
vt 0.927082 0.502568
vt 0.325070 0.934563
vt 0.403149 0.937053
vt 0.880066 0.910967
vt 0.927084 0.910966
vt 0.644977 0.910967
vt 0.691995 0.910967
vt 0.739013 0.910967
vt 0.786030 0.910967
vt 0.833048 0.910967
vt 0.597959 0.910967
vn 0.4829 0.3559 -0.8001
vn 0.5514 0.3967 -0.7338
vn 0.4804 0.3543 -0.8023
vn 0.7823 0.5822 -0.2215
vn 0.7907 0.5836 -0.1849
vn 0.7817 0.5821 -0.2240
vn 0.7846 0.5791 0.2217
vn 0.7883 0.5867 0.1851
vn 0.7842 0.5784 0.2247
vn 0.4865 0.3498 0.8006
vn 0.5460 0.4024 0.7348
vn 0.4820 0.3459 0.8050
vn -0.4898 -0.3401 0.8027
vn -0.5569 -0.3992 0.7284
vn -0.4840 -0.3350 0.8084
vn -0.8136 -0.5539 0.1769
vn -0.8016 -0.5540 0.2246
vn -0.8003 -0.5540 0.2293
vn -0.9970 0.0777 -0.0000
vn -0.8016 -0.5540 -0.2246
vn -0.8136 -0.5539 -0.1769
vn -0.8003 -0.5540 -0.2293
vn -0.4854 -0.3478 -0.8021
vn -0.5639 -0.3918 -0.7270
vn -0.4820 -0.3459 -0.8050
vn -0.4162 -0.0210 -0.9091
vn -0.4183 -0.0205 -0.9081
vn -0.4156 -0.0212 -0.9093
vn -0.4186 -0.0805 -0.9046
vn -0.4293 -0.0809 -0.8995
vn -0.4175 -0.0804 -0.9051
vn -0.4315 -0.1528 -0.8891
vn -0.5012 -0.1665 -0.8492
vn -0.4267 -0.1518 -0.8916
vn -0.9355 -0.0452 -0.3505
vn -0.9362 -0.0446 -0.3488
vn -0.9352 -0.0453 -0.3511
vn -0.9235 -0.1734 -0.3423
vn -0.9269 -0.1726 -0.3334
vn -0.9231 -0.1735 -0.3433
vn -0.9006 -0.2970 -0.3172
vn -0.9172 -0.2946 -0.2684
vn -0.8988 -0.2972 -0.3222
vn -0.9362 -0.0446 0.3488
vn -0.9355 -0.0452 0.3505
vn -0.9352 -0.0453 0.3511
vn -0.9269 -0.1726 0.3334
vn -0.9235 -0.1734 0.3423
vn -0.9231 -0.1735 0.3433
vn -0.9172 -0.2946 0.2684
vn -0.9006 -0.2970 0.3172
vn -0.8988 -0.2972 0.3222
vn -0.4162 -0.0204 0.9091
vn -0.4183 -0.0211 0.9081
vn -0.4156 -0.0201 0.9093
vn -0.4188 -0.0789 0.9046
vn -0.4291 -0.0825 0.8995
vn -0.4176 -0.0785 0.9052
vn -0.4338 -0.1445 0.8894
vn -0.4984 -0.1763 0.8488
vn -0.4274 -0.1413 0.8930
vn 0.4162 0.0214 0.9090
vn 0.4182 0.0221 0.9081
vn 0.4156 0.0212 0.9093
vn 0.4188 0.0809 0.9045
vn 0.4290 0.0845 0.8993
vn 0.4176 0.0805 0.9051
vn 0.4331 0.1551 0.8879
vn 0.4973 0.1884 0.8469
vn 0.4267 0.1518 0.8915
vn 0.9352 0.0501 0.3505
vn 0.9359 0.0507 0.3487
vn 0.9350 0.0499 0.3510
vn 0.9220 0.1821 0.3416
vn 0.9249 0.1841 0.3327
vn 0.9217 0.1819 0.3427
vn 0.8876 0.3389 0.3120
vn 0.8987 0.3508 0.2634
vn 0.8861 0.3375 0.3176
vn 0.9352 0.0507 -0.3505
vn 0.9359 0.0501 -0.3487
vn 0.9350 0.0509 -0.3510
vn 0.9217 0.1835 -0.3416
vn 0.9251 0.1827 -0.3327
vn 0.9214 0.1836 -0.3426
vn 0.8851 0.3455 -0.3119
vn 0.9012 0.3440 -0.2636
vn 0.8833 0.3456 -0.3166
vn 0.4161 0.0220 -0.9090
vn 0.4183 0.0215 -0.9081
vn 0.4156 0.0222 -0.9093
vn 0.4185 0.0824 -0.9045
vn 0.4293 0.0829 -0.8994
vn 0.4175 0.0824 -0.9049
vn 0.4307 0.1633 -0.8876
vn 0.5002 0.1787 -0.8472
vn 0.4260 0.1623 -0.8900
vn -0.9239 -0.0001 -0.3827
vn -0.9189 0.1038 -0.3807
vn 0.4830 -0.3557 -0.8001
vn 0.5516 -0.3966 -0.7338
vn 0.5596 -0.4013 -0.7251
vn 0.7825 -0.5820 -0.2215
vn 0.7909 -0.5834 -0.1849
vn 0.7916 -0.5835 -0.1815
vn 0.7847 -0.5788 0.2217
vn 0.7885 -0.5865 0.1851
vn 0.7887 -0.5869 0.1828
vn 0.4866 -0.3497 0.8006
vn 0.5461 -0.4022 0.7348
vn 0.5481 -0.4040 0.7324
vn -0.4899 0.3399 0.8027
vn -0.5570 0.3990 0.7284
vn -0.5596 0.4013 0.7251
vn -0.8018 0.5538 0.2246
vn -0.8137 0.5536 0.1769
vn -0.8005 0.5537 0.2293
vn -0.8018 0.5538 -0.2246
vn -0.8137 0.5536 -0.1769
vn -0.8152 0.5535 -0.1704
vn -0.4855 0.3477 -0.8021
vn -0.5640 0.3916 -0.7270
vn -0.5748 0.3976 -0.7152
vn -0.4162 0.0210 -0.9091
vn -0.4183 0.0205 -0.9081
vn -0.4188 0.0203 -0.9078
vn -0.4186 0.0804 -0.9046
vn -0.4293 0.0807 -0.8995
vn -0.4304 0.0808 -0.8990
vn -0.4315 0.1526 -0.8891
vn -0.5013 0.1663 -0.8492
vn -0.5067 0.1674 -0.8457
vn -0.9355 0.0452 -0.3505
vn -0.9362 0.0446 -0.3487
vn -0.9364 0.0444 -0.3482
vn -0.9235 0.1731 -0.3423
vn -0.9269 0.1723 -0.3334
vn -0.9273 0.1722 -0.3324
vn -0.9007 0.2967 -0.3172
vn -0.9173 0.2943 -0.2684
vn -0.9189 0.2940 -0.2632
vn -0.9355 0.0452 0.3505
vn -0.9362 0.0446 0.3487
vn -0.9352 0.0453 0.3511
vn -0.9235 0.1731 0.3423
vn -0.9269 0.1723 0.3334
vn -0.9231 0.1732 0.3433
vn -0.9007 0.2967 0.3172
vn -0.9173 0.2943 0.2684
vn -0.8989 0.2969 0.3222
vn -0.4162 0.0204 0.9091
vn -0.4183 0.0211 0.9081
vn -0.4188 0.0213 0.9078
vn -0.4188 0.0788 0.9046
vn -0.4291 0.0823 0.8995
vn -0.4303 0.0828 0.8989
vn -0.4338 0.1443 0.8894
vn -0.4985 0.1762 0.8488
vn -0.5055 0.1797 0.8439
vn 0.4162 -0.0214 0.9090
vn 0.4182 -0.0221 0.9081
vn 0.4188 -0.0224 0.9078
vn 0.4188 -0.0807 0.9045
vn 0.4290 -0.0843 0.8993
vn 0.4302 -0.0848 0.8987
vn 0.4332 -0.1550 0.8879
vn 0.4973 -0.1883 0.8469
vn 0.5043 -0.1919 0.8419
vn 0.9352 -0.0501 0.3505
vn 0.9359 -0.0507 0.3487
vn 0.9361 -0.0509 0.3481
vn 0.9221 -0.1819 0.3417
vn 0.9249 -0.1839 0.3327
vn 0.9253 -0.1841 0.3316
vn 0.8877 -0.3387 0.3120
vn 0.8988 -0.3505 0.2634
vn 0.8999 -0.3518 0.2577
vn 0.9352 -0.0507 -0.3505
vn 0.9359 -0.0501 -0.3487
vn 0.9361 -0.0500 -0.3481
vn 0.9218 -0.1833 -0.3416
vn 0.9252 -0.1825 -0.3327
vn 0.9256 -0.1824 -0.3317
vn 0.8852 -0.3453 -0.3119
vn 0.9013 -0.3438 -0.2636
vn 0.9028 -0.3436 -0.2586
vn 0.4161 -0.0220 -0.9090
vn 0.4183 -0.0215 -0.9081
vn 0.4188 -0.0213 -0.9078
vn 0.4185 -0.0823 -0.9045
vn 0.4293 -0.0827 -0.8994
vn 0.4303 -0.0828 -0.8989
vn 0.4307 -0.1632 -0.8876
vn 0.5003 -0.1785 -0.8472
vn 0.5055 -0.1797 -0.8439
vn 0.3827 0.0001 -0.9239
vn 0.3823 -0.0432 -0.9230
vn 0.9239 0.0001 -0.3827
vn 0.9189 -0.1038 -0.3807
vn 0.9239 0.0001 0.3827
vn 0.9189 -0.1038 0.3807
vn 0.3827 0.0001 0.9239
vn 0.3823 -0.0432 0.9230
vn 0.3827 0.0000 0.9239
vn -0.3827 -0.0001 0.9239
vn -0.3823 0.0432 0.9230
vn -0.3827 -0.0000 0.9239
vn -0.9239 -0.0001 0.3827
vn -0.9189 0.1038 0.3807
vn -0.3827 -0.0001 -0.9239
vn -0.3823 0.0432 -0.9230
vn -0.9969 -0.0780 -0.0000
vn -0.3823 -0.0433 -0.9230
vn -0.9188 -0.1041 0.3807
vn -0.3823 -0.0433 0.9230
vn 0.3823 0.0433 0.9230
vn 0.9188 0.1041 0.3807
vn 0.9188 0.1041 -0.3807
vn 0.3823 0.0433 -0.9230
vn -0.9188 -0.1041 -0.3807
vn 0.7914 0.5837 -0.1815
vn 0.7885 0.5872 0.1828
vn 0.5480 0.4042 0.7324
vn -0.5595 -0.4015 0.7251
vn -0.4188 -0.0213 0.9078
vn -0.4303 -0.0829 0.8989
vn -0.5055 -0.1798 0.8439
vn 0.4188 0.0224 0.9078
vn 0.4302 0.0849 0.8987
vn 0.5043 0.1921 0.8419
vn 0.9361 0.0509 0.3481
vn 0.9252 0.1844 0.3316
vn 0.8998 0.3521 0.2577
vn 0.9361 0.0500 -0.3481
vn 0.9255 0.1827 -0.3317
vn 0.9027 0.3438 -0.2586
vn 0.7819 -0.5818 -0.2240
vn 0.7844 -0.5782 0.2247
vn 0.4821 -0.3457 0.8050
vn -0.4841 0.3349 0.8084
vn -0.4156 0.0201 0.9093
vn -0.4176 0.0784 0.9052
vn -0.4274 0.1412 0.8930
vn 0.4156 -0.0212 0.9093
vn 0.4176 -0.0803 0.9051
vn 0.4268 -0.1517 0.8915
vn 0.9350 -0.0499 0.3510
vn 0.9217 -0.1816 0.3427
vn 0.8862 -0.3372 0.3176
vn 0.9350 -0.0509 -0.3510
vn 0.9214 -0.1833 -0.3426
vn 0.8834 -0.3454 -0.3166
vn 0.5595 0.4015 -0.7251
vn -0.8150 -0.5538 0.1704
vn -0.8150 -0.5538 -0.1704
vn -0.5747 -0.3978 -0.7152
vn -0.4188 -0.0203 -0.9078
vn -0.4303 -0.0809 -0.8990
vn -0.5066 -0.1675 -0.8457
vn -0.9364 -0.0444 -0.3482
vn -0.9272 -0.1725 -0.3324
vn -0.9188 -0.2943 -0.2632
vn -0.9364 -0.0444 0.3482
vn -0.9272 -0.1725 0.3324
vn -0.9188 -0.2943 0.2632
vn 0.4188 0.0213 -0.9078
vn 0.4303 0.0829 -0.8989
vn 0.5055 0.1798 -0.8439
vn 0.4805 -0.3542 -0.8023
vn -0.8152 0.5535 0.1704
vn -0.8005 0.5537 -0.2293
vn -0.4821 0.3457 -0.8050
vn -0.4156 0.0212 -0.9093
vn -0.4176 0.0803 -0.9051
vn -0.4267 0.1517 -0.8916
vn -0.9352 0.0453 -0.3511
vn -0.9231 0.1732 -0.3433
vn -0.8989 0.2969 -0.3222
vn -0.9364 0.0444 0.3482
vn -0.9273 0.1722 0.3324
vn -0.9189 0.2940 0.2632
vn 0.4156 -0.0222 -0.9093
vn 0.4175 -0.0823 -0.9049
vn 0.4261 -0.1621 -0.8900
vn 0.3827 0.0000 -0.9239
vn -0.3827 -0.0000 -0.9239
usemtl Bow_Texture
s 1
f 11/1/1 2/2/2 12/3/3
f 12/3/4 3/4/5 15/5/6
f 15/5/7 4/6/8 18/7/9
f 18/7/10 5/8/11 21/9/12
f 21/9/13 6/10/14 24/11/15
f 6/10/16 27/12/17 24/11/18
f 36/13/19 39/14/19 35/15/19
f 27/16/20 8/17/21 30/18/22
f 30/18/23 1/19/24 11/1/25
f 72/20/26 9/21/27 65/22/28
f 32/23/29 10/24/30 9/21/31
f 31/25/32 11/1/33 10/24/34
f 71/26/35 32/23/36 72/20/37
f 29/27/38 31/25/39 32/23/40
f 28/28/41 30/18/42 31/25/43
f 26/29/44 71/30/45 70/31/46
f 25/32/47 29/33/48 26/29/49
f 24/11/50 28/34/51 25/32/52
f 69/35/53 26/29/54 70/31/55
f 23/36/56 25/32/57 26/29/58
f 22/37/59 24/11/60 25/32/61
f 68/38/62 23/36/63 69/35/64
f 20/39/65 22/37/66 23/36/67
f 19/40/68 21/9/69 22/37/70
f 67/41/71 20/39/72 68/38/73
f 17/42/74 19/40/75 20/39/76
f 16/43/77 18/7/78 19/40/79
f 66/44/80 17/42/81 67/41/82
f 14/45/83 16/43/84 17/42/85
f 13/46/86 15/5/87 16/43/88
f 65/22/89 14/45/90 66/44/91
f 9/21/92 13/46/93 14/45/94
f 10/24/95 12/3/96 13/46/97
f 95/47/98 88/48/99 86/49/99
f 43/50/100 34/51/101 33/52/102
f 44/53/103 35/15/104 34/51/105
f 47/54/106 36/13/107 35/15/108
f 50/55/109 37/56/110 36/13/111
f 53/57/112 38/58/113 37/56/114
f 59/59/115 38/58/116 56/60/117
f 37/56/19 38/58/19 36/13/19
f 59/61/118 40/62/119 39/63/120
f 62/64/121 33/52/122 40/62/123
f 72/65/124 41/66/125 64/67/126
f 64/67/127 42/68/128 63/69/129
f 63/69/130 43/50/131 62/64/132
f 71/70/133 64/67/134 61/71/135
f 61/71/136 63/69/137 60/72/138
f 60/72/139 62/64/140 59/61/141
f 71/73/142 58/74/143 70/75/144
f 61/76/145 57/77/146 58/74/147
f 60/78/148 56/60/149 57/77/150
f 69/79/151 58/74/152 55/80/153
f 55/80/154 57/77/155 54/81/156
f 54/81/157 56/60/158 53/57/159
f 68/82/160 55/80/161 52/83/162
f 52/83/163 54/81/164 51/84/165
f 51/84/166 53/57/167 50/55/168
f 67/85/169 52/83/170 49/86/171
f 49/86/172 51/84/173 48/87/174
f 48/87/175 50/55/176 47/54/177
f 66/88/178 49/86/179 46/89/180
f 46/89/181 48/87/182 45/90/183
f 45/90/184 47/54/185 44/53/186
f 65/91/187 46/89/188 41/66/189
f 41/66/190 45/90/191 42/68/192
f 42/68/193 44/53/194 43/50/195
f 89/92/196 76/93/197 74/94/197
f 90/95/198 78/96/199 76/93/199
f 92/97/200 78/96/201 91/98/200
f 93/99/202 80/100/203 92/97/204
f 94/101/205 82/102/206 93/99/207
f 95/47/208 84/103/209 94/101/208
f 96/104/210 74/94/211 88/48/211
f 33/52/19 34/51/19 40/62/19
f 35/15/19 40/62/19 34/51/19
f 5/8/212 4/6/212 6/10/212
f 4/6/212 7/105/212 6/10/212
f 3/4/212 8/17/212 7/106/212
f 1/19/212 8/17/212 2/2/212
f 73/107/213 96/104/210 87/108/213
f 83/109/214 95/47/208 94/101/208
f 81/110/215 94/101/205 93/99/207
f 79/111/216 93/99/202 92/97/204
f 77/112/217 92/97/200 91/98/200
f 77/112/218 90/95/198 75/113/218
f 75/113/219 89/92/196 73/107/219
f 87/108/220 95/47/98 85/114/220
f 12/3/4 2/2/221 3/4/5
f 15/5/7 3/4/222 4/6/8
f 18/7/10 4/6/223 5/8/11
f 21/9/13 5/8/224 6/10/14
f 69/35/53 23/36/225 26/29/54
f 23/36/56 22/37/226 25/32/57
f 22/37/59 21/9/227 24/11/60
f 68/38/62 20/39/228 23/36/63
f 20/39/65 19/40/229 22/37/66
f 19/40/68 18/7/230 21/9/69
f 67/41/71 17/42/231 20/39/72
f 17/42/74 16/43/232 19/40/75
f 16/43/77 15/5/233 18/7/78
f 66/44/80 14/45/234 17/42/81
f 14/45/83 13/46/235 16/43/84
f 13/46/86 12/3/236 15/5/87
f 44/53/103 47/54/237 35/15/104
f 47/54/106 50/55/238 36/13/107
f 50/55/109 53/57/239 37/56/110
f 53/57/112 56/60/240 38/58/113
f 69/79/151 70/75/241 58/74/152
f 55/80/154 58/74/242 57/77/155
f 54/81/157 57/77/243 56/60/158
f 68/82/160 69/79/244 55/80/161
f 52/83/163 55/80/245 54/81/164
f 51/84/166 54/81/246 53/57/167
f 67/85/169 68/82/247 52/83/170
f 49/86/172 52/83/248 51/84/173
f 48/87/175 51/84/249 50/55/176
f 66/88/178 67/85/250 49/86/179
f 46/89/181 49/86/251 48/87/182
f 45/90/184 48/87/252 47/54/185
f 11/1/1 1/19/253 2/2/2
f 6/10/16 7/105/254 27/12/17
f 36/13/19 38/58/19 39/14/19
f 27/16/20 7/106/255 8/17/21
f 30/18/23 8/17/256 1/19/24
f 72/20/26 32/23/257 9/21/27
f 32/23/29 31/25/258 10/24/30
f 31/25/32 30/18/259 11/1/33
f 71/26/35 29/27/260 32/23/36
f 29/27/38 28/28/261 31/25/39
f 28/28/41 27/16/262 30/18/42
f 26/29/44 29/33/263 71/30/45
f 25/32/47 28/34/264 29/33/48
f 24/11/50 27/12/265 28/34/51
f 65/22/89 9/21/266 14/45/90
f 9/21/92 10/24/267 13/46/93
f 10/24/95 11/1/268 12/3/96
f 95/47/98 96/104/98 88/48/99
f 43/50/100 44/53/269 34/51/101
f 59/59/115 39/14/270 38/58/116
f 59/61/118 62/64/271 40/62/119
f 62/64/121 43/50/272 33/52/122
f 72/65/124 65/91/273 41/66/125
f 64/67/127 41/66/274 42/68/128
f 63/69/130 42/68/275 43/50/131
f 71/70/133 72/65/276 64/67/134
f 61/71/136 64/67/277 63/69/137
f 60/72/139 63/69/278 62/64/140
f 71/73/142 61/76/279 58/74/143
f 61/76/145 60/78/280 57/77/146
f 60/78/148 59/59/281 56/60/149
f 65/91/187 66/88/282 46/89/188
f 41/66/190 46/89/283 45/90/191
f 42/68/193 45/90/284 44/53/194
f 89/92/196 90/95/285 76/93/197
f 90/95/198 91/98/198 78/96/199
f 92/97/200 80/100/201 78/96/201
f 93/99/202 82/102/203 80/100/203
f 94/101/205 84/103/206 82/102/206
f 95/47/208 86/49/209 84/103/209
f 96/104/210 89/92/286 74/94/211
f 35/15/19 39/63/19 40/62/19
f 4/6/212 3/4/212 7/105/212
f 3/4/212 2/2/212 8/17/212
f 73/107/213 89/92/286 96/104/210
f 83/109/214 85/114/214 95/47/208
f 81/110/215 83/109/215 94/101/205
f 79/111/216 81/110/216 93/99/202
f 77/112/217 79/111/217 92/97/200
f 77/112/218 91/98/198 90/95/198
f 75/113/219 90/95/285 89/92/196
f 87/108/220 96/104/98 95/47/98
