# Blender v2.82 (sub 7) OBJ File: ''
# www.blender.org
mtllib bow_000042.mtl
o Bow_Cylinder
v 1.030766 2.298723 -0.141605
v 1.011002 2.380709 -0.100131
v 1.002815 2.414670 -0.000002
v 1.011002 2.380709 0.100126
v 1.030765 2.298723 0.141601
v 1.050529 2.216737 0.100126
v 1.058716 2.182777 -0.000002
v 1.050530 2.216737 -0.100131
v 2.130136 0.346490 -0.141603
v 1.954406 1.030937 -0.141603
v 1.631377 1.692544 -0.141604
v 1.700071 1.700643 -0.100129
v 2.040830 1.036554 -0.100129
v 2.219990 0.349008 -0.100128
v 1.728566 1.703715 -0.000001
v 2.076648 1.038700 -0.000000
v 2.257224 0.349661 0.000000
v 1.700055 1.700866 0.100127
v 2.040807 1.036903 0.100128
v 2.219990 0.349006 0.100128
v 1.631426 1.692533 0.141602
v 1.954433 1.030949 0.141602
v 2.130136 0.346490 0.141603
v 1.563096 1.682031 0.100127
v 1.868340 1.021780 0.100128
v 2.040389 0.341435 0.100128
v 1.534857 1.677171 -0.000001
v 1.832716 1.017487 -0.000001
v 2.003233 0.338937 -0.000000
v 1.563049 1.682262 -0.100130
v 1.868309 1.022067 -0.100129
v 2.040390 0.341402 -0.100129
v 1.030092 -2.298343 -0.141603
v 1.010300 -2.380323 -0.100128
v 1.002102 -2.414280 0.000000
v 1.010300 -2.380323 0.100128
v 1.030092 -2.298343 0.141603
v 1.049884 -2.216364 0.100128
v 1.058082 -2.182407 -0.000000
v 1.049884 -2.216364 -0.100128
v 2.130136 -0.346489 -0.141603
v 1.954170 -1.030876 -0.141603
v 1.630913 -1.692370 -0.141603
v 1.699604 -1.700493 -0.100128
v 2.040592 -1.036522 -0.100128
v 2.219990 -0.349012 -0.100128
v 1.728098 -1.703575 0.000000
v 2.076410 -1.038682 0.000000
v 2.257224 -0.349663 0.000000
v 1.699588 -1.700716 0.100128
v 2.040569 -1.036872 0.100128
v 2.219990 -0.349010 0.100128
v 1.630962 -1.692359 0.141603
v 1.954197 -1.030888 0.141603
v 2.130136 -0.346489 0.141603
v 1.562635 -1.681834 0.100128
v 1.868108 -1.021688 0.100128
v 2.040390 -0.341408 0.100128
v 1.534398 -1.676965 0.000000
v 1.832485 -1.017384 0.000000
v 2.003236 -0.338895 0.000000
v 1.562588 -1.682065 -0.100128
v 1.868076 -1.021976 -0.100128
v 2.040392 -0.341375 -0.100128
v 2.155554 0.000000 -0.141603
v 2.246278 0.000000 -0.100128
v 2.283857 0.000000 0.000000
v 2.246278 0.000000 0.100128
v 2.155554 0.000000 0.141603
v 2.064830 0.000000 0.100128
v 2.027251 0.000000 -0.000000
v 2.064830 0.000000 -0.100128
v 1.121751 2.190086 -0.026696
v 1.121115 -2.189738 -0.026693
v 1.140386 2.193086 -0.018877
v 1.139749 -2.192743 -0.018875
v 1.148105 2.194328 -0.000002
v 1.147467 -2.193988 0.000000
v 1.140386 2.193086 0.018873
v 1.139749 -2.192743 0.018875
v 1.121751 2.190086 0.026691
v 1.121115 -2.189738 0.026694
v 1.103116 2.187087 0.018873
v 1.102481 -2.186732 0.018875
v 1.095397 2.185845 -0.000002
v 1.094762 -2.185487 0.000000
v 1.103116 2.187087 -0.018877
v 1.102481 -2.186732 -0.018875
v 0.188355 -0.000000 -0.026694
v 0.207230 -0.000000 -0.018875
v 0.215048 -0.000000 -0.000000
v 0.207230 -0.000000 0.018875
v 0.188355 -0.000000 0.026693
v 0.169480 -0.000000 0.018875
v 0.161662 -0.000000 -0.000000
v 0.169480 -0.000000 -0.018875
vt 0.415512 0.435877
vt 0.400099 0.697333
vt 0.403102 0.391658
vt 0.363795 0.918795
vt 0.365342 0.371239
vt 0.329116 0.695481
vt 0.327496 0.392348
vt 0.320164 0.664925
vt 0.314951 0.436624
vt 0.315153 0.701007
vt 0.300410 0.490184
vt 0.268850 0.518222
vt 0.164551 0.690291
vt 0.162885 0.929390
vt 0.124572 0.911161
vt 0.461378 0.516577
vt 0.414213 0.700837
vt 0.429881 0.489274
vt 0.409216 0.665592
vt 0.445757 0.183823
vt 0.420971 0.141474
vt 0.426085 0.118748
vt 0.440749 0.206831
vt 0.419264 0.252824
vt 0.434015 0.316403
vt 0.478969 0.225812
vt 0.475238 0.247511
vt 0.468580 0.349640
vt 0.290702 0.208573
vt 0.252454 0.228467
vt 0.285793 0.185708
vt 0.296979 0.317836
vt 0.256096 0.250048
vt 0.262347 0.351838
vt 0.305723 0.120183
vt 0.310743 0.142781
vt 0.311970 0.254023
vt 0.328331 0.059376
vt 0.331398 0.083632
vt 0.329530 0.190214
vt 0.366080 0.032501
vt 0.366029 0.057475
vt 0.365803 0.164989
vt 0.403723 0.058469
vt 0.400555 0.082803
vt 0.401974 0.189372
vt 0.927082 0.502568
vt 0.597959 0.094171
vt 0.597959 0.502569
vt 0.084417 0.425353
vt 0.093581 0.687590
vt 0.085228 0.655296
vt 0.097874 0.381957
vt 0.136090 0.363958
vt 0.173403 0.387462
vt 0.174224 0.660330
vt 0.184883 0.432511
vt 0.178371 0.696702
vt 0.229007 0.516999
vt 0.198137 0.486964
vt 0.036661 0.503074
vt 0.079396 0.690193
vt 0.084817 0.926901
vt 0.068785 0.477796
vt 0.060205 0.171557
vt 0.085982 0.130816
vt 0.064660 0.194867
vt 0.085033 0.242194
vt 0.068777 0.304788
vt 0.026016 0.211401
vt 0.029227 0.233322
vt 0.033444 0.335800
vt 0.252303 0.228478
vt 0.214556 0.206162
vt 0.220008 0.183625
vt 0.248150 0.249811
vt 0.205677 0.314949
vt 0.239475 0.351135
vt 0.201655 0.116878
vt 0.196100 0.139140
vt 0.192219 0.250224
vt 0.180514 0.054675
vt 0.176870 0.078719
vt 0.176195 0.185342
vt 0.143433 0.025416
vt 0.142888 0.050375
vt 0.140549 0.157826
vt 0.105197 0.048969
vt 0.107783 0.073487
vt 0.103823 0.179889
vt 0.081413 0.107781
vt 0.833047 0.502568
vt 0.880064 0.094170
vt 0.880065 0.502568
vt 0.786029 0.502569
vt 0.833046 0.094170
vt 0.739011 0.094171
vt 0.786029 0.094171
vt 0.739012 0.502569
vt 0.691994 0.094171
vt 0.691994 0.502569
vt 0.644976 0.094171
vt 0.644977 0.502569
vt 0.927081 0.094170
vt 0.325070 0.934563
vt 0.403149 0.937053
vt 0.927084 0.910966
vt 0.597959 0.910967
vt 0.644977 0.910967
vt 0.691995 0.910967
vt 0.739013 0.910967
vt 0.786030 0.910967
vt 0.833048 0.910967
vt 0.880066 0.910967
vn 0.4297 0.4351 -0.7912
vn 0.4831 0.4796 -0.7326
vn 0.4278 0.4334 -0.7932
vn 0.6838 0.6977 -0.2138
vn 0.6903 0.6998 -0.1837
vn 0.6833 0.6975 -0.2159
vn 0.6861 0.6957 0.2126
vn 0.6880 0.7020 0.1838
vn 0.6859 0.6952 0.2151
vn 0.4331 0.4298 0.7923
vn 0.4775 0.4837 0.7335
vn 0.4296 0.4257 0.7964
vn -0.4316 -0.4149 0.8010
vn -0.4870 -0.4821 0.7283
vn -0.4267 -0.4090 0.8066
vn -0.7158 -0.6754 0.1771
vn -0.7037 -0.6736 0.2259
vn -0.7024 -0.6733 0.2308
vn -0.9721 0.2347 -0.0000
vn -0.7034 -0.6735 -0.2270
vn -0.7158 -0.6754 -0.1773
vn -0.7021 -0.6733 -0.2319
vn -0.4268 -0.4223 -0.7997
vn -0.4949 -0.4762 -0.7269
vn -0.4239 -0.4200 -0.8025
vn -0.4160 -0.0304 -0.9089
vn -0.4175 -0.0300 -0.9082
vn -0.4156 -0.0305 -0.9090
vn -0.4130 -0.1059 -0.9045
vn -0.4217 -0.1067 -0.9004
vn -0.4122 -0.1058 -0.9049
vn -0.4129 -0.2009 -0.8884
vn -0.4762 -0.2209 -0.8511
vn -0.4085 -0.1995 -0.8907
vn -0.9343 -0.0668 -0.3502
vn -0.9348 -0.0664 -0.3490
vn -0.9341 -0.0669 -0.3506
vn -0.9108 -0.2301 -0.3428
vn -0.9134 -0.2297 -0.3361
vn -0.9105 -0.2302 -0.3435
vn -0.8607 -0.3971 -0.3187
vn -0.8766 -0.3966 -0.2725
vn -0.8589 -0.3971 -0.3235
vn -0.9348 -0.0664 0.3490
vn -0.9343 -0.0667 0.3502
vn -0.9341 -0.0669 0.3506
vn -0.9135 -0.2297 0.3358
vn -0.9108 -0.2302 0.3428
vn -0.9105 -0.2302 0.3436
vn -0.8767 -0.3967 0.2720
vn -0.8609 -0.3972 0.3179
vn -0.8591 -0.3972 0.3227
vn -0.4160 -0.0299 0.9089
vn -0.4175 -0.0305 0.9082
vn -0.4156 -0.0297 0.9091
vn -0.4133 -0.1047 0.9046
vn -0.4212 -0.1080 0.9005
vn -0.4124 -0.1043 0.9050
vn -0.4154 -0.1931 0.8889
vn -0.4720 -0.2295 0.8512
vn -0.4097 -0.1894 0.8923
vn 0.4160 0.0307 0.9088
vn 0.4177 0.0313 0.9080
vn 0.4156 0.0305 0.9090
vn 0.4152 0.1067 0.9035
vn 0.4231 0.1101 0.8994
vn 0.4143 0.1063 0.9039
vn 0.4183 0.2052 0.8848
vn 0.4734 0.2420 0.8470
vn 0.4127 0.2015 0.8883
vn 0.9341 0.0705 0.3500
vn 0.9346 0.0710 0.3485
vn 0.9339 0.0703 0.3505
vn 0.9103 0.2373 0.3391
vn 0.9125 0.2390 0.3319
vn 0.9101 0.2371 0.3400
vn 0.8468 0.4354 0.3054
vn 0.8554 0.4469 0.2617
vn 0.8457 0.4340 0.3105
vn 0.9340 0.0710 -0.3500
vn 0.9346 0.0705 -0.3485
vn 0.9339 0.0711 -0.3505
vn 0.9100 0.2384 -0.3391
vn 0.9126 0.2379 -0.3324
vn 0.9098 0.2384 -0.3399
vn 0.8437 0.4409 -0.3064
vn 0.8582 0.4411 -0.2626
vn 0.8421 0.4408 -0.3107
vn 0.4160 0.0312 -0.9088
vn 0.4177 0.0308 -0.9081
vn 0.4156 0.0313 -0.9090
vn 0.4149 0.1080 -0.9034
vn 0.4235 0.1089 -0.8993
vn 0.4141 0.1079 -0.9038
vn 0.4157 0.2126 -0.8843
vn 0.4773 0.2337 -0.8471
vn 0.4117 0.2113 -0.8865
vn -0.9239 0.0001 -0.3826
vn -0.8680 -0.3704 -0.3307
vn -0.9239 0.0001 -0.3827
vn 0.4296 -0.4352 -0.7912
vn 0.4829 -0.4798 -0.7325
vn 0.4890 -0.4849 -0.7251
vn 0.6835 -0.6979 -0.2138
vn 0.6900 -0.7001 -0.1837
vn 0.6906 -0.7002 -0.1809
vn 0.6858 -0.6960 0.2127
vn 0.6878 -0.7023 0.1838
vn 0.6879 -0.7027 0.1820
vn 0.4329 -0.4300 0.7923
vn 0.4773 -0.4838 0.7335
vn 0.4788 -0.4856 0.7314
vn -0.4314 0.4150 0.8010
vn -0.4869 0.4823 0.7283
vn -0.4890 0.4849 0.7251
vn -0.7035 0.6738 0.2259
vn -0.7156 0.6757 0.1771
vn -0.7022 0.6736 0.2308
vn -0.7032 0.6738 -0.2270
vn -0.7156 0.6757 -0.1773
vn -0.7171 0.6758 -0.1705
vn -0.4267 0.4225 -0.7997
vn -0.4947 0.4764 -0.7269
vn -0.5041 0.4837 -0.7155
vn -0.4160 0.0304 -0.9089
vn -0.4175 0.0300 -0.9082
vn -0.4179 0.0299 -0.9080
vn -0.4130 0.1061 -0.9045
vn -0.4217 0.1069 -0.9004
vn -0.4225 0.1070 -0.9000
vn -0.4128 0.2010 -0.8884
vn -0.4761 0.2211 -0.8511
vn -0.4811 0.2227 -0.8479
vn -0.9343 0.0668 -0.3502
vn -0.9348 0.0664 -0.3490
vn -0.9349 0.0663 -0.3486
vn -0.9107 0.2304 -0.3428
vn -0.9133 0.2300 -0.3361
vn -0.9136 0.2299 -0.3353
vn -0.8605 0.3974 -0.3187
vn -0.8765 0.3969 -0.2725
vn -0.8781 0.3968 -0.2674
vn -0.9343 0.0668 0.3502
vn -0.9348 0.0664 0.3490
vn -0.9341 0.0669 0.3506
vn -0.9107 0.2305 0.3428
vn -0.9134 0.2300 0.3358
vn -0.9104 0.2306 0.3436
vn -0.8608 0.3975 0.3179
vn -0.8766 0.3970 0.2720
vn -0.8590 0.3975 0.3227
vn -0.4160 0.0299 0.9089
vn -0.4175 0.0305 0.9082
vn -0.4179 0.0307 0.9080
vn -0.4132 0.1048 0.9046
vn -0.4211 0.1081 0.9005
vn -0.4220 0.1085 0.9001
vn -0.4153 0.1932 0.8889
vn -0.4719 0.2297 0.8512
vn -0.4780 0.2336 0.8467
vn 0.4160 -0.0307 0.9088
vn 0.4177 -0.0313 0.9080
vn 0.4182 -0.0315 0.9078
vn 0.4152 -0.1069 0.9034
vn 0.4231 -0.1102 0.8994
vn 0.4240 -0.1106 0.8989
vn 0.4182 -0.2054 0.8848
vn 0.4733 -0.2422 0.8470
vn 0.4792 -0.2461 0.8425
vn 0.9341 -0.0705 0.3500
vn 0.9346 -0.0710 0.3485
vn 0.9348 -0.0712 0.3481
vn 0.9103 -0.2376 0.3391
vn 0.9125 -0.2393 0.3319
vn 0.9127 -0.2395 0.3310
vn 0.8467 -0.4357 0.3054
vn 0.8553 -0.4472 0.2617
vn 0.8562 -0.4485 0.2566
vn 0.9340 -0.0710 -0.3500
vn 0.9346 -0.0705 -0.3485
vn 0.9348 -0.0704 -0.3481
vn 0.9100 -0.2387 -0.3391
vn 0.9125 -0.2382 -0.3324
vn 0.9128 -0.2382 -0.3317
vn 0.8435 -0.4411 -0.3064
vn 0.8580 -0.4414 -0.2627
vn 0.8594 -0.4414 -0.2582
vn 0.4160 -0.0312 -0.9088
vn 0.4177 -0.0308 -0.9081
vn 0.4182 -0.0307 -0.9078
vn 0.4149 -0.1081 -0.9034
vn 0.4235 -0.1090 -0.8993
vn 0.4243 -0.1091 -0.8989
vn 0.4156 -0.2128 -0.8843
vn 0.4772 -0.2339 -0.8471
vn 0.4818 -0.2354 -0.8441
vn 0.3828 -0.0000 -0.9238
vn 0.4045 0.1720 -0.8982
vn 0.3827 -0.0000 -0.9239
vn 0.9239 -0.0001 -0.3826
vn 0.8685 0.3691 -0.3310
vn 0.9239 -0.0001 -0.3827
vn 0.9239 -0.0001 0.3826
vn 0.8685 0.3691 0.3310
vn 0.8685 0.3691 0.3308
vn 0.3828 -0.0000 0.9238
vn 0.4045 0.1720 0.8982
vn 0.4046 0.1721 0.8982
vn -0.3828 0.0000 0.9238
vn -0.4045 -0.1723 0.8981
vn -0.4046 -0.1724 0.8981
vn -0.9239 0.0001 0.3826
vn -0.8680 -0.3704 0.3307
vn -0.8681 -0.3704 0.3306
vn -0.3828 0.0001 -0.9238
vn -0.4045 -0.1723 -0.8981
vn -0.3827 0.0000 -0.9239
vn -0.9722 -0.2344 -0.0000
vn -0.9722 -0.2343 -0.0000
vn -0.4045 0.1724 -0.8982
vn -0.8680 0.3705 0.3307
vn -0.8680 0.3705 0.3306
vn -0.4045 0.1724 0.8982
vn -0.4046 0.1724 0.8981
vn 0.4044 -0.1721 0.8982
vn 0.4045 -0.1721 0.8982
vn 0.8684 -0.3693 0.3310
vn 0.8684 -0.3693 0.3309
vn 0.8684 -0.3693 -0.3310
vn 0.4044 -0.1721 -0.8982
vn -0.8680 0.3705 -0.3307
vn 0.6908 0.7000 -0.1809
vn 0.6881 0.7024 0.1820
vn 0.4790 0.4854 0.7314
vn -0.4892 -0.4847 0.7251
vn -0.4179 -0.0307 0.9080
vn -0.4221 -0.1083 0.9001
vn -0.4781 -0.2334 0.8467
vn 0.4182 0.0315 0.9078
vn 0.4240 0.1104 0.8989
vn 0.4793 0.2460 0.8425
vn 0.9348 0.0712 0.3481
vn 0.9128 0.2392 0.3310
vn 0.8563 0.4482 0.2566
vn 0.9348 0.0704 -0.3481
vn 0.9129 0.2379 -0.3317
vn 0.8596 0.4411 -0.2581
vn 0.6830 -0.6977 -0.2159
vn 0.6857 -0.6954 0.2151
vn 0.4294 -0.4258 0.7964
vn -0.4266 0.4092 0.8066
vn -0.4156 0.0297 0.9091
vn -0.4123 0.1044 0.9050
vn -0.4096 0.1896 0.8923
vn 0.4156 -0.0305 0.9090
vn 0.4142 -0.1065 0.9039
vn 0.4126 -0.2016 0.8883
vn 0.9339 -0.0703 0.3505
vn 0.9100 -0.2374 0.3399
vn 0.8456 -0.4343 0.3105
vn 0.9339 -0.0711 -0.3505
vn 0.9097 -0.2387 -0.3398
vn 0.8420 -0.4411 -0.3107
vn 0.4892 0.4847 -0.7251
vn -0.7173 -0.6755 0.1705
vn -0.7173 -0.6755 -0.1705
vn -0.5042 -0.4835 -0.7155
vn -0.4179 -0.0299 -0.9080
vn -0.4225 -0.1068 -0.9000
vn -0.4812 -0.2225 -0.8479
vn -0.9349 -0.0663 -0.3486
vn -0.9137 -0.2296 -0.3353
vn -0.8782 -0.3965 -0.2674
vn -0.9349 -0.0663 0.3486
vn -0.9138 -0.2296 0.3350
vn -0.8783 -0.3966 0.2670
vn 0.4182 0.0307 -0.9078
vn 0.4243 0.1089 -0.8989
vn 0.4819 0.2353 -0.8441
vn -0.8681 -0.3704 -0.3306
vn 0.4276 -0.4336 -0.7932
vn -0.7171 0.6758 0.1705
vn -0.7019 0.6735 -0.2319
vn -0.4237 0.4201 -0.8025
vn -0.4156 0.0305 -0.9090
vn -0.4122 0.1060 -0.9049
vn -0.4084 0.1996 -0.8907
vn -0.9341 0.0669 -0.3506
vn -0.9104 0.2305 -0.3435
vn -0.8587 0.3974 -0.3235
vn -0.9349 0.0663 0.3486
vn -0.9137 0.2300 0.3350
vn -0.8782 0.3969 0.2670
vn 0.4156 -0.0313 -0.9090
vn 0.4141 -0.1081 -0.9038
vn 0.4116 -0.2114 -0.8865
vn 0.4046 0.1721 -0.8982
vn 0.8685 0.3691 -0.3308
vn 0.9239 -0.0001 0.3827
vn 0.3827 -0.0000 0.9239
vn -0.3827 0.0000 0.9239
vn -0.9239 0.0001 0.3827
vn -0.4046 -0.1724 -0.8981
vn -0.4046 0.1724 -0.8981
vn 0.8684 -0.3693 -0.3308
vn 0.4045 -0.1721 -0.8982
vn -0.8680 0.3705 -0.3306
usemtl Bow_Texture
s 1
f 11/1/1 2/2/2 12/3/3
f 12/3/4 3/4/5 15/5/6
f 15/5/7 4/6/8 18/7/9
f 18/7/10 5/8/11 21/9/12
f 21/9/13 6/10/14 24/11/15
f 6/10/16 27/12/17 24/11/18
f 36/13/19 39/14/19 35/15/19
f 27/16/20 8/17/21 30/18/22
f 30/18/23 1/19/24 11/1/25
f 72/20/26 9/21/27 65/22/28
f 32/23/29 10/24/30 9/21/31
f 31/25/32 11/1/33 10/24/34
f 71/26/35 32/23/36 72/20/37
f 29/27/38 31/25/39 32/23/40
f 28/28/41 30/18/42 31/25/43
f 26/29/44 71/30/45 70/31/46
f 25/32/47 29/33/48 26/29/49
f 24/11/50 28/34/51 25/32/52
f 69/35/53 26/29/54 70/31/55
f 23/36/56 25/32/57 26/29/58
f 22/37/59 24/11/60 25/32/61
f 68/38/62 23/36/63 69/35/64
f 20/39/65 22/37/66 23/36/67
f 19/40/68 21/9/69 22/37/70
f 67/41/71 20/39/72 68/38/73
f 17/42/74 19/40/75 20/39/76
f 16/43/77 18/7/78 19/40/79
f 66/44/80 17/42/81 67/41/82
f 14/45/83 16/43/84 17/42/85
f 13/46/86 15/5/87 16/43/88
f 65/22/89 14/45/90 66/44/91
f 9/21/92 13/46/93 14/45/94
f 10/24/95 12/3/96 13/46/97
f 96/47/98 86/48/99 95/49/100
f 43/50/101 34/51/102 33/52/103
f 44/53/104 35/15/105 34/51/106
f 47/54/107 36/13/108 35/15/109
f 50/55/110 37/56/111 36/13/112
f 53/57/113 38/58/114 37/56/115
f 59/59/116 38/58/117 56/60/118
f 37/56/19 38/58/19 36/13/19
f 59/61/119 40/62/120 39/63/121
f 62/64/122 33/52/123 40/62/124
f 72/65/125 41/66/126 64/67/127
f 64/67/128 42/68/129 63/69/130
f 63/69/131 43/50/132 62/64/133
f 71/70/134 64/67/135 61/71/136
f 61/71/137 63/69/138 60/72/139
f 60/72/140 62/64/141 59/61/142
f 71/73/143 58/74/144 70/75/145
f 61/76/146 57/77/147 58/74/148
f 60/78/149 56/60/150 57/77/151
f 69/79/152 58/74/153 55/80/154
f 55/80/155 57/77/156 54/81/157
f 54/81/158 56/60/159 53/57/160
f 68/82/161 55/80/162 52/83/163
f 52/83/164 54/81/165 51/84/166
f 51/84/167 53/57/168 50/55/169
f 67/85/170 52/83/171 49/86/172
f 49/86/173 51/84/174 48/87/175
f 48/87/176 50/55/177 47/54/178
f 66/88/179 49/86/180 46/89/181
f 46/89/182 48/87/183 45/90/184
f 45/90/185 47/54/186 44/53/187
f 65/91/188 46/89/189 41/66/190
f 41/66/191 45/90/192 42/68/193
f 42/68/194 44/53/195 43/50/196
f 90/92/197 74/93/198 89/94/199
f 91/95/200 76/96/201 90/92/202
f 91/95/203 80/97/204 78/98/205
f 92/99/206 82/100/207 80/97/208
f 93/101/209 84/102/210 82/100/211
f 94/103/212 86/48/213 84/102/214
f 89/94/215 88/104/216 96/47/217
f 33/52/19 34/51/19 40/62/19
f 35/15/19 40/62/19 34/51/19
f 5/8/218 4/6/218 6/10/219
f 4/6/218 7/105/219 6/10/219
f 2/2/218 7/106/219 3/4/218
f 1/19/218 8/17/219 2/2/218
f 87/107/220 89/94/215 96/47/217
f 85/108/221 94/103/212 83/109/222
f 83/109/223 93/101/209 81/110/224
f 81/110/225 92/99/206 79/111/226
f 79/111/227 91/95/203 77/112/228
f 75/113/229 91/95/200 90/92/202
f 73/114/230 90/92/197 89/94/199
f 85/108/231 96/47/98 95/49/100
f 12/3/4 2/2/232 3/4/5
f 15/5/7 3/4/233 4/6/8
f 18/7/10 4/6/234 5/8/11
f 21/9/13 5/8/235 6/10/14
f 69/35/53 23/36/236 26/29/54
f 23/36/56 22/37/237 25/32/57
f 22/37/59 21/9/238 24/11/60
f 68/38/62 20/39/239 23/36/63
f 20/39/65 19/40/240 22/37/66
f 19/40/68 18/7/241 21/9/69
f 67/41/71 17/42/242 20/39/72
f 17/42/74 16/43/243 19/40/75
f 16/43/77 15/5/244 18/7/78
f 66/44/80 14/45/245 17/42/81
f 14/45/83 13/46/246 16/43/84
f 13/46/86 12/3/247 15/5/87
f 44/53/104 47/54/248 35/15/105
f 47/54/107 50/55/249 36/13/108
f 50/55/110 53/57/250 37/56/111
f 53/57/113 56/60/251 38/58/114
f 69/79/152 70/75/252 58/74/153
f 55/80/155 58/74/253 57/77/156
f 54/81/158 57/77/254 56/60/159
f 68/82/161 69/79/255 55/80/162
f 52/83/164 55/80/256 54/81/165
f 51/84/167 54/81/257 53/57/168
f 67/85/170 68/82/258 52/83/171
f 49/86/173 52/83/259 51/84/174
f 48/87/176 51/84/260 50/55/177
f 66/88/179 67/85/261 49/86/180
f 46/89/182 49/86/262 48/87/183
f 45/90/185 48/87/263 47/54/186
f 11/1/1 1/19/264 2/2/2
f 6/10/16 7/105/265 27/12/17
f 36/13/19 38/58/19 39/14/19
f 27/16/20 7/106/266 8/17/21
f 30/18/23 8/17/267 1/19/24
f 72/20/26 32/23/268 9/21/27
f 32/23/29 31/25/269 10/24/30
f 31/25/32 30/18/270 11/1/33
f 71/26/35 29/27/271 32/23/36
f 29/27/38 28/28/272 31/25/39
f 28/28/41 27/16/273 30/18/42
f 26/29/44 29/33/274 71/30/45
f 25/32/47 28/34/275 29/33/48
f 24/11/50 27/12/276 28/34/51
f 65/22/89 9/21/277 14/45/90
f 9/21/92 10/24/278 13/46/93
f 10/24/95 11/1/279 12/3/96
f 96/47/98 88/104/280 86/48/99
f 43/50/101 44/53/281 34/51/102
f 59/59/116 39/14/282 38/58/117
f 59/61/119 62/64/283 40/62/120
f 62/64/122 43/50/284 33/52/123
f 72/65/125 65/91/285 41/66/126
f 64/67/128 41/66/286 42/68/129
f 63/69/131 42/68/287 43/50/132
f 71/70/134 72/65/288 64/67/135
f 61/71/137 64/67/289 63/69/138
f 60/72/140 63/69/290 62/64/141
f 71/73/143 61/76/291 58/74/144
f 61/76/146 60/78/292 57/77/147
f 60/78/149 59/59/293 56/60/150
f 65/91/188 66/88/294 46/89/189
f 41/66/191 46/89/295 45/90/192
f 42/68/194 45/90/296 44/53/195
f 90/92/197 76/96/297 74/93/198
f 91/95/200 78/98/298 76/96/201
f 91/95/203 92/99/299 80/97/204
f 92/99/206 93/101/300 82/100/207
f 93/101/209 94/103/301 84/102/210
f 94/103/212 95/49/302 86/48/213
f 89/94/215 74/93/303 88/104/216
f 35/15/19 39/63/19 40/62/19
f 4/6/218 3/4/218 7/105/219
f 2/2/218 8/17/219 7/106/219
f 87/107/220 73/114/304 89/94/215
f 85/108/221 95/49/302 94/103/212
f 83/109/223 94/103/301 93/101/209
f 81/110/225 93/101/300 92/99/206
f 79/111/227 92/99/299 91/95/203
f 75/113/229 77/112/305 91/95/200
f 73/114/230 75/113/306 90/92/197
f 85/108/231 87/107/307 96/47/98
