# Blender v2.82 (sub 7) OBJ File: ''
# www.blender.org
mtllib bow_000041.mtl
o Bow_Cylinder
v 1.065231 2.321765 -0.141605
v 1.047686 2.404254 -0.100131
v 1.040418 2.438423 -0.000002
v 1.047686 2.404254 0.100126
v 1.065231 2.321765 0.141601
v 1.082777 2.239275 0.100126
v 1.090045 2.205107 -0.000002
v 1.082777 2.239275 -0.100131
v 2.130803 0.346541 -0.141603
v 1.960618 1.032390 -0.141603
v 1.649309 1.699600 -0.141604
v 1.718150 1.706434 -0.100129
v 2.047094 1.037254 -0.100129
v 2.220665 0.348806 -0.100128
v 1.746692 1.709038 -0.000001
v 2.082927 1.039123 -0.000000
v 2.257899 0.349416 0.000000
v 1.718141 1.706612 0.100127
v 2.047079 1.037540 0.100128
v 2.220665 0.348805 0.100128
v 1.649347 1.699591 0.141602
v 1.960640 1.032400 0.141602
v 2.130803 0.346541 0.141603
v 1.580754 1.690835 0.100127
v 1.874398 1.024632 0.100128
v 2.041019 0.342138 0.100128
v 1.552384 1.686800 -0.000001
v 1.838700 1.021011 -0.000001
v 2.003844 0.339973 -0.000000
v 1.580721 1.691020 -0.100130
v 1.874375 1.024867 -0.100129
v 2.041021 0.342110 -0.100129
v 1.065377 -2.321843 -0.141603
v 1.047837 -2.404334 -0.100128
v 1.040572 -2.438503 0.000000
v 1.047837 -2.404334 0.100128
v 1.065377 -2.321843 0.141603
v 1.082917 -2.239352 0.100128
v 1.090182 -2.205184 0.000000
v 1.082917 -2.239352 -0.100128
v 2.130804 -0.346541 -0.141603
v 1.960669 -1.032403 -0.141603
v 1.649409 -1.699635 -0.141603
v 1.718250 -1.706464 -0.100128
v 2.047145 -1.037261 -0.100128
v 2.220665 -0.348805 -0.100128
v 1.746793 -1.709066 0.000000
v 2.082979 -1.039126 0.000000
v 2.257899 -0.349415 0.000000
v 1.718242 -1.706642 0.100129
v 2.047130 -1.037546 0.100128
v 2.220665 -0.348804 0.100128
v 1.649447 -1.699625 0.141603
v 1.960691 -1.032412 0.141603
v 2.130803 -0.346541 0.141603
v 1.580853 -1.690875 0.100128
v 1.874449 -1.024651 0.100128
v 2.041020 -0.342144 0.100128
v 1.552483 -1.686842 0.000000
v 1.838750 -1.021032 0.000000
v 2.003844 -0.339982 0.000000
v 1.580820 -1.691060 -0.100128
v 1.874426 -1.024886 -0.100128
v 2.041021 -0.342116 -0.100128
v 2.155554 0.000000 -0.141603
v 2.246282 0.000000 -0.100128
v 2.283863 0.000000 0.000000
v 2.246282 0.000000 0.100128
v 2.155554 0.000000 0.141603
v 2.064826 0.000000 0.100128
v 2.027245 0.000000 -0.000000
v 2.064826 0.000000 -0.100128
v 1.153254 2.210714 -0.026696
v 1.153391 -2.210786 -0.026693
v 1.171963 2.213210 -0.018877
v 1.172101 -2.213280 -0.018875
v 1.179713 2.214243 -0.000002
v 1.179851 -2.214314 0.000000
v 1.171963 2.213210 0.018873
v 1.172101 -2.213280 0.018875
v 1.153254 2.210714 0.026691
v 1.153391 -2.210786 0.026694
v 1.134545 2.208219 0.018873
v 1.134682 -2.208292 0.018875
v 1.126795 2.207185 -0.000002
v 1.126932 -2.207258 0.000000
v 1.134545 2.208219 -0.018877
v 1.134682 -2.208292 -0.018875
v 0.267709 -0.000000 -0.026694
v 0.286584 -0.000000 -0.018875
v 0.294402 -0.000000 -0.000000
v 0.286584 -0.000000 0.018875
v 0.267709 -0.000000 0.026693
v 0.248834 -0.000000 0.018875
v 0.241015 -0.000000 -0.000000
v 0.248834 -0.000000 -0.018875
vt 0.415512 0.435877
vt 0.400099 0.697333
vt 0.403102 0.391658
vt 0.363795 0.918795
vt 0.365342 0.371239
vt 0.329116 0.695481
vt 0.327496 0.392348
vt 0.320164 0.664925
vt 0.314951 0.436624
vt 0.315153 0.701007
vt 0.300410 0.490184
vt 0.268850 0.518222
vt 0.164551 0.690291
vt 0.162885 0.929390
vt 0.124572 0.911161
vt 0.461378 0.516577
vt 0.414213 0.700837
vt 0.429881 0.489274
vt 0.409216 0.665592
vt 0.445757 0.183823
vt 0.420971 0.141474
vt 0.426085 0.118748
vt 0.440749 0.206831
vt 0.419264 0.252824
vt 0.434015 0.316403
vt 0.478969 0.225812
vt 0.475238 0.247511
vt 0.468580 0.349640
vt 0.290702 0.208573
vt 0.252454 0.228467
vt 0.285793 0.185708
vt 0.296979 0.317836
vt 0.256096 0.250048
vt 0.262347 0.351838
vt 0.305723 0.120183
vt 0.310743 0.142781
vt 0.311970 0.254023
vt 0.328331 0.059376
vt 0.331398 0.083632
vt 0.329530 0.190214
vt 0.366080 0.032501
vt 0.366029 0.057475
vt 0.365803 0.164989
vt 0.403723 0.058469
vt 0.400555 0.082803
vt 0.401974 0.189372
vt 0.927082 0.502568
vt 0.597959 0.094171
vt 0.597959 0.502569
vt 0.084417 0.425353
vt 0.093581 0.687590
vt 0.085228 0.655296
vt 0.097874 0.381957
vt 0.136090 0.363958
vt 0.173403 0.387462
vt 0.174224 0.660330
vt 0.184883 0.432511
vt 0.178371 0.696702
vt 0.229007 0.516999
vt 0.198137 0.486964
vt 0.036661 0.503074
vt 0.079396 0.690193
vt 0.084817 0.926901
vt 0.068785 0.477796
vt 0.060205 0.171557
vt 0.085982 0.130816
vt 0.064660 0.194867
vt 0.085033 0.242194
vt 0.068777 0.304788
vt 0.026016 0.211401
vt 0.029227 0.233322
vt 0.033444 0.335800
vt 0.252303 0.228478
vt 0.214556 0.206162
vt 0.220008 0.183625
vt 0.248150 0.249811
vt 0.205677 0.314949
vt 0.239475 0.351135
vt 0.201655 0.116878
vt 0.196100 0.139140
vt 0.192219 0.250224
vt 0.180514 0.054675
vt 0.176870 0.078719
vt 0.176195 0.185342
vt 0.143433 0.025416
vt 0.142888 0.050375
vt 0.140549 0.157826
vt 0.105197 0.048969
vt 0.107783 0.073487
vt 0.103823 0.179889
vt 0.081413 0.107781
vt 0.833047 0.502568
vt 0.880064 0.094170
vt 0.880065 0.502568
vt 0.786029 0.502569
vt 0.833046 0.094170
vt 0.739011 0.094171
vt 0.786029 0.094171
vt 0.739012 0.502569
vt 0.691994 0.094171
vt 0.691994 0.502569
vt 0.644976 0.094171
vt 0.644977 0.502569
vt 0.927081 0.094170
vt 0.403149 0.937053
vt 0.927084 0.910966
vt 0.597959 0.910967
vt 0.644977 0.910967
vt 0.691995 0.910967
vt 0.739013 0.910967
vt 0.786030 0.910967
vt 0.833048 0.910967
vt 0.880066 0.910967
vt 0.325070 0.934563
vn 0.4394 0.4218 -0.7931
vn 0.4956 0.4662 -0.7328
vn 0.4373 0.4202 -0.7951
vn 0.7017 0.6791 -0.2154
vn 0.7086 0.6812 -0.1840
vn 0.7012 0.6790 -0.2175
vn 0.7040 0.6770 0.2145
vn 0.7063 0.6836 0.1841
vn 0.7038 0.6764 0.2171
vn 0.4428 0.4164 0.7940
vn 0.4900 0.4706 0.7338
vn 0.4392 0.4123 0.7982
vn -0.4423 -0.4027 0.8014
vn -0.4998 -0.4688 0.7283
vn -0.4372 -0.3970 0.8070
vn -0.7338 -0.6559 0.1771
vn -0.7217 -0.6544 0.2257
vn -0.7204 -0.6541 0.2305
vn -0.9781 0.2080 -0.0000
vn -0.7215 -0.6543 -0.2265
vn -0.7338 -0.6558 -0.1772
vn -0.7202 -0.6541 -0.2314
vn -0.4375 -0.4102 -0.8002
vn -0.5075 -0.4626 -0.7269
vn -0.4345 -0.4079 -0.8030
vn -0.4160 -0.0296 -0.9089
vn -0.4176 -0.0292 -0.9082
vn -0.4156 -0.0297 -0.9091
vn -0.4138 -0.1026 -0.9046
vn -0.4228 -0.1033 -0.9003
vn -0.4130 -0.1025 -0.9050
vn -0.4161 -0.1934 -0.8885
vn -0.4806 -0.2126 -0.8508
vn -0.4117 -0.1921 -0.8909
vn -0.9344 -0.0649 -0.3502
vn -0.9349 -0.0645 -0.3490
vn -0.9342 -0.0650 -0.3506
vn -0.9127 -0.2226 -0.3427
vn -0.9154 -0.2221 -0.3356
vn -0.9124 -0.2227 -0.3435
vn -0.8677 -0.3817 -0.3184
vn -0.8838 -0.3809 -0.2717
vn -0.8659 -0.3817 -0.3232
vn -0.9349 -0.0645 0.3490
vn -0.9344 -0.0649 0.3502
vn -0.9342 -0.0650 0.3506
vn -0.9155 -0.2221 0.3354
vn -0.9127 -0.2227 0.3427
vn -0.9123 -0.2227 0.3435
vn -0.8839 -0.3809 0.2713
vn -0.8679 -0.3817 0.3178
vn -0.8661 -0.3818 0.3226
vn -0.4160 -0.0291 0.9089
vn -0.4175 -0.0297 0.9082
vn -0.4156 -0.0289 0.9091
vn -0.4141 -0.1013 0.9046
vn -0.4224 -0.1046 0.9004
vn -0.4131 -0.1009 0.9051
vn -0.4186 -0.1855 0.8890
vn -0.4767 -0.2214 0.8507
vn -0.4128 -0.1820 0.8925
vn 0.4160 0.0299 0.9089
vn 0.4177 0.0305 0.9081
vn 0.4156 0.0297 0.9091
vn 0.4157 0.1033 0.9036
vn 0.4240 0.1067 0.8994
vn 0.4147 0.1029 0.9041
vn 0.4208 0.1973 0.8854
vn 0.4775 0.2338 0.8469
vn 0.4150 0.1936 0.8890
vn 0.9342 0.0688 0.3501
vn 0.9347 0.0693 0.3485
vn 0.9340 0.0686 0.3506
vn 0.9120 0.2300 0.3395
vn 0.9143 0.2318 0.3320
vn 0.9118 0.2298 0.3404
vn 0.8538 0.4206 0.3067
vn 0.8629 0.4322 0.2620
vn 0.8526 0.4192 0.3119
vn 0.9342 0.0693 -0.3501
vn 0.9348 0.0688 -0.3485
vn 0.9340 0.0694 -0.3505
vn 0.9117 0.2312 -0.3395
vn 0.9145 0.2307 -0.3325
vn 0.9114 0.2312 -0.3403
vn 0.8507 0.4263 -0.3075
vn 0.8656 0.4262 -0.2628
vn 0.8492 0.4262 -0.3119
vn 0.4160 0.0304 -0.9088
vn 0.4178 0.0300 -0.9081
vn 0.4156 0.0305 -0.9091
vn 0.4154 0.1046 -0.9036
vn 0.4244 0.1054 -0.8993
vn 0.4146 0.1045 -0.9040
vn 0.4182 0.2049 -0.8849
vn 0.4813 0.2253 -0.8471
vn 0.4141 0.2035 -0.8872
vn -0.9239 -0.0000 -0.3826
vn -0.8730 -0.3502 -0.3394
vn -0.9239 -0.0000 -0.3827
vn 0.4394 -0.4218 -0.7931
vn 0.4956 -0.4662 -0.7328
vn 0.5021 -0.4713 -0.7251
vn 0.7017 -0.6791 -0.2154
vn 0.7086 -0.6812 -0.1840
vn 0.7092 -0.6813 -0.1810
vn 0.7041 -0.6769 0.2145
vn 0.7063 -0.6835 0.1841
vn 0.7064 -0.6839 0.1821
vn 0.4428 -0.4164 0.7940
vn 0.4900 -0.4705 0.7338
vn 0.4916 -0.4724 0.7316
vn -0.4423 0.4027 0.8014
vn -0.4999 0.4687 0.7283
vn -0.5021 0.4713 0.7251
vn -0.7218 0.6543 0.2257
vn -0.7339 0.6558 0.1771
vn -0.7205 0.6541 0.2305
vn -0.7215 0.6543 -0.2265
vn -0.7339 0.6558 -0.1772
vn -0.7354 0.6559 -0.1705
vn -0.4376 0.4102 -0.8002
vn -0.5076 0.4626 -0.7269
vn -0.5172 0.4697 -0.7155
vn -0.4160 0.0296 -0.9089
vn -0.4176 0.0292 -0.9082
vn -0.4180 0.0291 -0.9080
vn -0.4138 0.1025 -0.9046
vn -0.4229 0.1033 -0.9003
vn -0.4237 0.1034 -0.8999
vn -0.4161 0.1934 -0.8885
vn -0.4807 0.2126 -0.8508
vn -0.4857 0.2141 -0.8475
vn -0.9344 0.0649 -0.3502
vn -0.9349 0.0645 -0.3490
vn -0.9351 0.0644 -0.3486
vn -0.9127 0.2226 -0.3427
vn -0.9154 0.2220 -0.3356
vn -0.9158 0.2220 -0.3348
vn -0.8677 0.3816 -0.3184
vn -0.8838 0.3808 -0.2717
vn -0.8854 0.3807 -0.2666
vn -0.9344 0.0649 0.3502
vn -0.9349 0.0645 0.3490
vn -0.9342 0.0650 0.3506
vn -0.9127 0.2226 0.3427
vn -0.9155 0.2221 0.3354
vn -0.9124 0.2227 0.3435
vn -0.8679 0.3817 0.3178
vn -0.8839 0.3809 0.2713
vn -0.8662 0.3817 0.3226
vn -0.4160 0.0291 0.9089
vn -0.4175 0.0297 0.9082
vn -0.4180 0.0299 0.9080
vn -0.4141 0.1012 0.9046
vn -0.4224 0.1046 0.9004
vn -0.4233 0.1050 0.8999
vn -0.4187 0.1855 0.8890
vn -0.4767 0.2214 0.8507
vn -0.4829 0.2253 0.8462
vn 0.4160 -0.0299 0.9089
vn 0.4177 -0.0305 0.9081
vn 0.4182 -0.0307 0.9078
vn 0.4157 -0.1033 0.9036
vn 0.4240 -0.1067 0.8994
vn 0.4249 -0.1071 0.8989
vn 0.4208 -0.1973 0.8854
vn 0.4775 -0.2338 0.8469
vn 0.4836 -0.2377 0.8424
vn 0.9342 -0.0688 0.3501
vn 0.9347 -0.0693 0.3485
vn 0.9349 -0.0695 0.3481
vn 0.9121 -0.2299 0.3395
vn 0.9144 -0.2317 0.3320
vn 0.9146 -0.2320 0.3311
vn 0.8539 -0.4205 0.3067
vn 0.8629 -0.4322 0.2620
vn 0.8638 -0.4335 0.2568
vn 0.9342 -0.0693 -0.3501
vn 0.9348 -0.0688 -0.3485
vn 0.9349 -0.0687 -0.3481
vn 0.9118 -0.2311 -0.3396
vn 0.9145 -0.2306 -0.3325
vn 0.9148 -0.2306 -0.3317
vn 0.8508 -0.4262 -0.3075
vn 0.8656 -0.4262 -0.2628
vn 0.8670 -0.4261 -0.2582
vn 0.4160 -0.0304 -0.9088
vn 0.4178 -0.0300 -0.9081
vn 0.4183 -0.0299 -0.9078
vn 0.4154 -0.1046 -0.9036
vn 0.4244 -0.1054 -0.8993
vn 0.4252 -0.1055 -0.8989
vn 0.4182 -0.2049 -0.8849
vn 0.4813 -0.2252 -0.8471
vn 0.4860 -0.2267 -0.8440
vn 0.3828 0.0000 -0.9238
vn 0.3986 0.1595 -0.9032
vn 0.3827 0.0000 -0.9239
vn 0.9239 0.0000 -0.3826
vn 0.8733 0.3492 -0.3396
vn 0.9239 0.0000 -0.3827
vn 0.9239 0.0000 0.3826
vn 0.8733 0.3492 0.3396
vn 0.8734 0.3492 0.3395
vn 0.3828 0.0000 0.9238
vn 0.3986 0.1595 0.9032
vn 0.3987 0.1595 0.9031
vn -0.3828 -0.0000 0.9238
vn -0.3986 -0.1597 0.9031
vn -0.3987 -0.1597 0.9031
vn -0.9239 -0.0000 0.3826
vn -0.8730 -0.3502 0.3394
vn -0.8731 -0.3502 0.3393
vn -0.3828 -0.0000 -0.9238
vn -0.3986 -0.1597 -0.9031
vn -0.3827 -0.0000 -0.9239
vn -0.9781 -0.2080 -0.0000
vn -0.3986 0.1597 -0.9031
vn -0.8730 0.3502 0.3394
vn -0.8731 0.3502 0.3393
vn -0.3986 0.1597 0.9031
vn -0.3987 0.1597 0.9031
vn 0.3986 -0.1595 0.9032
vn 0.3987 -0.1595 0.9031
vn 0.8734 -0.3492 0.3396
vn 0.8734 -0.3492 0.3395
vn 0.8734 -0.3492 -0.3396
vn 0.3986 -0.1595 -0.9032
vn -0.8730 0.3502 -0.3394
vn 0.7092 0.6814 -0.1810
vn 0.7064 0.6840 0.1821
vn 0.4915 0.4724 0.7316
vn -0.5021 -0.4714 0.7251
vn -0.4180 -0.0299 0.9080
vn -0.4233 -0.1050 0.8999
vn -0.4829 -0.2253 0.8462
vn 0.4182 0.0307 0.9078
vn 0.4249 0.1071 0.8989
vn 0.4836 0.2378 0.8424
vn 0.9349 0.0695 0.3481
vn 0.9146 0.2320 0.3311
vn 0.8638 0.4335 0.2568
vn 0.9349 0.0687 -0.3481
vn 0.9148 0.2306 -0.3317
vn 0.8670 0.4262 -0.2582
vn 0.7012 -0.6789 -0.2175
vn 0.7039 -0.6763 0.2171
vn 0.4392 -0.4123 0.7982
vn -0.4373 0.3970 0.8070
vn -0.4156 0.0289 0.9091
vn -0.4131 0.1008 0.9051
vn -0.4128 0.1819 0.8925
vn 0.4156 -0.0297 0.9091
vn 0.4147 -0.1029 0.9041
vn 0.4150 -0.1936 0.8890
vn 0.9340 -0.0686 0.3506
vn 0.9118 -0.2297 0.3404
vn 0.8527 -0.4191 0.3119
vn 0.9340 -0.0694 -0.3505
vn 0.9114 -0.2312 -0.3403
vn 0.8492 -0.4261 -0.3119
vn 0.5021 0.4713 -0.7251
vn -0.7353 -0.6559 0.1705
vn -0.7353 -0.6559 -0.1705
vn -0.5172 -0.4697 -0.7155
vn -0.4180 -0.0291 -0.9080
vn -0.4237 -0.1034 -0.8999
vn -0.4857 -0.2141 -0.8475
vn -0.9351 -0.0644 -0.3486
vn -0.9157 -0.2221 -0.3348
vn -0.8854 -0.3808 -0.2666
vn -0.9351 -0.0644 0.3486
vn -0.9158 -0.2221 0.3345
vn -0.8855 -0.3808 0.2662
vn 0.4182 0.0299 -0.9078
vn 0.4252 0.1055 -0.8989
vn 0.4860 0.2268 -0.8440
vn -0.8731 -0.3502 -0.3393
vn 0.4373 -0.4201 -0.7951
vn -0.7354 0.6559 0.1705
vn -0.7202 0.6540 -0.2314
vn -0.4346 0.4079 -0.8030
vn -0.4156 0.0297 -0.9091
vn -0.4130 0.1024 -0.9050
vn -0.4117 0.1920 -0.8909
vn -0.9342 0.0650 -0.3506
vn -0.9124 0.2226 -0.3435
vn -0.8659 0.3817 -0.3232
vn -0.9351 0.0644 0.3486
vn -0.9159 0.2220 0.3346
vn -0.8855 0.3807 0.2662
vn 0.4156 -0.0305 -0.9091
vn 0.4146 -0.1045 -0.9040
vn 0.4141 -0.2035 -0.8872
vn 0.3987 0.1595 -0.9031
vn 0.8734 0.3492 -0.3395
vn 0.9239 0.0000 0.3827
vn 0.3827 0.0000 0.9239
vn -0.3827 -0.0000 0.9239
vn -0.9239 -0.0000 0.3827
vn -0.3987 -0.1597 -0.9031
vn -0.3987 0.1597 -0.9031
vn 0.8734 -0.3492 -0.3395
vn 0.3987 -0.1595 -0.9031
vn -0.8731 0.3502 -0.3393
usemtl Bow_Texture
s 1
f 11/1/1 2/2/2 12/3/3
f 12/3/4 3/4/5 15/5/6
f 15/5/7 4/6/8 18/7/9
f 18/7/10 5/8/11 21/9/12
f 21/9/13 6/10/14 24/11/15
f 6/10/16 27/12/17 24/11/18
f 36/13/19 39/14/19 35/15/19
f 27/16/20 8/17/21 30/18/22
f 30/18/23 1/19/24 11/1/25
f 72/20/26 9/21/27 65/22/28
f 32/23/29 10/24/30 9/21/31
f 31/25/32 11/1/33 10/24/34
f 71/26/35 32/23/36 72/20/37
f 29/27/38 31/25/39 32/23/40
f 28/28/41 30/18/42 31/25/43
f 26/29/44 71/30/45 70/31/46
f 25/32/47 29/33/48 26/29/49
f 24/11/50 28/34/51 25/32/52
f 69/35/53 26/29/54 70/31/55
f 23/36/56 25/32/57 26/29/58
f 22/37/59 24/11/60 25/32/61
f 68/38/62 23/36/63 69/35/64
f 20/39/65 22/37/66 23/36/67
f 19/40/68 21/9/69 22/37/70
f 67/41/71 20/39/72 68/38/73
f 17/42/74 19/40/75 20/39/76
f 16/43/77 18/7/78 19/40/79
f 66/44/80 17/42/81 67/41/82
f 14/45/83 16/43/84 17/42/85
f 13/46/86 15/5/87 16/43/88
f 65/22/89 14/45/90 66/44/91
f 9/21/92 13/46/93 14/45/94
f 10/24/95 12/3/96 13/46/97
f 96/47/98 86/48/99 95/49/100
f 43/50/101 34/51/102 33/52/103
f 44/53/104 35/15/105 34/51/106
f 47/54/107 36/13/108 35/15/109
f 50/55/110 37/56/111 36/13/112
f 53/57/113 38/58/114 37/56/115
f 59/59/116 38/58/117 56/60/118
f 37/56/19 38/58/19 36/13/19
f 59/61/119 40/62/120 39/63/121
f 62/64/122 33/52/123 40/62/124
f 72/65/125 41/66/126 64/67/127
f 64/67/128 42/68/129 63/69/130
f 63/69/131 43/50/132 62/64/133
f 71/70/134 64/67/135 61/71/136
f 61/71/137 63/69/138 60/72/139
f 60/72/140 62/64/141 59/61/142
f 71/73/143 58/74/144 70/75/145
f 61/76/146 57/77/147 58/74/148
f 60/78/149 56/60/150 57/77/151
f 69/79/152 58/74/153 55/80/154
f 55/80/155 57/77/156 54/81/157
f 54/81/158 56/60/159 53/57/160
f 68/82/161 55/80/162 52/83/163
f 52/83/164 54/81/165 51/84/166
f 51/84/167 53/57/168 50/55/169
f 67/85/170 52/83/171 49/86/172
f 49/86/173 51/84/174 48/87/175
f 48/87/176 50/55/177 47/54/178
f 66/88/179 49/86/180 46/89/181
f 46/89/182 48/87/183 45/90/184
f 45/90/185 47/54/186 44/53/187
f 65/91/188 46/89/189 41/66/190
f 41/66/191 45/90/192 42/68/193
f 42/68/194 44/53/195 43/50/196
f 90/92/197 74/93/198 89/94/199
f 91/95/200 76/96/201 90/92/202
f 91/95/203 80/97/204 78/98/205
f 92/99/206 82/100/207 80/97/208
f 93/101/209 84/102/210 82/100/211
f 94/103/212 86/48/213 84/102/214
f 89/94/215 88/104/216 96/47/217
f 33/52/19 34/51/19 40/62/19
f 39/63/19 34/51/19 35/15/19
f 5/8/218 4/6/218 6/10/218
f 3/4/218 6/10/218 4/6/218
f 2/2/218 7/105/218 3/4/218
f 1/19/218 8/17/218 2/2/218
f 87/106/219 89/94/215 96/47/217
f 85/107/220 94/103/212 83/108/221
f 83/108/222 93/101/209 81/109/223
f 81/109/224 92/99/206 79/110/225
f 79/110/226 91/95/203 77/111/227
f 75/112/228 91/95/200 90/92/202
f 73/113/229 90/92/197 89/94/199
f 85/107/230 96/47/98 95/49/100
f 12/3/4 2/2/231 3/4/5
f 15/5/7 3/4/232 4/6/8
f 18/7/10 4/6/233 5/8/11
f 21/9/13 5/8/234 6/10/14
f 69/35/53 23/36/235 26/29/54
f 23/36/56 22/37/236 25/32/57
f 22/37/59 21/9/237 24/11/60
f 68/38/62 20/39/238 23/36/63
f 20/39/65 19/40/239 22/37/66
f 19/40/68 18/7/240 21/9/69
f 67/41/71 17/42/241 20/39/72
f 17/42/74 16/43/242 19/40/75
f 16/43/77 15/5/243 18/7/78
f 66/44/80 14/45/244 17/42/81
f 14/45/83 13/46/245 16/43/84
f 13/46/86 12/3/246 15/5/87
f 44/53/104 47/54/247 35/15/105
f 47/54/107 50/55/248 36/13/108
f 50/55/110 53/57/249 37/56/111
f 53/57/113 56/60/250 38/58/114
f 69/79/152 70/75/251 58/74/153
f 55/80/155 58/74/252 57/77/156
f 54/81/158 57/77/253 56/60/159
f 68/82/161 69/79/254 55/80/162
f 52/83/164 55/80/255 54/81/165
f 51/84/167 54/81/256 53/57/168
f 67/85/170 68/82/257 52/83/171
f 49/86/173 52/83/258 51/84/174
f 48/87/176 51/84/259 50/55/177
f 66/88/179 67/85/260 49/86/180
f 46/89/182 49/86/261 48/87/183
f 45/90/185 48/87/262 47/54/186
f 11/1/1 1/19/263 2/2/2
f 6/10/16 7/114/264 27/12/17
f 36/13/19 38/58/19 39/14/19
f 27/16/20 7/105/265 8/17/21
f 30/18/23 8/17/266 1/19/24
f 72/20/26 32/23/267 9/21/27
f 32/23/29 31/25/268 10/24/30
f 31/25/32 30/18/269 11/1/33
f 71/26/35 29/27/270 32/23/36
f 29/27/38 28/28/271 31/25/39
f 28/28/41 27/16/272 30/18/42
f 26/29/44 29/33/273 71/30/45
f 25/32/47 28/34/274 29/33/48
f 24/11/50 27/12/275 28/34/51
f 65/22/89 9/21/276 14/45/90
f 9/21/92 10/24/277 13/46/93
f 10/24/95 11/1/278 12/3/96
f 96/47/98 88/104/279 86/48/99
f 43/50/101 44/53/280 34/51/102
f 59/59/116 39/14/281 38/58/117
f 59/61/119 62/64/282 40/62/120
f 62/64/122 43/50/283 33/52/123
f 72/65/125 65/91/284 41/66/126
f 64/67/128 41/66/285 42/68/129
f 63/69/131 42/68/286 43/50/132
f 71/70/134 72/65/287 64/67/135
f 61/71/137 64/67/288 63/69/138
f 60/72/140 63/69/289 62/64/141
f 71/73/143 61/76/290 58/74/144
f 61/76/146 60/78/291 57/77/147
f 60/78/149 59/59/292 56/60/150
f 65/91/188 66/88/293 46/89/189
f 41/66/191 46/89/294 45/90/192
f 42/68/194 45/90/295 44/53/195
f 90/92/197 76/96/296 74/93/198
f 91/95/200 78/98/297 76/96/201
f 91/95/203 92/99/298 80/97/204
f 92/99/206 93/101/299 82/100/207
f 93/101/209 94/103/300 84/102/210
f 94/103/212 95/49/301 86/48/213
f 89/94/215 74/93/302 88/104/216
f 39/63/19 40/62/19 34/51/19
f 3/4/218 7/114/218 6/10/218
f 2/2/218 8/17/218 7/105/218
f 87/106/219 73/113/303 89/94/215
f 85/107/220 95/49/301 94/103/212
f 83/108/222 94/103/300 93/101/209
f 81/109/224 93/101/299 92/99/206
f 79/110/226 92/99/298 91/95/203
f 75/112/228 77/111/304 91/95/200
f 73/113/229 75/112/305 90/92/197
f 85/107/230 87/106/306 96/47/98
